<svg xmlns="http://www.w3.org/2000/svg" viewBox="0 0 463.7 504.42"><defs><style>.cls-1{opacity:0.31;}.cls-2{fill:#ff7bac;}.cls-3{opacity:0.2;}.cls-4{fill:#ed1e79;}.cls-5{opacity:0.54;}.cls-6{fill:gray;}</style></defs><title>Ресурс 1</title><g id="Слой_2" data-name="Слой 2"><g id="Слой_1-2" data-name="Слой 1"><g id="Annika"><path d="M205.15,241.19c2.22,16.45,2.76,33.1,5.12,49.53,3,21,8.16,42.72,28.3,53.49,19.28,10.3,44.47,14.16,65,5.44a52.26,52.26,0,0,0,22.18-17.38c6.5-9.11,8.63-20.11,9.24-31.09.85-15.27.36-30.7.43-46,0-4.19-.06-8.37-.11-12.56,0-2.18-.08-4.39.07-6.57.05-.79-.12-4-.54-1.89a.38.38,0,0,0,.55.42l.29-.18a.38.38,0,0,0-.38-.65c.47-.28.65-.14.83-.79.08-.29-.28-.63-.55-.42-2.51,1.92-1,10.38-1,13.07.23,10.41,0,20.83,0,31.24-.06,12.65.74,25.84-2.13,38.26a46.94,46.94,0,0,1-19,28.23C293.76,357.15,268,355.58,246.52,347c-11.62-4.63-21.11-11.86-26.78-23.21-4.82-9.64-6.82-20.45-8.4-31-2.57-17.19-3.13-34.61-5.46-51.82-.06-.48-.79-.27-.72.2Z"/><path d="M344.51,367.46a.38.38,0,0,0,0-.75.38.38,0,0,0,0,.75Z"/><path d="M283.87,278.21a20.94,20.94,0,0,0,18.5,10.22c4.42-.25,9.6-2.81,13.4-5,2.85-1.64,5.29-3.55,5.59-7,0-.48-.71-.48-.75,0-.64,7.39-16,12.14-21.89,10.82-6-1.36-11.2-4-14.19-9.46-.23-.42-.88,0-.65.38Z"/><path d="M321.12,276.82c.91.43,1.79.87,2.66,1.36a7.59,7.59,0,0,1,2.44,1.77c.26.4.91,0,.65-.38a3,3,0,0,0-.87-.88c-.44-.29-.86-.66-1.29-.93a31.87,31.87,0,0,0-3.2-1.59c-.43-.2-.82.44-.38.65Z"/><path d="M315.69,283.28a5.13,5.13,0,0,0,1,1.51,6.89,6.89,0,0,1,2.21,2.9.38.38,0,0,0,.72-.2,6.65,6.65,0,0,0-2.1-2.93,5,5,0,0,1-1.18-1.67c-.22-.43-.86-.05-.65.38Z"/><path d="M305.6,288.08c.61.35.55,1.39.66,2a12.8,12.8,0,0,0,.58,1.91,2.88,2.88,0,0,1,.29,1.13.38.38,0,0,0,.75,0,5,5,0,0,0-.45-1.71c-.28-.83-.39-1.65-.59-2.49a2.09,2.09,0,0,0-.87-1.46.38.38,0,0,0-.38.65Z"/><path d="M292.18,286.33a8,8,0,0,1-1.13,3,14.23,14.23,0,0,1-1.4,2.43c-.3.37.23.91.53.53a16.94,16.94,0,0,0,1.69-2.91,8,8,0,0,0,1.07-3c0-.48-.71-.48-.75,0Z"/><path d="M283.87,277.82a30.43,30.43,0,0,1-1.63,2.69,14.28,14.28,0,0,1-2.43,2.05c-.39.28,0,.93.38.65a15.4,15.4,0,0,0,2.58-2.17,31.2,31.2,0,0,0,1.75-2.84c.28-.39-.37-.77-.65-.38Z"/><path d="M259.89,281c-.58,3.24-5.52,5.49-8.27,6.6a29.07,29.07,0,0,1-10,2.13,19.32,19.32,0,0,1-10.22-2.16,74.58,74.58,0,0,1-7.29-5.74c-.45.17-.25.9.2.72l.25-.1a.38.38,0,0,0,.26-.46l-.07-.26a.38.38,0,0,0-.36-.28c-1.19.15-.7.73-.5,1.52.34,1.38,4.05,3.32,5.11,4a19.31,19.31,0,0,0,7.62,3.24,29.49,29.49,0,0,0,15.3-1.87c3.14-1.26,8.06-3.4,8.73-7.14.08-.47-.64-.67-.72-.2Z"/><path d="M260.13,281.46c.54-.07.85.63,1.21.91a6,6,0,0,1,1.25,1.17,8.92,8.92,0,0,1,1.56,2.66.38.38,0,0,0,.72-.2l-.19-.73a.38.38,0,0,0-.72.2l.19.73.72-.2a10.82,10.82,0,0,0-2-3.25c-.45-.57-1-.9-1.49-1.44a1.31,1.31,0,0,0-1.28-.59c-.47.06-.48.81,0,.75Z"/><path d="M219.28,284.86a7.21,7.21,0,0,0,2.25-1.22l2.76-1.84c.4-.27,0-.92-.38-.65l-2.44,1.62a8,8,0,0,1-2.39,1.36c-.47.11-.27.84.2.72Z"/><path d="M228.69,286.13c-.6,2.39-2.38,4.38-3.79,6.35-.28.39.37.77.65.38,1.45-2,3.24-4.06,3.86-6.53a.38.38,0,0,0-.72-.2Z"/><path d="M238.35,290.09q-.34,2.63-.93,5.21c-.11.47.62.67.72.2q.61-2.68,1-5.41c.06-.48-.69-.47-.75,0Z"/><path d="M251.27,288.24a21.56,21.56,0,0,1,1.4,4.61c.09.47.81.27.72-.2a22.36,22.36,0,0,0-1.48-4.79c-.19-.44-.84-.06-.65.38Z"/><path d="M268.63,310.34l0,1a.38.38,0,0,0,.47.36.81.81,0,0,0,.7-.81.38.38,0,0,0-.28-.36.71.71,0,0,0-.86.9c.15.45.88.26.72-.2l-.06,0-.28-.36-.15.09.47.36,0-1a.38.38,0,0,0-.75,0Z"/><path d="M274.77,311.58a3.66,3.66,0,0,0,1.09.63.38.38,0,0,0,.46-.26,2,2,0,0,0,0-1.23.38.38,0,0,0-.55-.22l-.9.57c-.41.26,0,.91.38.65l.9-.57-.55-.22a1.3,1.3,0,0,1,0,.84l.46-.26a2.57,2.57,0,0,1-.76-.44c-.37-.31-.9.22-.53.53Z"/><path d="M233.15,319.53c4.67,2.61,6.91,7.45,10.88,10.84,3.22,2.75,7.48,4.27,11.53,5.3,10.15,2.6,20.94,1.71,31-.68,7.59-1.8,15.82-4.8,20.34-11.58.94-1.41,7.44-15.34,1.46-11.87a.38.38,0,0,0,.19.7,2.08,2.08,0,0,1,2.51,1.22c.15.46.88.26.72-.2l-.5-1.49a.39.39,0,0,0-.36-.28c-1.9,0-.94,2.85-1.58,4.77a27.28,27.28,0,0,1-3.1,6.77,23.05,23.05,0,0,1-8.69,7.35c-7.28,3.77-16.26,5.37-24.34,5.94-8.47.59-17.79-.19-25.39-4.29-6-3.21-8.49-9.88-14.34-13.15-.42-.24-.8.41-.38.65Z"/><path d="M234.51,318a2.53,2.53,0,0,0-2.39,2.75c.06.47.79.49.75,0a1.59,1.59,0,0,1,1.22-1.7c.47-.12.27-.84-.2-.72a2.34,2.34,0,0,0-1.77,2.42h.75a1.78,1.78,0,0,1,1.64-2c.48,0,.48-.77,0-.75Z"/><path d="M246.61,261.45c1.73-.46,7.22-1.4,7.17-4.08,0-1.81-2-1.94-3.42-1.95-2,0-3.93,1.08-5.64,1.92a30.85,30.85,0,0,1-9.85,3.33c-2.08.26-6.61-1-7.29,1.65a.38.38,0,0,0,.26.46,42,42,0,0,0,9.09.5c3.07-.16,6-1.61,9.08-1.56a.38.38,0,0,0,0-.75c-3.63-.06-7.08,1.56-10.83,1.59-.61,0-5,.28-5.09-1,0,.3,4.55-.11,4.88-.15a27.09,27.09,0,0,0,7.84-2.31c1.15-.52,4.83-3.14,6.09-2.74,6.26,2-1.52,4.07-2.49,4.32a.38.38,0,0,0,.2.72Z"/><path d="M304.92,254.48a25.1,25.1,0,0,1-12.07-.18c-2.31-.63-4.34-1.56-6.74-1.27a.39.39,0,0,0-.37.38c-.49,4.56,4.07,5,7.6,5.27,6,.4,13.28.52,18.84-2.21a.38.38,0,0,0,.08-.59c-1.56-1.36-8.61-2.14-9.82-.22-.26.41.39.79.65.38s7-.42,7-.35c.23,1.86-5.48,2-5.61,2-3.14.35-10,1.5-12.93.1q-5.72-5.18-1.69-3.64l1.42.45a32.09,32.09,0,0,0,5.66,1.31,27,27,0,0,0,8.24-.7c.47-.1.27-.82-.2-.72Z"/><path d="M267.64,353.35c.71,4.9,1.22,9.81,1.45,14.76.27,5.74,1.14,11.56-3.8,15.54-6.46,5.2-14.92,8.94-22,13.2a.38.38,0,0,0,.38.65c5.29-3.17,10.54-6.39,15.91-9.44,3-1.73,6.53-3.31,8.68-6.19,2.5-3.35,1.84-8,1.71-11.9a153.76,153.76,0,0,0-1.56-16.83c-.07-.48-.79-.27-.72.2Z"/><path d="M283.81,354.05c2,7.18-1.42,14-.13,21.11.94,5.14,6,6.57,9.78,9.38a167.87,167.87,0,0,1,31.83,31c.28.36.75-.1.59-.45l-.53-1.19c-.2-.44-.84-.06-.65.38-2.3-5.19-8.17-10-12.34-14-4.71-4.51-9.55-8.94-14.52-13.16a66.24,66.24,0,0,0-5.37-4.19c-4.71-3.24-8-4.22-8.13-11.25-.12-6.14,1.88-11.71.19-17.82a.38.38,0,0,0-.72.2Z"/><path d="M243.92,396.91c2.25,12.29,21.87,16.27,32.11,16.37,13,.12,26.13-5.14,33.69-16.07.28-.4-.37-.77-.65-.38C302,407,289.92,412.19,277.72,412.51a48.35,48.35,0,0,1-17.33-2.75c-6.19-2.19-14.44-5.88-15.75-13.05-.09-.47-.81-.27-.72.2Z"/><path d="M243.83,396.17c-8.43,8.93-21,13.12-30.76,20.46a47.78,47.78,0,0,0-10.56,10.68,32,32,0,0,0-2.95,5.19c-.58,1.31-2.39,9.46-4,9.13-.47-.1-.67.62-.2.72,2.92.62,2.9-3.62,3.41-5.53,1.84-6.91,6.54-12.71,11.87-17.31,10.25-8.83,24.36-12.94,33.68-22.82.33-.35-.2-.88-.53-.53Z"/><path d="M324.42,413.21c7.47,7.47,14.74,15.19,17.6,25.66s2.12,22.27,2.49,33.09c0,.48.77.48.75,0-.39-11.44.52-23.95-3-35-3.15-9.82-10.16-17.17-17.29-24.3a.38.38,0,0,0-.53.53Z"/><path d="M312.77,212.95c-7.93.75-13.78,5.83-19.52,10.9-3.61,3.19-7.27,6.5-11.6,8.69-6.68,3.39-14,3-21.13,1.74-10.13-1.78-19.61-4.52-30-2.95a52.11,52.11,0,0,0-26.86,12.77.36.36,0,0,0-.1.36c5,12.39,4.38,24.77-.15,37.15-2.51,6.85-3.85,13.63,2.67,18.53,3.25,2.45,7.3,3.77,10.32,6.56,5.49,5.07,3.23,12.12,3.71,18.62.3,4,2,7.38,3.82,10.91,3.84,7.49,4,13.6.05,21.1-2.66,5.05-5.89,9.85-8.86,14.72-3.28,5.37-6.37,12.05-12,15.32-11.28,6.53-24.94-2.85-33.18-10.22a166.79,166.79,0,0,1-39.07-52.29c-3.76-7.88-5.69-19.56-14.27-23.76s-19.78-2.92-29.1-2.66c-11.65.33-24.69,0-34.12-7.86-9.87-8.28-9.56-21.72-6-33,6.62-21.15,21.57-39.09,37-54.5,16.5-16.5,34.39-31.68,51.74-47.27L265.86,39.21a.37.37,0,0,0,.1-.36c-4.08-15.37-24.57.19-30.49,5.44a81.29,81.29,0,0,0-24.61,40.3c-4.71,18-5.88,37.67-21.19,50.47a47.75,47.75,0,0,1-25.41,10.79,42.31,42.31,0,0,1-12.56-.49c-6.72-1.33-9.64-6.46-9.35-13,.78-17.44,18-28,22.13-44.14,1.3-5-.3-10.16-5.76-11.46-6.62-1.58-13.78,2.11-19.9,4A150.82,150.82,0,0,1,124,84.48c-5.15,1-11,2.61-16.29,1.41-14.08-3.22-.7-21.79,4.4-27.72a63.78,63.78,0,0,1,45.78-22.06c8.68-.35,17.52.45,26.09-1.28,6.24-1.26,15-4.74,17-11.54s-6.56-9.73-11.71-10.65A28.91,28.91,0,0,0,166.89,18c-.38.28,0,.94.38.65A28.21,28.21,0,0,1,183.36,13c6.66-.2,22.53,3.09,15,13.42-6.88,9.41-21.83,8.83-32.15,8.87-9.51,0-18.66.51-27.68,3.8A65.5,65.5,0,0,0,116.13,52.9c-6.3,5.94-12.82,14.09-15.06,22.6-2,7.6,3.48,11.5,10.56,11.49,11.31,0,23.14-4.08,33.74-7.64,4.19-1.41,9.28-3.12,13.69-1.74,9.73,3,3.38,14.9,0,20.47C154.35,106,148,113,144.28,121.51c-2.8,6.4-5,16.84,1.18,22.07,5.6,4.71,16.46,3.68,23.08,2.36a48.52,48.52,0,0,0,22.72-11.29c16.35-14.59,15.59-36.9,22.2-56.2A79.45,79.45,0,0,1,231.59,49a78.51,78.51,0,0,1,11.51-9.8,54.34,54.34,0,0,1,6.66-4.1,16.18,16.18,0,0,1,6-1.86c2.63-.25,7.72.33,8.69,3.58,1,3.41-4.52,6.7-6.5,8.49l-6.67,6-15.57,14L206,92l-60.8,54.62c-18.54,16.65-37.46,33-55.49,50.18-15.46,14.75-30.15,31-39.15,50.64C43.08,263.69,39.66,285.71,59,295c8.93,4.3,18.85,4.46,28.55,4.19,12.85-.36,30.27-2.72,36.48,11.41,4.52,10.27,8.69,20.39,14.59,30a168.21,168.21,0,0,0,19,25.34c9.84,10.8,29.29,31.68,45.9,22.07,3.68-2.13,6.12-5.64,8.35-9.16,3.62-5.73,7.13-11.55,10.62-17.36,2.48-4.14,5.08-8.63,5.49-13.55.37-4.46-1.38-8.22-3.36-12.08-3-5.89-3.85-10.38-3.64-16.92.13-3.89,0-7.79-2.39-11-2.24-3-5.85-4.61-9-6.44-6.64-3.88-8.91-9-6.53-16.57,1.72-5.49,3.94-10.56,4.64-16.35a48.35,48.35,0,0,0-.57-15.06c-.47-2.4-2.05-5.21-2.16-7.59-.16-3.44,4.13-5.31,6.72-6.9a50.85,50.85,0,0,1,17.5-6.69c12-2.19,22.89,1.69,34.67,3.25,9.24,1.23,17-.68,24.31-6.4,7.67-6,14.29-14.5,24.62-15.47.48,0,.48-.8,0-.75Z"/><path d="M202.74,36.66c-5.26,2.07-7.78,7.76-6.63,13.22,1.48,7,8.82,11,15.45,11.6,11,1.07,21.89-5,31.94-8.59,11.64-4.19,24.22-7.52,36.59-4.69,6.06,1.38,12.72,4.34,16.05,9.9C300.49,65.34,294.78,72,291,78c-5,7.8-12.87,16.91-13.3,26.65-.86,19.42,26.12,17.88,38.45,15,10.7-2.46,20.85-6.74,31.33-9.93a96.41,96.41,0,0,1,35.41-4.14c12.66.92,25.06,4,37.1,7.94,5.62,1.82,11.22,3.78,16.73,5.93,7.67,3,11.77,6.74,14.75,14.5,2,5.18,4.09,10.79,3.92,16.42-.22,7.4-5.44,12.41-10.68,16.92-9.43,8.13-19.16,15.93-29.06,23.47A595.72,595.72,0,0,1,357.32,230c-3.91,2.3-14.19,9.2-7.47,14.59,3.24,2.61,8.69-.19,12.38.45,7.56,1.31,13.31,7.83,11.5,15.71-1.49,6.47-6.68,11.79-10.21,17.22a148.23,148.23,0,0,0-9.37,16.89c-5.35,11.18-9.6,22.84-13.83,34.48-.17.45.56.65.72.2,4-11,8-22.08,13-32.71,4.75-10.16,11-18.93,16.93-28.36,3.81-6,5.87-13.54.51-19.35a16.25,16.25,0,0,0-7.84-4.59,16,16,0,0,0-4.6-.5c-.68,0-1.34.16-2,.2-4.37.28-10.06-2-7.57-7,2.37-4.79,10.13-7.67,14.5-10.31q7.81-4.73,15.46-9.72Q394,207.72,408,197.41q12.91-9.51,25.34-19.65c7.13-5.82,17.45-12.13,21.34-20.84,3.71-8.31-.21-18.54-3.71-26.26-3.84-8.46-11-10.88-19.26-13.89-21.32-7.78-44.2-14.37-67.12-11.6-21.78,2.63-41.44,15.64-63.64,15.61-12,0-26-6.17-21.65-20.72C282.68,88.6,292.19,80,297.17,69.32c3.68-7.88-1.27-14.94-8.29-18.71-8.93-4.8-19.72-5-29.46-3.11-13,2.47-24.56,9.09-37.3,12.21-7.39,1.81-16.18,1.77-21.93-4-5.27-5.31-4.85-15.31,2.75-18.31.44-.18.25-.9-.2-.72Z"/><path d="M206.19,241.24c-4.55,4-10.78,7.93-17.11,7.91-5.06,0-9.2-3.47-8.88-8.78.26-4.24,3.09-7.68,6-10.53,4.54-4.46,9.44-8.59,14.16-12.86,4-3.61,8.56-7.1,11.49-11.69s3.85-14-2.92-16.3c0,0-2.09-.93-1.74-.51-.19-.22-.2.67.11.53,1.56-.72,3-.82,4.56-1.73a14.67,14.67,0,0,0,6.38-8,.38.38,0,0,0-.17-.42,3.43,3.43,0,0,0-4.85,1.57.38.38,0,0,0,.65.38q4-.3,1.93,1.85a10.37,10.37,0,0,1-2.72,2.83,13.61,13.61,0,0,1-7.2,3,.38.38,0,0,0,0,.75c8.92.21,8.51,11.06,4.87,16.39-3.05,4.47-7.7,7.95-11.68,11.54-4.27,3.86-8.64,7.65-12.82,11.62-2.76,2.63-5.45,5.57-6.43,9.36-1.37,5.28,1.08,10.49,6.61,11.6,7.26,1.46,15.11-3.34,20.26-7.92.36-.32-.17-.85-.53-.53Z"/><g class="cls-1"><path class="cls-2" d="M183.62,35.75c2.92,0,.12-.36-.76-.59l1.22.7q-1.76-1.37.1.46l3-23.56c-42.08,24.46-86.07,45.34-130,66.15l15.14,25.9A1705.42,1705.42,0,0,1,243.12,29.74L228.53,4.67A497.86,497.86,0,0,1,159.48,52a15.28,15.28,0,0,0-6.89,16.94c1.85,6.72,7.83,10.45,14.46,11a123.77,123.77,0,0,0,36.57-2.64L189,52.2c-22.75,18.66-52.26,30-80.09,40.56l8,28.93c57.31-23.06,115.07-46.16,176-57.57L281.39,36.7Q205.82,73.3,133,115.16c-14.43,8.29-4.89,32.87,11.56,27.42l85.58-28.37L218.56,86.79,53.26,196.31C47.06,200.42,44,208,47.13,215c2.72,6.18,10.67,11.53,17.7,8.68,34.46-14,67-31.8,100.15-48.52C197.15,159,228.12,145,263.91,137.64l-14.59-25.07C238,125.06,224.16,136.3,211.52,146q-22.26,17-44.93,33.48-45.73,33.2-93.07,64.1-26.65,17.39-53.77,34a15.28,15.28,0,0,0-5.38,20.52c4.25,7.27,13.32,9.16,20.52,5.38A1955.62,1955.62,0,0,1,287.71,192.58c24.09-8.59,49.72-18.22,74.63-20.41l-7.57-28c-66.71,32.65-133.48,65.34-197.83,102.5q-27.5,15.88-54.29,32.92C95.81,284,93.06,293,97.26,300.16c4,6.9,13.59,9.63,20.52,5.38,85-52.08,176.35-92.39,265-137.63,24.79-12.65,49.37-25.71,73.55-39.49a15.23,15.23,0,0,0,5.38-20.52c-4.29-7.33-13.28-9.07-20.52-5.38a190,190,0,0,0-49,36c-10.26,10.44,0,29.52,14.59,25.07l40.69-12.41-14.59-25.07c-25.79,20.47-58.24,35.28-88.73,49.33-6.69,3.09-8.88,12.49-6.14,18.73,2.82,6.43,10.52,11.19,17.7,8.68L372.54,197,361,169.6a136.67,136.67,0,0,0-36.3,33.94c-6.95,9.24,2.47,22.86,13,22.57-3.52.1-6.6-3.06-8.21-5.61q-.51-1.49-.15-.26t0-.29q-.21-1.84-.17.33l.11-1.72.44-1.17q-.55,1-1.19,2c-3.09,4.84-6.21,9.1-7.67,14.81-2.81,11,7.28,21.6,18.45,18.45,3.49-1,3.74-1,8-.58l-13-22.57c-7.56,11-4.14,24.34-4.92,36.72a63.73,63.73,0,0,1-2.64,14.75,68.33,68.33,0,0,1-6.28,15.62l25.9,15.14a1024.33,1024.33,0,0,0,75.52-204.48q6.53-26,11.66-52.34C436.57,39.21,446,10,423.48,4c-10.13-2.69-20.11,4.44-28.67,9q-11.47,6.14-22.68,12.77-21.65,12.82-42.18,27.41a629.07,629.07,0,0,0-88.37,75.85C230,141.07,245,162,259.75,152.66c42.72-26.87,85.68-53.84,134.08-67.15l-16.94-22a491.37,491.37,0,0,1-100,99.13c-6.52,4.78-9.77,13-5.38,20.52S284.65,192,292,188.5l55-25.81-15.14-25.9A549.84,549.84,0,0,1,160,203.71l16.94,22c6.07-11.16,13.55-19,23.62-28,10.23-9.18,21.05-17.68,31.34-26.79a656,656,0,0,0,62-62.89c4.39-5.09,5.89-12.13,2.35-18.18A15.26,15.26,0,0,0,279.3,83a438.61,438.61,0,0,0-63.24,24.21l18.18,23.56c8.34-8.78,17.46-16.71,26.63-24.61L237.31,87.94a794.85,794.85,0,0,1-72,91.93,837,837,0,0,1-85.93,82.19c-17.07,14.14-33,26.25-51.44,39.13-6.63,4.64-9.71,13.13-5.38,20.52,3.89,6.65,13.78,9.94,20.52,5.38,37.06-25.06,76-47,115-68.92a15,15,0,0,0,6.14-18.73c-3.08-7-10.22-10.37-17.7-8.68a182.27,182.27,0,0,0-42,15.3l20.52,20.52c7.5-11.24,19.22-21.5,28.19-32.84,10.35-13.09,17.88-27.42,18.83-44.38.61-10.94-13.37-19.28-22.57-13q-52,35.75-100.42,76.44c-5.65,4.75-5.47,14.3-1.17,19.7s13.06,8.13,19.35,3.86a1072.94,1072.94,0,0,0,108.54-84.2c5.54-4.9,5.56-14.19,1.17-19.7s-13.21-8.31-19.35-3.86a502.6,502.6,0,0,0-98.93,94c-4.22,5.3-6,12-2.35,18.18a15.28,15.28,0,0,0,16.94,6.89l48.41-13.81c3.48-1,6.94-2.08,10.45-2.94q-2.93.27-.31.13-5.21-.19-4.87-7.52c-4.14-9.3-2.55-8.16-6.21-2.79l-14,20.51c-4.16,6.11-1.74,15.16,3.86,19.35,6.42,4.79,13.68,3.63,19.7-1.17a143.17,143.17,0,0,1,38.06-21l-16.94-22a157.67,157.67,0,0,1-26.17,38c-5.52,5.92-5.87,15.34,0,21.21s15.18,5.44,21.21,0a175.83,175.83,0,0,1,46.6-29.87l-18.18-23.56-42.15,54.44c-5,6.4-6.24,15,0,21.21,6,6,15.12,5.38,21.21,0a164.28,164.28,0,0,1,39.3-25.41l-20.52-20.52-29.39,39.81c-8.85,12,8.56,28.91,20.52,20.52l25.32-17.75-22-16.94a53.27,53.27,0,0,1-6,16.17,15.35,15.35,0,0,0,2.35,18.18c4.33,4.33,12.94,6.29,18.18,2.35a300.69,300.69,0,0,0,33.9-29.41l-25.07-14.59a55.56,55.56,0,0,1-6.86,13.3c-3.71,5.44-2.12,13.71,2.35,18.18s12.91,6.26,18.18,2.35l7.16-5.31-22.57-13c-.19,4.5.71-2.38-.28,2l-.43,1.46q.75-1.48,0-.08c-1.55,3.16-1.38,2.58-3.7,4.68-12.57,11.34,3.84,32.84,18.18,23.56l10.7-6.93-20.52-20.52-8.9,14.9A15.28,15.28,0,0,0,186.22,363c5,5,12,5.11,18.18,2.35l12.11-5.44L196,339.37a100.56,100.56,0,0,1-12.2,15,15.27,15.27,0,0,0,0,21.21c5.68,5.68,15.55,5.84,21.21,0a149.06,149.06,0,0,0,16.89-21.06c3.66-5.49,2.16-13.68-2.35-18.18-5-5-12-5.11-18.18-2.35l-12.11,5.44L209.78,360l8.9-14.9c7.5-12.56-7.74-28.79-20.52-20.52l-10.7,6.93L205.63,355c8.37-7.55,12.7-18.14,13.16-29.28.44-10.58-13.4-19.76-22.57-13l-7.16,5.31,20.52,20.52a82.83,82.83,0,0,0,9.89-20.46c4.84-14.45-14.9-24.95-25.07-14.59a263.11,263.11,0,0,1-27.83,24.72l20.52,20.52a85.9,85.9,0,0,0,9-23.33c1.3-5.92-.4-12-5.38-15.77-4.5-3.36-11.71-4.64-16.66-1.17l-25.32,17.75,20.52,20.52L198.68,307c3.89-5.27,2-13.84-2.35-18.18-5-5-12.08-5.2-18.18-2.35a190.82,190.82,0,0,0-45.38,30.1L154,337.79l42.15-54.44c4.58-5.91,6.22-13.36,1.17-19.7s-12.31-7-19.35-3.86a199.49,199.49,0,0,0-52.67,34.56l21.21,21.21a189.48,189.48,0,0,0,30.86-44c2.73-5.44,2.75-11.73-1.17-16.66-3.52-4.42-10.07-7.4-15.77-5.38a175.28,175.28,0,0,0-51.3,28.72l23.56,18.18L141.83,283c3.22-4.73,7.08-9.4,9.28-14.7,6-14.43-5.67-27.94-20.51-27.19-10.64.54-21.61,5.18-31.78,8.09l-33.51,9.56,14.59,25.07c26.82-33.7,58.8-64.61,92.86-89.27L154.59,171A1008.75,1008.75,0,0,1,52.11,250.52l18.18,23.56c30.36-25.5,61.63-49.26,94.35-71.75l-22.57-13a40.72,40.72,0,0,1-4.24,13.91,75.4,75.4,0,0,1-10,14.38c-9.7,11.2-20.36,21.39-28.63,33.78-3.66,5.49-2.15,13.68,2.35,18.18,4.9,4.9,12.19,5.37,18.18,2.35a147.94,147.94,0,0,1,34.83-12.28l-11.56-27.42c-39,21.9-78,43.87-115,68.92l15.14,25.9A851.43,851.43,0,0,0,221.44,160q22-27.63,41.78-56.91c4.13-6.13,1.76-15.15-3.86-19.35-6.25-4.67-13.88-3.83-19.7,1.17-9.17,7.89-18.29,15.83-26.63,24.61a15.05,15.05,0,0,0-1.17,19.7c4.91,6.16,12.4,7.14,19.35,3.86a387.64,387.64,0,0,1,56.07-21.18L272.68,86.82a655.74,655.74,0,0,1-63.36,64.11c-20.86,18.36-44.69,34.71-58.27,59.68-6.49,11.93,4.17,24.69,16.94,22A579.09,579.09,0,0,0,347,162.69a15.27,15.27,0,0,0,5.38-20.52c-4.4-7.51-13.16-8.83-20.52-5.38l-55,25.81L292,188.5A526.29,526.29,0,0,0,402.8,78.61c3.5-4.69,2.17-12.46-1.17-16.66a15.1,15.1,0,0,0-15.77-5.38c-51.2,14.07-96.7,42.16-141.25,70.17l18.18,23.56A587.83,587.83,0,0,1,410.71,38.55c3.25-1.73,7-3.14,10-5.21,2.83-1.95,5,.4-5-3.07-12.46-4.34-4.28-.13-7.27-4,0,0-.65-3.85-.11-.63.29,1.72.14.7.26-.6-.79,8.18-2.94,16.49-4.53,24.55q-4.84,24.49-10.9,48.72a1003,1003,0,0,1-29.32,96.38,962.94,962.94,0,0,1-43.41,101.83c-3.59,7.26-1.95,16.24,5.38,20.52,6.81,4,16.69,1.79,20.52-5.38a110.53,110.53,0,0,0,12.31-38.62,99.24,99.24,0,0,0,.76-17.26c-.13-2.8-.31-5.58-.29-8.39,0-2.5-.85,3,.1-1.17.62-2.77-.8.9,1-1.64,3-4.33,2.56-10.77,0-15.14-2.85-4.88-7.55-6.95-13-7.43a44.49,44.49,0,0,0-16,1.65l18.45,18.45c.21-.84.72-2,0-.62a23.47,23.47,0,0,1,1.57-2.59c1.12-1.72,2.39-3.33,3.46-5.09a27.65,27.65,0,0,0,4.32-15.32c-.46-11.76-8.95-22.76-21.47-22.42l13,22.57a102.9,102.9,0,0,1,25.54-23.17c6.27-4,9.19-11.79,6.14-18.73-2.82-6.43-10.52-11.19-17.7-8.68L347.77,174l11.56,27.42c33.25-15.33,66-31.14,94.8-54,5.12-4.07,5.42-12.92,2.35-18.18-3.28-5.61-10.61-8.82-16.94-6.89l-40.69,12.41,14.59,25.07a159.09,159.09,0,0,1,42.91-31.35l-15.14-25.9c-86.58,49.35-178.18,89-266.07,135.85-24.55,13.08-48.78,26.75-72.5,41.28l15.14,25.9c62.66-39.94,128.59-74.35,195.1-107.37q28.46-14.13,57-28c13.06-6.39,7.13-29.25-7.57-28-24.89,2.19-48.43,9.49-71.89,17.7q-33.06,11.57-65.69,24.3-67.5,26.34-133,57.41-36.34,17.25-72,36l15.14,25.9a2276.73,2276.73,0,0,0,188-128.72c16.67-12.69,33.55-25.35,47.63-41,10.25-11.36.17-28.13-14.59-25.07-36.14,7.48-70.15,22.59-103,39-16,8-31.87,16.43-47.86,24.54-15.75,8-33.12,16.39-48.22,22.52l11.56,27.42L233.7,112.7c6.2-4.11,9.24-11.68,6.14-18.73-2.86-6.51-10.48-11.08-17.7-8.68l-85.58,28.37,11.56,27.42q72.8-41.84,148.41-78.46c6.64-3.22,8.92-12.39,6.14-18.73-3.16-7.18-10.14-10.1-17.7-8.68-61,11.41-118.74,34.51-176,57.57-7.51,3-12.8,10-10.48,18.45,2,7.25,10.84,13.38,18.45,10.48,33-12.58,65.73-25.65,93.33-48.27,5.07-4.16,5.46-12.85,2.35-18.18-3.48-5.94-10.4-8.31-16.94-6.89A95.62,95.62,0,0,1,167,49.91l7.57,28a540,540,0,0,0,75.13-52c11.4-9.36-.84-30.24-14.59-25.07a1780.33,1780.33,0,0,0-178,78.1C50,82.57,47.9,92.75,51.81,99.44c4.38,7.5,13.17,8.86,20.52,5.38,44-20.81,88-41.69,130-66.15,8.7-5.05,9.44-16.46,3-23.56a29.22,29.22,0,0,0-21.78-9.36c-7.85,0-15.36,6.9-15,15s6.59,15,15,15Z"/></g><g class="cls-1"><path class="cls-2" d="M15,374.09c7.85,0,15.36-6.9,15-15s-6.59-15-15-15c-7.85,0-15.36,6.9-15,15s6.59,15,15,15Z"/></g><g class="cls-3"><path class="cls-4" d="M233.33,319.85a4.62,4.62,0,0,0-2-5.27c-1.43-1-3.19-.1-4.1,1.08-3,3.84.39,8.5,4.86,8.09a6.78,6.78,0,0,0,5.93-8.37c-1.05-3.9-5.76-6.67-9.51-4.49-4,2.35-3.72,8-.62,10.92A7.57,7.57,0,0,0,233,324c2.4-.09,4.22-2.26,5-4.34,1.51-3.92-.44-9.41-5.17-9.63-4-.19-8.41,3.13-8.38,7.36,0,4.44,4,7.07,7.81,8.18,2.41.7,5.09.85,6.9-1.2a9.28,9.28,0,0,0,1.77-6.77c-.48-4.62-5.31-8.05-9.65-5.55-3.35,1.93-.33,7.11,3,5.18.06,0,0-.24.31.09a1.91,1.91,0,0,1,.37,1.46c0,.38-.52,1.68-.13,1.43s-1.25-.49-1.61-.61c-.84-.28-2.89-1-2.8-2.21,0-.56,1.55-1.71,2.08-1.39-.18-.11,0,1,0,1.08s-.51,1.31-.61,1.17q1.59-.11.42-.53a2.4,2.4,0,0,1-.67-.58c-.2-.3-.44-.81-.19-1.16-.21.3-.2,0,.1.2s.71.6.61,1c0,.14-.43.34-.47.48a.47.47,0,0,1-.38.06q.37,2.1,1,.89l-4.1,1.08-.73-1.51c-1.09,3.71,4.7,5.3,5.79,1.6Z"/></g><g class="cls-3"><path class="cls-4" d="M314,307.78a6.1,6.1,0,0,0-3.46-3.35,4.41,4.41,0,0,0-5,1.71c-2,3.07.46,7.59,3,9.51,3.2,2.37,7.47-1.17,8.38-4.39a5.2,5.2,0,0,0-5.07-6.76,5.8,5.8,0,0,0-5.34,7.16c.69,3.42,4.08,5.7,7.44,5.91,8.83.54,5.91-13.49-.78-14.91-3.65-.77-8.57,2.48-9.22,6.16-.88,5,4.28,7,8.23,7.5,1.61.21,3-1.53,3-3a3.08,3.08,0,0,0-3-3c-.56-.07-1.93-.17-2.28-.68.15.22-.42.45.2,0,.32-.22.63-.46,1-.66.88-.54.81-.71,1.47,0a5.66,5.66,0,0,1,1,2.51c.05.21,0,.62,0,.64l.71-.57a5.46,5.46,0,0,1-.65-.18c-.26-.19-.61-.19-.86-.44-.09-.09-.32-.51-.37-.53s-.15-.32,0-.2l-.5.24q.42.09-.28-.53c-.68-.51-.21-.58-.8.09a3.29,3.29,0,0,1-1.17.83l1.51-.41h-.43l1.51.41a3.21,3.21,0,0,1-1.33-2.73l-.41,1.51.08-.16-1.32.77q-1.38-1-.84-.2a6.56,6.56,0,0,1,.39.73c1.74,3.45,6.92.41,5.18-3Z"/></g><g class="cls-3"><path class="cls-4" d="M250.52,256.51a11.57,11.57,0,0,0-4.69,1.15c-1.14.53-.33,2.51.87,2.06-.34.13,2-.8,2-.77v-1.59c-4.17,4-12.48,2.06-17.83,3.61a1.13,1.13,0,0,0,0,2.17c2.54.65,4.68.1,7.07-.93a26.83,26.83,0,0,1,5.9-1.83,6.87,6.87,0,0,0,2.87-1,1.13,1.13,0,0,0-.87-2.06c-1.23.36-.94.52-2,1.18-1.88,1.17-3.13,2.21-5.41,2.58-1.43.23-.82,2.4.6,2.17a12.31,12.31,0,0,0,4.2-1.21c1.15-.65,2-2.19,3.21-2.55l-.87-2.06c-1.55,1-4.18,1-6,1.61-2.76,1-5,2.75-8.16,1.95v2.17c5.89-1.71,14,.35,18.82-4.19a1.14,1.14,0,0,0,0-1.59c-1.58-1.62-2.37-.52-4.22.19l.87,2.06a6.94,6.94,0,0,1,3.55-.84c1.44-.05,1.45-2.3,0-2.25Z"/></g><g class="cls-3"><path class="cls-4" d="M289,255q1.2,1.13,1.9-.24l-1.36,1.77a22.9,22.9,0,0,0,5.79,2.29,1.13,1.13,0,0,0,.6-2.17l-2.74-1.12-.6,2.17c2,.83,6.82,2.44,7.73-.6a1.14,1.14,0,0,0-.52-1.27c-2.55-1.39-6.8-1.6-8.61.92a1.13,1.13,0,0,0,.4,1.54c3.07,1.48,7.34.33,10.69.5a1.13,1.13,0,0,0,1.08-1.42,2.15,2.15,0,0,0-2.44-1.76,1.13,1.13,0,0,0,0,2.25,73.15,73.15,0,0,0,9.4,0c1.44-.09,1.45-2.34,0-2.25a73.15,73.15,0,0,1-9.4,0v2.25l.27.11,1.08-1.42c-2.56-.13-7.24.93-9.55-.19l.4,1.54c.79-1.11,2.55-.16,3.38-1q1.27-.7-.77-.6a6.53,6.53,0,0,1-2.56-.76c-1.34-.55-1.92,1.63-.6,2.17l2.74,1.12.6-2.17a21.12,21.12,0,0,1-5.25-2.07,1.13,1.13,0,0,0-1.36,1.77c1.06,1.2,3.78,2.77,4.6.41s-2.77-3.29-4.31-3.93c-1.34-.55-1.92,1.62-.6,2.17Z"/></g><g class="cls-3"><path class="cls-4" d="M289.27,257.63l4,.49c1.29.16,1.48-1.87.3-2.21a5.88,5.88,0,0,1-3.76-2.45l-1,1.69c5.37.54,7.49,5.69,13.25,3.31a1.15,1.15,0,0,0,.67-1.65c-1.78-3.3-5,.41-7.55-1l-.87,2.06,1.73.24c1,.13,2-1,1.09-1.88l-.88-.76a1.15,1.15,0,0,0-1.59,0,13,13,0,0,1-1.28,1.26,1.14,1.14,0,0,0,.5,1.88c1.84.62,3-1,4.66-1.62,3.23-1.24,7.45-.57,10.84-.52l-.57-2.1a10.79,10.79,0,0,1-8.28,2c-1.42-.21-2,2-.6,2.17a13.11,13.11,0,0,0,10-2.27,1.13,1.13,0,0,0-.57-2.1,64.52,64.52,0,0,0-9.11,0,11.93,11.93,0,0,0-2.5.54c-.66.24-2.65,1.85-3.29,1.63l.5,1.88a13,13,0,0,0,1.28-1.26h-1.59l.88.76,1.09-1.88-1.73-.24c-1.16-.16-2.1,1.39-.87,2.06a4.17,4.17,0,0,0,2.59.69c.73,0,3.69-1.37,4.15-.52l.67-1.65c-4.63,1.91-8.15-2.93-12.65-3.39-.9-.09-1.33,1-1,1.69,1.12,2.12,2.87,2.84,5.11,3.49l.3-2.21-4-.49c-1.43-.18-1.42,2.07,0,2.25Z"/></g><g class="cls-3"><path class="cls-4" d="M230.29,263c3.31,1.25,5.62.82,8.95-.32,1.09-.37,10.28-4.78,10.73-4.43l-.18-1.36c-1.18,2-4.07,2.28-6.1,2.26l.8,1.92a6.55,6.55,0,0,1,3.35-2.57c1.32-.54.74-2.72-.6-2.17a9.81,9.81,0,0,0-4.34,3.15,1.14,1.14,0,0,0,.8,1.92c2.87,0,6.45-.73,8-3.38a1.13,1.13,0,0,0-.18-1.36c-1.9-1.49-3.54,0-5.52.9-4.53,2.08-10.22,5.13-15.14,3.27-1.36-.51-1.94,1.66-.6,2.17Z"/></g><g class="cls-5"><path class="cls-6" d="M200.1,483a108,108,0,0,1,15.1-39.84c7.69-12.11,20.79-18.17,30.58-28.43l-16.49-2.13c9.4,16,27.66,19.11,44.74,19.3s34.58-2.1,44.54-17.55l-19.19-2.51a60.36,60.36,0,0,0,8.86,17.4c3.14,4.18,8,6.56,13.11,4.3a10.57,10.57,0,0,0,6.08-12.39,25.73,25.73,0,0,0-5.72-10.71L309,427c3.13,2,6.54,4.06,8.93,7,2.67,3.28,3.31,7.89,4,11.93A80.47,80.47,0,0,1,323,460.46c0,2.15-.11,4.3-.28,6.44-.12,1.45-.95,1.12-.1.93.24-.05,3.52-1.62.61-1.21l13.29,10.12q-1.47,3.75,0,1.28.71-.94,1.38-1.9a16.52,16.52,0,0,0,2-4.52,14.5,14.5,0,0,0-3.2-13.34c-5.93-6.47-15.12-6.15-23.19-6.62-17.61-1-35.58-.89-52.52,4.61-11.35,3.68-9.15,20,2.79,20.62a94.55,94.55,0,0,0,25.88-2.27c7.92-1.81,16.64-5.46,16.3-15.11-.69-19.81-34.05-14.49-46-11.74-5,1.16-8.26,6.6-7.52,11.52.84,5.56,5,8.45,10.31,9.1a71.17,71.17,0,0,0,23.09-1.08c7.17-1.48,17.35-4.12,21.83-10.35a12.29,12.29,0,0,0,.85-13.65c-2.4-4.1-6.7-5.33-11.1-5.9a81.39,81.39,0,0,0-26.23,1.13c-10.23,2-9.79,18,0,20.25a77.12,77.12,0,0,0,26,1.83c9-1,20.89-2.58,23.54-12.93,6-23.48-34.18-16.12-45.64-13.61-5,1.1-8.25,6.64-7.52,11.52.84,5.59,5,8.41,10.31,9.1a72.9,72.9,0,0,0,33.72-3.7c10.25-3.66,9.6-16.36,0-20.25-11.18-4.53-25-.84-36.47.93-12.13,1.88-24.18,4.19-36.23,6.49-5.07,1-8.24,6.75-7.52,11.52.83,5.54,5,8.49,10.31,9.1a102.59,102.59,0,0,0,41.78-4c11.34-3.48,9.17-20.27-2.79-20.62A235.45,235.45,0,0,0,234,437.69c-11.57,2-9,21.63,2.79,20.62,9.15-.78,17.66-2,26-5.94,8.2-3.89,5.9-17.2-2.51-19.19a84.91,84.91,0,0,0-30.91-1.79c-5.62.75-10.5,4.29-10.5,10.5a10.66,10.66,0,0,0,10.5,10.5q14.73.47,29.47.52c9,0,19.18,1.14,27.23-3.7,7.22-4.34,6.72-17.46-2.51-19.19a90.74,90.74,0,0,0-39.74,1.12c-8.69,2.23-10.35,14.8-2.51,19.19a23.26,23.26,0,0,0,23.91-.28c7.13-4.4,6.78-17.44-2.51-19.19a85.06,85.06,0,0,0-30.75-.21c-11.74,2-8.89,21,2.79,20.62,7-.2,13.85-2.92,18.32-8.5s3.93-16-4.63-17.55c-8-1.49-15.78-.53-22.71,3.93a10.56,10.56,0,0,0-4.3,13.11c2.28,5.2,7,6.82,12.39,6.08,7.18-1,11.69-6.39,14.23-12.71,3.25-8.09-6-14.27-12.92-12.92a35.71,35.71,0,0,0-17.49,9.23c-3.4,3.14-3.93,8.82-1.64,12.72,2.52,4.3,7.21,5.58,11.86,4.83,8.6-1.4,13.91-9.25,14.27-17.5.42-9.38-11.62-13.47-17.92-7.42l-64.61,61.94c-6.45,6.19-1.66,18.23,7.42,17.92,17.9-.61,32.07-12,41.43-26.54,6.66-10.38-7.94-20.51-16.49-12.72-5.68,5.17-12,12.29-14.19,19.83-3.22,10.92,8.24,18.89,18,15.61,7.49-2.51,14.55-8.12,20.52-13.13A96.86,96.86,0,0,0,232.18,470c5.44-7.47-3.57-18.07-11.86-15.42a67.83,67.83,0,0,0-25.82,15.06c-6.88,6.38-1.34,17.72,7.42,17.92,14.84.35,45.52-2.54,42.51-23.47-.82-5.71-8-8.58-12.92-7.33-10.77,2.72-29.32,15.54-17.1,27.76,9,9,27.22,4,37.31-.43,6.58-2.89,12.86-7.95,10.64-16-2-7.39-10.1-9.61-16.84-9.08a45.87,45.87,0,0,0-31.61,15.76c-5.12,6.07-3.31,15,4.63,17.55,15.25,4.81,44.63,5.09,46.93-15.89.59-5.39-5.29-10.86-10.5-10.5A75.47,75.47,0,0,0,221.59,476c-4.79,2.81-6.78,9.53-3.77,14.37,4.51,7.24,12.62,8.47,19.91,4.67,4.76-2.49,9-4.61,14.4-5.65a41.57,41.57,0,0,1,29.08,5.37l5.3-19.57a105.47,105.47,0,0,1-40.14-3.06l2.51,19.19c6.81-4.76,14.48-6.6,22.51-8.27q13.41-2.8,27-4.79A462.07,462.07,0,0,1,354,473.63l-10.12-7.71.21,1.35v-5.58l-.35,1.33,2.7-4.63-.85,1.08c-3.77,4.8-4.63,13.31,2.13,16.49,4.8,2.26,8.63,2.45,13.39-.06,6.27-3.31,6.45-11.69,2.13-16.49-9.15-10.16-23.2-12.2-35.54-16.33q-2.57-.86-5.11-1.79c-1.1-.4-4.16-2.21-5.07-1.92l-.37-.13q2.51,6.73,2.31,2.56a15.43,15.43,0,0,0-.37-5.44c-2-9-10.59-10.6-18.11-13.43-11-4.15-18.94,14.28-8.09,19.19l14.48,6.55,7.24,3.28c1.4.63,4.54,1.43,5.6,2.47l-2.7-4.63c-.19-.58,0,2.17,0,2.35a18.53,18.53,0,0,0,1.92,6.43c1.79,4.2,7.8,5.94,11.86,4.83A10.81,10.81,0,0,0,339,453.27a14.22,14.22,0,0,1,1.11-4.58l-17.55,4.63a10,10,0,0,1,2.55,11.34c-.25.59-1.83,2.37-.49,1.59-.87.51-2.53.22-3.49.17-3.58-.19-7.13-.82-10.71-1-15.49-.92-31.4,2.07-44.73,10.23-8.57,5.25-5.42,20,5.3,19.57l48.73-1.82-2.79-20.62-2.94.79c-13,3.51-7.5,23.78,5.58,20.25l2.94-.79c11.25-3,9.24-21.07-2.79-20.62L271,474.17l5.3,19.57a51.46,51.46,0,0,1,24-7.37,88.72,88.72,0,0,1,14.33.36c5,.51,9.87,1.27,14.84,0,20.84-5.54,21.78-35.28,8-48.2-6.1-5.71-14.8-2.79-17.55,4.63A33.26,33.26,0,0,0,318,453.27l19.57-5.3-.48-1.13,1.43,5.3c-.14-3.63.17-7.12-1.77-10.45-2.36-4-6.57-5.65-10.59-7.47L303.54,424l-8.09,19.19,10,3.75-6.28-4.83c-1.26-2.49-.64-1.23-.65.37a21.08,21.08,0,0,0,.4,4.76,15.25,15.25,0,0,0,4.47,7.84c4.54,4.24,12.19,6,18,8,8.75,3,20.65,4,27.13,11.22l2.13-16.49-.88.47,5.3-1.43-1,0,5.3,1.43-.91-.43,2.13,16.49c3.7-4.71,4.61-8,3.68-14-.69-4.39-5.91-7.82-10.12-7.71A508,508,0,0,0,292.79,458c-17.92,2.66-39.27,4.54-54.51,15.18-7.17,5-6.69,16.65,2.51,19.19a121.59,121.59,0,0,0,45.72,3.81c4.67-.52,8.8-2.9,10.12-7.71a10.74,10.74,0,0,0-4.83-11.86,62.87,62.87,0,0,0-49.76-6.38,67.76,67.76,0,0,0-9,3.48c-1.17.54-2.32,1.11-3.45,1.73l-1.34.77q-2.47,1.36.43,0l5.3,1.43-1.14-.61,3.77,3.77-.66-1.06-3.77,14.37A51.84,51.84,0,0,1,255,486.89l-10.5-10.5-.14,1.24,1.43-5.3c.21-.48,0,.06-1.33.39a33.67,33.67,0,0,1-6.71,1.15A37.48,37.48,0,0,1,224.13,472l4.63,17.55a27.05,27.05,0,0,1,9.69-7.67,25.63,25.63,0,0,1,4.62-1.49,21,21,0,0,1,2.44-.45q.75-.08,1.51-.09,2.78.1-2.22-1.62l-3.08-7.42,0,.94,3.08-7.42c-2.27,2-7.49,2.79-10.35,3.3a33,33,0,0,1-5,.49q-1.75,0-3.5,0,3.37,1.32,1.22-.08l3.77,3.77-.51-.8,1.43,5.3V477l-2.7,4.63a14.58,14.58,0,0,1,8-4.6l-12.92-7.33.16,1.11v-5.58q3.36-3.56,1.45-2.6-1.7.64-3.43,1.18a68.86,68.86,0,0,1-7,1.81,59.87,59.87,0,0,1-13.42,1l7.42,17.92a43.6,43.6,0,0,1,16.55-9.66L214,459.4a74.93,74.93,0,0,1-11.95,12.68,61.9,61.9,0,0,1-6.25,4.65q-2,1.33-4.12,2.53l-1.41.79q-3.61,1.57,1.71.52l4.63,2.7-1-.8,2.7,4.63-.45-1.16v5.58q-.94,1.27-.11-.12.57-1.1,1.21-2.16c.61-1,1.26-2.07,2-3a43.08,43.08,0,0,1,5.87-6.22l-16.49-12.72c-5.18,8.08-13.19,15.8-23.29,16.14l7.42,17.92L239.1,439.4,221.17,432c.08-1.86,4-3.21,1.14-2.75l10.22,17.55a15.38,15.38,0,0,1,8.23-3.83L227.84,430c.61-1.53,2.73-2.27.44-2l8.09,19.19c2.05-1.32,4-2.27,6.53-1.81l-4.63-17.55c-1.21,1.51-1.78,2.3-3.48,2.35l2.79,20.62a55.8,55.8,0,0,1,19.59.21l-2.51-19.19c-1.34.82-1.34,1.05-2.71.28l-2.51,19.19A65.82,65.82,0,0,1,278,450.27l-2.51-19.19c-2.11,1.27-5.34.79-7.79.81q-6.39,0-12.77,0-12.77-.08-25.54-.5v21a69,69,0,0,1,25.33,1l-2.51-19.19c-4.76,2.26-10.27,2.63-15.44,3.07l2.79,20.62a207.46,207.46,0,0,1,41.17-2.72L278,434.59a87.31,87.31,0,0,1-36.2,3.21l2.79,20.62c10.78-2.06,21.57-4.13,32.41-5.89,8.83-1.43,20.57-5,29.13-1.54V430.76a59.08,59.08,0,0,1-28.13,3l2.79,20.62a87.77,87.77,0,0,1,14-2q3.76-.21,7.53-.13,1.88,0,3.77.15,3.24,0,1,.25l-4.63-2.7.68.81-2.7-4.63.23,1.06v-5.58l2.67-3.24-1.75.44a28.67,28.67,0,0,0-3.53.72,50,50,0,0,1-7.06.58,56.07,56.07,0,0,1-14.17-1.51V458.8a56.55,56.55,0,0,1,10-1.06c1.85,0,3.69,0,5.54.14.91.06,3.7.95,1.8-.2l-4.83-6.28.36,1v-5.58l-.39,1,2.7-4.63c-2.19,2.37-9.8,3.61-13.41,4.2a56,56,0,0,1-15.83,0L265.57,468a64.64,64.64,0,0,1,12.93-1.71c2.18-.06,4.36,0,6.54.11q1.87.11,3.72.32,2,.79-2.3-1.93L285,459.5l0,1.1,1.43-5.3q5.36-3.38,1.17-1.81-1.72.48-3.47.88c-2,.45-4,.87-6,1.14a77.77,77.77,0,0,1-14.28.38l2.79,20.62c12.3-4,24.89-4.68,37.75-4.28,5.24.16,13,1.4,17.08.9,2-.25,1.84,2.81-.37-3.71-1.61-4.74-1-4.58-2.7-2a16.1,16.1,0,0,0-2.85,9.32c.1,7.5,6.6,11.08,13.29,10.12,18-2.55,15.93-27.52,14.26-40.38-1-7.81-2.33-16.14-6.8-22.84-4.24-6.35-10.42-10.72-16.73-14.83-4.34-2.83-10.57-1.28-13.55,2.7-3.33,4.45-2.59,9.63.82,13.79-.24-.29,2.4,10.13.32,1.44l19.19-8.09a43.39,43.39,0,0,1-6.74-12.39,10.64,10.64,0,0,0-19.19-2.51c-5.27,8.17-18,7.25-26.41,7.15-9.07-.1-21.37,0-26.6-8.9-3.36-5.71-11.79-7-16.49-2.13-5.47,5.73-11.49,10.06-17.85,14.7-6.67,4.88-11.61,11-16,18a123.81,123.81,0,0,0-17.21,44.86c-1,5.58,1.49,11.31,7.33,12.92,5.06,1.39,11.94-1.72,12.92-7.33Z"/></g></g></g></g></svg>