<svg xmlns="http://www.w3.org/2000/svg" viewBox="0 0 40.86 77.29"><defs><style>.cls-1{opacity:0.39;}.cls-2{fill:#c685c6;}</style></defs><title>arrow_right1</title><g id="Слой_2" data-name="Слой 2"><g id="Слой_1-2" data-name="Слой 1"><path d="M17.62,5.55a14.36,14.36,0,0,0-10-5,.77.77,0,0,0-.72.55C4.47,7.16,5.35,14,6.1,20.27A158,158,0,0,1,7.53,45.44c-.18,4.62-.57,9.23-1,13.83C6.14,62.63,5,66.53,5.38,69.87,5.61,72,7.29,77.1,9.93,77.29s6.17-5.19,7.69-7c3.28-3.91,6.4-8,9.46-12,3.22-4.28,6.37-8.62,9.34-13.08,1.43-2.14,3.74-4.85,4.3-7.44,1.07-4.9-4.09-8.39-7.08-11.24-6.37-6.08-10.33-14.27-16-20.94-.63-.74-1.68.33-1.06,1.06C22.12,13.13,26,21.12,32.14,27.14c4,3.91,9.06,7.27,5.63,13.12-5.59,9.53-12.64,18.47-19.61,27-2.61,3.2-8.8,12.23-11,3.79-.92-3.58.4-8.13.79-11.8C8.53,54,9,48.74,9.1,43.46c.23-8.66-.87-17-1.77-25.58C6.88,13.66,6.43,9.2,7.25,5c1.06-5.48,7-1,9.31,1.62.65.72,1.7-.34,1.06-1.06Z"/><g class="cls-1"><path class="cls-2" d="M5.75,16.62a127.78,127.78,0,0,1-.77,32C4.23,53.35,3,58,2.36,62.81c-.5,3.6-1.51,9.48,1.41,12.4,6.63,6.63,14.59-6.88,17.87-11A163,163,0,0,0,38.52,39.31a4.6,4.6,0,0,0-.7-5.45A67,67,0,0,1,21.37,10.69C20,7.38,19.12,3.51,16,1.36c-2.92-2-7.37-1.88-9.76.92C3.38,5.63,3.46,11.9,2.85,16,2.1,21.14,1.47,26.25,1,31.37a259.15,259.15,0,0,0-.77,34.1c.11,2.69,2.82,5.4,5.7,4.34C13.57,67,12,57,12.42,50.35l1.72-29.91L5.3,21.64,10,47.4c.94,5.11,8.77,3.74,8.84-1.2.09-6.3-1.06-12.42-2.35-18.56L8.29,31.11a31.31,31.31,0,0,1,4.25,10.07l8.68-2.39A52.86,52.86,0,0,1,18.87,27l-8.39,2.27a38.47,38.47,0,0,0,6.87,9.18c3.37,3.35,8.32-.13,7.52-4.38a19.06,19.06,0,0,0-5.56-10.28c-3.87-3.84-9,1-7.07,5.45,1.38,3.17,12.34,17.17,5.12,19.28l4.38,7.52A47.4,47.4,0,0,0,31,38c1.34-5.19-5.32-7.46-8.22-3.47A84.81,84.81,0,0,0,11.88,55c-2,5.46,6.6,7.71,8.68,2.39l5.11-13.05c1.85-4.71-6.06-8.08-8.22-3.47L11.12,54.31a4.5,4.5,0,0,0,7.77,4.54l1.48-2.07c3.38-4.71-4.42-9.21-7.77-4.54l-1.48,2.07,7.77,4.54,6.32-13.46L17,41.92,11.88,55l8.68,2.39A76.49,76.49,0,0,1,30.52,39l-8.22-3.47A37,37,0,0,1,15.38,49.7c-2.62,3.26-.31,8.89,4.38,7.52,6-1.74,9-7.31,8.83-13.31-.17-7.36-5.77-12.78-8.57-19.19L13,30.17a10.94,10.94,0,0,1,3.25,6.31l7.52-4.38a30.39,30.39,0,0,1-5.47-7.36c-2-3.8-8.74-2.22-8.39,2.27a63.75,63.75,0,0,0,2.66,14.17c1.73,5.53,10,3.26,8.68-2.39a38.7,38.7,0,0,0-5.15-12.22A4.52,4.52,0,0,0,7.83,30a73,73,0,0,1,2,16.17L18.7,45,14,19.25c-1-5.22-8.56-3.62-8.84,1.2L3.92,41.67l-.56,9.65c-.07,1.28-.7,10.14.18,9.81l5.7,4.34a251.36,251.36,0,0,1,3.18-52.65q.24-1.4.49-2.8,1.36-3.54-1.65-.58c-.16.58,1.43,3.68,1.64,4.19a74.17,74.17,0,0,0,4.76,9.64,76.41,76.41,0,0,0,13.79,17l-.7-5.45A137.61,137.61,0,0,1,19.56,52.3c-2.12,2.85-4.33,5.63-6.57,8.39-1.93,2.38-4.33,6.6-7.2,7.85l3.47-.45-1.11-.39,3.14,3.14c-1.36-4.18.34-9.25,1.17-13.4.89-4.41,1.62-8.84,2.13-13.31a131.83,131.83,0,0,0,.16-27.51c-.55-5.72-9.55-5.77-9,0Z"/></g></g></g></svg>