<svg xmlns="http://www.w3.org/2000/svg" viewBox="0 0 40.42 77.08"><defs><style>.cls-1{opacity:0.39;}.cls-2{fill:#3939b7;}</style></defs><title>arrow_left</title><g id="Слой_2" data-name="Слой 2"><g id="Слой_1-2" data-name="Слой 1"><path d="M23.41,71.78a14.36,14.36,0,0,0,10.06,5,.77.77,0,0,0,.72-.55c2.36-6.08,1.44-12.88.66-19.18a158,158,0,0,1-1.56-25.16c.16-4.62.52-9.23,1-13.83.33-3.37,1.44-7.27,1.05-10.61-.25-2.12-2-7.22-4.59-7.4s-6.15,5.23-7.65,7c-3.25,3.93-6.36,8-9.4,12.09-3.19,4.3-6.33,8.66-9.27,13.13C3,34.41.69,37.12.14,39.72c-1,4.9,4.13,8.37,7.13,11.2,6.4,6,10.41,14.22,16.14,20.86.63.73,1.69-.33,1.06-1.06-5.6-6.49-9.52-14.46-15.69-20.45-4-3.9-9.1-7.21-5.7-13.08,5.54-9.56,12.54-18.54,19.46-27.12,2.59-3.22,8.73-12.28,10.94-3.85.94,3.58-.36,8.13-.72,11.8-.52,5.26-.91,10.53-1,15.81-.19,8.66,1,17,1.91,25.57.47,4.23.94,8.68.15,12.9-1,5.49-7,1-9.32-1.57-.65-.72-1.71.35-1.06,1.06Z"/><g class="cls-1"><path class="cls-2" d="M13.21,32.38c-4-.11-6,2.48-6.4,6.16h9l-.2-3.87c-.16-3.15-3.79-5.95-6.77-3.89C6,32.73,4.42,35.2,4.71,38.72L8,34.38l-4.35.9c-3.15.65-4.55,5.4-2,7.52A99.7,99.7,0,0,1,27.34,74.94c2.26,4.47,10.16,1.3,8.22-3.47-2.89-7.09-7.74-12.19-13.34-17.28-4.34-3.95-10,2-6.36,6.36A60.9,60.9,0,0,0,32.49,74.4a4.54,4.54,0,0,0,6.61-2.69c2.33-10.09.95-21.7.55-32C39.2,28.37,38.31,17,37.05,5.7c-.39-3.46-4.88-6.46-7.68-3.18L15.27,19c-3.65,4.26-9.45,9-10.47,14.8-.62,3.49,3.07,7.52,6.61,5.08l12-8.24-6.16-6.16a57.57,57.57,0,0,0-6.54,16.64c-1,4.69,6.06,8.37,8.22,3.47l9-20.27-8.22-1.07A95.94,95.94,0,0,1,20.74,46h9l0-18.08c0-5.94-8.34-5.6-9,0a43.8,43.8,0,0,0,4.95,25.79c2.35,4.5,9.76,1.41,8.22-3.47L31.67,43c-1.49-4.74-8.89-4-8.84,1.2l.06,6.24,8.39-2.27-2.18-3.66c-3-5-10.75-.45-7.77,4.54l2.18,3.66c2.26,3.79,8.43,2.24,8.39-2.27l-.06-6.24L23,45.42l2.27,7.24,8.22-3.47a35.6,35.6,0,0,1-3.72-21.25h-9l0,18.08c0,5.84,8.62,5.73,9,0a105.86,105.86,0,0,0-1.41-25.19c-.63-3.66-6.69-4.54-8.22-1.07L11.13,40l8.22,3.47A49.63,49.63,0,0,1,25,29c2.16-3.71-2.33-8.79-6.16-6.16l-12,8.24,6.61,5.08c.46-2.61,2.8-4.58,4.48-6.54l6.13-7.15L35.73,8.89,28.05,5.7c1.19,10.67,2.05,21.36,2.51,32.09q.34,7.8.41,15.6c0,5.17.61,10.86-.56,15.93L37,66.63a53.91,53.91,0,0,1-14.8-12.45l-6.36,6.36c4.25,3.87,8.81,7.87,11,13.31l8.22-3.47A106,106,0,0,0,8,36.44L6.05,44l4.35-.9a4.51,4.51,0,0,0,3.3-4.34l-.31-.16L6.62,34.67l.2,3.87c.3,5.88,8.41,5.69,9,0l.1-1L14.6,40.73l.79-.69-3.18,1.32,1,0c5.79.16,5.79-8.84,0-9Z"/></g></g></g></svg>