<svg xmlns="http://www.w3.org/2000/svg" viewBox="0 0 40.33 77.1"><defs><style>.cls-1{opacity:0.39;}.cls-2{fill:#3939b7;}</style></defs><title>arrow_right</title><g id="Слой_2" data-name="Слой 2"><g id="Слой_1-2" data-name="Слой 1"><path d="M17.08,5.35a14.36,14.36,0,0,0-10-5,.77.77,0,0,0-.72.55C3.93,7,4.82,13.77,5.57,20.08A158,158,0,0,1,7,45.24c-.18,4.62-.57,9.23-1,13.83-.35,3.36-1.48,7.26-1.11,10.6.24,2.12,1.91,7.23,4.55,7.42s6.17-5.19,7.69-7c3.28-3.91,6.4-8,9.46-12,3.22-4.28,6.37-8.62,9.34-13.08,1.43-2.14,3.74-4.85,4.3-7.44,1.07-4.9-4.09-8.39-7.08-11.24C26.74,20.22,22.78,12,17.08,5.35c-.63-.74-1.68.33-1.06,1.06,5.56,6.52,9.44,14.51,15.58,20.53,4,3.91,9.06,7.27,5.63,13.12-5.59,9.53-12.64,18.47-19.61,27-2.61,3.2-8.8,12.23-11,3.79-.92-3.58.4-8.13.79-11.8.55-5.25,1-10.52,1.11-15.81.23-8.66-.87-17-1.77-25.58C6.35,13.46,5.9,9,6.71,4.79c1.06-5.48,7-1,9.31,1.62.65.72,1.7-.34,1.06-1.06Z"/><g class="cls-1"><path class="cls-2" d="M27.09,44.81c4,.13,6-2.48,6.4-6.15h-9l.18,3.87c.14,3.17,3.8,5.92,6.77,3.89,2.82-1.93,4.44-4.41,4.16-7.93l-3.3,4.34L36.66,42c3.18-.64,4.52-5.4,2-7.52A99.69,99.69,0,0,1,13.15,2.16C10.92-2.33,3,.85,4.93,5.62,7.77,12.73,12.62,17.85,18.18,23c4.33,4,10-2,6.36-6.36A60.89,60.89,0,0,0,8,2.67,4.54,4.54,0,0,0,1.39,5.36C-1,15.43.33,27.06.68,37.33c.38,11.38,1.21,22.73,2.41,34.05.37,3.49,4.87,6.43,7.68,3.18L25,58.19c3.68-4.25,9.48-9,10.54-14.75.64-3.51-3.08-7.49-6.61-5.08l-12,8.17L23,52.68a57.59,57.59,0,0,0,6.62-16.61c1.07-4.7-6-8.34-8.22-3.47L12.35,52.83l8.22,1.07a96,96,0,0,1-1-22.8h-9L10.5,49.18c0,6,8.31,5.58,9,0a43.78,43.78,0,0,0-4.82-25.81c-2.34-4.52-9.72-1.4-8.22,3.47l2.23,7.25c1.47,4.77,8.86,4,8.84-1.2l0-6.24L9.11,28.92l2.16,3.67c2.94,5,10.72.46,7.77-4.54l-2.16-3.67c-2.25-3.83-8.4-2.21-8.39,2.27l0,6.24,8.84-1.2-2.23-7.25L6.9,27.91A35.62,35.62,0,0,1,10.5,49.18h9l.12-18.08c0-5.85-8.59-5.72-9,0A105.82,105.82,0,0,0,11.9,56.3c.61,3.68,6.68,4.51,8.22,1.07l9.08-20.23L21,33.68a49.62,49.62,0,0,1-5.72,14.46c-2.19,3.72,2.34,8.76,6.16,6.16l12-8.17L26.81,41c-.47,2.6-2.84,4.57-4.52,6.51l-6.17,7.12L4.41,68.2l7.68,3.18C11,60.71,10.16,50,9.75,39.28q-.3-7.8-.33-15.6c0-5.18-.55-10.86.65-15.92L3.46,10.44A53.93,53.93,0,0,1,18.18,23l6.36-6.36C20.31,12.71,15.8,8.7,13.61,3.23L5.38,6.7a106,106,0,0,0,26.9,34.1l2-7.52-4.35.88a4.51,4.51,0,0,0-3.3,4.34l.29.15,6.77,3.89-.18-3.87c-.27-5.89-8.39-5.67-9,0l-.11,1,1.32-3.18-.79.69,3.18-1.32-1,0c-5.79-.19-5.79,8.81,0,9Z"/></g></g></g></svg>