<svg xmlns="http://www.w3.org/2000/svg" viewBox="0 0 256.38 108.73"><defs><style>.cls-1{fill:#ccc;}.cls-2{fill:#4d4d4d;}.cls-3{fill:#fff;}.cls-4{fill:#333;}.cls-5{opacity:0.34;}</style></defs><title>Asset 10</title><g id="Layer_2" data-name="Layer 2"><g id="Layer_2-2" data-name="Layer 2"><path class="cls-1" d="M42.85,35.83q45.85.89,91.69-.91A347.66,347.66,0,0,1,86.68,108C71.18,86.65,40.43,35.84,42.43,35.84"/><path class="cls-2" d="M42.85,36.58q45.85.86,91.69-.91l-.65-1.13a354,354,0,0,1-23.11,40.28q-6.44,9.67-13.52,18.89-3.75,4.89-7.68,9.64c-.3.37-2.51,3.56-2.79,3.54s-2-2.75-2.19-3.09C73,87.19,62.26,69.89,52,52.44c-2.13-3.62-4.25-7.25-6.24-10.94-.63-1.16-1.27-2.32-1.83-3.52-.64-1.39-.35-1.74-1.28-1.42.91-.31.52-1.76-.4-1.45C39.67,36,54.13,59,55.2,60.76,65,76.92,75,93.06,86,108.36a.76.76,0,0,0,1.18.15,355,355,0,0,0,48-73.22.76.76,0,0,0-.65-1.13q-45.82,1.77-91.69.91a.75.75,0,0,0,0,1.5Z"/><path class="cls-3" d="M86.95,41.46c5.7-1.73,12.15,4.3,10.8,10.1s-9.8,8.37-14.15,4.3-2.35-12.67,3.35-14.4"/><path class="cls-2" d="M87.15,42.18a8.4,8.4,0,0,1,9.92,6.57c.8,4.38-2.93,7.72-7,8.25C81,58.2,79.16,45,87.15,42.18c.9-.32.51-1.77-.4-1.45-9.89,3.52-7.17,19.63,4,17.7,4.63-.81,8.62-4.77,7.84-9.71a9.9,9.9,0,0,0-11.82-8c-.94.23-.54,1.68.4,1.45Z"/><path class="cls-2" d="M90.71,30.06c15.09-3.53,30.81-6.15,45.48-11.16,13.69-4.68,26.79-11.59,40-17.54.88-.4.12-1.69-.76-1.3-13.6,6.14-27.21,13.45-41.44,18s-29.15,7.17-43.65,10.56c-.94.22-.54,1.67.4,1.45Z"/><path class="cls-2" d="M91,27.63c-8.12.71-15.48-3.28-23.51-3.35-7.42-.06-14.65,2.65-22.1,2.91-8.43.3-17.34.07-25.52-2.1a84.4,84.4,0,0,1-13.07-5C5,19.32,2.94,18.76,2,16.81c-1.1-2.31-.25-6.93.21-9.27C2.41,6.59,1,6.19.78,7.14c-.63,3.22-1.39,7.61,0,10.71,1.05,2.33,3.8,2.93,6,3.93a73.13,73.13,0,0,0,26.83,6.73,116.62,116.62,0,0,0,27.31-2C71.45,24.6,80.66,30,91,29.13c1-.08,1-1.58,0-1.5Z"/><path class="cls-2" d="M88.68,33.51l-.3,7.55c0,1,1.45,1,1.5,0a32.26,32.26,0,0,1,1-6.32l-1.47-.2c.1,1.14.18,2.29.2,3.43q0,1,0,2.06c0,.19,0,2-.15,1.06-.23-2.15,1-5,1.64-7.07l-1.47-.2q-.52,4.47-1.18,8.92c-.14.94,1.3,1.35,1.45.4q.7-4.65,1.24-9.32c.1-.87-1.23-1-1.47-.2a45,45,0,0,0-1.76,7c-.15,1,0,2.43,1.27,2.7,3.2.7,1.89-7.32,1.76-8.79-.07-.8-1.25-1.07-1.47-.2a34.29,34.29,0,0,0-1,6.71h1.5l.3-7.55c0-1-1.46-1-1.5,0Z"/><path class="cls-4" d="M89.21,33.43a.75.75,0,0,0,0-1.5.75.75,0,0,0,0,1.5Z"/><path class="cls-2" d="M88.94,29.63c-.58,1-.88,2.59.56,3a1.27,1.27,0,0,0,1.35-.42,1.94,1.94,0,0,0,.33-.64,2.69,2.69,0,0,0,.1-.37c.05-.28.13-.1,0-.07l-.92-.52a3,3,0,0,1-.21,2l1.18-.15a6.2,6.2,0,0,1-2.19-3.16l-.72.95,3.07-.32c1-.1,1-1.6,0-1.5l-3.07.32a.76.76,0,0,0-.72.95,7.54,7.54,0,0,0,2.58,3.82.76.76,0,0,0,1.18-.15,4.66,4.66,0,0,0,.36-3.12.77.77,0,0,0-.92-.52,1.29,1.29,0,0,0-1,1,3.64,3.64,0,0,0-.18.6c.14.2.23-.26.23-.24.12-.21.19-.44.32-.66a.75.75,0,0,0-1.3-.76Z"/><g class="cls-5"><path class="cls-4" d="M90.64,96.82c7.87-6.26,12.19-14.72,16.84-23.4a36.49,36.49,0,0,1,8.32-10.89c3.84-3.33,6.54-7.06,7.48-12.16,1-5.5-5.61-10.55-10-5.84-3.51,3.75-7.48,7.37-10.4,11.62-2.82,4.09-3.33,8.61-6.75,12.36-2.89,3.16-6.32,8.67-10.2,10.34s-8.3,3.27-7.59,8.67c.42,3.24,2.46,6,6,6,2.92,0,6.42-2.79,6-6,.22,1.68-3.68,3.22-.36,2.71a9.62,9.62,0,0,0,2.62-1.12,19.39,19.39,0,0,0,4.15-3.54c3.4-3.53,6.82-7.17,10-10.92,2.74-3.26,3.57-6.64,5.31-10.37,2-4.27,6.56-7.86,9.75-11.26l-10-5.84c-.91,5-4.8,6.69-7.93,10.22a51.27,51.27,0,0,0-6.65,10c-4.21,7.85-7.85,15.31-15,21-6,4.81,2.5,13.25,8.49,8.49Z"/></g><path class="cls-3" d="M254.93,40.17a1.5,1.5,0,0,0,0-3,1.5,1.5,0,0,0,0,3Z"/></g></g></svg>