<svg xmlns="http://www.w3.org/2000/svg" viewBox="0 0 249.06 260.14"><defs><style>.cls-1{opacity:0.95;}.cls-2{fill:#fff;}.cls-3{fill:#202020;}.cls-4,.cls-5{fill:none;stroke:#000;stroke-miterlimit:10;}.cls-5{stroke-width:0.25px;}</style></defs><title>cloud2</title><g id="Layer_2" data-name="Layer 2"><g id="Layer_1-2" data-name="Layer 1"><g class="cls-1"><path class="cls-2" d="M103.2,1.06a3.43,3.43,0,0,1,1.91,2c.76,2.14-1.41,4.84-4,5.06s-4.85-2-4.37-4.29,3.45-4,5.94-3.55"/><path class="cls-3" d="M102.63.4s0-.07,0-.06l0,.08Z"/><path class="cls-3" d="M102.42.21a.18.18,0,0,0-.09.18c0-.07.05,0,.11-.13a0,0,0,0,1,0,.06s.05,0,.08,0a.1.1,0,0,0-.16,0S102.42.23,102.42.21Z"/><path class="cls-3" d="M99,.8h0Z"/><path class="cls-3" d="M97.29,2.21s0,0,0,0S97.28,2.21,97.29,2.21Z"/><path class="cls-3" d="M97,2.48l0,0S97,2.47,97,2.48Z"/><path class="cls-3" d="M99,.8h-.07S99,.81,99,.8Z"/><path class="cls-3" d="M101.94.37l0,0h0Z"/><path class="cls-3" d="M99.86.33h0v0Z"/><path class="cls-3" d="M100.58.1s0,.07,0,.1a.07.07,0,0,1,0-.06Z"/><path class="cls-3" d="M101.78.08h0Z"/><path class="cls-3" d="M99.35.52l0,0Z"/><path class="cls-3" d="M103.74,1.74h0Z"/><polygon class="cls-3" points="103.21 1.04 103.22 1.04 103.24 1.01 103.21 1.04"/><path class="cls-3" d="M96.58,3.09h0S96.58,3.08,96.58,3.09Z"/><path class="cls-3" d="M99.63,8.25c-.06-.08.14-.05,0-.14S99.55,8.18,99.63,8.25Z"/><path class="cls-3" d="M101.92.36h0Z"/><polygon class="cls-3" points="99.67 8.1 99.67 8.1 99.66 8.09 99.67 8.1"/><path class="cls-3" d="M96.39,4.79l0,0Z"/><path class="cls-3" d="M96.58,3.55l0,0Z"/><path class="cls-3" d="M96.62,5.4s0,0,0,0h0S96.61,5.43,96.62,5.4Z"/><polygon class="cls-3" points="96.88 6.02 96.88 6 96.87 5.99 96.88 6.02"/><path class="cls-3" d="M104.81,3.08l0,0S104.77,3,104.81,3.08Z"/><path class="cls-3" d="M101.94.33s0,0,0,0h0A0,0,0,0,0,101.94.33Z"/><path class="cls-3" d="M97.16,5.26a.89.89,0,0,0,0,.09A.63.63,0,0,0,97.16,5.26Z"/><path class="cls-3" d="M103.48,6.76v0A0,0,0,0,0,103.48,6.76Z"/><path class="cls-3" d="M97.28,5.59a.14.14,0,0,0,0,.07h0Z"/><path class="cls-3" d="M104.86,3h0Z"/><path class="cls-3" d="M104.45,2.58c0,.07.1,0,.15,0s0,.08-.06.13.15,0,.17.09,0,0,0,0,.09.18.2.22l0,0L105,3s.08.05,0,.09,0,0-.05,0l0,0c-.07.06,0,0-.11,0s.14.14.14.21-.06-.13-.12,0v-.1c-.11.11,0-.06-.12.05s.08.12.08.24.07,0,.12,0-.19.17-.06.28.17,0,.12.13l-.1,0c0,.12.14.06.07.19,0,0,0-.1,0-.08S105,4,105,4H105a1.77,1.77,0,0,1,0,.42s0,0-.08,0a.87.87,0,0,1-.2.52l0,.09a0,0,0,0,1,0,0c-.05.05,0,0,.05.06a0,0,0,0,1-.07,0c0,.13,0,.38-.16.45v0c-.08.07.07.18,0,.22v0c-.15.16-.23.41-.43.46.06.09-.18.13-.08.24-.14,0-.13,0-.29.08s0,.11,0,.17l-.05-.06v.11l-.09,0,0,0a.06.06,0,0,1,.07,0,.19.19,0,0,1-.22.06l-.12.18s0-.06,0-.09c0,.13-.06-.05-.1.06s0,0,0,.06a.3.3,0,0,0-.22.11l0-.05c-.13.07-.25.18-.4.25.06,0,.09.08.05.11l-.05-.06c0,.06.06,0,0,.09s-.08-.06-.06-.1l-.06.06s0,0,0-.07-.15,0-.16.08v0c-.15.06-.21.11-.34.16s0,.07-.06.13a1.19,1.19,0,0,0-.34,0c-.08,0,0,.06,0,.11s-.14,0-.08-.09a1.6,1.6,0,0,0-.35.11s0,0,0,.06a.06.06,0,0,1-.08-.06h0c-.21.11-.47-.17-.63-.06h0l-.18.06c-.08,0,.05,0,0-.09s-.28-.07-.44,0c-.06-.22-.4-.1-.5-.28v0c-.05,0,0,0-.06-.06s0,.05,0,.07a2,2,0,0,1-.84-.61c-.09-.09-.2.13-.25-.06l.09,0c-.26-.09-.37-.36-.59-.5,0,0,0,0,.06,0s-.11-.16-.15-.13,0,0,0-.07S97.42,6,97.45,6s0,0,0,0-.07-.14-.12-.08c0-.1-.12-.14-.11-.23s0-.16-.13-.13c.11,0,0-.18,0-.22s0-.06.07-.05-.06-.11-.11-.09c.09-.15-.17-.22,0-.32a1.58,1.58,0,0,1-.16-.55c.11,0,0,.2.13.19,0-.16-.15-.27-.09-.44s0,0,.06,0c0-.18.06-.32,0-.48,0,0,0,0,0,0s0-.06,0-.07v0c-.08,0-.12-.16-.15-.18.12.1.09-.14.23,0a.06.06,0,0,0,0-.06s0,0,.07,0c0-.11,0-.09,0-.19s0,0,0,.05a.19.19,0,0,1,0-.2s0,0,0,0c.06-.13,0-.28.13-.4.07.1.06,0,.14,0l0-.08h-.06c0-.06,0-.15.09-.19V2.5l.07-.13-.08,0c0-.09-.1-.06,0-.13s0-.06.12-.06h0s0-.1.06-.13.07.08.09.08.1-.15.07-.24a.11.11,0,0,0,0,.06l0-.07s.05,0,.07,0-.11-.06,0-.11,0,0,0,0,.15-.2.26-.26-.06.09,0,.12a1.88,1.88,0,0,1,.34-.39h0c-.06-.12.14,0,.17-.11s0,.08,0,.06.17-.16.3-.28v0A1.35,1.35,0,0,0,99.28,1s0-.05,0-.09c.28.06.34-.27.59-.21,0,0,0,.05,0,0L100,.64s0,0-.08-.06A.14.14,0,0,1,100,.49c-.06.06,0,.09.07.11s0,0,0-.05,0-.11.11-.09v0s.07-.08.12-.09,0,0,0,.1.09-.16.17-.11l-.09.06c.09.06.09,0,.14,0h.08c0-.19.16-.08.25-.21-.09.12,0,.06,0,.14s.08,0,.07.06.1,0,.16-.07.06,0,.05.06,0,0,0-.07.26.06.4-.06.15-.14.28-.19,0,.09,0,.09a.19.19,0,0,0,.18,0s0,0,0,.07,0-.09.1,0a.38.38,0,0,1-.06.1l.19-.08s0,.06-.07.09.18,0,.21-.09l0,0s0,.06,0,.07-.08,0-.09-.06h0c0-.15-.18,0-.27,0l0-.1-.1.08s0-.09,0-.1-.06,0-.12,0,0,0,0,0l-.06,0s0-.07,0-.06c-.12-.06-.19.09-.23,0h0c-.16,0,0,.08-.12.17L101.3,0V.12s-.05,0,0,0,0,0,0,.08S101,.24,101,.12c0,.06.08,0,0,.09,0-.13-.09,0-.18,0s.09,0,0-.09c0,.12-.15,0-.2,0s-.12.07-.22.12-.2,0-.31,0v0c0,.09-.09.11-.15.15a.1.1,0,0,1,0-.11l-.07,0a.11.11,0,0,1-.06.08V.33c-.09,0-.14.15-.27.15s.16.13.06.21,0-.08,0-.11,0,0,0,0l0-.07c-.06,0,0,.06,0,.07s0,0-.05-.06,0,0,0,0a.2.2,0,0,1-.15,0s0,.06,0,.08-.05,0-.11,0-.07,0,0,.1,0,0-.06,0S98.94.76,99,.8h0c-.1.13-.3.13-.41.24V1c-.06.07-.16.13-.18.21a.06.06,0,0,1-.09,0c0,.06,0,.08-.14.12s0,0,0-.07c-.09,0-.13,0-.16.14,0-.07-.11,0-.12,0H98a.43.43,0,0,1-.1.09l0-.08c-.21.06-.14.35-.35.35,0,.08.1-.05.12,0s-.22,0-.23.07,0,.16-.09.24a.1.1,0,0,1,.07.13c-.06.06-.16,0-.15,0s0,0,0,0,0-.07,0-.06l0,0s-.12.12-.14.07,0,.05.06,0-.11.14-.19.23.06,0,.05,0,0,.1,0,.2-.08-.07-.11,0-.08,0-.08-.06c0,.12-.13.16-.17.22V2.82a.23.23,0,0,1,0,.09h.07s0,.05-.06,0,.1,0,.12.1,0,.14-.1.12c.08-.12-.08,0,0-.13a.13.13,0,0,1,0,.08s0,0,0,0,.05.09,0,.22a.05.05,0,0,0-.09,0c0-.06.08,0,.1.06s0,.1,0,.14l0,0s0,.07,0,.13,0-.06,0,0-.13.13-.08.24-.08,0-.11,0-.08.11,0,.23c.06,0,0,0,.1.05l0-.19.07.13c0-.05,0-.12,0-.15s0,.05.08,0c-.1.06,0,.15,0,.23H96.4c-.07.14.08.24,0,.42l0-.06c.06,0,0,.11,0,.16s-.06,0-.09.06,0,.13.11.13L96.48,5c0,.15.17.13.19.26-.06,0-.08,0-.14,0s0,.09,0,.08.1.1.06.15.08,0,.09,0h0s.06.06.1,0c-.09.18.14.34.09.5a2.73,2.73,0,0,1,.18.24s0,0,0,0,.16,0,.19.12-.08,0-.08,0,.12.12.09.25h0c0,.1.16.1.23.19l0,0c.12,0,.23.1.33.15-.07,0-.06,0-.09.05s.06-.08.15,0,0,.12,0,.17l-.07-.06c0,.1.09.08.12.12l0,0c.12.09.18,0,.3.1v0c.12,0,0,.09.13.07l0,.1.31.06a.63.63,0,0,1-.29,0s.16.1.21.07-.06,0-.07,0a.34.34,0,0,1,.29,0c-.11.17.23.18.24.34.21,0,.35.17.58.23,0-.17.07,0,.09-.14l.07,0,.14.12c0,.05-.06,0-.06.06s0,.07.11.13.06-.07.12,0l-.08-.09c.18-.05.12.16.3.1l-.06,0c.09,0,.32,0,.41-.09s0,.06,0,.07c.21,0,.45-.14.61-.07v0s.06-.08.11,0,0,0,0,0,.09-.08.14-.07l0,0c.21,0,.29-.14.44-.22,0,.11.19.1.27.1v0c.23-.05.34-.22.52-.33.16,0,.43-.14.64-.21,0,0,0-.08,0-.11s.07-.14.12,0h0c.09.06.16,0,.23-.06l-.07-.12c.28,0,.38-.39.57-.34,0-.06.06-.1.07-.16l0,.05a.93.93,0,0,0,.27-.27v.06c.07-.07-.07-.23,0-.3l.1,0c.1-.13.28-.22.3-.41,0,0,0,0,0,.06s.22-.23.08-.28c.08,0,.1-.15.1-.25l.06,0c0-.11-.07-.12,0-.23s.06,0,0,0,0-.09,0-.17l0,.05c0-.08,0-.08,0-.14s.07-.15.13-.14-.07-.08,0-.13a0,0,0,0,1,0,0c.09-.13,0-.23.07-.31h0a.56.56,0,0,1-.06.19c.06,0,.1-.07.16,0,0-.09-.1-.24-.06-.33h0a.07.07,0,0,0,0-.06.24.24,0,0,0,0-.07c.05,0,0-.11.05-.16s-.06-.06-.12,0,0,0,0,0v0h0v.12s0-.08,0-.13l-.11-.08c.1-.05.16-.18.22-.2s0-.35-.18-.43,0-.05.05-.07,0,.05,0,.06,0-.24-.15-.24.1,0,0-.1h0c.07-.33-.34-.36-.31-.7,0,0,0,0,0,0-.09-.36-.44-.56-.59-.88-.05-.09-.1-.05-.17-.06l0-.07h-.13c-.15,0-.08-.3-.3-.31V1.3s-.19-.09-.15-.13,0,0-.05,0l0,0-.17,0c-.1-.08.09-.13-.07-.22s-.22,0-.21.06a.08.08,0,0,1,0,.09h-.06c-.06.1-.14.2-.05.33l.12,0v.06l-.07,0c0,.07.06,0,.11,0a.1.1,0,0,0,0,.07l.13-.05s-.08.06,0,.11,0-.11.09-.1,0,.1,0,.09a.05.05,0,0,1-.05,0c.06,0,.11.05.17,0s.14.08.07.16a.22.22,0,0,1,.16,0c-.14.05.12.11,0,.2.12-.05.19.1.3.13s0,0,0,0,0,.09,0,.13.15,0,.23,0-.12,0-.17.11.14,0,.18,0,0,.06,0,.13c.1-.06,0,0,.13,0s-.08.08,0,.13S104.45,2.58,104.45,2.58ZM105,4.46h0v0Zm0,.17,0-.07s0,0,0,0S105,4.61,105,4.63Zm.55-.31s0,0,0,0V4.31h0Z"/><path class="cls-3" d="M105.45,4.25h0l0,0h0Z"/><polygon class="cls-3" points="99.03 0.8 99.02 0.8 99.03 0.81 99.03 0.8"/><polygon class="cls-3" points="103.6 6.6 103.61 6.61 103.61 6.59 103.6 6.6"/><path class="cls-3" d="M100.06.6h0Z"/><path class="cls-3" d="M100.48.48h0Z"/><path class="cls-3" d="M100.81.44v0h0Z"/><path class="cls-3" d="M97,3.65h0S97,3.67,97,3.65Z"/><path class="cls-3" d="M97.62,2.22a.29.29,0,0,1,0,.06S97.65,2.25,97.62,2.22Z"/><polygon class="cls-3" points="97.15 5.25 97.15 5.25 97.16 5.26 97.15 5.25"/><path class="cls-3" d="M97.56,2.34a.08.08,0,0,0,0-.06A.12.12,0,0,0,97.56,2.34Z"/><polygon class="cls-3" points="102.23 0.39 102.24 0.4 102.25 0.39 102.23 0.39"/><path class="cls-3" d="M102.25.39h0Z"/><path class="cls-3" d="M102.3.37h0S102.29.39,102.3.37Z"/><path class="cls-3" d="M101.8.34v0Z"/><path class="cls-3" d="M101.66.35s.08.05.12,0v0S101.69.3,101.66.35Z"/><path class="cls-3" d="M101.07.08h.12s-.06-.06,0-.07C101,0,101.22.07,101.07.08Z"/><path class="cls-3" d="M100.7.11c.06,0,0,0,0-.05S100.65.09,100.7.11Z"/><path class="cls-3" d="M98.3,1.2l0-.05S98.28,1.17,98.3,1.2Z"/><polygon class="cls-3" points="98.14 1.77 98.19 1.77 98.17 1.72 98.14 1.77"/><polygon class="cls-3" points="97.6 1.65 97.61 1.63 97.57 1.71 97.6 1.65"/><path class="cls-3" d="M96.76,5.94l.06,0S96.72,5.9,96.76,5.94Z"/><path class="cls-3" d="M98.09,7.39s0,.1.07.09S98.11,7.4,98.09,7.39Z"/><polygon class="cls-3" points="103.62 7.4 103.6 7.45 103.65 7.38 103.62 7.4"/></g><g class="cls-1"><path class="cls-2" d="M114.84,22.26c2.24,2.2,4.49,5.61,2.13,8.05a5.26,5.26,0,0,1-2.28,1.31c-3.82,1.14-8-1.76-7.63-5.24s5.31-6.2,8.84-4.92"/><path class="cls-3" d="M115.84,21.62a0,0,0,0,0,0-.07l-.06.07Z"/><path class="cls-3" d="M115.57,21.38c-.07,0-.15.07-.13.16s.08,0,.16-.1.07,0,.06.08.07,0,.11,0a.17.17,0,0,0-.21-.08S115.56,21.39,115.57,21.38Z"/><path class="cls-3" d="M110.82,21.75h0Z"/><path class="cls-3" d="M108.33,23.47s0,0,0,0S108.33,23.47,108.33,23.47Z"/><path class="cls-3" d="M107.92,23.81l0,0S107.92,23.8,107.92,23.81Z"/><path class="cls-3" d="M110.82,21.75h-.08S110.79,21.76,110.82,21.75Z"/><path class="cls-3" d="M114.89,21.43l0,0h0Z"/><path class="cls-3" d="M112.06,21.23h0v0Z"/><path class="cls-3" d="M113.08,21s0,.07,0,.1a.07.07,0,0,1,0-.05A.13.13,0,0,0,113.08,21Z"/><path class="cls-3" d="M114.71,21.12h0Z"/><path class="cls-3" d="M111.35,21.44l0,0Z"/><path class="cls-3" d="M115.4,23.33h0S115.4,23.32,115.4,23.33Z"/><polygon class="cls-3" points="114.85 22.25 114.87 22.26 114.9 22.23 114.85 22.25"/><path class="cls-3" d="M107.31,24.59h0S107.31,24.57,107.31,24.59Z"/><path class="cls-3" d="M110.72,31.77c-.07-.09.18,0,.06-.14S110.62,31.69,110.72,31.77Z"/><path class="cls-3" d="M114.87,21.42h0Z"/><polygon class="cls-3" points="110.78 31.64 110.78 31.63 110.77 31.62 110.78 31.64"/><path class="cls-3" d="M106.74,26.8l0,0Z"/><path class="cls-3" d="M107.18,25.17l0,0Z"/><path class="cls-3" d="M106.91,27.67a.07.07,0,0,0,0,.06h0A0,0,0,0,1,106.91,27.67Z"/><polygon class="cls-3" points="107.19 28.54 107.19 28.52 107.18 28.49 107.19 28.54"/><path class="cls-3" d="M116.92,25.39a.21.21,0,0,1,0-.06S116.85,25.26,116.92,25.39Z"/><path class="cls-3" d="M114.9,21.39l0,0h0A0,0,0,0,0,114.9,21.39Z"/><path class="cls-3" d="M107.46,27.6l0,.12A.68.68,0,0,0,107.46,27.6Z"/><path class="cls-3" d="M116.24,30.57l0,0Z"/><path class="cls-3" d="M107.6,28.08a.15.15,0,0,0,0,.08h0A.47.47,0,0,1,107.6,28.08Z"/><path class="cls-3" d="M117,25.33h0Z"/><path class="cls-3" d="M116.36,24.67c.07.11.11,0,.17,0s0,.1,0,.16.18.08.21.15,0,0,0,0,.16.25.3.31v0a.27.27,0,0,1,.1-.08c0,.05.1.07.06.12s0,0-.06,0l.05,0c-.05.09-.06-.06-.12,0s.21.18.23.27-.12-.17-.14,0l0-.14c-.07.16,0-.08-.11.07s.14.16.19.33c.06,0,.06,0,.12,0,.18.2-.12.27.06.4s.18,0,.17.15h-.1c0,.17.16,0,.16.24,0,0-.07-.12-.08-.09s.08.06.11.15l-.08,0c.07.17.16.36.22.55,0,0-.06,0-.08,0a1.38,1.38,0,0,1,0,.77l.07.1s0,0,0,0,0,0,.07.06,0,.07-.07,0a.79.79,0,0,1-.08.63v0c-.08.11.09.19,0,.29v0c-.13.26-.26.59-.49.69.05.1-.22.2-.13.31-.16.08-.15,0-.36.15,0,0,0,.13-.06.2l-.05-.06,0,.13-.1,0,0,.06s.07,0,.08,0-.27.12-.29.09l-.2.2s0-.06,0-.1c-.09.14-.06-.06-.14.07s0,0,0,.06a.62.62,0,0,0-.31.13V31c-.19.08-.39.2-.61.27a.06.06,0,0,1,0,.12l-.05-.07c0,.06.08,0,0,.09s-.08-.07,0-.11l-.09.06s0,0,0-.07-.2,0-.23.07v0c-.22.05-.32.1-.5.15,0,.07-.07.07-.11.13a2.28,2.28,0,0,0-.47,0c-.12,0,0,.06-.08.11s-.18-.05-.09-.1a2.56,2.56,0,0,0-.52.06s.06,0,0,.06-.11,0-.1-.06h0c-.3.07-.64-.25-.88-.16h-.23c-.1,0,.08,0,0-.09-.28.05-.39-.11-.61-.12-.09-.22-.55-.19-.69-.4v0c-.07,0-.05-.05-.08-.08s0,.06,0,.07A3.45,3.45,0,0,1,109,30c-.12-.13-.23.1-.32-.14h.1c-.34-.17-.49-.54-.75-.78,0,0,0,0,.07,0s-.14-.23-.18-.21,0,0,0-.07-.17-.12-.12-.19,0,0,0,0-.08-.21-.13-.13c0-.13-.13-.22-.14-.33s0-.23-.14-.21c.11,0,0-.24,0-.31s0-.08.07-.05,0-.17-.1-.15c.12-.19-.15-.34,0-.45a2.62,2.62,0,0,1-.06-.8c.11,0,0,.28.08.28a1.52,1.52,0,0,1,0-.62c0-.06,0,0,.06.07,0-.25.16-.43.17-.66,0,0,0,0,0,.06s0-.09,0-.1v0c-.1,0-.07-.22-.1-.24.1.13.14-.18.25,0,0,0,0-.07,0-.08s.05,0,.07,0c0-.15,0-.13,0-.25s0,0,0,.07a.27.27,0,0,1,.07-.26s0,0,0,0c.11-.17.09-.36.26-.52,0,.12.08,0,.16,0l.06-.11h-.07c.07-.08.08-.19.17-.24l0,.09.12-.16-.1.06c0-.11-.09-.07,0-.16s.07-.08.15-.08h0a.22.22,0,0,1,.11-.15s.06.09.08.09.17-.18.16-.29a.08.08,0,0,0,0,.07V23.1s.06,0,.08,0-.12-.06.06-.13c0,0,0,0,0,0,.16-.09.25-.24.4-.31s-.1.1,0,.14a2.55,2.55,0,0,1,.55-.47h0c0-.13.18,0,.25-.15s0,.08,0,.07a2.23,2.23,0,0,0,.46-.32v0c.1,0,.22-.1.32-.11s.07-.06,0-.09c.36.07.51-.32.83-.23,0,0-.07,0,0,0l.21-.09c0-.05,0,0-.1-.06a.23.23,0,0,1,.13-.1c-.09.07,0,.09.08.11s0,0,0-.05c.14.07,0-.12.17-.09v0c.06,0,.11-.08.18-.08s-.06,0-.05.1.16-.16.26-.11l-.13.06a.23.23,0,0,0,.18,0H113c.09-.2.23-.06.38-.19-.14.12,0,.06,0,.14s.1,0,.09.06.13,0,.22-.06.08,0,.07.06,0,0,0-.07.35.1.56,0,.23-.13.41-.14-.06.08-.06.08a.35.35,0,0,0,.25,0s0,0,0,.07.06-.08.15,0a.36.36,0,0,1-.09.09c.09,0,.18,0,.27-.05s-.06.05-.1.08.25,0,.3,0l-.05,0s0,.06,0,.07a.08.08,0,0,1-.11-.08h.06c0-.17-.25,0-.37-.05l.07-.09-.14.07s0-.09,0-.1-.08,0-.16,0,0,0,0,0l-.09,0s0-.08,0-.05c-.15-.09-.27.06-.32,0h0c-.23,0,0,.08-.2.16l-.11-.19,0,.08s-.07,0-.06,0,0,0,0,.08-.3,0-.33-.08c0,.06.11,0,0,.09,0-.13-.13,0-.24,0s.12,0,0-.09c-.05.12-.2,0-.28,0s-.18.07-.32.12-.27,0-.41,0v0c0,.09-.14.12-.23.16a.1.1,0,0,1,0-.12l-.09,0a.16.16,0,0,1-.09.08v-.07c-.12,0-.22.15-.39.15,0,.06.18.13,0,.22s0-.08,0-.11,0,0-.07,0l0-.08c-.08,0,0,.06-.08.08s-.05,0-.06-.06.05,0,.07,0a.29.29,0,0,1-.19,0,.06.06,0,0,1,0,.09c-.12,0-.06,0-.14,0s-.1,0-.08.11-.05,0-.08,0-.28.13-.18.17h0c-.16.16-.41.16-.59.28v0c-.1.09-.23.16-.28.25s-.1,0-.1,0-.07.1-.21.13c.06-.09,0,0,.07-.08-.12,0-.17,0-.24.17,0-.08-.12,0-.16,0l.1,0a.8.8,0,0,1-.15.11l0-.09c-.28.08-.27.41-.52.43,0,.09.13-.07.13,0s-.27.07-.3.09,0,.19-.17.29c0,0,.11,0,0,.16s-.19,0-.16,0,0,0,0,0,0-.08,0-.07v0c-.06,0-.17.15-.18.09s0,.06.07,0c-.13.09-.16.18-.29.28,0,0,.07,0,.06,0-.17.16,0,.12-.1.25s-.07-.09-.13.06-.08,0-.07-.07c0,.15-.19.2-.25.27l0-.08a.46.46,0,0,1-.06.11h.07s-.05.07-.07.05.1,0,.1.13-.06.18-.14.16c.11-.16-.08,0,0-.17a.23.23,0,0,1-.06.1s0,0,0,0c-.15.13,0,.12-.05.28,0,0-.1,0-.1,0s.08,0,.08.08,0,.13-.05.19l0-.06s0,.09,0,.18,0-.08,0-.06-.15.17-.14.31-.08,0-.12,0-.1.14-.09.31c.07,0,.05,0,.09.08v-.26l.05.18c0-.07,0-.17,0-.21s0,.08.07.05c-.11.08,0,.21-.07.31l-.14,0c-.1.17,0,.33,0,.56l0-.07c.06,0,0,.15,0,.22s-.07,0-.1.07,0,.18.09.19l-.06.11c0,.19.17.2.17.38-.06,0-.08,0-.14-.08,0,.06,0,.12,0,.11s.08.16.05.22.08,0,.1.08h0s.06.09.1,0c-.1.22.14.49.1.68s.15.25.2.36,0,0,0,0c0,.17.17,0,.22.2s-.09-.06-.08,0,.14.18.13.34l0,0c0,.12.19.16.28.29h0a1.31,1.31,0,0,1,.4.27c-.08,0-.07,0-.1,0s.06-.08.17,0,.05.14,0,.2l-.09-.09c0,.11.12.11.16.17l0,0c.15.12.21.07.37.2v0c.15,0,0,.1.18.11l0,.1c.08,0,.26.09.39.15a1,1,0,0,1-.36-.07c.06,0,.21.15.27.13s-.07,0-.09,0a.63.63,0,0,1,.37.1c-.12.15.3.25.33.42.28,0,.46.27.76.36-.05-.18.09,0,.12-.12.07,0,.1,0,.1,0l.18.16c0,.06-.08,0-.08,0,.15.06,0,.08.13.16s.08-.06.16,0l-.11-.1c.24,0,.15.17.39.14l-.08,0c.12,0,.42.11.55,0s0,.06,0,.07c.28,0,.62,0,.83,0l0,0c.05,0,.09-.07.15,0s0,0,0,0a.35.35,0,0,1,.2,0l-.06,0c.27.06.41-.12.62-.17,0,.11.23.12.34.13v0a3.29,3.29,0,0,0,.77-.31c.21.07.59-.14.88-.21,0,0,0-.08,0-.11s.13-.15.17-.05h0c.09.07.21,0,.3-.07l0-.12c.35,0,.59-.46.81-.43,0-.07.1-.13.13-.2l0,.05a1.47,1.47,0,0,0,.37-.39v.07c.09-.11,0-.26,0-.36l.11,0c.13-.19.34-.37.36-.62a.06.06,0,0,1,0,.07c0-.1.23-.39.08-.4.09,0,.1-.23.07-.37l.06,0a.41.41,0,0,1-.08-.28s.06,0,0,0c.05-.11,0-.1,0-.23l0,.06c0-.12,0-.11-.06-.18s0-.22.09-.24a.15.15,0,0,1-.07-.15s0,0,0,0c0-.2-.11-.29-.05-.43a.05.05,0,0,0,0,0,2,2,0,0,1,0,.28c.06,0,.06-.14.16,0a1,1,0,0,1-.17-.4l0,0h0a.13.13,0,0,0,0-.08.41.41,0,0,0,0-.11s0-.15,0-.22-.07-.06-.11,0,0,0,0,.05v0h0l0,.15a.15.15,0,0,1-.06-.16l-.13-.06c.08-.11.07-.28.12-.32s-.17-.43-.35-.49,0-.07,0-.1,0,.06.06.07-.14-.29-.23-.28c0-.14.11,0,0-.13h0c0-.4-.48-.42-.54-.86,0,0,0,0,0,.06-.17-.45-.6-.75-.77-1.19-.06-.12-.12-.09-.2-.12l0-.07-.15,0c-.17-.1-.07-.38-.33-.48l0,.06c-.05-.07-.21-.18-.16-.21s-.06,0-.06,0l0,0-.2-.11c-.1-.14.13-.09,0-.27s-.26-.1-.26-.06,0,.08,0,.11l-.07,0c-.09.07-.22.11-.14.31l.15,0v.07l-.08-.08c0,.08.07.08.13.09a.1.1,0,0,0,0,.08l.17,0s-.11,0-.06.1,0-.11.13-.06,0,.1,0,.13,0,0-.07,0,.13.12.2.11.17.16.08.23a.35.35,0,0,1,.19.08c-.17,0,.15.19,0,.25.15,0,.24.2.38.28,0,0,0,0,0,0a.45.45,0,0,1,0,.17c.08-.05.18,0,.28.06s-.13,0-.18.1.17.1.2,0c0,.1,0,.07,0,.15.11-.06.06,0,.16.06s-.08.09,0,.17S116.36,24.67,116.36,24.67Zm1.38,2.59h0l0-.06Zm0,.24V27.4s0,0,0,0S117.78,27.47,117.76,27.5Zm.39-.62s0,.06,0,.07l0-.07h0Z"/><path class="cls-3" d="M118,26.83v0h0Z"/><polygon class="cls-3" points="110.86 21.74 110.86 21.74 110.87 21.75 110.86 21.74"/><polygon class="cls-3" points="116.43 30.38 116.44 30.39 116.44 30.37 116.43 30.38"/><path class="cls-3" d="M112.28,21.5h0Z"/><path class="cls-3" d="M112.87,21.39h0Z"/><path class="cls-3" d="M113.33,21.37a.11.11,0,0,0,0,0h0Z"/><path class="cls-3" d="M107.63,25.32v0S107.63,25.35,107.63,25.32Z"/><path class="cls-3" d="M108.71,23.46l0,.07S108.74,23.49,108.71,23.46Z"/><polygon class="cls-3" points="107.46 27.58 107.46 27.58 107.46 27.6 107.46 27.58"/><path class="cls-3" d="M108.61,23.61a.15.15,0,0,0,.07-.08A.22.22,0,0,0,108.61,23.61Z"/><polygon class="cls-3" points="115.29 21.51 115.31 21.52 115.31 21.51 115.29 21.51"/><path class="cls-3" d="M115.31,21.51h0Z"/><path class="cls-3" d="M115.39,21.51h-.05S115.38,21.52,115.39,21.51Z"/><path class="cls-3" d="M114.7,21.38v0Z"/><path class="cls-3" d="M114.52,21.36s.1.07.16.06v0S114.57,21.32,114.52,21.36Z"/><path class="cls-3" d="M113.74,21l.16,0s-.07-.07,0-.07C113.71,20.89,114,21,113.74,21Z"/><path class="cls-3" d="M113.24,21c.09,0,0,0,0-.05S113.17,21,113.24,21Z"/><path class="cls-3" d="M109.84,22.23l0-.06C109.76,22.22,109.83,22.2,109.84,22.23Z"/><polygon class="cls-3" points="109.47 22.89 109.55 22.89 109.54 22.82 109.47 22.89"/><polygon class="cls-3" points="108.87 22.79 108.88 22.76 108.81 22.85 108.87 22.79"/><path class="cls-3" d="M107.06,28.41l.07,0S107,28.35,107.06,28.41Z"/><path class="cls-3" d="M108.71,30.52a.11.11,0,0,0,.1.11S108.74,30.53,108.71,30.52Z"/><polygon class="cls-3" points="116.23 31.29 116.2 31.34 116.27 31.27 116.23 31.29"/></g><g class="cls-1"><path class="cls-2" d="M127,50.4a5.83,5.83,0,0,1,.53,7.7,8.47,8.47,0,0,1-8.39,3c-4.7-1.16-6.29-6.23-6.11-10.64a4.72,4.72,0,0,1,.76-2.75,5.21,5.21,0,0,1,2.46-1.58c5-1.76,11,.74,12.27,5.13"/><path class="cls-3" d="M128.37,51.29s.07,0,0-.08l-.1,0Z"/><path class="cls-3" d="M128.34,50.78c-.07-.07-.17-.14-.22-.05.1.05.08.08.2.14s0,.13,0,.13,0,.11.09.13a.36.36,0,0,0-.11-.33S128.33,50.78,128.34,50.78Z"/><path class="cls-3" d="M123.06,46l0,0Z"/><path class="cls-3" d="M118.52,45.46s0,0,0,0S118.51,45.45,118.52,45.46Z"/><path class="cls-3" d="M117.72,45.48h0Z"/><path class="cls-3" d="M123.06,46l-.11-.07S123,46,123.06,46Z"/><path class="cls-3" d="M127.74,50l0,0,0,0Z"/><path class="cls-3" d="M124.94,46.74l0,0h0Z"/><path class="cls-3" d="M126.25,47.6s-.08,0-.11,0a.11.11,0,0,1,.09,0A.09.09,0,0,0,126.25,47.6Z"/><path class="cls-3" d="M127.81,49.52l0,0Z"/><path class="cls-3" d="M123.94,46.23a.05.05,0,0,0,0,0A0,0,0,0,0,123.94,46.23Z"/><path class="cls-3" d="M127.78,52h0S127.78,52,127.78,52Z"/><polygon class="cls-3" points="127.01 50.39 127.03 50.4 127.06 50.38 127.01 50.39"/><path class="cls-3" d="M116.28,45.76h0S116.31,45.74,116.28,45.76Z"/><path class="cls-3" d="M114.15,57.4c0-.16.19.18.14-.05C114.28,57.38,114.1,57.22,114.15,57.4Z"/><path class="cls-3" d="M127.73,49.92l0-.05Z"/><path class="cls-3" d="M114.29,57.35h0v0Z"/><path class="cls-3" d="M113.46,47.67h0Z"/><path class="cls-3" d="M115.53,46.19l-.06,0Z"/><path class="cls-3" d="M113,49a.17.17,0,0,0,0,.09h0A.09.09,0,0,1,113,49Z"/><polygon class="cls-3" points="112.84 50.29 112.86 50.27 112.86 50.23 112.84 50.29"/><path class="cls-3" d="M128.31,55.64l.08,0C128.34,55.6,128.35,55.42,128.31,55.64Z"/><path class="cls-3" d="M127.78,49.94a0,0,0,0,1,0,0l0,0S127.77,50,127.78,49.94Z"/><path class="cls-3" d="M113.54,49.13l0,.19Z"/><path class="cls-3" d="M121.69,61h0Z"/><path class="cls-3" d="M113.43,49.9a.31.31,0,0,0-.06.11l0,0Z"/><path class="cls-3" d="M128.39,55.59h0Z"/><path class="cls-3" d="M128.32,54.28c0,.19.09.09.15.12,0,.23-.06.11-.11.18s.09.25.08.36,0,0,0,0c.07.16-.06.44,0,.63l0,0a.18.18,0,0,1,.13,0c0,.09,0,.17,0,.19s0-.06,0-.09v.09c-.1.06,0-.13-.06-.14a1.65,1.65,0,0,1-.05.52c-.08,0,.05-.31-.06-.16l.08-.19c-.17.12,0-.12-.13,0a3.83,3.83,0,0,1-.14.55c0,.07.07,0,.1.08-.05.4-.31.2-.32.51,0,.09.11.17,0,.32l-.05-.11c-.14.22.05.2-.14.41,0-.06.07-.2,0-.17s0,.14-.09.25l-.09,0a6.71,6.71,0,0,1-.47.78s0-.09-.06,0a3.16,3.16,0,0,1-.92.79l-.07.15s-.07,0,0,0c-.13.07,0,0,0,.11s-.11,0-.08,0a1.92,1.92,0,0,1-.83.6l0,0c-.2.08-.14.26-.36.28l0,0a3.89,3.89,0,0,1-1.28.44c0,.13-.46.09-.45.23a3.66,3.66,0,0,0-.59,0c-.1,0-.13.12-.25.15v-.08l-.16.1-.1-.08-.11,0s.1,0,.1,0c-.18.05-.45,0-.45,0l-.43.08s.08,0,.14-.07c-.23.09,0-.08-.25,0,0,0,0,0,0,.06a1.31,1.31,0,0,0-.52,0l0-.05c-.31,0-.66,0-1-.13.12,0,.07.13,0,.12l0-.09c-.08,0,.1.05-.05.08s-.06-.11,0-.12l-.16,0s0,0,.05-.05-.24-.16-.36-.1v0a4.86,4.86,0,0,1-.76-.26c0,.06-.13,0-.24,0s-.35-.29-.58-.41-.08,0-.17,0-.19-.2-.06-.16a7.07,7.07,0,0,0-.66-.43c0,.05,0,.09,0,.09s-.1-.13-.07-.15h0a1.8,1.8,0,0,1-.48-.53,1.31,1.31,0,0,0-.4-.51h0a3.06,3.06,0,0,1-.27-.26c-.08-.15.1.06.06-.07-.31-.26-.33-.52-.54-.78,0-.3-.4-.8-.42-1.16l0,0c-.07-.07,0-.11,0-.17s0,.1,0,.06a7.65,7.65,0,0,1-.49-2.25c0-.28-.25-.12-.2-.49l.1.09a11.55,11.55,0,0,1-.22-1.7s0,0,0,.09a.56.56,0,0,0-.06-.44c0-.09,0,0,.07-.07s-.07-.3,0-.36,0,0,0,.06,0-.36-.06-.29a5.22,5.22,0,0,1,0-.56c-.07-.12.07-.35,0-.39.11,0,.14-.34.12-.47,0,0,.06-.1.09,0,0-.14,0-.27,0-.26.2-.2.08-.54.31-.59a2.47,2.47,0,0,1,.66-1c.06.09-.31.29-.21.37A2,2,0,0,1,115,47c.09,0,0,.07,0,.1a8.42,8.42,0,0,1,.91-.53s0,0-.05.06.15,0,.12-.09l-.05,0c-.13,0,.19-.24.18-.28-.05.18.33-.08.22.15,0,0,.08-.07.06-.09s.09,0,0,.06c.22-.09.12-.12.33-.18,0,0,0,0,0,.08a.69.69,0,0,1,.36-.19s0,0,0,0a2.67,2.67,0,0,1,.84-.28c-.08.13.12,0,.16.1l.18-.06-.08,0a1.46,1.46,0,0,1,.44-.09l-.12,0,.3,0-.18,0c.16-.06,0-.12.19-.11,0,0,.17,0,.25,0h0a.42.42,0,0,1,.28-.06s0,.1,0,.12.38,0,.48-.11a.06.06,0,0,0,0,.08l.07-.06c.08,0,.09,0,.07.07.23,0-.07-.12.2-.07l-.06,0c.27,0,.53,0,.78,0,.06.1-.22,0-.14.09a4.72,4.72,0,0,1,1.09.06l-.06,0c.07-.12.25.1.43.09,0,0-.07.06-.06,0a4.62,4.62,0,0,0,.84.15l-.05,0,.48.2c.05,0,.13,0,.1,0,.37.32.87.26,1.18.58,0,0-.12,0-.08,0s.21.1.32.15,0-.05-.07-.13A.44.44,0,0,1,125,47c-.16,0,0,.08,0,.14s0,0,0,0c.11.18.09-.08.27.11l0,0a.72.72,0,0,1,.27.12c0,.08-.1,0-.14,0,.12.08.3.06.37.2l-.19-.09a.46.46,0,0,0,.17.21h0l.17.17,0-.05c.26,0,.31.2.56.28-.25-.08-.07,0-.13.07s.08.14.05.13c.13,0,.11.16.29.2,0,0,.09.09,0,.11.11.1,0-.06,0-.07.21.12.28.46.58.64s.3.2.48.39c0,.09-.12,0-.12,0a1.13,1.13,0,0,0,.21.32s0,0,0,.07.11,0,.15.16a.38.38,0,0,1-.14,0c.08.1.18.19.26.3s-.09,0-.14-.07.21.32.28.34v-.1c0,.05,0,0-.07,0s-.06-.17,0-.19l.06.08c.08-.15-.2-.33-.28-.5l.13,0-.17-.13c0-.05,0-.11.1,0,0-.15-.1-.08-.11-.21s0,0,0,0l-.1-.09s0-.06.08,0c-.09-.24-.29-.28-.28-.4h0c-.23-.25-.07,0-.3-.12l0-.25-.08,0s-.06-.08,0-.09c-.13-.06,0,0-.1,0s-.33-.32-.28-.43.09.14-.07,0c.05-.13-.17-.12-.24-.27.08,0,.16.11.09,0-.14,0-.21-.22-.32-.29s-.25-.14-.44-.24a2.46,2.46,0,0,0-.46-.41h0c-.08.06-.25-.06-.39-.12,0,0,.07,0,.15,0l-.12-.07a.29.29,0,0,1-.18,0l.06,0c-.16-.1-.38-.1-.58-.25,0,.05.1.24-.15.17,0,0,0-.09.09-.08a.24.24,0,0,1-.12,0h.12c-.09-.07-.07,0-.15,0s0-.06,0-.09.06.05.1,0a.58.58,0,0,1-.21-.18s0,.06-.1,0,0-.08-.13-.14-.16-.06-.19,0,0-.06-.06-.08-.44-.15-.36,0h0c-.32,0-.63-.22-.95-.28v0a2.16,2.16,0,0,0-.56,0c-.06,0-.12-.07-.09-.09a.77.77,0,0,1-.37-.06c.15,0,0,0,.15,0a.6.6,0,0,0-.44-.05c.08-.06-.14-.09-.23-.08l.13.06-.28,0,.06-.08c-.39-.15-.71.14-1,0-.1.06.21,0,.12.11a2.58,2.58,0,0,1-.43-.13c-.25,0-.22.14-.48.13,0,0,.07.1-.11.15s-.23-.1-.12-.14.06,0,.06,0,.13,0,.06-.06l0,0c-.09,0-.34,0-.29,0-.13,0-.05.05.05.06a2.86,2.86,0,0,0-.6.06s.08,0,0,0c-.35,0-.14.08-.37.14s0-.11-.2,0,0-.07,0-.11a1.57,1.57,0,0,1-.53.1l.1-.06-.17.07.08,0c-.07,0-.12,0-.13,0s.08.08,0,.17-.25.11-.31,0c.28-.06-.06-.07.17-.15a.5.5,0,0,1-.16,0s0,0,0,0c-.29,0-.09.12-.36.21,0-.05-.09-.05-.13,0s.08,0,0,.12-.17.1-.26.13l.1,0c0,.06-.1.08-.21.15s.09-.07,0-.06-.32.06-.47.2,0-.07-.13,0-.24.07-.41.24c.09,0,.09,0,0,.13l.3-.25-.16.21a2.71,2.71,0,0,1,.25-.19c-.07.1-.07.08,0,.1-.18,0-.23.21-.41.27l-.08-.12c-.27.12-.34.37-.61.61l.1-.07c0,.07-.14.17-.19.28s-.09,0-.15,0-.15.23-.08.31l-.13.11c-.15.26,0,.36-.11.61,0-.1-.1,0-.08-.18,0,.09-.06.17,0,.18s0,.27-.07.34.06.07,0,.16,0,0,0,0,0,.16.07.09c-.21.25-.09.77-.23,1l0,.61s0,0,0,0c0,.24.14.15.08.43s0-.15-.07-.06,0,.34-.06.53v0c0,.15.07.35.08.58,0,0,0,0,0,0a2.33,2.33,0,0,1,.19.67c-.07-.06,0-.1-.1,0s.1,0,.14.16,0,.22-.1.24l0-.19c-.07.11,0,.24,0,.35h0c.06.29.14.28.2.58l0,0c.13.15,0,.15.08.3l-.09.07.25.55a1.7,1.7,0,0,1-.27-.45,1,1,0,0,0,.16.41.31.31,0,0,1-.06-.14,1.09,1.09,0,0,1,.25.49c-.2,0,.12.57,0,.77.19.35.27.75.47,1.17.05-.21.07.12.19,0,.06.09.08.13.07.14l.08.33c0,.09-.08-.07-.1,0,.1.22,0,.12,0,.28,0-.06.11,0,.17.15l0-.2c.25.23.05.31.31.55l-.1-.06c.11.14.39.52.59.57,0,0,0,.09-.06,0,.24.35.73.58.91.85h0c.07,0,.15,0,.2.12s0,0,0,0a.76.76,0,0,1,.27.16l-.09,0c.29.3.58.26.87.42-.06.1.2.29.35.36h0a3.14,3.14,0,0,0,.6.22l.61.1a3.83,3.83,0,0,0,1.31.37c-.06,0,0-.08.1-.09s.29-.06.26,0h0c.07.1.29.09.45.09l0-.13c.44.19,1.11-.14,1.35,0,.1-.05.22-.07.32-.12v.07a3.83,3.83,0,0,0,.76-.18l-.06.07c.19-.06.18-.27.35-.33l.09.08a2.67,2.67,0,0,0,1-.39.07.07,0,0,1,0,.08c.15-.06.6-.22.48-.32,0,.08.32-.16.45-.3v.08a.7.7,0,0,1,.24-.33s.07,0,0,0c.17-.07.08-.13.26-.22l0,.08a.33.33,0,0,0,.17-.22c.07-.09.28-.19.33-.17a.25.25,0,0,1,.12-.2s0,0,0,.06c.26-.16.26-.36.46-.46a.05.05,0,0,0,.05,0l-.29.29s.19-.09.14.09a1.74,1.74,0,0,1,.33-.53h0v0a.28.28,0,0,0,.07-.1l.11-.11c.05,0,.17-.15.22-.24s0-.13-.09-.07,0,0,0,.07l0,0h0l-.15.19a.31.31,0,0,1,.14-.22l0-.18c.15,0,.34-.23.41-.23.12-.28.32-.62.27-.85s.07-.07.1-.09a.58.58,0,0,0,0,.13c0-.16.18-.46.1-.53.11-.18,0,.14.12-.14v0c.31-.52,0-.94.24-1.53,0,0,0,.06,0,.07a7.37,7.37,0,0,0-.17-2.16c0-.2-.09-.21-.18-.3l.05-.07-.16-.16c-.16-.24,0-.55-.34-.82l0,.07c-.07-.12-.26-.34-.2-.35s-.07,0-.08-.06l0,0-.26-.22c-.14-.21.16-.08-.1-.36-.11-.09-.36-.21-.34-.15s.08.12.06.15l-.1-.07c-.1.07-.24.09-.09.36l.19.1v.08l-.12-.12c0,.11.11.11.18.15a.14.14,0,0,0,0,.11l.21.08s-.13,0-.06.11,0-.13.15,0,0,.11.07.18,0,0-.08,0,.16.21.24.23.18.29.08.33a.67.67,0,0,1,.21.2c-.19-.1.13.32,0,.34.17.07.2.4.32.6,0,0,0,0,0,0a.62.62,0,0,1,0,.25c.1,0,.16.18.24.28-.07.17-.13-.07-.21,0,.08,0,.11.25.17.19,0,.12,0,.1-.09.17.12,0,0,.11.12.2s-.11,0-.07.23S128.32,54.28,128.32,54.28ZM127,58.42h0l.06-.08Zm-.26.28.12-.12s0,0,0,.06S126.83,58.67,126.77,58.69Zm.92-.31c0,.06-.06.07-.07.06l.06-.09h0A.08.08,0,0,1,127.69,58.38Z"/><path class="cls-3" d="M127.69,58.24v0l0,0v0Z"/><path class="cls-3" d="M123.11,46h0v0Z"/><polygon class="cls-3" points="122.1 60.88 122.1 60.89 122.13 60.87 122.1 60.88"/><path class="cls-3" d="M125,47.13v0Z"/><path class="cls-3" d="M125.71,47.64l.09.1Z"/><path class="cls-3" d="M126.24,48.11h0Z"/><path class="cls-3" d="M115.77,46.6h0Z"/><path class="cls-3" d="M118.95,45.69l-.1,0C118.9,45.73,118.95,45.73,118.95,45.69Z"/><polygon class="cls-3" points="113.55 49.11 113.55 49.11 113.54 49.13 113.55 49.11"/><path class="cls-3" d="M118.69,45.74a.34.34,0,0,0,.15,0A.53.53,0,0,0,118.69,45.74Z"/><path class="cls-3" d="M128,50.51v0h0Z"/><path class="cls-3" d="M128,50.54l0,0S128.06,50.54,128,50.54Z"/><path class="cls-3" d="M128.11,50.64l0-.07S128.09,50.63,128.11,50.64Z"/><path class="cls-3" d="M127.61,49.69h0Z"/><path class="cls-3" d="M127.45,49.47a.9.9,0,0,0,.12.23h0C127.53,49.68,127.52,49.49,127.45,49.47Z"/><path class="cls-3" d="M126.93,48.34l.15.2c0-.05,0-.12.06,0C127,48.21,127.14,48.59,126.93,48.34Z"/><path class="cls-3" d="M126.4,47.79c.11.08,0,0,0,0S126.35,47.71,126.4,47.79Z"/><path class="cls-3" d="M121.46,45.55l0-.06C121.38,45.48,121.48,45.51,121.46,45.55Z"/><polygon class="cls-3" points="120.4 45.76 120.49 45.8 120.54 45.75 120.4 45.76"/><polygon class="cls-3" points="119.8 45.27 119.85 45.27 119.68 45.29 119.8 45.27"/><path class="cls-3" d="M112.8,50.05l.08,0C112.87,50,112.78,49.93,112.8,50.05Z"/><path class="cls-3" d="M113.11,54a.22.22,0,0,0,0,.22A1.6,1.6,0,0,0,113.11,54Z"/><polygon class="cls-3" points="121.12 61.6 121.04 61.63 121.19 61.6 121.12 61.6"/></g><g class="cls-1"><path class="cls-2" d="M130.32,78.72c-2.24-3-7.57-3.77-11.21-1.55s-4.95,7-2.75,10.06,7.51,3.86,11.17,1.68,5-7,2.89-10"/><path class="cls-3" d="M130.56,78.77s-.06,0,0,.09h.09Z"/><path class="cls-3" d="M130.68,79.26c.08,0,.19.1.23,0-.11,0-.09-.07-.22-.09s0-.12,0-.12,0-.1-.11-.11a.33.33,0,0,0,.16.29S130.69,79.25,130.68,79.26Z"/><path class="cls-3" d="M130.42,85.7l0,0Z"/><path class="cls-3" d="M127.61,88.66s0,0,0,0S127.6,88.66,127.61,88.66Z"/><path class="cls-3" d="M127,88.92h0Z"/><path class="cls-3" d="M130.42,85.7l-.08.08S130.39,85.75,130.42,85.7Z"/><path class="cls-3" d="M131.27,80l0-.05,0,.05Z"/><path class="cls-3" d="M131,84v0l0,0Z"/><path class="cls-3" d="M131.23,82.62s.07,0,.1.06a.1.1,0,0,1,0-.07Z"/><path class="cls-3" d="M131.09,80.43l0,0Z"/><path class="cls-3" d="M130.7,84.93h0Z"/><path class="cls-3" d="M129.36,77.29h0S129.37,77.3,129.36,77.29Z"/><polygon class="cls-3" points="130.3 78.73 130.29 78.71 130.25 78.73 130.3 78.73"/><path class="cls-3" d="M125.75,89.33h0S125.77,89.32,125.75,89.33Z"/><path class="cls-3" d="M115.9,85.69c0,.15-.14-.18-.15,0C115.77,85.7,115.91,85.86,115.9,85.69Z"/><path class="cls-3" d="M131.27,80.07l0,.06Z"/><polygon class="cls-3" points="115.75 85.72 115.75 85.72 115.75 85.74 115.75 85.72"/><path class="cls-3" d="M122.88,89.83l0,0Z"/><path class="cls-3" d="M125.07,89.67h0Z"/><path class="cls-3" d="M121.74,89.86a.14.14,0,0,0-.08,0h0A.07.07,0,0,1,121.74,89.86Z"/><polygon class="cls-3" points="120.56 89.66 120.58 89.68 120.62 89.68 120.56 89.66"/><path class="cls-3" d="M125.86,75.78a.2.2,0,0,1,0,.07C125.9,75.8,126.08,75.82,125.86,75.78Z"/><path class="cls-3" d="M131.23,80a0,0,0,0,1,0,0l0,0Z"/><path class="cls-3" d="M121.62,90.41l-.2,0Z"/><path class="cls-3" d="M117.49,78.07l0,0A.07.07,0,0,0,117.49,78.07Z"/><path class="cls-3" d="M120.84,90.28a.33.33,0,0,0-.1-.07h0Z"/><path class="cls-3" d="M125.9,75.86h0Z"/><path class="cls-3" d="M127.22,76.06c-.18-.07-.11.05-.17.09-.22-.05-.08-.1-.14-.17s-.27,0-.37,0,0,0,0,0c-.16,0-.43-.12-.62-.06l0,0a.18.18,0,0,1,0,.13c-.08,0-.16,0-.18,0s.06,0,.09,0h-.09c-.06-.1.12,0,.14-.07a1.89,1.89,0,0,1-.51,0c0-.09.31,0,.15-.08l.2.07c-.13-.16.12,0,0-.14a5.41,5.41,0,0,0-.57-.07c-.07,0,0,.07-.05.11-.39,0-.28-.24-.57-.16-.08.05-.11.16-.31.1l.07-.09c-.26,0-.15.14-.43.07,0,0,.21,0,.17,0s-.13.05-.26,0l0-.09c-.28,0-.58.11-.89.14,0,0,.06-.06,0-.08a10.43,10.43,0,0,1-1.21.15l-.12.1s-.07,0,0,0c-.15,0,0,0-.06.09s-.12,0-.07,0a3,3,0,0,1-.95.37l0,0c-.21.06-.16.23-.37.25l0,0c-.44.14-.85.46-1.21.55,0,.13-.41.22-.35.36a1.37,1.37,0,0,0-.53.23c-.08.06-.06.17-.14.26l-.05-.06-.07.17h-.13l-.07.1s.09,0,.1,0-.35.27-.38.25a3.07,3.07,0,0,0-.24.36s0-.09,0-.15c-.09.23-.09,0-.17.19,0,0,0,0,0,.05a1.17,1.17,0,0,0-.35.39l0-.06a7.24,7.24,0,0,0-.53.88c.08-.1.15,0,.11.07H116c0,.08.08-.08.07.07s-.12,0-.11,0l-.05.16s0,0,0-.07-.21.21-.17.34h0a7.64,7.64,0,0,0-.28.76c.06,0,0,.13,0,.23a2.55,2.55,0,0,0-.26.66c0,.18,0,.06.07.15s-.12.25-.13.11a3.26,3.26,0,0,0,0,.78s0-.09.07-.06,0,.16-.08.14v0c.06.43-.21,1,0,1.36v0a2.2,2.2,0,0,0,.12.35c0,.17-.07-.09-.08,0,.17.37.11.62.29.9-.11.31.34.83.42,1.17l0,0c.08.05,0,.1.06.17s0-.1,0-.07a8.47,8.47,0,0,0,1.48,1.76c.22.18.25-.08.49.19l-.13,0a9.58,9.58,0,0,0,1.53.71s0,0-.1,0,.4.15.42.11,0,0,0,.09.3,0,.34.09,0,0-.06,0,.34.1.28,0c.19.09.38.08.53.14s.33.1.39,0c0,.11.34.16.47.11,0,0,.11,0,.05.09.15,0,.28,0,.26-.05.26.17.54-.08.69.1.44,0,.83-.12,1.22-.17,0,.12-.43,0-.4.15a9,9,0,0,1,.93-.21c.1,0,0,.06-.08.08a6.7,6.7,0,0,0,1-.25s0,0-.06,0,.15,0,.13-.06l-.06,0c-.12,0,.21-.21.21-.26-.06.17.32-.06.2.17,0,0,.08-.06.06-.09s.09,0,0,.06c.21-.1.12-.12.32-.18,0,0,0,0,0,.08a.78.78,0,0,1,.34-.21s0,0,0,0c.28-.13.43-.3.74-.42,0,.14.12,0,.18.05l.15-.11h-.09c.14-.07.23-.19.36-.24l-.08.1.24-.18-.16.06c.11-.13-.08-.09.11-.18,0,0,.13-.08.23-.08h0a.49.49,0,0,1,.2-.18s0,.1.07.1.27-.25.29-.37a.06.06,0,0,0,0,.08V88.2c.07,0,.08,0,.1,0,.18-.13-.13,0,.1-.17,0,0,0,0,0,.05.21-.16.33-.38.52-.52.12,0-.13.16,0,.16.24-.25.39-.61.62-.85l0,0c-.08-.12.19-.16.24-.34,0,0,0,.09,0,.07a2.4,2.4,0,0,0,.37-.73V86a2.63,2.63,0,0,0,.26-.43c0-.05,0-.13,0-.1.37-.33.23-.82.5-1.14,0,0,0,.12,0,.08a2.65,2.65,0,0,0,.06-.34c-.06,0,0,0-.1.09a.41.41,0,0,1,0-.23c0,.16.09,0,.14,0s0,0-.05,0c.14-.15-.11-.05,0-.27l0,0a1.74,1.74,0,0,1,0-.27c.07,0,0,.1.07.11,0-.14-.09-.28,0-.4,0,.06,0,.14,0,.2a.42.42,0,0,0,.1-.24h0c0-.08,0-.15.06-.23l0,.06c-.16-.18,0-.35-.12-.58.1.22.06,0,.14.06s0-.15.07-.12,0-.19-.06-.34,0-.12.06-.1c0-.14,0,0-.07,0-.09-.21.06-.53-.12-.82s-.19-.29-.3-.51.11,0,.11,0a.71.71,0,0,0-.11-.35s0,0,.05-.06-.11,0-.13-.17a.38.38,0,0,1,.13.06l-.23-.3s.09,0,.13.07c-.08-.12-.19-.32-.26-.33l0,.09s0-.05.07,0,.05.17,0,.19l-.05-.08c-.09.14.17.32.23.49l-.12,0a1.56,1.56,0,0,1,.14.14s-.06.09-.1,0c0,.14.07.1,0,.22s0,0,0,0l.07.11s-.06,0-.07,0c0,.22.18.32.11.42v0c.09.29.08,0,.21.23l-.16.18.08,0s0,.09,0,.09,0,0,.09,0,.06.42-.06.46c.06.05,0-.15.09,0-.13.05,0,.19,0,.33-.07,0,0-.17-.09,0,.11.08,0,.27,0,.38s0,.26,0,.45c0,0-.09.36-.17.53h0c.08.05,0,.23,0,.37-.05,0-.07,0-.07-.13l0,.12a.25.25,0,0,1,0,.16l-.06,0a1.55,1.55,0,0,1-.14.54c.06,0,.23-.11.19.13,0,0-.09,0-.09-.08a.2.2,0,0,1,0,.11l0-.11c-.06.09,0,.07,0,.14s-.05,0-.08,0,0-.06,0-.1a.37.37,0,0,1-.15.19s.06,0,0,.09-.08,0-.14.11-.06.14,0,.17-.06,0-.08,0-.18.37-.06.32l0,0h0a3.42,3.42,0,0,1-.47.76h0a4.15,4.15,0,0,0-.24.46s-.11.06-.12,0a.63.63,0,0,1-.21.26c.05-.13-.06,0,.06-.12-.13.12-.18.12-.25.3,0-.09-.15,0-.19.1l.12-.05a1.44,1.44,0,0,1-.18.18l0-.09c-.3.17-.34.56-.65.59,0,.1.17-.09.15,0a1.86,1.86,0,0,1-.37.13c-.2.09-.1.21-.3.32,0,0,.11.06,0,.18s-.23,0-.16-.07.05,0,.06,0,.09-.09,0-.08v0c-.08,0-.26.14-.24.07-.09.08,0,.07.06,0-.2.07-.28.15-.48.23,0,0,.08,0,.05,0-.29.11-.09.11-.28.22s0-.11-.19,0-.06-.06,0-.1a1,1,0,0,1-.45.13l.08-.06a.63.63,0,0,1-.14.07l.07,0c-.06,0-.1,0-.11,0s.08.08,0,.17-.22.1-.27,0c.25,0-.05-.07.14-.14a.37.37,0,0,1-.14,0s0,0,0,0c-.25,0-.08.12-.31.19,0-.05-.08-.06-.11,0s.07.06,0,.12-.16.06-.24.08h.1s-.1.06-.21.1.09,0,.05-.05-.29,0-.45.07,0-.08-.09-.09-.21,0-.4,0c.06.05.07,0-.06.11l.32-.09-.2.11c.1,0,.2-.07.27-.06-.09.06-.09,0,0,.09-.15-.07-.27.09-.43,0V89.8c-.24,0-.41.11-.72.09l.1,0c0,.06-.19,0-.29,0s-.05-.06-.1-.1-.22,0-.25.09l-.14-.07c-.25,0-.29.14-.53.09.08,0,0-.09.13-.11-.08,0-.15,0-.15,0s-.23,0-.3,0-.05.07-.14.05,0,0,0,0-.15,0-.07.08c-.22-.19-.69-.11-.87-.29l-.54-.11s0,0,0,0c-.2-.1-.17.1-.39,0s.14,0,.07-.05-.29-.09-.41-.23h0c-.1-.09-.31-.07-.49-.17,0,0,0,0,0,0a1.32,1.32,0,0,1-.61-.18c.09,0,.1,0,.1-.06s0,.1-.2,0-.13-.15-.1-.22l.15.09c0-.12-.19-.11-.26-.17l0,0c-.21-.15-.27-.07-.49-.25v0c-.18,0-.07-.11-.23-.17l0-.11a4.34,4.34,0,0,1-.47-.29,2.15,2.15,0,0,1,.43.2c-.07-.07-.25-.23-.32-.23s.09,0,.11.08a.67.67,0,0,1-.41-.28c.17-.09-.3-.43-.23-.65a3.1,3.1,0,0,1-.48-1c-.09.19,0-.11-.18,0,0-.09,0-.12,0-.13v-.3c0-.08.06.08.09.06-.05-.2,0-.1,0-.24,0,0-.09,0-.09-.17l0,.18c-.14-.26.08-.27-.06-.53l.07.08c-.07-.14-.06-.53-.2-.67,0,0,.05-.06.07,0,0-.35-.15-.79,0-1.06l0,0c0-.07-.06-.12,0-.2s0,0,0,0a.56.56,0,0,1,0-.27l0,.08c.11-.33,0-.54.05-.84.11,0,.22-.22.28-.34h0c.13-.38.16-.67.29-1,.21-.15.43-.67.7-.94,0,0-.06-.06,0-.12s.09-.24.16-.17l0,0c.12,0,.21-.15.3-.25l-.09-.1c.38-.15.62-.77.9-.76,0-.08.13-.15.18-.23l0,.06c.2-.15.31-.2.55-.39l0,.08c.14-.09.07-.29.2-.39l.1.07a3.87,3.87,0,0,0,.8-.42.06.06,0,0,1,0,.07c.13-.05.53-.15.43-.26,0,.08.29-.11.44-.19v.07a.56.56,0,0,1,.28-.24s.05,0,0,0c.16,0,.09-.11.29-.11l-.06.06c.16,0,.14-.05.21-.12s.3-.05.33,0a.2.2,0,0,1,.18-.11s0,0,0,.05c.27,0,.38-.14.57-.1a0,0,0,0,0,0,0l-.36,0c0,.06.18.05.06.16a1.17,1.17,0,0,1,.51-.2l0,0h0a.21.21,0,0,0,.1,0h.14c0,.05.19,0,.28,0s.1-.07,0-.12l-.07,0h0l-.21,0a.24.24,0,0,1,.23,0l.11-.12c.12.09.34.14.37.2a2.34,2.34,0,0,0,.77-.13c.07,0,.08,0,.11.07s-.09,0-.12,0c.15,0,.43,0,.48-.06s-.11.07.14.08l0,0c.46.23.85-.1,1.34.24,0,0-.05,0-.05,0a5.92,5.92,0,0,1,1.75.78c.14.11.18.07.3.09v.08l.21,0c.25.11.26.41.58.53v-.07c.08.09.3.24.24.27s.07,0,.08,0l0,0a2,2,0,0,1,.25.16c.12.19-.14.08.06.33.09.08.31.19.31.14s-.06-.11,0-.14l.09.07c.11-.05.26-.05.14-.33l-.19-.11v-.09l.11.13c0-.11-.1-.13-.17-.16a.14.14,0,0,0,0-.11L130,78s.13,0,0-.11,0,.13-.14.05,0-.12-.1-.16,0,0,.08,0-.21-.17-.29-.16-.28-.2-.2-.28a.7.7,0,0,1-.27-.09c.21,0-.27-.22-.17-.3-.17,0-.42-.19-.65-.25,0,0,0,0,.06,0a1.38,1.38,0,0,1-.19-.17c-.06.08-.25,0-.36,0-.1-.15.13-.07.13-.17,0,.08-.28,0-.25,0-.08-.1-.08-.07-.11-.17-.07.11-.11,0-.23,0-.14-.11,0-.12-.19-.15S127.22,76.06,127.22,76.06Zm-4.4-.31h0Zm-.37.05.16,0s0,0,0,.05S122.51,75.82,122.45,75.8Zm.81.4c-.05,0-.07,0-.08,0h.1Z"/><path class="cls-3" d="M123.36,76.11h0l0,0Z"/><path class="cls-3" d="M130.46,85.66h0Z"/><polygon class="cls-3" points="117.77 77.76 117.78 77.78 117.8 77.74 117.77 77.76"/><path class="cls-3" d="M131.38,83.88l0,0Z"/><path class="cls-3" d="M131.55,83l0-.12Z"/><path class="cls-3" d="M131.62,82.34h0Z"/><path class="cls-3" d="M125.22,90.12h0Z"/><path class="cls-3" d="M128.06,88.67l-.07.08C128,88.73,128.09,88.71,128.06,88.67Z"/><polygon class="cls-3" points="121.64 90.41 121.64 90.41 121.62 90.41 121.64 90.41"/><path class="cls-3" d="M127.87,88.84a.31.31,0,0,0,.12-.08A.48.48,0,0,0,127.87,88.84Z"/><polygon class="cls-3" points="131.03 79.47 131.02 79.44 131 79.44 131.03 79.47"/><path class="cls-3" d="M131,79.44l0,0S131,79.44,131,79.44Z"/><path class="cls-3" d="M130.93,79.35l.05.06S131,79.35,130.93,79.35Z"/><path class="cls-3" d="M131.33,80.32h0Z"/><path class="cls-3" d="M131.42,80.58a.88.88,0,0,0,0-.26h0S131.36,80.53,131.42,80.58Z"/><path class="cls-3" d="M131.29,81.74v-.22s-.06.09-.07,0C131.17,81.79,131.28,81.45,131.29,81.74Z"/><path class="cls-3" d="M131.27,82.41c0-.12,0,0-.05,0S131.25,82.5,131.27,82.41Z"/><path class="cls-3" d="M129.57,86.91l0,0C129.47,86.94,129.54,86.88,129.57,86.91Z"/><polygon class="cls-3" points="129.17 87.84 129.26 87.81 129.25 87.73 129.17 87.84"/><polygon class="cls-3" points="128.45 87.89 128.47 87.85 128.37 87.97 128.45 87.89"/><path class="cls-3" d="M120.78,89.65v.08C120.86,89.72,120.89,89.64,120.78,89.65Z"/><path class="cls-3" d="M117.58,88.24a.18.18,0,0,0-.14-.14C117.5,88.15,117.54,88.22,117.58,88.24Z"/><path class="cls-3" d="M117.53,78.88l0,.07.07-.11Z"/></g></g><g id="Layer_3" data-name="Layer 3"><g class="cls-1"><path class="cls-2" d="M162.07,128.82c-9.43-13.36-24-23.47-40.26-25.44s-33.75,5.11-42.4,19c-1.42,2.27-2.72,4.82-5.07,6.11-3.21,1.76-7.14.57-10.78.16C49.4,127,35.66,140.88,37.33,155a50.74,50.74,0,0,0-26.12,10.9C6,170.18,1.35,176.07,1.26,182.82s6.26,13.63,12.8,12C6.77,209.41,12.2,229.13,26,238s33.95,5.53,44.19-7.21c3.94,8.2,8.44,17,16.62,21s20.67-.51,20.78-9.61c16.86,19.71,50.12,22.35,69.88,5.53L207,245.28c8.51-.68,17.2-1.4,25-4.82s14.74-10.11,16.09-18.54-4.63-18-13.15-18.56c12.61-9.4,15.94-29.13,7.11-42.16s-28.39-17.23-41.8-9c7.62-8.82,3.49-24.21-6.8-29.68s-23.93-1.67-31.61,7.09"/><path class="cls-3" d="M161.39,129.18c-.18.34.09.3.8-.49l.29-.78Z"/><path class="cls-3" d="M167.18,124.92a12.23,12.23,0,0,0,1.26-1.2c.3-.31.37-.52-.07-.45a23.28,23.28,0,0,0-2.1,2.06c-.82.67-1.54,1-1.48.84-.23.31-1.29,1.05-1.58,1.59a15.93,15.93,0,0,0,1.87-1.38c.68-.48,1.32-1.12,2-1.69C167.49,124.54,167.22,124.82,167.18,124.92Z"/><path class="cls-3" d="M237.8,156.9l-.47-.46C237.45,156.58,237.61,156.73,237.8,156.9Z"/><path class="cls-3" d="M243.74,208.75c-.32-.34-.48-.46-.51-.46C243.54,208.59,243.79,208.84,243.74,208.75Z"/><path class="cls-3" d="M247.26,218.34l0-.6A2.3,2.3,0,0,0,247.26,218.34Z"/><path class="cls-3" d="M237.8,156.9c.4.39.73.85,1.09,1.27C239,158.19,238.38,157.48,237.8,156.9Z"/><path class="cls-3" d="M180.31,119.28a9.28,9.28,0,0,0-.94.2l.88-.14Z"/><path class="cls-3" d="M212.25,148.94l-.5,0a2.83,2.83,0,0,0-.4.18Z"/><path class="cls-3" d="M203.19,144a1.38,1.38,0,0,0,.24.87,6.07,6.07,0,0,1,0-1.05C203.36,143.83,203.29,143.88,203.19,144Z"/><path class="cls-3" d="M185.2,120.38h0Z"/><path class="cls-3" d="M227.09,150.79a.4.4,0,0,0,.15.16S227.18,150.86,227.09,150.79Z"/><path class="cls-3" d="M144.84,110.49s0,0,0,0S145,110.58,144.84,110.49Z"/><path class="cls-3" d="M162,128.86l-.22-.27a.32.32,0,0,0-.17,0Z"/><path class="cls-3" d="M239,234.52l.07,0C239.47,234.12,239.25,234.31,239,234.52Z"/><path class="cls-3" d="M77.3,241.37c.47.91-.06.27-.53-.26s-.84-1-.11.39C76.59,241.21,78.59,243.54,77.3,241.37Z"/><path class="cls-3" d="M180.89,119.25l.91,0C181.38,119.22,181.1,119.23,180.89,119.25Z"/><path class="cls-3" d="M76.66,241.5h0l.16.28Z"/><path class="cls-3" d="M196,245a2,2,0,0,0,.48.09S196.31,245,196,245Z"/><path class="cls-3" d="M229.54,240.6l-.79.25C229.06,240.76,229.32,240.68,229.54,240.6Z"/><path class="cls-3" d="M178.28,246.77l-.64,0-.44,0c-.17,0-.29.2-.48.34L177,247c.07,0,.12-.16.22-.16l.34,0,.4,0Z"/><path class="cls-3" d="M161.92,255.36l.34,0c.17-.06.37-.13.54-.2C162.51,255.21,162.21,255.28,161.92,255.36Z"/><path class="cls-3" d="M90.43,109.59a4,4,0,0,1,.87-.27C91,109.31,93.25,107.71,90.43,109.59Z"/><path class="cls-3" d="M180.34,119.44a1.18,1.18,0,0,1,.55-.19l-.63.09C180.21,119.39,180.2,119.43,180.34,119.44Z"/><path class="cls-3" d="M178,249H178l-.07.05-.6.47c-.4.3-.78.64-1.21.92.36-.23.73-.54,1.14-.85l.62-.49L178,249A.06.06,0,0,1,178,249Z"/><path class="cls-3" d="M1.6,188.91l-.35-.64A4.1,4.1,0,0,0,1.6,188.91Z"/><path class="cls-3" d="M168.42,255.13c-.52.16-1.07.33-1.63.53a2.29,2.29,0,0,0-.29.21C167.14,255.62,167.79,255.41,168.42,255.13Z"/><path class="cls-3" d="M91.31,109.32h0Z"/><path class="cls-3" d="M109.62,102c-2.85.47-1.28.59-1.84.9-1.67.34-2.06.4-2.2.33s0-.25-.59-.2c-2.08.58-3.52,1.46-5,2-.13,0-.43.08-.12-.13-1,.56-2.57,1.13-4.1,1.93l-1.16.57c-.37.21-.74.43-1.09.64a15.12,15.12,0,0,0-1.86,1.27,1.14,1.14,0,0,1-.33.11c.45-.08.6,0,.6.21-1.06.7-1.83,1.49-2.37,1.55a3.41,3.41,0,0,0,.91-.8c-.35.28-.71.54-1,.83-.57.23-.25-.1.25-.44s1.12-.77,1.05-.88a72.7,72.7,0,0,0-5.81,5c-.55,0,3.41-3.21,1.22-1.65.78-.69,1.67-1.23,2.5-1.84-2.21,1,1.53-1.13-.56-.25a24,24,0,0,0-3.33,2.84c-.43.39-.81.82-1.28,1.33s-1.06,1.06-1.73,1.84c-.44.84.4-.05,0,.78-.42.59-.8,1.08-1.13,1.49s-.57.79-.81,1.09a12.84,12.84,0,0,1-1.22,1.32,10.32,10.32,0,0,0-2.1,3,9.79,9.79,0,0,1-.56,1.35,4.18,4.18,0,0,1-2,1.7,6,6,0,0,0,.53-.79,18,18,0,0,1-2.27,1.25,4.88,4.88,0,0,1-2.92.22c.35-.06,1.06,0,1.6-.11s.92-.12.66-.11a8.82,8.82,0,0,0-2,.05,3.93,3.93,0,0,1-1.65.07L67.5,128c-1-.12-2-.28-3.14-.39s-2.29-.07-3.45-.1A25.09,25.09,0,0,0,54,129c.21-.18,1-.54-.13-.28a31.08,31.08,0,0,0-8.15,4.6,30.47,30.47,0,0,0-6.22,6.81c-.28.7-.62,1.36-.84,2.08-.22.47-.52.82-.34.28-1,2,.12.19-.22,1.22-.27.58-.44,1-.54,1.11s-.14,0,0-.39A27.93,27.93,0,0,0,36.29,152a6.63,6.63,0,0,0,0,1.07l.05.75c0,.15.05.33,0,.43l-.54.06-.26,0-.34,0-.91.12-1.66.22.77-.25c-3.17.53-3.38,1.35-6.27,1.95l.52-.22A48,48,0,0,0,18,160.32a88.66,88.66,0,0,0-7.86,5,31.38,31.38,0,0,1-2.78,2.73c-1.2,1.15-2.2,2.42-2.11,2.77a33.43,33.43,0,0,0-2.34,2.83,15.78,15.78,0,0,0-2.24,4.47c-.45,1.51-.24,2.36-.28,4.26l-.31,0a12.43,12.43,0,0,0,.51,2.64,10.56,10.56,0,0,0,0,1.46,16.08,16.08,0,0,0,.7,1.72c-.25-.7-.43-1.5-.3-1.43a23.63,23.63,0,0,0,2,4.06l.53.82.47.63a3.22,3.22,0,0,1,.41.64,11.71,11.71,0,0,0,6.19,3,1.61,1.61,0,0,1-.85,0,7.73,7.73,0,0,1-1.4-.35l.6.19.48.1L10,196c.28.09.35.12.41.18a.59.59,0,0,0,.36.15l.56.07h.2l0,0,.1,0c-.05-.07.14-.19.22-.25a.67.67,0,0,0,.26,0h0l0,.06-.07.12-.13.25c-.08.16-.16.33-.23.49a.6.6,0,0,0,0,.09l-.07.21-.13.41-.26.83c-.16.55-.33,1.08-.46,1.58,0-.18,0-.36-.05-.55A34.79,34.79,0,0,0,10,215.13c-.18-1.94.25-1.53.51,0l-.23.68c.4,1-.18-1.63.46.36.41,1.94-.06,1.39-.42.29l.66,2.36c-.06.17-.24-.38-.39-.49.41.92.91,4.18,1.87,5.38l0,.17a32,32,0,0,0,3.15,5.71,23.36,23.36,0,0,0,1.65,2.2c.29.36.58.75.91,1.13l1.08,1.15c.13-.06.48.23.93.64a11.52,11.52,0,0,0,1.62,1.21,27.5,27.5,0,0,0,8.92,5.81c2.63.78.84,0,2,.28a5.2,5.2,0,0,0,1.71.77c.71.21,1.16.36.15.22,1.14.23,2.07.51,2.93.6l2.46.3c.82,0,1.68.05,2.7.08s2.2-.12,3.66-.2c-.64-.08-1.35-.1-1-.2,1.05,0,2.4-.11,2.27,0l-.28.06a53,53,0,0,0,10.41-2.45,24,24,0,0,0,8.43-4.88l-.22.2a22.26,22.26,0,0,0,2-1.89c.3-.31.68-.68.92-.94l.45-.6c.46-.48.31-.24.17,0s-.25.48,0,.31l.29-.43.07-.1,0,0L70,233l.14.21.07.12,0,.06.1.19,1.52,3a36.68,36.68,0,0,0,3.38,5.65,21.26,21.26,0,0,0,5.36,6.87,26.85,26.85,0,0,0,4.33,3.09,20.18,20.18,0,0,0,2.23,1.12,19.9,19.9,0,0,0,2.08.81l-.26-.25a13.48,13.48,0,0,1,1.44.31,9.48,9.48,0,0,0,1.17.34c-.13-.16-1.45-.39-.6-.35a19.41,19.41,0,0,0,11.28-2.05,14.05,14.05,0,0,0,4.59-3.93,7.58,7.58,0,0,0,.84-1.32l.35-.71.17-.36a1,1,0,0,0,.06-.14l.14-.4,0-.16a1.85,1.85,0,0,1,.22.31v0l.13.13.51.52c.33.35.67.7,1,1,.71.65,1.41,1.32,2.16,1.92l1.11.92,1.16.85a8.43,8.43,0,0,0,3,1.54,7.48,7.48,0,0,1,1.3.52c.56.29,1.3.73,2.41,1.39l-1.47-.37a68.24,68.24,0,0,0,11.87,4.39,46.91,46.91,0,0,0,12.37,1.57,3.71,3.71,0,0,1-1.3.12,17.7,17.7,0,0,0,3.83.13,8.33,8.33,0,0,0,2.55-.37c1.26-.07.31.15,1.09.19a15.6,15.6,0,0,0,2.91-.39,10.61,10.61,0,0,1,2.3-.37c.16,0-.47.16-.77.23,1.11-.22,5.15-1.08,4-1.09a51.9,51.9,0,0,0,7.85-2.64,32.17,32.17,0,0,1,2.92-1.49,5.75,5.75,0,0,0,2.06-1.36c0,.27,1.21-.37,2.58-1.24.66-.47,1.37-1,2-1.48l.83-.74.35-.33.15-.15c.06-.05.09-.09.09-.1s0,.06,0,.07h.06s.07,0,.13,0,0,0,.18.06.1.06-.06.12c2.13-.18,4.1-.42,3.71-.62,4,.22,7.92-1.07,10.21-.55,6.37-.75,12.25-1.38,18-2-.17.47-6.35.56-6.06,1,5.43-.64,8.56-1.19,14-1.8,1.41-.13-.77.3-1.24.44,5.43-.87,10.63-1.76,15.15-3.93a4.83,4.83,0,0,1-.93.51c.91-.37,2.14-.82,1.95-1-.28.16-.57.3-.86.43-.79.15.07-.32,1.08-1a14.78,14.78,0,0,0,2.2-1.51c-.57.67.5.09,1.47-.43s1.82-1,.92,0c.53-.38,1.13-.95.93-1,.79-.54,1.09-.66.4,0a14.64,14.64,0,0,0,1.44-1.25,7.77,7.77,0,0,0,.67-.71c.34-.42.69-.75,1.79-1.91.06.08-.36.57-.51.89,1-1.3,2-2.62,3.51-4.84,0,.17.2-.05-.25.62a19,19,0,0,0,2.53-5.82,22.13,22.13,0,0,0,.68-6.62c.57,1.48,0-1.75.22-2.09a9.78,9.78,0,0,0-.38-1.36,13.38,13.38,0,0,0-.47-1.32,9.85,9.85,0,0,1,.17,1.12,21.26,21.26,0,0,0-3.09-5.84l.6.68.54.73a16.92,16.92,0,0,0-2.89-3.51,10.89,10.89,0,0,1,.84,1,8.46,8.46,0,0,1,.77,1c-.81-.91-.91-.73-1-.72s-.09,0-.26-.15-.43-.49-1-1c.24.21-.17-.21-.8-.75l-1.05-.83c-.37-.25-.73-.48-1-.69h0c-.53-.26-1.15-.37-1.77-.61-.31-.1-.57-.13-.89-.23a6.7,6.7,0,0,0-.95-.22c-.09-.06.17-.12.4-.17s.43-.11.42-.14a4.63,4.63,0,0,1-.76,0s-.1,0-.1,0l.06-.06.14-.14.34-.31c.25-.23.54-.46.8-.72l.52-.57.52-.58a8,8,0,0,0,.73-1c-.28.4-.15.55,0,.46a6.88,6.88,0,0,0,.44-.9c.74-.81.87-.91.89-.67,1-1.29.79-1.15.59-1.06s-.28.16.85-1.43c-.15.27,0,.17-.35.73a33.6,33.6,0,0,0,4.54-10.18c.68-.93-.83,3.05-.17,2,.18-.63.37-1.27.54-1.91l.36-2c.06-.33.13-.66.17-1l.09-1c.05-.67.13-1.34.17-2,0-1.34.08-2.68-.06-4l-.13-1.95-.26-1.9.09.94c-.33-.31-.33-1.25-.5-2.4a12.28,12.28,0,0,0-.93-3.72c.24.58.55.69.44.54a24.64,24.64,0,0,0-6.39-10.44l.55.38a28,28,0,0,0-5.62-5.08c-.59-.3-1.68-.92-1.12-.38a21.84,21.84,0,0,0-8.84-4c-.77-.15-1.52-.38-2.29-.46l-2.27-.34c-1.52-.12-3-.37-4.52-.46.72,0,1.72-.13,1.15-.13l-2.57.08c-.85.07-1.7.2-2.55.3.43.19.69.07,1.77.15a12.08,12.08,0,0,1-1.41.31l-.92.15-.94.2c2.21-.58-.07-.36-1.09-.3.18,0-.14.18,0,.23-1.36,0-1.42.27-1.61.44s-.51.42-2.22.84l.13-.18-1.68.83c-.61.27-1.23.63-1.81.94,0-.23,1.29-.85,1.58-1.16a11.91,11.91,0,0,0-1.47.87l-.87.56-.44.27.16-.25c.26-.44.76-1,1.2-1.65a8.29,8.29,0,0,1-.86,1.35l-.17.25a3.6,3.6,0,0,0,.31-.19h-.11l.09-.1.3-.34c.47-.54.68-.78.86-1s.28-.47.51-.82l-.05.09a6.52,6.52,0,0,0,.54-.95l.33-.75a5.54,5.54,0,0,0,.32-.84,5.73,5.73,0,0,1-.38.84c.11-.67.13-1.34.25-2s.21-1.34.3-2.05a12,12,0,0,0,.12-2.23,10.24,10.24,0,0,0-.32-2.44c.72,3.32.3.54.62.76,0-.45,0-1,0-1.44s0-.66,0-.47c-.3-.8-.32-1.51-.54-2.27a8.15,8.15,0,0,0-1-2.65,4.46,4.46,0,0,0-.27-.85c-.14-.36-.27-.67-.07-.55-1.08-1.92.09.54-.11.42a47.5,47.5,0,0,0-3.09-4.9,14,14,0,0,0-5.29-4.42,15.33,15.33,0,0,0-4.22-1.49,16.65,16.65,0,0,0-1.81-.31c-.33,0-.68-.12-1.06-.16l-1.27-.11c-1.24-.34,1.08-.2,1.08-.2a14.09,14.09,0,0,0-2.8-.41c-.45,0-.89-.05-1.34,0l-1.4.11c.39-.1,0-.16-.63-.24a5.41,5.41,0,0,0-1.35.33,10.14,10.14,0,0,1-1.71.32,5.45,5.45,0,0,1,1.49-.64,25.17,25.17,0,0,0-2.71.67c-.88.32-1.77.6-2.65,1-.27,0,0-.15.38-.36l1.27-.53a27.91,27.91,0,0,0-3.46,1.32,9.11,9.11,0,0,0-2.2,1.34c.41-.2.85-.35,1.28-.51-.7.33-.47,0,0-.33a9,9,0,0,1,1.06-.56,6.22,6.22,0,0,1,.81-.24,1.68,1.68,0,0,1,.76-.05l-1.25.52a14.46,14.46,0,0,0,3.44-.94,20.24,20.24,0,0,1,4.46-1l-1.08.55,1.36-.33c.46-.09.92-.15,1.38-.23.6.09,1,.31-.33.41a17.74,17.74,0,0,0,1.78,0,5.88,5.88,0,0,1,1.57.13c.18.06.09.06-.08.07l1.87.14c-.38,0,.26.33-.86.11.41.09.8.16,1.17.23l1,.25.95.19.83.23a13.71,13.71,0,0,1,1.38.42,4.42,4.42,0,0,1,1,.56l-.26-.09c1.08.43,1.59.74,1.88.87s.33.1.34,0,0-.13.18-.1a3.82,3.82,0,0,1,1.33.63,15.11,15.11,0,0,1,1.3,2.1l.54.1c.17.17.41.43.59.64s.25.4.15.37c1.28,1.25-.09-.32.72.36.16.25.34.51.54.78l.56.89.59.91c.19.31.34.63.51.93a5.13,5.13,0,0,1,.91,2.63c.53.69-.66-2.12.42.12-.23.82,1,2.71,1,4.87-.33-.61-.6-2.56-.43-.48a3,3,0,0,1,.3,1.16,7.23,7.23,0,0,1,0,1.53l-.14,1.62c-.08.52-.18,1-.21,1.45.09,0,.11.29.09.7s-.2,1-.35,1.6a5.35,5.35,0,0,1-.33,1l-.2.52c-.08.2-.16.44-.27.66a11.32,11.32,0,0,1-.78,1.38l-.76,1.3a7.33,7.33,0,0,0-.53.62l-1.3,1.64,0,.16a.16.16,0,0,0,0,0l.11-.05.22-.11.93-.48,2.09-1.07,2.1-.87,1-.41c.15-.06.33-.14.45-.18l.33-.08-.06.08a5.87,5.87,0,0,1,2-.9c1-.31,2.22-.5,3.24-.75,0,.23-.4.39-1.48.7.64-.11,1.26-.28,1.91-.33a11.28,11.28,0,0,1,2.3-.45l-.47.32a25,25,0,0,1,8.49.38c.25-.21-2.54-1.17,1-.7.1.19.18.39-.75.3a6.41,6.41,0,0,1,1.68.33c-.48,0-1-.11-1.43-.11,1.47.45.82,0,2,.32-.07.18.84.36.63.47a13.3,13.3,0,0,0-1.48-.39c.66.2,1.39.4,2,.65a9.93,9.93,0,0,1,1.33.68c-.07-.15.09-.25,1,.06,2.38,1,.72.58,2,1.29.65.09,2,1.09,2.17.84a2.77,2.77,0,0,1,.92.78,30.13,30.13,0,0,1,2.83,1.93c.93.76,1.62,1.28,1.15.67l-.25-.24.18.13h0a20.68,20.68,0,0,1,4.55,5c.57,1,1.17,2,1.66,3l.7,1.53.35.75.29.77-.1,0c1.13,2.38,1.55,5.59,2,7.42.06.78-.08,1.84-.21,1.52a16.8,16.8,0,0,1,.15,2.22c0,.33,0,.7,0,1.15a11,11,0,0,1-.2,1.72c0-1,0-.83,0-.76a12.27,12.27,0,0,1,.06-1.3,22.69,22.69,0,0,1-.36,2.87c-.06.4-.11.81-.14,1.3s-.16,1-.23,1.72c0-.49-.2,0-.4.7s-.54,1.69-.67,2.29l.7-1.67a23.94,23.94,0,0,1-1.22,3.61l-.06-.73c-.59,1.17-1,2.33-1.59,3.38-.27.53-.47,1.08-.76,1.57l-.82,1.47-.4.72c-.15.23-.31.44-.46.66-.31.43-.63.86-.95,1.26a12.39,12.39,0,0,1-2.24,2.06c-.38.46-.34.44-.1.28l.37-.32.39-.35c.54-.49,1.1-1,.77-.46-.85,1.06-4.11,3.19-5.62,4.4.54.11,1,.19,1.28.23.71.1,1.37.22,1.95.35s1.1.21,1.56.28l.34.05.16,0,.3.08.56.13a5,5,0,0,1,1.2.42,7.27,7.27,0,0,1,1.64,1.06c-.14-.17-.25-.38,0-.37s.69.26,1.69,1.12a11.23,11.23,0,0,1,.92,1.16,2.58,2.58,0,0,1,.31.71c0,.28-.21.16-.7-.4-.38-.42-.54-.64-.5-.65-.52-.57-1.34-1.15-.72-.45a2.42,2.42,0,0,1,.3.13c.17.24.44.56.73.91s.54.77.79,1.12c.46.73.71,1.29.44,1,1,1.46.58.55-.07-.61.37.66.7,1.25.95,1.83a17,17,0,0,1,.71,1.67,17.86,17.86,0,0,1,.55,1.75,14.09,14.09,0,0,1,.32,2.07c0-.5.07-1,.16-.48l.1,1.4v.88a5.08,5.08,0,0,0,.08.82,4.66,4.66,0,0,1-.05,2c-.27.86-.34.68-.41.68s-.11.17-.49,1.7c-.81,1.75-.41.27-.29-.47a14.74,14.74,0,0,1-3.32,6,14.72,14.72,0,0,0,.77-1.27,14.6,14.6,0,0,1-1.32,1.94l.7-.53c-.55.69-1.05,1.24-1.11,1.16-.48.79.77-.27-.29,1.24-.87.82-2.57,2.61-3.1,2.61,1.49-1.15,1.32-1.18,1.14-1.12s-.45.12.68-1a12.52,12.52,0,0,1-1.67,1.48c-.12.06.06-.13.23-.3a8.07,8.07,0,0,0-2,1.65,6.34,6.34,0,0,1-2.14,1.7c.32-.39-.9.15-1.43.44,1.31-.69.78-.08-.39.69-1.11.45-1.69.74-2.16,1a8.52,8.52,0,0,1-1.38.63c.46-.14.92-.29,1.37-.46a12.39,12.39,0,0,1-3.12,1.36c-.18-.09,1.43-.57.84-.44-1.69.91-4.15.93-6.67,1.64-1.22.12-.18-.29-1.24-.19-2.86.72-3.17.28-6.22.83.91.14,1.07.07-1.09.53,1.69-.23,3.38-.49,5-.79-1.06.28-2.13.53-3.2.77,1.54-.17,3.21-.57,4.12-.67-1.51.43-1.37.35-.6.43-2.14,0-4.13.77-6.6.76l0-.6c-3.68.08-6.5.84-11.3,1.08l1.55,0c-.62.28-3,.27-4.49.49.13-.21-.85-.2-1.52-.27.09.14-3.5.27-3.91.69l-2.16-.09c-3.87.2-4.36.91-8.08,1.14,1.1-.3-.6-.31,1.88-.66a8.59,8.59,0,0,0-2.37.29,14.16,14.16,0,0,0-2.13.23c-.45.07-.92.13-1.34.17l-.67,0c-.26,0-.54,0-.7.13s-.26.27-.37.4-.13.19-.22.3a6,6,0,0,1-1,.93c-.14.06-.05-.08-.05-.08s-1.67,1.37-.56.85c-1.69.91-3.93,2.29-6.22,3.5a23.61,23.61,0,0,1-6.29,2.42,44.23,44.23,0,0,1-8,2.14c.14-.08,0-.1.45-.16a9.61,9.61,0,0,0-2.72.58,7.85,7.85,0,0,1-3.1.45c-1-.12-.48-.17.12-.23s1.29-.11.68-.12c-.56-.55-4.61.33-7.16-.25h.62c-1.93-.29-4.79-.11-7.93-.78,0,0,.16,0,0-.09a35.33,35.33,0,0,1-9.2-2.16c1,.12,1.36.39.9-.07-1.3-.48.22.56-2.37-.44l-1.58-.95a3.44,3.44,0,0,1-1.06-.89c.77.4,1.55.77,2.35,1.11a11,11,0,0,0-2.06-1.13,14.58,14.58,0,0,1-2.13-1l.23,0c-.87-.47-1.53-.82-2.08-1.14s-1-.52-1.48-.79a21.45,21.45,0,0,1-3.52-2.43l.27.37a5.34,5.34,0,0,1-1.69-1.35,9.85,9.85,0,0,0-1.57-1.49l-.12-.39-.24-.52-1.22-1.22-.76-.76-.41-.41c-.13-.13-.31-.36-.36-.23l-.11,1.93a16.77,16.77,0,0,1-.29,1.81,4.94,4.94,0,0,1-.45,1.39c-.09.2-.16.41-.26.6l-.34.53a6.84,6.84,0,0,0,.41-1l.2-.58.11-.3.06-.15,0-.23.33-2.1.14-2.46c.05,0,.07,0,.15,0l.2.2.4.4.77.76-.75-.83-.44-.48c-.15-.17-.32-.38-.42-.38l-.2,2.29c-.09.75-.25,1.42-.35,2.07a4.17,4.17,0,0,1-.35,1.22,4.56,4.56,0,0,0-.2.64l.33-.88.09-.22a.87.87,0,0,0,.09-.28c.05-.25.11-.49.17-.7l-.06.55a2,2,0,0,1-.08.47l-.23.71a6.2,6.2,0,0,1-.74,1.51,3.68,3.68,0,0,1-.55.75l-.65.75-.8.68-.42.35-.47.3c0-.23-.41-.09-1.05.24-.34.13-.75.31-1.2.51s-1,.35-1.5.55-1.11.29-1.67.44-1.14.16-1.66.23a7.05,7.05,0,0,1-2.49-.18h-1c-.32,0-.63-.07-1-.11a10.46,10.46,0,0,1-1.87-.41,14.91,14.91,0,0,1-1.79-.69c-.58-.32-1.17-.62-1.73-1A27.43,27.43,0,0,1,79.28,244c.92,2.08-1.15-1.39-1.38-.75a10.08,10.08,0,0,1-1.24-1.77c-.73-1.3-1.39-2.63-2-4-.36-1,.8,1.15.86,1-1.54-2.8-.45-1.28-1.31-3.22,0,.49-.81-.83-1.54-2.52l.92,2.43a18.81,18.81,0,0,1-1.22-2.27l-.45-1.05-.51-1.25-.54-1.33-.32-.74c0-.22-.14,0-.22,0l-.26.27c-.71.75-1.65,1.81-2.83,3.25l1.51-2-1.17,1.37a10.35,10.35,0,0,1-1.11,1.14,25.52,25.52,0,0,1-2.23,2c-1.58,1.34-3.34,2.44-4.2,3.21-.4.12-.95.2-.07-.28A47,47,0,0,1,52,240.78a31.44,31.44,0,0,1-4.07.84c-.65.08-1.28.17-1.88.2s-1.17,0-1.7,0l.41-.16c-.51,0-.95.13-1.42.19a6.67,6.67,0,0,1-1.62-.08c.07-.06.41-.13-.05-.16a15.74,15.74,0,0,1-1.72,0,20.37,20.37,0,0,1-2.31-.28h1.16c-2.61-.44-4.56-.93-6.43-1.43a23.84,23.84,0,0,1-5.55-2.25c.16-.28-3.11-2.81-4.53-4.31h.1c-.56-.52-1-1.09-1.53-1.59l-.72-.76-.64-.8c-.42-.53-.86-1-1.25-1.54l-1.11-1.58a14.21,14.21,0,0,1-1-1.62l-1-1.68A33.45,33.45,0,0,1,13.53,220c-.08-.44-.19-1-.34-1.52s-.22-1.21-.36-1.89a19.75,19.75,0,0,1-.37-2.17c-.08-.77-.24-1.56-.28-2.37a28.7,28.7,0,0,1,.7-9.56c-.26.83-.31-.2-.13-1.21.39-1.27.82-3.64,1.11-3.31l-.15.45a2.22,2.22,0,0,0,.17-.24l.22-.39c.21-.38.44-.84.69-1.35.48-1,1.07-2.27,1.55-3.45-.8.13-1.6.3-2.4.41l-1.21.14-.59.07a2,2,0,0,1-.46,0l-.38.49a11.39,11.39,0,0,1-3.94-1.86A13,13,0,0,1,4,188.76a11,11,0,0,1-1.61-4.09,6.53,6.53,0,0,1,.16-3.09,15.33,15.33,0,0,1,.76-4.15l.24.17a21.08,21.08,0,0,1,2.26-4.07,32.42,32.42,0,0,1,3.45-4.15l-.51.81c1.82-1.82,1.8-2.89,3.73-4.44l.84-.11c3.72-2.78,8-4.69,12.12-6.65,0,.09-.13.25-.82.54,1-.42,3-1,4.66-1.53s3-.83,2.52-1c.07.17,1.23-.09,2.69-.4l1.14-.25,1.81-.31.86-.15-.09-.94-.15-1.56a2.13,2.13,0,0,1,.31.56,6.66,6.66,0,0,0-.17-.87l-.13-.55a8,8,0,0,1-.09-1,10.57,10.57,0,0,1,.18-2.84c.17-.67.34-.55.09.33.59-2.21.1-1.83,1.16-4.43a7.11,7.11,0,0,0-.19,1,9.49,9.49,0,0,1,.49-1.26c.13-.31.21-.53.28-.73.14-.39.15-.69.38-1.32a14,14,0,0,1,1.53-2.44,6.84,6.84,0,0,1,1.42-1.44,7.56,7.56,0,0,1,1.84-2.42c.21-.05-.14.31-.29.53.74-.66,1.4-1.22,2-1.77l1.66-1.36a11.22,11.22,0,0,1,1.57-1.09,7.43,7.43,0,0,1,1.75-.86.68.68,0,0,0,.49,0l-1,.48-.91.54c-.57.35-1.11.63-1.52.92-.8.59-1.27.92-1.18.85.17.2,2.19-1.26.81.22a23.24,23.24,0,0,1,3-2.33c.62-.35,1.25-.69,1.88-1a12.78,12.78,0,0,1,1.87-.66,1.65,1.65,0,0,1,.33,0l-.23.11c.27-.07.52-.17.76-.24l.71-.19c.77-.1,1.25-.23,2-.3a5.41,5.41,0,0,0,1.68,0,7.26,7.26,0,0,1,1.26,0l1.11,0c-.09-.29,1.55-.16,0-.47.2,0-.24,0-1.07,0h-.53l.09,0a8.44,8.44,0,0,0-1.41.07c-.52.06-1.1.08-1.7.17a9.89,9.89,0,0,1,1.54-.31,5.33,5.33,0,0,1,1.86,0c.65-.15,1.38-.3,1.8-.37.86.28,2.11.64,3.24.94s2.14.51,2.39.64a13.79,13.79,0,0,0,3.47-.28,8,8,0,0,0,3.36-1.65,11.5,11.5,0,0,0,3.17-4.71,3.35,3.35,0,0,1,1.11-1.33,15.84,15.84,0,0,0-.83,1.57c.51-1,1.43-2.37,2.21-3.59a11.49,11.49,0,0,0,1.6-2.48c2-2-.85,1.36,1.77-1.48l-.28.45a99.64,99.64,0,0,1,7.69-6.45A26.69,26.69,0,0,1,102,106a4,4,0,0,1-1,.18,56.21,56.21,0,0,1,14.48-2.59,39.58,39.58,0,0,1,14.41,2.23,26.65,26.65,0,0,0,2.6.81,18.32,18.32,0,0,1,1.9.44l.43.5,1.38.38,1.35.45a14.06,14.06,0,0,1,2.56,1.29,26.89,26.89,0,0,1,2.3,1.55c1.52,1.1,3.12,2.29,5.29,3.63l-.4-.56c1.47,1.09,4.59,3.55,4.2,3.53a2.9,2.9,0,0,1,1,.81l-.07.15c1.18.93,2.27,2,3.4,3,1.13,1.33.92,1.34.85,1.48s0,.18.19.51.66.86,1.44,1.85l2.23,2.43c.7.75,1.22,1.23,1.05.92-.45-.62-1.08-1.63-1-1.77l1.1,1.35c.56,0,1.77.81-.56-2.88l-2.13-2.17c-.15-.3-.32-.58-.47-.88.58.62,1.1,1.29,1.65,1.94a8.1,8.1,0,0,0-1.12-1.48c-.39-.38-.77-.69-1.16-1a3.79,3.79,0,0,0-.67-1.11c-.79-.62-1.6-1.21-2.4-1.82-.13-.38,1.2.69-.15-.79-1.17-.8.7,1.2-1.09-.26-.93-1.12-.47-1-1.89-2-.1-.24.22-.07.77.32-.63-.43-1.41-1.07-2.12-1.63a8.68,8.68,0,0,0-1.79-1.15,10.33,10.33,0,0,0-1.08-1l-1.37-1c-.87-.62-1.59-1.11-1.41-1.25-.48-.15-2.44-1.14-3.69-1.75,1.24.38.1-.25-1.25-1s-3-1.46-2.56-1.57a15.29,15.29,0,0,1-1.87-.53c-.74-.26-1.58-.58-2.48-.86a34,34,0,0,0-5.44-1.45,2.57,2.57,0,0,1,.85.11c-1.82-.47-2.33-.72-3.51-1-.31.36-3.22-.06-4.81.12-2.27-.57,1.43-.34.75-.76,0,.16-1,.16-1.9.15s-1.76.1-1.37.24a11.25,11.25,0,0,1-2.44-.44c-.29.52-1.65.13-3.09.57-2.56.08-.72-.43-3.48.15C107.17,102.56,109.62,101.91,109.62,102ZM54,129h0l1.32-.46Zm-5.09,2.43,1-.58a8.18,8.18,0,0,1,1.15-.61c.22,0,.07.18-.44.42C50.88,130.48,49.71,131.12,48.95,131.48Zm11.38-1.71a2.86,2.86,0,0,1-1.21,0l1.43-.15.1,0A1,1,0,0,1,60.33,129.77Z"/><path class="cls-3" d="M61.81,129.39h.34l-.5-.09-.3.07Z"/><path class="cls-3" d="M237.25,156.37l.08.08a1.51,1.51,0,0,1-.15-.19A1.13,1.13,0,0,1,237.25,156.37Z"/><polygon class="cls-3" points="0 182.45 0.07 182.44 0.04 181.92 0 182.45"/><path class="cls-3" d="M209.18,148.15a1.56,1.56,0,0,0-.41,0A2.07,2.07,0,0,0,209.18,148.15Z"/><path class="cls-3" d="M203,149l.33-.51.26-.52A8.72,8.72,0,0,1,203,149Z"/><path class="cls-3" d="M204.9,139.66a.48.48,0,0,0-.14-.19v0Z"/><path class="cls-3" d="M230.85,242.12l-.37.15C229.63,242.64,230.22,242.4,230.85,242.12Z"/><path class="cls-3" d="M240,204.38a9.09,9.09,0,0,1,1.43.7C240.76,204.55,240.12,204.26,240,204.38Z"/><polygon class="cls-3" points="178.05 249.01 178.05 249.01 178.01 249.01 178.05 249.01"/><path class="cls-3" d="M243.25,206.51a10.43,10.43,0,0,0-.89-.83c-.31-.22-.61-.42-.89-.6l.92.69C242.67,206,243,206.28,243.25,206.51Z"/><path class="cls-3" d="M171.42,121.63l-.46.2s0,0,0,.07Z"/><path class="cls-3" d="M170.93,121.89l-.49.26A2.34,2.34,0,0,0,170.93,121.89Z"/><path class="cls-3" d="M169.45,122.75c.33-.2.65-.43,1-.6A3.81,3.81,0,0,0,169.45,122.75Z"/><path class="cls-3" d="M184.79,119.32l.16-.09C184.86,119.25,184.81,119.28,184.79,119.32Z"/><path class="cls-3" d="M188.9,120a16.21,16.21,0,0,0-3.82-.8l-.14.07C185.63,119.1,188,119.85,188.9,120Z"/><path class="cls-3" d="M201.15,131l-.37-.75-.44-.7c-.3-.46-.56-1-.9-1.39a2,2,0,0,1,.27.66c0,.1-.11-.06-.6-.62,1.08,1.76,1,1.59.95,1.36s0-.22.13-.07A5.8,5.8,0,0,1,201.15,131Z"/><path class="cls-3" d="M203.56,140.88c-.09-1.76-.13,0-.22-.07C203.42,141.92,203.44,142.2,203.56,140.88Z"/><path class="cls-3" d="M246.37,177l-.27-.17C246.22,178.24,246.21,176.89,246.37,177Z"/><polygon class="cls-3" points="244.98 191.44 245.66 190.2 245.68 189.51 244.98 191.44"/><path class="cls-3" d="M239.09,197.78l.34-.48a18.58,18.58,0,0,1-1.37,1.79A11.74,11.74,0,0,0,239.09,197.78Z"/><path class="cls-3" d="M164.86,254l.5.13C166.2,253.72,166.23,253.32,164.86,254Z"/><path class="cls-3" d="M113.69,247a11.61,11.61,0,0,0-2.23-2.07A30,30,0,0,0,113.69,247Z"/><path class="cls-3" d="M9,193.11a6.21,6.21,0,0,0,.93.24,5.59,5.59,0,0,1-.85-.27,4.77,4.77,0,0,1-.83-.37A4.78,4.78,0,0,0,9,193.11Z"/></g><g class="cls-1"><path class="cls-4" d="M7.81,114.16"/></g><g class="cls-1"><path class="cls-5" d="M127.33,89.74"/></g><g class="cls-1"><path class="cls-5" d="M123.62,90.07"/></g></g></g></svg>