<svg xmlns="http://www.w3.org/2000/svg" viewBox="0 0 346.46 158.39"><defs><style>.cls-1{fill:#fff;}.cls-2{fill:#202020;}</style></defs><title>cloud</title><g id="Layer_2" data-name="Layer 2"><g id="Layer_1-2" data-name="Layer 1"><path class="cls-1" d="M1.64,3.12A3.43,3.43,0,0,1,4,1.8C6.29,1.63,8.32,4.44,7.84,7s-3.22,4.14-5.3,3.08S-.44,5.68.7,3.41"/><path class="cls-2" d="M.85,3.49s-.06,0-.07,0l.06.06Z"/><path class="cls-2" d="M.61,3.64a.18.18,0,0,0,.15.13C.7,3.7.74,3.71.67,3.63a0,0,0,0,1,.07,0s0,0,0-.08-.1.07-.08.15S.63,3.65.61,3.64Z"/><path class="cls-2" d="M.27,7.1v0A0,0,0,0,0,.27,7.1Z"/><path class="cls-2" d="M1.18,9.13h0Z"/><path class="cls-2" d="M1.36,9.48v0S1.35,9.48,1.36,9.48Z"/><path class="cls-2" d="M.27,7.1v.06S.27,7.13.27,7.1Z"/><path class="cls-2" d="M.64,4.15a.07.07,0,0,0,0,0v0Z"/><path class="cls-2" d="M0,6.15v0H0Z"/><path class="cls-2" d="M0,5.39s.07,0,.1,0,0,0,0,0Z"/><path class="cls-2" d="M.32,4.23v0Z"/><path class="cls-2" d="M.1,6.69h0Z"/><path class="cls-2" d="M2.44,2.78h0Z"/><polygon class="cls-2" points="1.62 3.11 1.63 3.09 1.6 3.07 1.62 3.11"/><path class="cls-2" d="M1.84,10h0S1.83,10,1.84,10Z"/><path class="cls-2" d="M7.62,8.47c-.09,0,0-.15-.13-.08S7.53,8.53,7.62,8.47Z"/><path class="cls-2" d="M.62,4.17v0Z"/><path class="cls-2" d="M7.49,8.39h0Z"/><path class="cls-2" d="M3.42,10.68v0A.05.05,0,0,0,3.42,10.68Z"/><path class="cls-2" d="M2.28,10.16l0,0Z"/><path class="cls-2" d="M4.08,10.62s0,0,0,0h0S4.1,10.63,4.08,10.62Z"/><polygon class="cls-2" points="4.74 10.53 4.72 10.52 4.7 10.53 4.74 10.53"/><path class="cls-2" d="M4,2.1,4,2S3.91,2.11,4,2.1Z"/><path class="cls-2" d="M.6,4.14l0,0v0Z"/><path class="cls-2" d="M4.08,10.06h0Z"/><path class="cls-2" d="M7.2,4.36l0,0Z"/><path class="cls-2" d="M4.44,10l.06,0v0Z"/><path class="cls-2" d="M4,2H4Z"/><path class="cls-2" d="M3.43,2.32c.08,0,0-.1,0-.15s.07.05.11.09.08-.13.13-.14,0,0,0,0S3.9,2.11,4,2V2a.38.38,0,0,1,0-.12s.07-.07.09,0,0,0,0,0l0,0C4.1,2,4,2,4,2s.17-.1.24-.08-.15,0-.06.1l-.1,0c.08.13-.06,0,0,.13s.13,0,.25,0,0-.07,0-.12c.19-.07.11.23.25.13s.08-.15.16-.08l-.05.09c.11,0,.1-.12.21,0s-.1,0-.08,0,.07,0,.13,0v.09a1.77,1.77,0,0,1,.42.07s-.05,0,0,.07a.87.87,0,0,1,.44.33l.1,0a0,0,0,0,1,0,0c0,.07,0,0,.07,0a0,0,0,0,1,0,.07c.13,0,.36.12.39.27h0c0,.09.19,0,.21.09h0c.12.19.33.33.33.54.11,0,.08.21.21.14,0,.14,0,.13,0,.31s.11,0,.16.06l-.07,0,.11,0-.06.08,0,0a.06.06,0,0,1,0-.06.19.19,0,0,1,0,.23l.14.16s-.05,0-.08,0-.07,0,0,.11,0,0,.06,0a.3.3,0,0,0,0,.24H7.36c0,.14.11.29.14.46a.07.07,0,0,1,.12,0l-.08,0c.06,0,0-.06.09,0s-.08.06-.12,0l0,.07s0,0-.07,0-.06.14,0,.17h0c0,.16.05.23.07.37s.05.05.11.09a1.19,1.19,0,0,0-.07.33c0,.09.06,0,.09.07s-.07.12-.11.05A1.61,1.61,0,0,0,7.6,7s0,0,.07,0A.06.06,0,0,1,7.59,7h0c0,.23-.29.41-.23.59h0V7.8c0,.07,0-.06-.08,0,0,.21-.14.25-.14.41-.22,0-.2.36-.4.41l0,0c0,.06-.05,0-.08,0s.06,0,.06,0a2,2,0,0,1-.81.65c-.11.06.07.23-.12.23V9.46c-.16.23-.45.26-.64.43,0,0,0,0,0-.05S5,9.9,5,9.95s0,0-.05-.05-.1.12-.15.06,0,0,0,0-.15,0-.11.09-.17.08-.25,0-.16,0-.16.09c0-.12-.17-.06-.23,0s-.05,0,0-.08-.13,0-.11.08c-.12-.13-.26.11-.31-.08a1.58,1.58,0,0,1-.58,0c0-.11.2,0,.22-.08-.17,0-.3.07-.45,0s0,0,.06,0c-.18,0-.29-.14-.45-.17h0s-.05,0-.08,0h0c0,.09-.19.07-.22.1.12-.09-.11-.12.07-.22a.06.06,0,0,0-.07,0s0,0,0-.06-.1,0-.18,0,0,0,.06,0A.19.19,0,0,1,2,9.46s0,0,0,0-.27-.08-.35-.23c.11,0,0-.06.05-.13L1.62,9v.06C1.56,9,1.47,9,1.45,9l.07,0-.1-.1,0,.08c-.09,0-.09.08-.13,0s-.05-.06,0-.13h0s-.09,0-.11-.09.09,0,.1-.07-.12-.14-.21-.14a.11.11,0,0,0,.07,0H1.06s0-.05,0-.07-.09.09-.1,0H1c0-.13-.15-.2-.18-.32s.07.08.12,0a1.88,1.88,0,0,1-.29-.44v0c-.14,0,0-.14-.06-.2s.08,0,.06,0S.59,7.27.5,7.12h0a1.35,1.35,0,0,0,0-.25s0-.05-.08,0c.13-.25-.17-.4,0-.62,0,0,0,.05,0,0a1.61,1.61,0,0,1,0-.16c-.06,0,0,0-.08.06a.14.14,0,0,1-.07-.11c0,.07.09,0,.12,0H.3c.1-.09-.12,0-.06-.13h0S.22,5.81.22,5.76s0,0,.09,0-.13-.13-.06-.2,0,.07,0,.1.06-.08.07-.12h0l0-.11,0,0c-.17-.09,0-.17-.13-.3.1.12.06,0,.13,0s.05-.07.07-.05S.5,5.11.42,5s0-.06.07,0,0,0-.07,0,.13-.23.05-.4-.1-.18-.1-.32.08.06.08.06A.19.19,0,0,0,.5,4.15s0,0,.07,0S.49,4.09.55,4a.38.38,0,0,1,.08.08c0-.06,0-.13,0-.2S.64,4,.66,4s0-.18,0-.23l0,0s.06,0,.06,0-.05.07-.08.07v0c-.15,0,0,.18-.07.26L.43,4.05l.05.11s-.09,0-.09,0,0,.07-.05.11h0V4.3s-.07,0,0,0,0,.2-.05.23h0c0,.17.07,0,.13.17l-.2,0,.07,0s0,0,0,0,0,0,.08,0S.27,5,.14,5c.05,0,.05-.07.08,0-.13,0,0,.1-.06.17s0-.1-.09,0c.11.05,0,.14,0,.21s0,.14.06.24-.05.2-.08.3H0c.09,0,.08.12.11.19a.1.1,0,0,1-.1,0v.07a.11.11,0,0,1,.06.08H0c0,.09.1.18.07.3s.16-.12.22,0-.09,0-.11,0,0,0,0,.06l-.06,0c0,.06.05,0,.05.06s0,0-.07,0,0,0,0-.05a.2.2,0,0,1-.06.14s.07,0,.08,0-.05,0-.07.1,0,.08.09.07,0,0,0,.05.06.22.12.15h0c.1.13,0,.32.12.46h0c.05.08.08.19.16.23a.06.06,0,0,1,0,.08c0,.06.07.05.07.17C.5,8,.54,8,.51,8c0,.09,0,.13.09.19-.07,0,0,.1,0,.13V8.2a.43.43,0,0,1,.06.12l-.09,0c0,.22.3.23.24.43.08,0,0-.11.06-.11s0,.22,0,.24.16,0,.21.15a.1.1,0,0,1,.15,0c0,.07,0,.16-.09.13s0,0,0,0-.06,0-.06,0h0c0,.05.08.15,0,.15s.06,0,0-.06c0,.12.11.14.17.25s0-.06,0,0,.09,0,.18.09-.09.06,0,.12,0,.07-.08.06c.12,0,.12.17.17.22l-.06,0a.23.23,0,0,1,.08,0V9.87s0,0,0,.07,0-.09.13-.09.12.06.09.13c-.09-.11,0,.07-.14,0a.13.13,0,0,1,.07.05h0c.07.14.1,0,.21.05a.05.05,0,0,0,0,.09s0-.08.08-.08.1,0,.13.06l0,0s.07,0,.13,0-.06,0,0,0,.09.16.21.14,0,.08,0,.11.09.1.21.11,0-.06.07-.08l-.19,0,.14,0c-.05,0-.12,0-.15,0s.06,0,.06-.07c0,.11.16,0,.21.1l-.05.14c.11.1.26,0,.41.07l0,0c0-.05.1,0,.17,0s0,.07,0,.1.13,0,.16-.08l.07.07c.14,0,.17-.13.3-.11,0,.05,0,.09-.07.13s.09,0,.09,0,.12-.07.17,0,0-.07.07-.07a0,0,0,0,1,0,0s.07,0,0-.09c.15.13.37,0,.51,0L5,10.41s0,0,0,0,0-.16.17-.15-.05.07,0,.08.15-.08.27,0l0,0c.09,0,.14-.13.24-.17a0,0,0,0,0,0,0c0-.11.16-.19.23-.28,0,.07,0,.06,0,.1s-.06-.08,0-.15.12,0,.17.05L6,10c.09,0,.1-.07.15-.08l0,0c.12-.09.06-.17.18-.26h0c0-.13.09,0,.11-.11l.08.06c0-.05.09-.2.14-.28a.63.63,0,0,1-.07.28s.14-.13.12-.19,0,.06,0,.06a.34.34,0,0,1,.11-.27c.13.15.23-.17.39-.14.07-.19.26-.3.38-.5-.17,0,0-.06-.11-.12,0,0,0-.06,0-.06l.15-.1c.06,0,0,.06,0,.07s.08,0,.15-.07-.05-.07,0-.12l-.11.06c0-.18.19-.07.17-.26l0,.07c0-.09.11-.3,0-.42s.07,0,.07,0c.08-.19,0-.47.1-.61l0,0s-.06-.08,0-.12,0,0,0,0-.05-.11,0-.16l0,0c.08-.2-.06-.31-.09-.48.11,0,.15-.15.17-.23h0a1.68,1.68,0,0,0-.18-.59c.09-.15,0-.45,0-.67,0,0-.08,0-.11,0s-.11-.11,0-.13v0c.08-.07,0-.16,0-.23l-.13,0c.1-.27-.27-.47-.18-.64s-.08-.08-.13-.11l.06,0a.93.93,0,0,0-.19-.33h.06c-.05-.09-.24,0-.29-.06l.07-.08c-.1-.14-.14-.33-.32-.4,0,0,0,0,.06,0s-.17-.28-.25-.16c.07-.07-.12-.13-.21-.17l.06,0c-.12,0-.14,0-.24,0s0-.06,0,0-.09,0-.15-.08h.06c-.06-.06-.07,0-.14,0S6,2.23,6,2.17s-.1,0-.13,0a0,0,0,0,1,0,0C5.83,2,5.71,2.09,5.65,2a.05.05,0,0,0,0,0,.56.56,0,0,1,.17.11c0-.05,0-.12.07-.15-.09,0-.26,0-.33,0a.08.08,0,0,1,0,0h0a.07.07,0,0,0-.06,0l-.06-.05c0-.05-.09-.08-.14-.09s-.08,0,0,.11h.06l.11,0s-.09,0-.13,0l-.1.09c0-.11-.13-.2-.13-.26s-.35-.05-.46.06,0,0-.05-.07.05,0,.07,0-.25,0-.27.08.06-.08-.08-.07l0,0c-.3-.15-.43.24-.76.12l0,0c-.37,0-.65.28-1,.33-.1,0-.08.08-.1.15l-.06-.05,0,.13c-.08.13-.31,0-.38.21l.05,0c-.06,0-.13.16-.16.11s0,.05,0,.05l0,0-.06.16c-.1.07-.1-.12-.23,0s0,.22,0,.22a.08.08,0,0,1,.09,0l0,.06c.08.08.15.19.3.14V3.11l.06,0,0,.06c.07,0,.05,0,.05-.1h.07l0-.14s0,.09.1.07S2,3,2.08,2.91s.09,0,.1,0a.05.05,0,0,1,0,.06c0-.06.08-.09.06-.16s.11-.11.18,0a.22.22,0,0,1,0-.15c0,.15.14-.09.2,0,0-.13.14-.16.2-.26s0,0,0,0,.09,0,.13,0,0-.15.06-.23,0,.12.06.2.08-.12,0-.17.05,0,.11.07c0-.12,0,0,.06-.12s.06.1.12,0S3.43,2.32,3.43,2.32Zm2,0h0l0,0Zm.16.07-.07,0s0,0,0,0S5.54,2.32,5.56,2.35ZM5.4,1.73s0,0,0,0l-.05,0h0Z"/><path class="cls-2" d="M5.32,1.8h0v0l0,0Z"/><polygon class="cls-2" points="0.28 7.07 0.28 7.08 0.28 7.07 0.28 7.07"/><polygon class="cls-2" points="7.09 4.2 7.1 4.2 7.08 4.19 7.09 4.2"/><path class="cls-2" d="M.36,6h0Z"/><path class="cls-2" d="M.36,5.59l0-.06Z"/><path class="cls-2" d="M.4,5.26h0Z"/><path class="cls-2" d="M2.5,9.74h0Z"/><path class="cls-2" d="M1.28,8.81l.05,0S1.31,8.79,1.28,8.81Z"/><polygon class="cls-2" points="4.07 10.06 4.07 10.06 4.08 10.06 4.07 10.06"/><path class="cls-2" d="M1.38,8.89a.08.08,0,0,0,0-.06A.12.12,0,0,0,1.38,8.89Z"/><polygon class="cls-2" points="0.74 3.88 0.74 3.87 0.73 3.86 0.74 3.88"/><path class="cls-2" d="M.74,3.86v0S.73,3.85.74,3.86Z"/><path class="cls-2" d="M.73,3.8v0S.75,3.81.73,3.8Z"/><path class="cls-2" d="M.57,4.28h0Z"/><path class="cls-2" d="M.54,4.41s.07-.06.07-.11h0S.51,4.37.54,4.41Z"/><path class="cls-2" d="M.13,4.91l0-.11s-.07,0-.07,0C0,4.92.16,4.76.13,4.91Z"/><path class="cls-2" d="M.05,5.27c0-.06,0,0-.05,0S0,5.32.05,5.27Z"/><path class="cls-2" d="M.48,7.88l-.06,0S.44,7.89.48,7.88Z"/><polygon class="cls-2" points="0.98 8.19 1 8.13 0.93 8.14 0.98 8.19"/><polygon class="cls-2" points="0.72 8.67 0.7 8.66 0.77 8.72 0.72 8.67"/><path class="cls-2" d="M4.64,10.62l0-.08S4.58,10.65,4.64,10.62Z"/><path class="cls-2" d="M6.39,9.73s.1,0,.1,0S6.4,9.7,6.39,9.73Z"/><polygon class="cls-2" points="7.87 4.4 7.91 4.43 7.86 4.37 7.87 4.4"/><path class="cls-1" d="M26.17,3.53C28.89,2,32.77.69,34.5,3.62a5.26,5.26,0,0,1,.65,2.55c.08,4-3.84,7.29-7.08,6S23.5,5.36,25.68,2.3"/><path class="cls-2" d="M25.81,2.4a0,0,0,0,0-.07,0l.05.08Z"/><path class="cls-2" d="M25.52,2.59c0,.07,0,.16.11.17s0-.08-.05-.18.07-.06.09,0,.05-.05,0-.11a.17.17,0,0,0-.13.19S25.53,2.6,25.52,2.59Z"/><path class="cls-2" d="M24.61,7.27v0A.07.07,0,0,0,24.61,7.27Z"/><path class="cls-2" d="M25.61,10.12s0,0,0,0S25.61,10.13,25.61,10.12Z"/><path class="cls-2" d="M25.82,10.62v0S25.81,10.61,25.82,10.62Z"/><path class="cls-2" d="M24.61,7.27v.08S24.61,7.31,24.61,7.27Z"/><path class="cls-2" d="M25.39,3.26a.11.11,0,0,0,0,0v0Z"/><path class="cls-2" d="M24.44,5.93v0l0,0Z"/><path class="cls-2" d="M24.49,4.9s.06,0,.09.05a.07.07,0,0,1,0-.06Z"/><path class="cls-2" d="M25,3.35v0Z"/><path class="cls-2" d="M24.45,6.67h0Z"/><path class="cls-2" d="M27.35,3.27h0S27.34,3.28,27.35,3.27Z"/><polygon class="cls-2" points="26.16 3.51 26.17 3.5 26.16 3.47 26.16 3.51"/><path class="cls-2" d="M26.41,11.41h0S26.39,11.4,26.41,11.41Z"/><path class="cls-2" d="M34.25,10c-.11,0,0-.18-.12-.1C34.16,9.94,34.14,10.11,34.25,10Z"/><path class="cls-2" d="M25.37,3.28l0,0Z"/><polygon class="cls-2" points="34.13 9.93 34.13 9.93 34.12 9.94 34.13 9.93"/><path class="cls-2" d="M28.4,12.54a.09.09,0,0,0,0,0S28.38,12.52,28.4,12.54Z"/><path class="cls-2" d="M26.94,11.69l0,0Z"/><path class="cls-2" d="M29.28,12.61a.07.07,0,0,0,.06,0h0A0,0,0,0,1,29.28,12.61Z"/><polygon class="cls-2" points="30.19 12.57 30.17 12.56 30.14 12.57 30.19 12.57"/><path class="cls-2" d="M29.74,2.35l-.05-.05S29.6,2.39,29.74,2.35Z"/><path class="cls-2" d="M25.35,3.24a0,0,0,0,1,0,0v0Z"/><path class="cls-2" d="M29.35,12.06h0Z"/><path class="cls-2" d="M34.55,4.39l0,0Z"/><path class="cls-2" d="M29.85,12.06a.15.15,0,0,0,.08,0v0Z"/><path class="cls-2" d="M29.69,2.3h0Z"/><path class="cls-2" d="M28.89,2.71c.12,0,0-.11,0-.16s.09,0,.15.07.13-.15.2-.17,0,0,0,0,.28-.09.38-.2l0,0a.27.27,0,0,1,0-.12c.06,0,.09-.08.13,0s0,0,0,.05l.05,0c.07.07-.07,0-.06.11s.23-.15.32-.15-.2.07-.07.12h-.14c.13.11-.08,0,0,.13s.19-.09.37-.1,0-.07,0-.12c.24-.12.23.18.4,0s.05-.18.19-.12l0,.1c.17,0,.09-.14.28-.09,0,0-.14,0-.11,0s.08-.06.17-.06l0,.08c.18,0,.38-.06.59-.07,0,0-.05,0,0,.08a1.38,1.38,0,0,1,.74.22l.11,0s0,0,0,0,0,0,.07-.06.05.06,0,.07c.17,0,.49.08.59.25h0c.09.1.21,0,.27.1h0c.21.2.5.4.54.66.11,0,.13.27.26.2a2.1,2.1,0,0,0,.05.38c0,.06.12,0,.17.11l-.07,0,.12.07-.06.09,0,.06s0-.07,0-.08,0,.29,0,.3l.14.25s-.05,0-.08-.07c.11.12-.07,0,0,.16s0,0,.06,0a.62.62,0,0,0,0,.34h-.06c0,.2.09.42.1.66a.06.06,0,0,1,.13,0l-.08,0c.05,0,0-.07.09,0s-.09.06-.12,0l0,.1s0,0-.07,0-.08.18,0,.24h0c0,.23,0,.33,0,.52.07,0,.05.08.09.15a2.28,2.28,0,0,0-.15.45c0,.12.05,0,.09.11s-.1.16-.12.07a2.56,2.56,0,0,0-.08.51s.05,0,.07,0-.05.09-.08.08h0c0,.31-.41.55-.39.8h0l-.05.24c-.06.09,0-.08-.08,0,0,.28-.21.34-.28.55-.24,0-.33.48-.57.56l0,0c0,.07-.06,0-.1.06s.07,0,.06,0a3.45,3.45,0,0,1-1.18.87c-.16.08,0,.25-.22.27v-.1c-.26.28-.65.33-1,.52,0,0,0,0,0-.06s-.26.07-.25.12,0,0-.06-.05-.16.13-.21.07,0,0,0,0-.22,0-.16.09c-.13,0-.24.07-.35,0s-.22,0-.24.08c0-.11-.23-.09-.31,0s-.07,0,0-.08-.18,0-.17.06c-.15-.16-.37.06-.43-.13a2.62,2.62,0,0,1-.78-.15c.06-.1.26.12.29,0a1.51,1.51,0,0,1-.6-.16s.06,0,.08,0c-.24-.07-.38-.27-.59-.34h.06s-.07-.07-.1,0h0c0,.1-.23,0-.26,0,.15-.06-.14-.18.07-.24,0,0-.07,0-.09,0s0-.06,0-.06c-.13-.08-.13,0-.23-.1s0,0,.08,0a.27.27,0,0,1-.23-.14s0,0,0,0c-.13-.15-.32-.19-.43-.39.13,0,0-.08.06-.15l-.09-.08v.07c-.06-.09-.16-.13-.19-.22L26,10l-.12-.16,0,.11c-.1-.07-.09.07-.15-.06,0,0-.06-.09,0-.17h0a.22.22,0,0,1-.12-.15s.1,0,.11-.05-.13-.21-.24-.24a.08.08,0,0,0,.08,0h-.08c0-.05,0-.06,0-.07s-.09.09-.11-.09c0,0,0,0,0,0,0-.18-.16-.31-.2-.47s.07.12.13,0A2.55,2.55,0,0,1,25,8.07v0c-.14,0,0-.18-.08-.28s.08,0,.07,0a2.23,2.23,0,0,0-.18-.53l0,0c0-.1,0-.24,0-.34s0-.08-.08,0c.16-.32-.17-.58,0-.86,0,0,0,.08,0,.05l0-.23c-.06,0,0,0-.08.08a.23.23,0,0,1-.06-.15c0,.11.09,0,.12,0H24.7c.1-.12-.12,0,0-.19h0a.5.5,0,0,1,0-.19c.07,0,0,.07.08.08s-.11-.2,0-.28,0,.1,0,.14a.23.23,0,0,0,.09-.17h0l0-.15,0,0c-.17-.14,0-.24-.08-.42.08.17.06,0,.13.06s.06-.09.08-.07.07-.11,0-.23,0-.08.07,0,0,0-.07,0c-.06-.17.19-.31.14-.55s-.06-.26,0-.43.06.08.06.08a.35.35,0,0,0,.1-.23s0,0,.07,0-.06-.08,0-.15a.36.36,0,0,1,.06.11c0-.08,0-.18,0-.27s0,.08,0,.12.09-.23,0-.29l-.05,0s.06,0,.06,0a.08.08,0,0,1-.11.08l0-.06c-.17,0-.09.24-.15.34l-.07-.09,0,.15s-.1,0-.09-.06,0,.09-.08.14,0,0,0,0v.09s-.07,0,0-.06c-.13.13,0,.27-.11.3h0c0,.22.07,0,.1.23L24.76,4l.07,0s0,.06-.06,0,0,0,.07.06,0,.3-.16.3c0,.05.06-.09.08,0-.13,0,0,.14-.08.23s0-.13-.09,0c.1.08-.06.19-.06.28s0,.19,0,.34c0,0-.07.26-.12.4h0c.08,0,.07.17.09.27s-.08,0-.1-.08v.1a.16.16,0,0,1,.06.11l-.07,0c0,.13.08.25,0,.42.07,0,.17-.14.22,0,0,0-.09,0-.11,0s0,0,0,.08l-.07-.06c0,.07.05,0,.05.09s0,0-.07,0,0-.05,0-.07a.29.29,0,0,1-.06.18.06.06,0,0,1,.08,0c0,.12-.05,0-.07.13s0,.11.08.1,0,0,0,.06.05.3.12.22v0h0c.11.2,0,.44.12.64h0a1.36,1.36,0,0,0,.17.34s0,.1-.05.09a.34.34,0,0,1,.07.24c-.07-.08,0,0-.06-.09,0,.13,0,.17.1.27-.08,0,0,.12,0,.17v-.1A.8.8,0,0,1,25,9h-.09c0,.29.33.37.27.61.08,0,0-.14.06-.12s0,.28,0,.31.17.08.23.24c0,0,.07-.09.16,0s0,.19-.09.14,0,0,0,0-.07-.06-.07,0h0c0,.07.1.2,0,.2s.06,0,0-.06c0,.15.13.2.19.35,0,0,0-.07,0,0,.11.21.11,0,.22.16s-.1,0,0,.14,0,.07-.09.05c.14.08.15.24.19.31l-.07,0a.46.46,0,0,1,.09.09v-.07s.05.07,0,.08,0-.09.15-.07.16.1.12.17c-.12-.15,0,.07-.17,0a.23.23,0,0,1,.08.08s0,0,0,0c.09.18.12,0,.26.12,0,0,0,.09,0,.11s0-.08.09-.06.12.06.17.1l0-.05s.09,0,.17.06-.08,0-.06,0,.12.19.26.22,0,.07,0,.12.11.13.27.17c0-.07,0-.06.1-.07l-.25-.08h.19c-.07,0-.16,0-.2-.07s.08,0,.07-.05c0,.12.21,0,.28.15l-.07.13c.14.14.32.09.53.19l-.06,0c.05,0,.14,0,.22,0s0,.08,0,.12.17.06.21,0l.09.09c.19.06.24-.11.42-.06-.06,0,0,.09-.11.11.06,0,.12,0,.12,0s.17,0,.23,0,0-.07.11-.07,0,0,0,0,.11,0,0-.09c.18.15.51,0,.68.08l.4-.1s0,0,0,0c.17,0,.07-.16.25-.16s-.08.07,0,.08.21-.09.36,0l0,0c.12,0,.2-.14.35-.19s0,0,0,0a1.31,1.31,0,0,1,.36-.31c0,.08,0,.06,0,.11s-.06-.08,0-.17.15,0,.2,0L32,12c.1,0,.14-.09.21-.11v0c.16-.12.12-.19.29-.31h0c0-.15.11,0,.16-.14l.09.06c0-.07.16-.23.24-.33,0,.11-.11.23-.17.32s.2-.16.2-.22,0,.07-.07.07a.63.63,0,0,1,.19-.33c.11.16.32-.22.5-.21.11-.25.39-.37.55-.64-.18,0,0-.08-.09-.15,0-.06.05-.08.06-.08l.2-.13c.07,0,0,.07,0,.09s.09,0,.19-.09c-.06,0,0-.09,0-.16l-.12.08c0-.24.2-.1.24-.34v.09c0-.12.21-.38.13-.54s.07,0,.06,0c.12-.25.12-.61.24-.79l0,0c0-.05,0-.11,0-.16s0,0,0,0a.35.35,0,0,1,0-.21l0,.07c.13-.25,0-.43,0-.65.11,0,.18-.19.21-.29h0a3.29,3.29,0,0,0-.1-.83c.12-.18,0-.61,0-.9,0,0-.09,0-.11,0S35.2,5,35.3,5V5c.09-.07,0-.2,0-.31h-.13c.12-.33-.29-.69-.2-.89-.06-.05-.1-.13-.16-.18l.06,0a1.47,1.47,0,0,0-.28-.46h.07c-.08-.12-.27,0-.34-.12L34.4,3c-.15-.18-.26-.42-.5-.51a.06.06,0,0,1,.07,0c-.09-.07-.32-.32-.36-.18.05-.08-.2-.16-.33-.17l.05-.05a.41.41,0,0,1-.3,0s0-.06,0,0-.1,0-.22-.07l.07,0c-.11,0-.11,0-.19,0s-.21-.09-.21-.15a.15.15,0,0,1-.16,0s0,0,0,0c-.19-.08-.31,0-.43-.06a.05.05,0,0,0,0,0l.27.06c0-.06-.12-.1,0-.17a1,1,0,0,1-.43.06v0h0a.13.13,0,0,0-.08,0l-.1,0c0-.05-.15,0-.21,0s-.08.05,0,.12h.24a.15.15,0,0,1-.17,0l-.09.11c-.08-.11-.25-.14-.28-.21-.19,0-.46,0-.56.2s-.07,0-.09,0,.07,0,.08,0-.32.06-.33.15.06-.1-.12,0l0,0c-.4-.06-.53.35-1,.29,0,0,0,0,.06,0-.48,0-.88.38-1.35.43-.13,0-.12.09-.17.16l-.06-.06-.09.14c-.15.14-.38,0-.55.19L27,3c-.08,0-.23.15-.25.09s0,.06,0,.05l0,0-.16.16c-.16.06-.05-.15-.27,0s-.17.23-.13.23.09,0,.12,0l-.06.06c0,.11.05.24.26.22l.09-.13.07,0-.1.06c.08,0,.1,0,.12-.1a.1.1,0,0,0,.08,0l.07-.16s0,.11.08.09-.1-.06,0-.14.09.06.13,0,0,0,0,.07.15-.1.16-.17.2-.12.24,0a.35.35,0,0,1,.13-.16c0,.17.22-.09.25,0,0-.14.26-.18.37-.29s0,0,0,0a.45.45,0,0,1,.18,0c0-.09.09-.17.13-.25s0,.13,0,.2.14-.14.08-.19c.1,0,.07,0,.14.07,0-.12.06,0,.1-.14s.07.1.17,0S28.89,2.71,28.89,2.71Zm2.86-.64h0Zm.24,0-.1,0s0,0,0,0S32,2.08,32,2.11Zm-.5-.54s.06,0,.06,0h-.08Z"/><path class="cls-2" d="M31.42,1.66h0l0,0,0,0Z"/><polygon class="cls-2" points="24.61 7.23 24.61 7.23 24.62 7.22 24.61 7.23"/><polygon class="cls-2" points="34.42 4.16 34.44 4.15 34.41 4.14 34.42 4.16"/><path class="cls-2" d="M24.76,5.8l0,0Z"/><path class="cls-2" d="M24.81,5.2l0-.08Z"/><path class="cls-2" d="M24.91,4.75h0Z"/><path class="cls-2" d="M27.2,11.3h0Z"/><path class="cls-2" d="M25.7,9.76l.06,0S25.74,9.74,25.7,9.76Z"/><polygon class="cls-2" points="29.34 12.06 29.34 12.06 29.35 12.06 29.34 12.06"/><path class="cls-2" d="M25.82,9.89a.15.15,0,0,0-.05-.09A.22.22,0,0,0,25.82,9.89Z"/><polygon class="cls-2" points="25.57 2.9 25.58 2.88 25.57 2.87 25.57 2.9"/><path class="cls-2" d="M25.57,2.87v0S25.57,2.87,25.57,2.87Z"/><path class="cls-2" d="M25.59,2.8v.05S25.6,2.82,25.59,2.8Z"/><path class="cls-2" d="M25.28,3.43l0,0Z"/><path class="cls-2" d="M25.21,3.6s.1-.08.11-.14h0S25.19,3.54,25.21,3.6Z"/><path class="cls-2" d="M24.69,4.26a1.1,1.1,0,0,1,.06-.15s-.08,0-.07,0C24.55,4.26,24.75,4.06,24.69,4.26Z"/><path class="cls-2" d="M24.55,4.75c0-.09,0,0-.05,0S24.52,4.81,24.55,4.75Z"/><path class="cls-2" d="M24.82,8.34h-.06C24.78,8.41,24.78,8.34,24.82,8.34Z"/><polygon class="cls-2" points="25.35 8.87 25.37 8.8 25.3 8.79 25.35 8.87"/><polygon class="cls-2" points="25.09 9.43 25.07 9.4 25.14 9.5 25.09 9.43"/><path class="cls-2" d="M30,12.66l0-.08S30,12.7,30,12.66Z"/><path class="cls-2" d="M32.5,11.64a.11.11,0,0,0,.14-.07C32.58,11.6,32.52,11.61,32.5,11.64Z"/><polygon class="cls-2" points="35.24 4.59 35.28 4.63 35.23 4.54 35.24 4.59"/><path class="cls-1" d="M60.53,3.28a5.83,5.83,0,0,1,7.57,1.53,8.47,8.47,0,0,1,.66,8.88c-2.36,4.22-7.68,4.41-11.88,3.06a4.72,4.72,0,0,1-2.45-1.47,5.21,5.21,0,0,1-.87-2.79C53.18,7.21,57.18,2.1,61.75,2"/><path class="cls-2" d="M61.75,2.2s0-.07-.06-.06l0,.09Z"/><path class="cls-2" d="M61.25,2.09c-.08,0-.18.13-.11.2.08-.09.1-.05.18-.16s.13,0,.12,0,.11,0,.15,0a.36.36,0,0,0-.35,0S61.24,2.11,61.25,2.09Z"/><path class="cls-2" d="M55.22,5.91l0,0Z"/><path class="cls-2" d="M53.51,10.15s0-.05,0-.05S53.5,10.15,53.51,10.15Z"/><path class="cls-2" d="M53.32,10.92v0A.06.06,0,0,0,53.32,10.92Z"/><path class="cls-2" d="M55.22,5.91,55.13,6S55.18,6,55.22,5.91Z"/><path class="cls-2" d="M60.3,2.45l.06,0-.06,0Z"/><path class="cls-2" d="M56.46,4.3l0,0a.22.22,0,0,0,0,0Z"/><path class="cls-2" d="M57.63,3.27s0,.08,0,.12a.11.11,0,0,1,0-.09Z"/><path class="cls-2" d="M59.9,2.27l0,0Z"/><path class="cls-2" d="M55.69,5.12h0Z"/><path class="cls-2" d="M62.25,2.94h0S62.23,2.95,62.25,2.94Z"/><polygon class="cls-2" points="60.52 3.27 60.54 3.25 60.52 3.22 60.52 3.27"/><path class="cls-2" d="M53.2,12.38h0S53.2,12.36,53.2,12.38Z"/><path class="cls-2" d="M63.87,17.53c-.16,0,.22-.13,0-.15C63.88,17.4,63.67,17.54,63.87,17.53Z"/><path class="cls-2" d="M60.26,2.45h0Z"/><path class="cls-2" d="M63.85,17.38h0Z"/><path class="cls-2" d="M54.3,15.62a.11.11,0,0,0,0,0S54.29,15.59,54.3,15.62Z"/><path class="cls-2" d="M53.43,13.22v.06A.29.29,0,0,0,53.43,13.22Z"/><path class="cls-2" d="M55.42,16.38a.17.17,0,0,0,.08,0h0A.09.09,0,0,1,55.42,16.38Z"/><polygon class="cls-2" points="56.66 16.9 56.65 16.88 56.6 16.87 56.66 16.9"/><path class="cls-2" d="M65.93,3.41a.23.23,0,0,1,0-.08C65.9,3.38,65.73,3.31,65.93,3.41Z"/><path class="cls-2" d="M60.29,2.41a0,0,0,0,1,0,0h0S60.3,2.42,60.29,2.41Z"/><path class="cls-2" d="M55.73,15.92l.17.1Z"/><path class="cls-2" d="M69.3,11.21v0A.07.07,0,0,0,69.3,11.21Z"/><path class="cls-2" d="M56.44,16.24a.31.31,0,0,0,.09.08h0Z"/><path class="cls-2" d="M65.9,3.32h0Z"/><path class="cls-2" d="M64.62,3c.18,0,.11-.07.16-.11.23,0,.08.09.14.16s.27,0,.37,0,0,0,0,0c.17,0,.41.17.61.15a.05.05,0,0,1,0,0,.18.18,0,0,1,0-.13c.08,0,.17,0,.17.1s-.06,0-.09,0l.09,0c0,.12-.12,0-.15,0a1.65,1.65,0,0,1,.49.19c0,.08-.29-.13-.17,0l-.17-.13c.07.19-.11-.07,0,.13a3.83,3.83,0,0,1,.49.28c.08,0,0-.07.1-.07.37.16.11.36.4.44.09,0,.19-.06.3.13l-.12,0c.18.19.21,0,.36.25-.06,0-.17-.12-.15-.09s.13.05.22.16l0,.08a6.72,6.72,0,0,1,.63.66s-.08,0-.06,0a3.16,3.16,0,0,1,.52,1.1l.12.11s0,.07,0,0c0,.15,0,0,.1,0s0,.12,0,.08a1.92,1.92,0,0,1,.35,1l0,0c0,.22.21.2.18.42l0,0a3.89,3.89,0,0,1,.08,1.35c.11.07,0,.46.11.5a3.66,3.66,0,0,0-.18.56c0,.1.08.16.08.28h-.08c0,.06,0,.12.06.18L69.3,11v.12s.05-.09.07-.08c0,.19-.12.43-.17.43l0,.43s0-.09,0-.15c0,.24-.09,0-.07.24,0,0,0,0,.05,0a1.31,1.31,0,0,0-.18.49l0,0c-.12.29-.22.63-.39.94.08-.1.15,0,.11.07h-.09c0,.08.08-.08.07.07s-.13,0-.11,0l-.06.15s0,0,0-.07-.22.19-.2.32h0a4.86,4.86,0,0,1-.45.66c.05,0,0,.13,0,.23s-.38.26-.55.45,0,.08,0,.17-.24.13-.17,0a7.08,7.08,0,0,0-.59.52c.05,0,.1,0,.09,0s-.16.06-.16,0v0a1.8,1.8,0,0,1-.64.32,1.31,1.31,0,0,0-.6.25h0a3.06,3.06,0,0,1-.32.19c-.16,0,.08-.08-.05-.08-.34.23-.59.18-.89.31-.28-.11-.88.17-1.23.09l0,0c-.08,0-.11,0-.17,0s.1,0,0,.06a7.65,7.65,0,0,1-2.3-.12c-.28,0-.18.21-.52.06l.11-.07a11.55,11.55,0,0,1-1.7-.24s0,0,.1,0a.56.56,0,0,0-.44-.06c-.08,0,0,0-.05-.09s-.3,0-.35-.08,0,0,.06,0-.34-.11-.29,0a5.22,5.22,0,0,1-.53-.19c-.13,0-.31-.16-.39-.07.05-.1-.29-.22-.42-.24.05,0-.08-.08,0-.1-.12-.07-.24-.12-.25-.06-.14-.25-.5-.22-.49-.46a2.47,2.47,0,0,1-.77-.9c.1,0,.2.38.3.3A2,2,0,0,1,54,14c0-.1.06,0,.09.06a8.41,8.41,0,0,1-.27-1s0,0,0,.07,0-.15-.05-.14l0,.06c-.06.12-.19-.24-.23-.25.16.1,0-.34.21-.17,0,0,0-.1-.08-.08s0-.09.07,0c0-.24-.09-.15-.09-.37,0,0,0,0,.06.06a.69.69,0,0,1-.08-.4s0,0,0,0a2.67,2.67,0,0,1,0-.89c.1.11,0-.11.14-.12v-.19l-.05.07a1.46,1.46,0,0,1,0-.45l0,.13,0-.3-.07.16c0-.17-.12,0-.06-.21,0,0,0-.16.1-.24h0a.42.42,0,0,1,0-.29s.09,0,.12,0,.08-.37,0-.49a.06.06,0,0,0,.07,0L54,9c0-.07.05-.08.09-.05.07-.22-.13,0,0-.21,0,0,0,0,0,.06.1-.25.14-.51.25-.73.11,0-.05.21,0,.16a4.72,4.72,0,0,1,.35-1l0,.05c-.09-.1.16-.21.2-.39,0,0,0,.08,0,.07a4.62,4.62,0,0,0,.37-.77v.06l.32-.41c0-.06.05-.12,0-.11.41-.27.48-.76.87-1,0,0-.06.11,0,.08s.15-.18.23-.27-.06,0-.14,0a.44.44,0,0,1,.13-.21c-.09.14.07.06.14,0s0,0,0,0c.2-.05-.06-.11.17-.23v0a.72.72,0,0,1,.18-.22c.08,0-.06.09,0,.13s.14-.27.29-.3c0,.05-.11.11-.14.16a.46.46,0,0,0,.25-.11h0l.21-.12-.06,0c0-.26.27-.24.42-.47-.14.22,0,.07,0,.15s.15,0,.14,0,.18-.06.27-.22c0,0,.11-.06.11,0s-.05,0-.06-.05c.17-.17.52-.15.77-.39s.27-.23.51-.36,0,.11,0,.11a1.13,1.13,0,0,0,.37-.12s0,0,.06.06,0-.1.2-.1a.38.38,0,0,1-.08.12l.36-.17s-.07.08-.1.12a1.27,1.27,0,0,0,.4-.18l-.1,0c.05,0,0,.05,0,.07s-.18,0-.19,0l.09,0c-.12-.12-.37.1-.55.14l.05-.12-.17.13s-.09-.07,0-.1c-.15,0-.11.07-.24.05s0,0,0,0l-.12.07s0-.06,0-.08c-.25,0-.35.2-.46.16h0c-.3.15,0,.07-.2.26l-.23-.1v.08s-.1,0-.1,0,0,0,0,.1-.4.23-.49.15c0,.08.16,0,0,.08-.11-.09-.16.13-.32.16,0-.08.15-.13,0-.1s-.27.14-.37.23-.2.21-.35.36A2.46,2.46,0,0,0,56.8,4V4c0,.1-.13.23-.22.35,0,0,0-.08,0-.15l-.1.1a.29.29,0,0,1-.08.16l0-.07c-.14.13-.2.34-.4.49,0,.05.26,0,.13.19,0,0-.08,0-.05-.11S56,5,56,5l0-.12c-.09.07,0,.08-.06.14s-.07,0-.09,0,.07,0,.07-.08a.58.58,0,0,1-.23.15s.05,0,0,.1-.09,0-.17.09-.1.14,0,.18-.07,0-.1,0-.26.38-.13.34l0,0h0c-.13.3-.38.55-.52.84h0a2.16,2.16,0,0,0-.19.53c0,.05-.1.1-.11.07a.77.77,0,0,1-.16.34c0-.15-.06,0,0-.15-.1.16-.16.19-.16.41,0-.09-.12.11-.14.2L54.1,8a1.81,1.81,0,0,1-.1.26l-.06-.07c-.25.34-.06.72-.3,1,0,.11.1-.19.14-.09a2.58,2.58,0,0,1-.24.38c-.11.23.07.25,0,.5,0,0,.12,0,.11.15s-.16.2-.16.08,0-.06,0-.06,0-.14,0-.07l0,0c0,.08-.09.33-.12.26,0,.14,0,.06.07,0a2.86,2.86,0,0,0-.1.59s.06-.07.05,0c-.06.35,0,.16,0,.39s-.1-.05-.08.19-.08,0-.1,0a1.57,1.57,0,0,1,0,.54l0-.12a.85.85,0,0,1,0,.18l.06-.07c0,.07,0,.13,0,.12s.1-.06.15.08,0,.27,0,.31c0-.28-.08,0-.1-.2a.5.5,0,0,1,0,.17s0,0,0,0c-.06.28.09.12.11.4,0,0-.08.07-.06.12,0-.11.07-.06.11,0s.05.19.06.28v-.11c.05,0,.05.12.09.24s0-.11-.05-.06,0,.33.07.51-.08,0-.08.11,0,.25.13.46c0-.08,0-.09.13,0q-.09-.17-.16-.35l.16.21a2.71,2.71,0,0,1-.12-.29c.08.1.06.09.09,0,0,.18.14.28.15.46l-.14,0c0,.29.26.43.43.75l0-.11c.07,0,.13.18.22.26s0,.09,0,.15.18.21.27.16l.07.16c.21.22.35.1.56.27-.1,0,0,.1-.19,0,.08.06.14.11.16.08s.25.08.31.16.08,0,.17,0,0,0,0,0,.16,0,.1,0c.19.27.72.29.9.48l.59.14s0,0,0,0c.22.11.18-.09.43,0s-.15,0-.08.05.33.06.49.2h0c.13.08.35,0,.58.08,0,0,0,0,0,0a2.33,2.33,0,0,1,.7,0c-.08.05-.11,0-.07.09s0-.1.19-.09.2.09.21.16l-.19,0c.08.1.25,0,.34.06l0,0c.29,0,.31-.06.62,0l0,0c.18-.09.14.06.31,0l0,.1.6-.09a1.7,1.7,0,0,1-.5.14,1,1,0,0,0,.44,0,.31.31,0,0,1-.15,0,1.09,1.09,0,0,1,.54-.11c0,.2.58,0,.75.16.39-.09.79-.06,1.25-.15-.19-.11.13,0,.07-.18.1,0,.14,0,.15,0h.34c.09,0-.09.06-.07.09.24,0,.11,0,.28,0,0,0,.06-.1.19-.12h-.2c.29-.18.31,0,.61-.15l-.09.08c.16-.07.6-.23.71-.42,0,0,.09,0,0,.07.4-.14.75-.55,1.06-.66v0c.06-.06.07-.14.17-.17s0,0,0,0a.76.76,0,0,1,.22-.22l0,.09c.37-.2.41-.49.64-.73.08.08.33-.12.44-.24h0a3.13,3.13,0,0,0,.37-.52c.08-.18.15-.36.25-.56.26-.16.49-.78.71-1.16,0,.06-.08,0-.06-.12s0-.29.11-.24v0c.12,0,.16-.25.21-.41l-.12-.06c.3-.37.16-1.1.34-1.31,0-.11,0-.23,0-.34H70a3.83,3.83,0,0,0,0-.78l.05.07c0-.2-.21-.25-.22-.43l.1-.06a2.67,2.67,0,0,0-.13-1s0,0,.06.06c0-.16,0-.64-.18-.55.09,0-.07-.35-.17-.52h.08a.7.7,0,0,1-.25-.32c0-.05,0-.06,0,0,0-.18-.1-.11-.14-.31l.07.06a.33.33,0,0,0-.16-.22c-.06-.09-.11-.32-.07-.37a.25.25,0,0,1-.16-.17s0,0,.06,0c-.09-.29-.28-.35-.32-.56a.05.05,0,0,0,0-.05,3.94,3.94,0,0,1,.2.36c.06,0,0-.2.12-.11a1.74,1.74,0,0,1-.42-.46.09.09,0,0,1,0,0h0A.28.28,0,0,0,68.54,5a.9.9,0,0,0-.08-.14s-.1-.2-.17-.28-.12-.05-.09.07,0,0,.06.06l0,0h0l.14.19a.31.31,0,0,1-.17-.2l-.17,0c0-.16-.14-.39-.11-.46-.23-.19-.52-.48-.75-.48-.07,0-.05-.09-.06-.13s.09.06.12.06c-.15-.09-.4-.29-.49-.23-.15-.15.15,0-.1-.15h0c-.41-.44-.9-.26-1.41-.64,0,0,.06,0,.06.05a7.37,7.37,0,0,0-2.13-.41.44.44,0,0,0-.34.09l0-.07-.2.11c-.28.09-.54-.1-.88.11l.06,0c-.13,0-.39.16-.39.09s0,.06-.08.06l0,0-.28.19c-.24.08,0-.17-.37,0-.12.08-.29.29-.23.29s.14,0,.16,0l-.1.08c0,.11,0,.25.32.19L61,3.28l.08,0-.15.09c.11,0,.14-.07.19-.13a.14.14,0,0,0,.1,0l.14-.18s0,.12.08.09-.12-.06,0-.15.1.06.19,0,0,0,0,.07.25-.09.28-.17.33-.1.34,0a.67.67,0,0,1,.25-.15c-.15.15.35,0,.32.11.11-.14.44-.08.66-.15,0,0,0,0-.06,0a.62.62,0,0,1,.24.08c0-.1.22-.11.33-.16.14.11-.11.1-.07.2,0-.09.27,0,.23-.12.11.08.1,0,.14.13,0-.12.11,0,.22-.06.15.1,0,.12.21.13S64.62,3,64.62,3Zm3.65,2.34h0l-.06-.07Zm.2.33-.08-.14s0,0,.06,0S68.45,5.65,68.47,5.71Zm-.06-1s0,.07,0,.09l-.07-.09h0Z"/><path class="cls-2" d="M68.27,4.7l0,0v0h0Z"/><path class="cls-2" d="M55.27,5.87h0Z"/><polygon class="cls-2" points="69.33 10.79 69.34 10.79 69.33 10.76 69.33 10.79"/><path class="cls-2" d="M56.83,4.38h0Z"/><path class="cls-2" d="M57.53,3.79l.12-.06Z"/><path class="cls-2" d="M58.12,3.41a.08.08,0,0,0,0,0h0Z"/><path class="cls-2" d="M53.88,13.1v0C53.91,13.19,53.9,13.15,53.88,13.1Z"/><path class="cls-2" d="M53.84,9.79a.86.86,0,0,1,0,.11C53.87,9.85,53.88,9.8,53.84,9.79Z"/><polygon class="cls-2" points="55.71 15.91 55.71 15.91 55.73 15.92 55.71 15.91"/><path class="cls-2" d="M53.83,10.06a.34.34,0,0,0,0-.15A.53.53,0,0,0,53.83,10.06Z"/><path class="cls-2" d="M60.91,2.33h0Z"/><path class="cls-2" d="M60.94,2.31h0Z"/><path class="cls-2" d="M61.06,2.28,61,2.3S61,2.3,61.06,2.28Z"/><path class="cls-2" d="M60,2.51v0A0,0,0,0,0,60,2.51Z"/><path class="cls-2" d="M59.75,2.61A.9.9,0,0,0,60,2.56v0C60,2.58,59.79,2.54,59.75,2.61Z"/><path class="cls-2" d="M58.52,2.8l.23-.09c-.05,0-.12,0,0-.07C58.42,2.71,58.82,2.67,58.52,2.8Z"/><path class="cls-2" d="M57.86,3.17c.1-.08,0,0,0,0S57.76,3.2,57.86,3.17Z"/><path class="cls-2" d="M54.38,7.33l-.05,0C54.29,7.39,54.35,7.31,54.38,7.33Z"/><polygon class="cls-2" points="54.3 8.41 54.37 8.34 54.33 8.28 54.3 8.41"/><polygon class="cls-2" points="53.68 8.86 53.68 8.81 53.66 8.98 53.68 8.86"/><path class="cls-2" d="M56.42,16.88V16.8C56.35,16.79,56.3,16.87,56.42,16.88Z"/><path class="cls-2" d="M60.31,17.64a.22.22,0,0,0,.22,0A1.6,1.6,0,0,0,60.31,17.64Z"/><polygon class="cls-2" points="69.76 11.93 69.77 12.01 69.78 11.86 69.76 11.93"/><path class="cls-1" d="M95.71,11.61C92.19,13,90.06,17.9,91.24,22s5.43,6.63,9,5.33,5.71-6.21,4.59-10.33-5.36-6.71-8.91-5.46"/><path class="cls-2" d="M95.82,11.39s0,.07.08,0l0-.09Z"/><path class="cls-2" d="M96.32,11.41c.07-.06.15-.16.08-.22-.06.1-.09.07-.15.19s-.13,0-.12,0-.11,0-.13.07a.33.33,0,0,0,.32-.08S96.33,11.39,96.32,11.41Z"/><path class="cls-2" d="M102.47,13.36l0,0Z"/><path class="cls-2" d="M104.57,16.87s0,0,0,0S104.57,16.88,104.57,16.87Z"/><path class="cls-2" d="M104.65,17.57v0A0,0,0,0,0,104.65,17.57Z"/><path class="cls-2" d="M102.47,13.36l.06.1S102.51,13.41,102.47,13.36Z"/><path class="cls-2" d="M97.23,11l-.06,0,.06,0Z"/><path class="cls-2" d="M101,12.33l0,0,0,0Z"/><path class="cls-2" d="M99.72,11.77s.06-.05.08-.08a.1.1,0,0,1-.08,0A.1.1,0,0,0,99.72,11.77Z"/><path class="cls-2" d="M97.57,11.32h0Z"/><path class="cls-2" d="M101.8,12.89a.06.06,0,0,0,0,0A0,0,0,0,0,101.8,12.89Z"/><path class="cls-2" d="M94.08,12.15h0S94.09,12.15,94.08,12.15Z"/><polygon class="cls-2" points="95.72 11.63 95.7 11.64 95.71 11.68 95.72 11.63"/><path class="cls-2" d="M104.73,18.83h0S104.72,18.81,104.73,18.83Z"/><path class="cls-2" d="M98.6,27.36c.14.06-.21.09,0,.15C98.57,27.49,98.76,27.4,98.6,27.36Z"/><path class="cls-2" d="M97.27,11.05h0Z"/><polygon class="cls-2" points="98.59 27.52 98.59 27.52 98.61 27.52 98.59 27.52"/><path class="cls-2" d="M104.45,21.73l0,0Z"/><path class="cls-2" d="M104.87,19.58v.05A.23.23,0,0,0,104.87,19.58Z"/><path class="cls-2" d="M104.18,22.84a.14.14,0,0,0,0,.07h0A.07.07,0,0,1,104.18,22.84Z"/><polygon class="cls-2" points="103.66 23.92 103.69 23.91 103.7 23.87 103.66 23.92"/><path class="cls-2" d="M91.7,15.13l.08,0C91.73,15.1,91.79,14.92,91.7,15.13Z"/><path class="cls-2" d="M97.23,11.08a0,0,0,0,1,0,0h0S97.22,11.08,97.23,11.08Z"/><path class="cls-2" d="M104.67,23.1l-.08.18Z"/><path class="cls-2" d="M91.68,23.81l0,0Z"/><path class="cls-2" d="M104.34,23.82a.33.33,0,0,0-.09.08.08.08,0,0,0,0,0Z"/><path class="cls-2" d="M91.78,15.1h0Z"/><path class="cls-2" d="M92.32,13.89c-.11.16,0,.13,0,.19s-.12,0-.2.09,0,.27-.1.36,0,0,0,0c0,.17-.23.38-.22.58h0a.18.18,0,0,1,.12,0c0,.08,0,.17-.08.17s0-.06,0-.09v.09c-.11,0,0-.12,0-.15a1.89,1.89,0,0,1-.15.49c-.09,0,.11-.29,0-.16l.12-.17c-.19.08.06-.11-.13,0a5.41,5.41,0,0,0-.22.53c0,.07.07,0,.09.08-.06.39-.31.21-.3.51,0,.09.13.15,0,.32l-.07-.09c-.08.25.09.18,0,.43,0-.06,0-.21,0-.17s0,.14,0,.27h-.09c-.05.28-.05.59-.1.89,0,0,0-.08-.08,0a10.42,10.42,0,0,1-.18,1.2l.07.15s0,.06,0,0c0,.15,0,0,.07.08s0,.11-.07.06a3,3,0,0,1,.1,1l0-.05c0,.22.18.22.14.42l0,0c0,.46.22.94.2,1.31.12,0,.1.45.25.43a1.37,1.37,0,0,0,.08.57c0,.09.15.1.21.2l-.07,0,.14.12,0,.12.08.09s0-.1,0-.11a.62.62,0,0,1,.14.43,3.06,3.06,0,0,0,.28.33s-.08,0-.13-.08c.2.14,0,.08.14.21,0,0,0,0,.06,0a1.17,1.17,0,0,0,.28.44h-.06a7.25,7.25,0,0,0,.71.75c-.07-.11,0-.15.09-.08l0,.09c.08,0-.06-.1.09,0s0,.13-.07.09l.14.09s0,0-.07,0,.14.26.28.25v0a7.62,7.62,0,0,0,.66.47c0-.05.13,0,.23,0a2.55,2.55,0,0,0,.57.43c.18.05.07,0,.17,0s.21.18.07.16a3.26,3.26,0,0,0,.74.25s-.07-.07,0-.08.14.09.12.11h0c.43.05.93.47,1.31.39h0a2.21,2.21,0,0,0,.37,0c.17,0-.1,0,0,.09.4-.07.62.06.95,0,.27.19.89-.11,1.24-.09l0,0c.07-.07.11,0,.18,0s-.1,0-.06,0a8.47,8.47,0,0,0,2.09-1c.23-.17,0-.26.32-.42l0,.13a9.58,9.58,0,0,0,1.09-1.29s0,.05,0,.1.25-.34.21-.37,0,0,.1,0,.1-.28.18-.3,0,0,0,.06.19-.3.09-.27c.13-.16.18-.35.28-.47s.19-.3.1-.37c.1.06.24-.28.23-.42,0,.05.07-.09.1,0,.05-.14.08-.27,0-.27.24-.2.07-.55.28-.64.08-.43.11-.84.16-1.22.11,0-.08.42,0,.43a9,9,0,0,1,0-1c0-.09,0,.06.06.09a6.7,6.7,0,0,0,0-1s0,0,0,.07,0-.15,0-.14v.06c-.07.1-.15-.26-.2-.27.15.11,0-.32.22-.15,0,0,0-.1-.07-.08s0-.08.07,0c0-.23-.09-.15-.09-.36,0,0,0,0,.07.06a.78.78,0,0,1-.12-.38s0,0,0,0c0-.3-.18-.5-.21-.83.13.07,0-.12.1-.16l-.07-.17,0,.08c0-.15-.12-.27-.14-.41l.07.1-.11-.27,0,.17c-.1-.14-.11,0-.15-.15,0,0,0-.15,0-.24h0a.49.49,0,0,1-.12-.24s.11,0,.12,0-.17-.33-.28-.38a.06.06,0,0,0,.08,0l-.08,0c0-.07,0-.09,0-.09-.08-.2-.08.11-.14-.14,0,0,0,0,0,0-.1-.24-.28-.42-.36-.64s.12.17.15.06c-.18-.3-.49-.54-.66-.82l0,.05c-.13,0-.11-.23-.26-.32,0,0,.09,0,.07,0a2.39,2.39,0,0,0-.6-.55h.05a2.64,2.64,0,0,0-.34-.37c-.06,0-.12-.06-.11,0-.22-.45-.73-.44-1-.79,0,0,.11,0,.08,0a2.65,2.65,0,0,0-.31-.15c0,.06,0,.05.06.12a.41.41,0,0,1-.22-.05c.15,0,0-.08,0-.14s0,0,0,0c-.11-.18-.08.09-.26-.09l0,0a1.74,1.74,0,0,1-.26-.07c0-.08.1,0,.13,0-.13-.05-.3,0-.38-.1l.2,0a.42.42,0,0,0-.2-.16h0l-.2-.12,0,0c-.22.11-.34-.08-.59,0,.24,0,.05,0,.09-.12s-.13-.09-.1-.1-.17-.09-.34,0c0,0-.12,0-.08-.08-.15,0,0,0,0,.08-.23,0-.5-.2-.83-.1a3.12,3.12,0,0,0-.57.16c-.08,0,.07-.09.07-.09a.71.71,0,0,0-.37,0s0,0,0-.07-.06.1-.2.08a.38.38,0,0,1,.09-.11l-.36.14s.07-.08.11-.11c-.14,0-.36.09-.39.17h.09c-.05,0,0-.05,0-.07s.18,0,.19,0l-.09,0c.11.13.35-.08.53-.09l-.06.11a1.56,1.56,0,0,1,.18-.1s.07.08,0,.1c.13,0,.11,0,.22,0s0,0,0,0l.12,0s0,.07-.05.06c.22,0,.36-.09.44,0h0c.31,0,0-.07.27-.14l.13.2,0-.07s.09,0,.08,0,0,0,.06-.07.42.05.43.18c.07,0-.13-.07,0-.08,0,.14.19,0,.31.12-.06.05-.17,0-.06.08.11-.08.25.1.37.12s.26,0,.44.09c0,0,.32.18.47.3h0c.07-.07.23,0,.36.09,0,0-.06.05-.14,0l.11.06a.25.25,0,0,1,.16,0l-.06,0a1.55,1.55,0,0,1,.49.28s0-.25.18-.15c0,0,0,.09-.1.06s.08,0,.1.05h-.11c.07.08.07,0,.14,0s0,.06,0,.09,0-.06-.08-.06a.37.37,0,0,1,.14.2s0-.05.1,0,0,.08.07.17.11.1.16,0,0,.06,0,.09.31.27.29.14v0h0a3.42,3.42,0,0,1,.61.66l0,0a4.15,4.15,0,0,0,.38.35s0,.13,0,.13a.63.63,0,0,1,.2.27c-.11-.08,0,.06-.1-.09.08.15.07.2.23.32-.08,0,0,.15,0,.21l0-.13a1.44,1.44,0,0,1,.12.22h-.09c.09.34.45.47.4.79.09.06,0-.19.06-.14a1.85,1.85,0,0,1,0,.39c0,.22.18.15.22.38,0,0,.09-.09.17.07s-.06.22-.11.13,0-.06,0-.06-.06-.11-.07,0h0c0,.08.07.29,0,.25s.07,0,0-.05c0,.21.07.31.09.52,0,0,0-.07,0,0,0,.31.09.12.14.33s-.11,0,0,.18-.07,0-.1,0a1,1,0,0,1,0,.46l0-.1a.63.63,0,0,1,0,.16l.05-.06c0,.06,0,.11,0,.11s.09-.06.16.06,0,.24,0,.27c0-.25-.08,0-.1-.18a.37.37,0,0,1,0,.15s0,0,0,0c-.06.24.09.1.1.35,0,0-.08.06-.07.1s.07,0,.11,0,0,.17,0,.26l0-.09s0,.11,0,.22,0-.1,0-.06-.1.27-.05.45-.08,0-.11.07-.09.2-.07.4c.07,0,.05-.06.09.09v-.33l.06.22c0-.1,0-.21,0-.27,0,.11,0,.09.08.05-.11.13,0,.28-.07.43l-.15,0c-.09.22,0,.43-.1.72l0-.09c0,.05,0,.19,0,.29s-.08,0-.12.07-.07.21,0,.27l-.1.11c-.1.23.06.32-.05.54,0-.09-.1,0-.07-.16,0,.07-.06.14,0,.15s0,.23-.09.28.05.07,0,.15,0,0,0,0,0,.15.06.09c-.25.16-.29.64-.52.76s-.17.35-.25.49c0,0,0,0,0,0-.15.16,0,.19-.14.37s0-.13,0-.09-.16.26-.33.34l0,0c-.11.07-.15.28-.3.43,0,0,0,0,0,0a1.32,1.32,0,0,1-.33.54c0-.09,0-.09,0-.11s.09.06,0,.19-.18.08-.24,0l.12-.12c-.12,0-.16.15-.23.2l0,0c-.2.16-.14.24-.37.41h0c-.07.17-.13,0-.22.18l-.09-.06a4.33,4.33,0,0,1-.4.37,2.15,2.15,0,0,1,.31-.36c-.09,0-.28.18-.31.25s.06-.08.1-.08a.67.67,0,0,1-.38.32c0-.19-.49.17-.68.05a3.1,3.1,0,0,1-1.06.21c.16.13-.12,0-.08.16s-.13,0-.14,0l-.29-.08c-.07,0,.09,0,.08-.07-.2,0-.09-.06-.22-.1,0,.06-.07.07-.19,0l.16.08c-.29.06-.24-.15-.53-.09l.09,0c-.15,0-.53-.08-.7,0s0-.07,0-.07c-.33-.09-.8-.07-1-.26l0,0c-.06,0-.13,0-.2,0s0,0,0,0a.56.56,0,0,1-.26-.06h.09c-.29-.19-.52-.15-.79-.27.06-.09-.15-.28-.25-.36h0c-.33-.23-.6-.34-.92-.55-.09-.24-.53-.59-.71-.93,0,.06-.07,0-.12,0s-.21-.15-.12-.2l0,0c0-.11-.08-.24-.16-.36l-.12.06c0-.41-.57-.8-.49-1.07-.07-.07-.11-.17-.18-.24l.07,0c-.09-.23-.11-.35-.23-.63l.07,0c-.05-.16-.26-.14-.32-.29l.09-.08A3.87,3.87,0,0,0,91.3,21a.06.06,0,0,1,.06.05c0-.14,0-.55-.14-.48.09,0,0-.31-.07-.47l.07,0a.56.56,0,0,1-.15-.33s.05,0,0,0c0-.15-.08-.12,0-.31l0,.07a.27.27,0,0,0-.06-.23c0-.1,0-.3.09-.32a.2.2,0,0,1-.06-.21s0,0,0,0c.08-.26,0-.4.06-.57a0,0,0,0,0,0,0,3.42,3.42,0,0,1-.06.36c.06,0,.1-.16.17,0a1.17,1.17,0,0,1-.06-.54l0,0v0a.21.21,0,0,0,0-.1.69.69,0,0,0,0-.13c.06,0,.07-.18.09-.26s0-.11-.11,0,0,0,0,.07a.16.16,0,0,0,0,0h0l0,.21a.24.24,0,0,1,0-.23l-.09-.14c.11-.09.22-.3.29-.31a2.34,2.34,0,0,0,.08-.78c0-.07.07-.07.1-.08s0,.09,0,.12c0-.15.14-.41.07-.48.11-.16,0,.13.12-.11v0c.34-.38.13-.85.59-1.23,0,0,0,0-.06,0a5.92,5.92,0,0,1,1.22-1.48c.15-.1.12-.16.17-.27l.08,0,.08-.19c.17-.21.47-.14.67-.42l-.06,0c.11-.05.31-.22.32-.16s0-.07.06-.07l0,0a2,2,0,0,1,.22-.2c.22-.07,0,.15.34,0,.1-.06.27-.25.22-.26s-.12,0-.14,0l.1-.07c0-.12,0-.27-.28-.22l-.16.15-.08,0,.16-.08c-.11,0-.15.06-.2.12a.14.14,0,0,0-.11,0,1.54,1.54,0,0,0-.13.19s0-.13-.09-.08.13,0,0,.15-.11,0-.18.05,0,0,0-.08-.22.16-.23.23-.26.22-.32.12a.7.7,0,0,1-.16.24c.05-.21-.28.21-.33.08,0,.18-.3.36-.41.56,0,0,0,0,0-.05a1.38,1.38,0,0,1-.21.13c.06.08,0,.24-.07.36-.17.06,0-.14-.13-.17.07,0-.11.26,0,.26-.12.05-.09.06-.19.06.09.09,0,.1,0,.23-.15.1-.12,0-.2.14S92.32,13.89,92.32,13.89Zm-1.46,4.16h0V18A.72.72,0,0,0,90.86,18.05Zm0,.37,0-.16s0,0,0,0S90.84,18.36,90.81,18.42Zm.6-.67c0,.06,0,.07,0,.08v-.1h0Z"/><polygon class="cls-2" points="91.35 17.63 91.35 17.61 91.32 17.63 91.34 17.66 91.35 17.63"/><path class="cls-2" d="M102.44,13.32h0v0Z"/><polygon class="cls-2" points="91.45 23.45 91.47 23.44 91.44 23.42 91.45 23.45"/><path class="cls-2" d="M101,12v0Z"/><path class="cls-2" d="M100.18,11.57l-.11-.07Z"/><path class="cls-2" d="M99.55,11.32l0,0h0Z"/><path class="cls-2" d="M105.35,19.55v0C105.36,19.64,105.36,19.6,105.35,19.55Z"/><path class="cls-2" d="M104.71,16.43l.06.09C104.76,16.46,104.75,16.42,104.71,16.43Z"/><polygon class="cls-2" points="104.68 23.08 104.68 23.08 104.67 23.1 104.68 23.08"/><path class="cls-2" d="M104.82,16.66a.31.31,0,0,0,0-.14A.48.48,0,0,0,104.82,16.66Z"/><polygon class="cls-2" points="96.62 11.13 96.59 11.13 96.59 11.14 96.62 11.13"/><path class="cls-2" d="M96.59,11.14h0Z"/><path class="cls-2" d="M96.48,11.19l.07,0S96.49,11.16,96.48,11.19Z"/><path class="cls-2" d="M97.53,11.06v0A0,0,0,0,0,97.53,11.06Z"/><path class="cls-2" d="M97.8,11a.87.87,0,0,0-.26,0v0S97.74,11.09,97.8,11Z"/><path class="cls-2" d="M98.88,11.47l-.21-.06s.08.08,0,.07C98.9,11.61,98.6,11.4,98.88,11.47Z"/><path class="cls-2" d="M99.53,11.67c-.12,0,0,0,0,.05S99.6,11.72,99.53,11.67Z"/><path class="cls-2" d="M103.41,14.51l-.06,0C103.41,14.61,103.37,14.52,103.41,14.51Z"/><polygon class="cls-2" points="104.2 15.14 104.19 15.04 104.12 15.03 104.2 15.14"/><polygon class="cls-2" points="104.05 15.85 104.03 15.82 104.11 15.94 104.05 15.85"/><path class="cls-2" d="M103.71,23.71h.08C103.81,23.66,103.73,23.6,103.71,23.71Z"/><path class="cls-2" d="M101.51,26.42a.18.18,0,0,0-.17.1A1,1,0,0,0,101.51,26.42Z"/><path class="cls-2" d="M92.47,24l.06,0-.09-.1Z"/></g><g id="Layer_3" data-name="Layer 3"><path class="cls-1" d="M259.47,27.07C250,13.72,235.43,3.6,219.21,1.64s-33.75,5.11-42.4,19c-1.42,2.27-2.72,4.82-5.07,6.11-3.21,1.76-7.14.57-10.78.16-14.16-1.58-27.9,12.25-26.23,26.4a50.74,50.74,0,0,0-26.12,10.9c-5.25,4.24-9.85,10.13-9.94,16.88s6.26,13.63,12.8,12c-7.3,14.63-1.86,34.35,11.9,43.17s33.95,5.53,44.19-7.21c3.94,8.2,8.44,17,16.62,21s20.67-.51,20.78-9.61c16.86,19.71,50.12,22.35,69.88,5.53l29.58-2.36c8.51-.68,17.2-1.4,25-4.82s14.74-10.11,16.09-18.54-4.63-18-13.15-18.56c12.61-9.4,15.94-29.13,7.11-42.16s-28.39-17.23-41.8-9c7.62-8.82,3.49-24.21-6.8-29.68S267,19.11,259.29,27.87"/><path class="cls-2" d="M258.79,27.44c-.18.34.09.3.8-.49l.29-.78Z"/><path class="cls-2" d="M264.58,23.18a12.23,12.23,0,0,0,1.26-1.2c.3-.31.37-.52-.07-.45a23.28,23.28,0,0,0-2.1,2.06c-.82.67-1.54,1-1.48.84-.23.31-1.29,1.05-1.58,1.59a15.93,15.93,0,0,0,1.87-1.38c.68-.48,1.32-1.12,2-1.69C264.89,22.8,264.62,23.08,264.58,23.18Z"/><path class="cls-2" d="M335.2,55.16l-.47-.46C334.85,54.84,335,55,335.2,55.16Z"/><path class="cls-2" d="M341.14,107c-.32-.34-.48-.46-.51-.46C340.94,106.85,341.19,107.1,341.14,107Z"/><path class="cls-2" d="M344.66,116.6l0-.6A2.3,2.3,0,0,0,344.66,116.6Z"/><path class="cls-2" d="M335.2,55.16c.4.39.73.85,1.09,1.27C336.44,56.45,335.78,55.73,335.2,55.16Z"/><path class="cls-2" d="M277.71,17.54a9.28,9.28,0,0,0-.94.2l.88-.14Z"/><path class="cls-2" d="M309.65,47.2l-.5,0a2.83,2.83,0,0,0-.4.18Z"/><path class="cls-2" d="M300.59,42.28a1.38,1.38,0,0,0,.24.87,6.07,6.07,0,0,1,0-1.05C300.76,42.09,300.69,42.14,300.59,42.28Z"/><path class="cls-2" d="M282.6,18.64h0Z"/><path class="cls-2" d="M324.49,49a.4.4,0,0,0,.15.16S324.58,49.11,324.49,49Z"/><path class="cls-2" d="M242.24,8.75s0,0,0,0S242.38,8.84,242.24,8.75Z"/><path class="cls-2" d="M259.41,27.11l-.22-.27a.32.32,0,0,0-.17,0Z"/><path class="cls-2" d="M336.43,132.77l.07,0C336.87,132.38,336.65,132.56,336.43,132.77Z"/><path class="cls-2" d="M174.7,139.62c.47.91-.06.27-.53-.26s-.84-1-.11.39C174,139.47,176,141.8,174.7,139.62Z"/><path class="cls-2" d="M278.29,17.51l.91,0C278.78,17.48,278.5,17.48,278.29,17.51Z"/><path class="cls-2" d="M174.06,139.75h0l.16.28Z"/><path class="cls-2" d="M293.36,143.22a2,2,0,0,0,.48.09S293.71,143.25,293.36,143.22Z"/><path class="cls-2" d="M326.94,138.86l-.79.25C326.46,139,326.72,138.93,326.94,138.86Z"/><path class="cls-2" d="M275.68,145l-.64,0-.44,0c-.17,0-.29.2-.48.34l.24-.15c.07,0,.12-.16.22-.16l.34,0,.4,0Z"/><path class="cls-2" d="M259.32,153.62l.34,0c.17-.06.37-.13.54-.2C259.91,153.47,259.61,153.54,259.32,153.62Z"/><path class="cls-2" d="M187.83,7.84a4,4,0,0,1,.87-.27C188.35,7.57,190.65,6,187.83,7.84Z"/><path class="cls-2" d="M277.74,17.7a1.18,1.18,0,0,1,.55-.19l-.63.09C277.61,17.65,277.6,17.69,277.74,17.7Z"/><path class="cls-2" d="M275.41,147.27h-.05l-.07.05-.6.47c-.4.3-.78.64-1.21.92.36-.23.73-.54,1.14-.85l.62-.49.11-.09A.06.06,0,0,1,275.41,147.27Z"/><path class="cls-2" d="M99,87.16l-.35-.64A4.1,4.1,0,0,0,99,87.16Z"/><path class="cls-2" d="M265.82,153.39c-.52.16-1.07.33-1.63.53a2.29,2.29,0,0,0-.29.21C264.54,153.88,265.19,153.67,265.82,153.39Z"/><path class="cls-2" d="M188.71,7.57h0Z"/><path class="cls-2" d="M207,.21c-2.85.47-1.28.59-1.84.9-1.67.34-2.06.4-2.2.33s0-.25-.59-.2c-2.08.58-3.52,1.46-5,2-.13,0-.43.08-.12-.13-1,.56-2.57,1.13-4.1,1.93L192,5.55c-.37.21-.74.43-1.09.64A15.12,15.12,0,0,0,189,7.46a1.14,1.14,0,0,1-.33.11c.45-.08.6,0,.6.21-1.06.7-1.83,1.49-2.37,1.55a3.41,3.41,0,0,0,.91-.8c-.35.28-.71.54-1,.83-.57.23-.25-.1.25-.44s1.12-.77,1.05-.88a72.7,72.7,0,0,0-5.81,5c-.55,0,3.41-3.21,1.22-1.65.78-.69,1.67-1.23,2.5-1.84-2.21,1,1.53-1.13-.56-.25a24,24,0,0,0-3.33,2.84c-.43.39-.81.82-1.28,1.33s-1.06,1.06-1.73,1.84c-.44.84.4-.05,0,.78-.42.59-.8,1.08-1.13,1.49s-.57.79-.81,1.09A12.84,12.84,0,0,1,176,19.95a10.32,10.32,0,0,0-2.1,3,9.79,9.79,0,0,1-.56,1.35,4.18,4.18,0,0,1-2,1.7,6,6,0,0,0,.53-.79,18,18,0,0,1-2.27,1.25,4.88,4.88,0,0,1-2.92.22c.35-.06,1.06,0,1.6-.11s.92-.12.66-.11a8.82,8.82,0,0,0-2,.05,3.93,3.93,0,0,1-1.65.07l-.36-.39c-1-.12-2-.28-3.14-.39s-2.29-.07-3.45-.1a25.09,25.09,0,0,0-6.89,1.47c.21-.18,1-.54-.13-.28a31.08,31.08,0,0,0-8.15,4.6,30.47,30.47,0,0,0-6.22,6.81c-.28.7-.62,1.36-.84,2.08-.22.47-.52.82-.34.28-1,2,.12.19-.22,1.22-.27.58-.44,1-.54,1.11s-.14,0,0-.39a27.93,27.93,0,0,0-1.23,7.61,6.63,6.63,0,0,0,0,1.07l.05.75c0,.15.05.33,0,.43l-.54.06-.26,0-.34,0-.91.12-1.66.22.77-.25c-3.17.53-3.38,1.35-6.27,1.95l.52-.22a48,48,0,0,0-9.68,4.11,88.66,88.66,0,0,0-7.86,5,31.38,31.38,0,0,1-2.78,2.73c-1.2,1.15-2.2,2.42-2.11,2.77a33.43,33.43,0,0,0-2.34,2.83,15.78,15.78,0,0,0-2.24,4.47c-.45,1.51-.24,2.36-.28,4.26l-.31,0A12.43,12.43,0,0,0,98,83.34a10.56,10.56,0,0,0,0,1.46,16.08,16.08,0,0,0,.7,1.72c-.25-.7-.43-1.5-.3-1.43a23.63,23.63,0,0,0,2,4.06l.53.82.47.63a3.22,3.22,0,0,1,.41.64,11.71,11.71,0,0,0,6.19,3,1.61,1.61,0,0,1-.85,0,7.73,7.73,0,0,1-1.4-.35l.6.19.48.1.62.16c.28.09.35.12.41.18a.59.59,0,0,0,.36.15l.56.07h.2l0,0,.1,0c-.05-.07.14-.19.22-.25a.67.67,0,0,0,.26,0h0l0,.06-.07.12-.13.25c-.08.16-.16.33-.23.49a.6.6,0,0,0,0,.09l-.07.21-.13.41-.26.83c-.16.55-.33,1.08-.46,1.58,0-.18,0-.36-.05-.55a34.79,34.79,0,0,0-.66,15.47c-.18-1.94.25-1.53.51,0l-.23.68c.4,1-.18-1.63.46.36.41,1.94-.06,1.39-.42.29l.66,2.36c-.06.17-.24-.38-.39-.49.41.92.91,4.18,1.87,5.38l0,.17a32,32,0,0,0,3.15,5.71,23.36,23.36,0,0,0,1.65,2.2c.29.36.58.75.91,1.13l1.08,1.15c.13-.06.48.23.93.64a11.52,11.52,0,0,0,1.62,1.21,27.5,27.5,0,0,0,8.92,5.81c2.63.78.84,0,2,.28a5.2,5.2,0,0,0,1.71.77c.71.21,1.16.36.15.22,1.14.23,2.07.51,2.93.6l2.46.3c.82,0,1.68.05,2.7.08s2.2-.12,3.66-.2c-.64-.08-1.35-.1-1-.2,1.05,0,2.4-.11,2.27,0l-.28.06a53,53,0,0,0,10.41-2.45,24,24,0,0,0,8.43-4.88l-.22.2a22.26,22.26,0,0,0,2-1.89c.3-.31.68-.68.92-.94l.45-.6c.46-.48.31-.24.17,0s-.25.48,0,.31l.29-.43.07-.1,0,0,.07.09.14.21.07.12,0,.06.1.19,1.52,3a36.68,36.68,0,0,0,3.38,5.65,21.26,21.26,0,0,0,5.36,6.87,26.85,26.85,0,0,0,4.33,3.09,20.18,20.18,0,0,0,2.23,1.12,19.9,19.9,0,0,0,2.08.81l-.26-.25a13.48,13.48,0,0,1,1.44.31,9.48,9.48,0,0,0,1.17.34c-.13-.16-1.45-.39-.6-.35a19.41,19.41,0,0,0,11.28-2.05,14.05,14.05,0,0,0,4.59-3.93,7.58,7.58,0,0,0,.84-1.32l.35-.71.17-.36a1,1,0,0,0,.06-.14l.14-.4,0-.16a1.85,1.85,0,0,1,.22.31v0l.13.13.51.52c.33.35.67.7,1,1,.71.65,1.41,1.32,2.16,1.92l1.11.92,1.16.85a8.43,8.43,0,0,0,3,1.54,7.48,7.48,0,0,1,1.3.52c.56.29,1.3.73,2.41,1.39l-1.47-.37a68.24,68.24,0,0,0,11.87,4.39,46.91,46.91,0,0,0,12.37,1.57,3.71,3.71,0,0,1-1.3.12,17.7,17.7,0,0,0,3.83.13,8.33,8.33,0,0,0,2.55-.37c1.26-.07.31.15,1.09.19a15.6,15.6,0,0,0,2.91-.39,10.61,10.61,0,0,1,2.3-.37c.16,0-.47.16-.77.23,1.11-.22,5.15-1.08,4-1.09a51.9,51.9,0,0,0,7.85-2.64,32.17,32.17,0,0,1,2.92-1.49,5.75,5.75,0,0,0,2.06-1.36c0,.27,1.21-.37,2.58-1.24.66-.47,1.37-1,2-1.48l.83-.74.35-.33.15-.15c.06-.05.09-.09.09-.1s0,.06,0,.07h.06s.07,0,.13,0,0,0,.18.06.1.06-.06.12c2.13-.18,4.1-.42,3.71-.62,4,.22,7.92-1.07,10.21-.55,6.37-.75,12.25-1.38,18-2-.17.47-6.35.56-6.06,1,5.43-.64,8.56-1.19,14-1.8,1.41-.13-.77.3-1.24.44,5.43-.87,10.63-1.76,15.15-3.93a4.83,4.83,0,0,1-.93.51c.91-.37,2.14-.82,1.95-1-.28.16-.57.3-.86.43-.79.15.07-.32,1.08-1a14.78,14.78,0,0,0,2.2-1.51c-.57.67.5.09,1.47-.43s1.82-1,.92,0c.53-.38,1.13-.95.93-1,.79-.54,1.09-.66.4,0a14.64,14.64,0,0,0,1.44-1.25,7.77,7.77,0,0,0,.67-.71c.34-.42.69-.75,1.79-1.91.06.08-.36.57-.51.89,1-1.3,2-2.62,3.51-4.84,0,.17.2-.05-.25.62a19,19,0,0,0,2.53-5.82,22.13,22.13,0,0,0,.68-6.62c.57,1.48,0-1.75.22-2.09a9.78,9.78,0,0,0-.38-1.36,13.38,13.38,0,0,0-.47-1.32,9.85,9.85,0,0,1,.17,1.12,21.26,21.26,0,0,0-3.09-5.84l.6.68.54.73a16.92,16.92,0,0,0-2.89-3.51,10.89,10.89,0,0,1,.84,1,8.46,8.46,0,0,1,.77,1c-.81-.91-.91-.73-1-.72s-.09,0-.26-.15-.43-.49-1-1c.24.21-.17-.21-.8-.75l-1.05-.83c-.37-.25-.73-.48-1-.69h0c-.53-.26-1.15-.37-1.77-.61-.31-.1-.57-.13-.89-.23a6.7,6.7,0,0,0-.95-.22c-.09-.06.17-.12.4-.17s.43-.11.42-.14a4.63,4.63,0,0,1-.76,0s-.1,0-.1,0l.06-.06.14-.14.34-.31c.25-.23.54-.46.8-.72l.52-.57.52-.58a8,8,0,0,0,.73-1c-.28.4-.15.55,0,.46a6.88,6.88,0,0,0,.44-.9c.74-.81.87-.91.89-.67,1-1.29.79-1.15.59-1.06s-.28.16.85-1.43c-.15.27,0,.17-.35.73a33.6,33.6,0,0,0,4.54-10.18c.68-.93-.83,3.05-.17,2,.18-.63.37-1.27.54-1.91l.36-2c.06-.33.13-.66.17-1l.09-1c.05-.67.13-1.34.17-2,0-1.34.08-2.68-.06-4L344.8,73l-.26-1.9.09.94c-.33-.31-.33-1.25-.5-2.4a12.28,12.28,0,0,0-.93-3.72c.24.58.55.69.44.54A24.64,24.64,0,0,0,337.25,56l.55.38a28,28,0,0,0-5.62-5.08c-.59-.3-1.68-.92-1.12-.38a21.84,21.84,0,0,0-8.84-4c-.77-.15-1.52-.38-2.29-.46l-2.27-.34c-1.52-.12-3-.37-4.52-.46.72,0,1.72-.13,1.15-.13l-2.57.08c-.85.07-1.7.2-2.55.3.43.19.69.07,1.77.15a12.08,12.08,0,0,1-1.41.31l-.92.15-.94.2c2.21-.58-.07-.36-1.09-.3.18,0-.14.18,0,.23-1.36,0-1.42.27-1.61.44s-.51.42-2.22.84l.13-.18-1.68.83c-.61.27-1.23.63-1.81.94,0-.23,1.29-.85,1.58-1.16a11.91,11.91,0,0,0-1.47.87l-.87.56-.44.27.16-.25c.26-.44.76-1,1.2-1.65a8.29,8.29,0,0,1-.86,1.35l-.17.25a3.6,3.6,0,0,0,.31-.19h-.11l.09-.1.3-.34c.47-.54.68-.78.86-1s.28-.47.51-.82l-.05.09a6.52,6.52,0,0,0,.54-.95l.33-.75a5.54,5.54,0,0,0,.32-.84,5.73,5.73,0,0,1-.38.84c.11-.67.13-1.34.25-2s.21-1.34.3-2.05a12,12,0,0,0,.12-2.23,10.24,10.24,0,0,0-.32-2.44c.72,3.32.3.54.62.76,0-.45,0-1,0-1.44s0-.66,0-.47c-.3-.8-.32-1.51-.54-2.27a8.15,8.15,0,0,0-1-2.65,4.46,4.46,0,0,0-.27-.85c-.14-.36-.27-.67-.07-.55-1.08-1.92.09.54-.11.42a47.5,47.5,0,0,0-3.09-4.9,14,14,0,0,0-5.29-4.42,15.33,15.33,0,0,0-4.22-1.49,16.65,16.65,0,0,0-1.81-.31c-.33,0-.68-.12-1.06-.16l-1.27-.11c-1.24-.34,1.08-.2,1.08-.2a14.09,14.09,0,0,0-2.8-.41c-.45,0-.89-.05-1.34,0L279,18c.39-.1,0-.16-.63-.24a5.41,5.41,0,0,0-1.35.33,10.14,10.14,0,0,1-1.71.32,5.45,5.45,0,0,1,1.49-.64,25.17,25.17,0,0,0-2.71.67c-.88.32-1.77.6-2.65,1-.27,0,0-.15.38-.36l1.27-.53a27.91,27.91,0,0,0-3.46,1.32,9.11,9.11,0,0,0-2.2,1.34c.41-.2.85-.35,1.28-.51-.7.33-.47,0,0-.33a9,9,0,0,1,1.06-.56,6.22,6.22,0,0,1,.81-.24,1.68,1.68,0,0,1,.76-.05L270.1,20a14.46,14.46,0,0,0,3.44-.94A20.24,20.24,0,0,1,278,18l-1.08.55,1.36-.33c.46-.09.92-.15,1.38-.23.6.09,1,.31-.33.41a17.74,17.74,0,0,0,1.78,0,5.88,5.88,0,0,1,1.57.13c.18.06.09.06-.08.07l1.87.14c-.38,0,.26.33-.86.11.41.09.8.16,1.17.23l1,.25.95.19.83.23a13.71,13.71,0,0,1,1.38.42,4.42,4.42,0,0,1,1,.56l-.26-.09c1.08.43,1.59.74,1.88.87s.33.1.34,0,0-.13.18-.1a3.82,3.82,0,0,1,1.33.63,15.11,15.11,0,0,1,1.3,2.1l.54.1c.17.17.41.43.59.64s.25.4.15.37c1.28,1.25-.09-.32.72.36.16.25.34.51.54.78l.56.89.59.91c.19.31.34.63.51.93a5.13,5.13,0,0,1,.91,2.63c.53.69-.66-2.12.42.12-.23.82,1,2.71,1,4.87-.33-.61-.6-2.56-.43-.48a3,3,0,0,1,.3,1.16,7.23,7.23,0,0,1,0,1.53L301,40.66c-.08.52-.18,1-.21,1.45.09,0,.11.29.09.7s-.2,1-.35,1.6a5.35,5.35,0,0,1-.33,1l-.2.52c-.08.2-.16.44-.27.66a11.32,11.32,0,0,1-.78,1.38l-.76,1.3a7.33,7.33,0,0,0-.53.62l-1.3,1.64,0,.16a.16.16,0,0,0,0,0l.11-.05.22-.11.93-.48L299.69,50l2.1-.87,1-.41c.15-.06.33-.14.45-.18l.33-.08-.06.08a5.87,5.87,0,0,1,2-.9c1-.31,2.22-.5,3.24-.75,0,.23-.4.39-1.48.7.64-.11,1.26-.28,1.91-.33a11.28,11.28,0,0,1,2.3-.45l-.47.32a25,25,0,0,1,8.49.38c.25-.21-2.54-1.17,1-.7.1.19.18.39-.75.3a6.41,6.41,0,0,1,1.68.33c-.48,0-1-.11-1.43-.11,1.47.45.82,0,2,.32-.07.18.84.36.63.47a13.3,13.3,0,0,0-1.48-.39c.66.2,1.39.4,2,.65a9.93,9.93,0,0,1,1.33.68c-.07-.15.09-.25,1,.06,2.38,1,.72.58,2,1.29.65.09,2,1.09,2.17.84a2.77,2.77,0,0,1,.92.78A30.13,30.13,0,0,1,333.5,54c.93.76,1.62,1.28,1.15.67l-.25-.24.18.13h0a20.68,20.68,0,0,1,4.55,5c.57,1,1.17,2,1.66,3l.7,1.53.35.75.29.77-.1,0c1.13,2.38,1.55,5.59,2,7.42.06.78-.08,1.84-.21,1.52a16.8,16.8,0,0,1,.15,2.22c0,.33,0,.7,0,1.15a11,11,0,0,1-.2,1.72c0-1,0-.83,0-.76a12.27,12.27,0,0,1,.06-1.3,22.69,22.69,0,0,1-.36,2.87c-.06.4-.11.81-.14,1.3s-.16,1-.23,1.72c0-.49-.2,0-.4.7s-.54,1.69-.67,2.29l.7-1.67a23.94,23.94,0,0,1-1.22,3.61l-.06-.73c-.59,1.17-1,2.33-1.59,3.38-.27.53-.47,1.08-.76,1.57l-.82,1.47-.4.72c-.15.23-.31.44-.46.66-.31.43-.63.86-.95,1.26a12.39,12.39,0,0,1-2.24,2.06c-.38.46-.34.44-.1.28l.37-.32.39-.35c.54-.49,1.1-1,.77-.46-.85,1.06-4.11,3.19-5.62,4.4.54.11,1,.19,1.28.23.71.1,1.37.22,1.95.35s1.1.21,1.56.28l.34.05.16,0,.3.08.56.13a5,5,0,0,1,1.2.42A7.27,7.27,0,0,1,339,105c-.14-.17-.25-.38,0-.37s.69.26,1.69,1.12a11.23,11.23,0,0,1,.92,1.16,2.58,2.58,0,0,1,.31.71c0,.28-.21.16-.7-.4-.38-.42-.54-.64-.5-.65-.52-.57-1.34-1.15-.72-.45a2.42,2.42,0,0,1,.3.13c.17.24.44.56.73.91s.54.77.79,1.12c.46.73.71,1.29.44,1,1,1.46.58.55-.07-.61.37.66.7,1.25.95,1.83a17,17,0,0,1,.71,1.67,17.86,17.86,0,0,1,.55,1.75,14.09,14.09,0,0,1,.32,2.07c0-.5.07-1,.16-.48l.1,1.4v.88a5.08,5.08,0,0,0,.08.82,4.66,4.66,0,0,1-.05,2c-.27.86-.34.68-.41.68s-.11.17-.49,1.7c-.81,1.75-.41.27-.29-.47a14.74,14.74,0,0,1-3.32,6,14.72,14.72,0,0,0,.77-1.27,14.6,14.6,0,0,1-1.32,1.94l.7-.53c-.55.69-1.05,1.24-1.11,1.16-.48.79.77-.27-.29,1.24-.87.82-2.57,2.61-3.1,2.61,1.49-1.15,1.32-1.18,1.14-1.12s-.45.12.68-1a12.52,12.52,0,0,1-1.67,1.48c-.12.06.06-.13.23-.3a8.07,8.07,0,0,0-2,1.65,6.34,6.34,0,0,1-2.14,1.7c.32-.39-.9.15-1.43.44,1.31-.69.78-.08-.39.69-1.11.45-1.69.74-2.16,1a8.52,8.52,0,0,1-1.38.63c.46-.14.92-.29,1.37-.46a12.39,12.39,0,0,1-3.12,1.36c-.18-.09,1.43-.57.84-.44-1.69.91-4.15.93-6.67,1.64-1.22.12-.18-.29-1.24-.19-2.86.72-3.17.28-6.22.83.91.14,1.07.07-1.09.53,1.69-.23,3.38-.49,5-.79-1.06.28-2.13.53-3.2.77,1.54-.17,3.21-.57,4.12-.67-1.51.43-1.37.35-.6.43-2.14,0-4.13.77-6.6.76l0-.6c-3.68.08-6.5.84-11.3,1.08l1.55,0c-.62.28-3,.27-4.49.49.13-.21-.85-.2-1.52-.27.09.14-3.5.27-3.91.69l-2.16-.09c-3.87.2-4.36.91-8.08,1.14,1.1-.3-.6-.31,1.88-.66a8.59,8.59,0,0,0-2.37.29,14.16,14.16,0,0,0-2.13.23c-.45.07-.92.13-1.34.17l-.67,0c-.26,0-.54,0-.7.13s-.26.27-.37.4-.13.19-.22.3a6,6,0,0,1-1,.93c-.14.06-.05-.08-.05-.08s-1.67,1.37-.56.85c-1.69.91-3.93,2.29-6.22,3.5a23.61,23.61,0,0,1-6.29,2.42,44.23,44.23,0,0,1-8,2.14c.14-.08,0-.1.45-.16a9.61,9.61,0,0,0-2.72.58,7.85,7.85,0,0,1-3.1.45c-1-.12-.48-.17.12-.23s1.29-.11.68-.12c-.56-.55-4.61.33-7.16-.25h.62c-1.93-.29-4.79-.11-7.93-.78,0,0,.16,0,0-.09a35.33,35.33,0,0,1-9.2-2.16c1,.12,1.36.39.9-.07-1.3-.48.22.56-2.37-.44l-1.58-.95a3.44,3.44,0,0,1-1.06-.89c.77.4,1.55.77,2.35,1.11a11,11,0,0,0-2.06-1.13,14.58,14.58,0,0,1-2.13-1l.23,0c-.87-.47-1.53-.82-2.08-1.14s-1-.52-1.48-.79a21.45,21.45,0,0,1-3.52-2.43l.27.37a5.34,5.34,0,0,1-1.69-1.35,9.85,9.85,0,0,0-1.57-1.49l-.12-.39-.24-.52L206,140.53l-.76-.76-.41-.41c-.13-.13-.31-.36-.36-.23L204.4,141a16.77,16.77,0,0,1-.29,1.81,4.94,4.94,0,0,1-.45,1.39c-.09.2-.16.41-.26.6l-.34.53a6.84,6.84,0,0,0,.41-1l.2-.58.11-.3.06-.15,0-.23.33-2.1.14-2.46c.05,0,.07,0,.15,0l.2.2.4.4.77.76-.75-.83-.44-.48c-.15-.17-.32-.38-.42-.38l-.2,2.29c-.09.75-.25,1.42-.35,2.07a4.17,4.17,0,0,1-.35,1.22,4.56,4.56,0,0,0-.2.64l.33-.88.09-.22a.87.87,0,0,0,.09-.28c.05-.25.11-.49.17-.7l-.06.55a2,2,0,0,1-.08.47l-.23.71a6.2,6.2,0,0,1-.74,1.51,3.68,3.68,0,0,1-.55.75l-.65.75-.8.68-.42.35-.47.3c0-.23-.41-.09-1.05.24-.34.13-.75.31-1.2.51s-1,.35-1.5.55-1.11.29-1.67.44-1.14.16-1.66.23a7.05,7.05,0,0,1-2.49-.18h-1c-.32,0-.63-.07-1-.11a10.46,10.46,0,0,1-1.87-.41,14.91,14.91,0,0,1-1.79-.69c-.58-.32-1.17-.62-1.73-1a27.43,27.43,0,0,1-6.26-5.81c.92,2.08-1.15-1.39-1.38-.75a10.08,10.08,0,0,1-1.24-1.77c-.73-1.3-1.39-2.63-2-4-.36-1,.8,1.15.86,1-1.54-2.8-.45-1.28-1.31-3.22,0,.49-.81-.83-1.54-2.52l.92,2.43a18.81,18.81,0,0,1-1.22-2.27l-.45-1.05-.51-1.25-.54-1.33-.32-.74c0-.22-.14,0-.22,0l-.26.27c-.71.75-1.65,1.81-2.83,3.25l1.51-2L165,129.71a10.35,10.35,0,0,1-1.11,1.14,25.52,25.52,0,0,1-2.23,2c-1.58,1.34-3.34,2.44-4.2,3.21-.4.12-.95.2-.07-.28a47,47,0,0,1-7.94,3.28,31.44,31.44,0,0,1-4.07.84c-.65.08-1.28.17-1.88.2s-1.17,0-1.7,0l.41-.16c-.51,0-.95.13-1.42.19a6.67,6.67,0,0,1-1.62-.08c.07-.06.41-.13-.05-.16a15.74,15.74,0,0,1-1.72,0,20.37,20.37,0,0,1-2.31-.28h1.16c-2.61-.44-4.56-.93-6.43-1.43a23.84,23.84,0,0,1-5.55-2.25c.16-.28-3.11-2.81-4.53-4.31h.1c-.56-.52-1-1.09-1.53-1.59l-.72-.76-.64-.8c-.42-.53-.86-1-1.25-1.54l-1.11-1.58a14.21,14.21,0,0,1-1-1.62l-1-1.68a33.45,33.45,0,0,1-1.64-3.76c-.08-.44-.19-1-.34-1.52s-.22-1.21-.36-1.89a19.75,19.75,0,0,1-.37-2.17c-.08-.77-.24-1.56-.28-2.37a28.7,28.7,0,0,1,.7-9.56c-.26.83-.31-.2-.13-1.21.39-1.27.82-3.64,1.11-3.31l-.15.45a2.22,2.22,0,0,0,.17-.24l.22-.39c.21-.38.44-.84.69-1.35.48-1,1.07-2.27,1.55-3.45-.8.13-1.6.3-2.4.41l-1.21.14-.59.07a2,2,0,0,1-.46,0l-.38.49a11.39,11.39,0,0,1-3.94-1.86A13,13,0,0,1,101.45,87a11,11,0,0,1-1.61-4.09,6.53,6.53,0,0,1,.16-3.09,15.33,15.33,0,0,1,.76-4.15l.24.17a21.08,21.08,0,0,1,2.26-4.07,32.42,32.42,0,0,1,3.45-4.15l-.51.81c1.82-1.82,1.8-2.89,3.73-4.44l.84-.11c3.72-2.78,8-4.69,12.12-6.65,0,.09-.13.25-.82.54,1-.42,3-1,4.66-1.53s3-.83,2.52-1c.07.17,1.23-.09,2.69-.4l1.14-.25,1.81-.31.86-.15-.09-.94-.15-1.56a2.13,2.13,0,0,1,.31.56,6.66,6.66,0,0,0-.17-.87l-.13-.55a8,8,0,0,1-.09-1,10.57,10.57,0,0,1,.18-2.84c.17-.67.34-.55.09.33.59-2.21.1-1.83,1.16-4.43a7.11,7.11,0,0,0-.19,1,9.49,9.49,0,0,1,.49-1.26c.13-.31.21-.53.28-.73.14-.39.15-.69.38-1.32a14,14,0,0,1,1.53-2.44,6.84,6.84,0,0,1,1.42-1.44,7.56,7.56,0,0,1,1.84-2.42c.21-.05-.14.31-.29.53.74-.66,1.4-1.22,2-1.77l1.66-1.36a11.22,11.22,0,0,1,1.57-1.09,7.43,7.43,0,0,1,1.75-.86.68.68,0,0,0,.49,0l-1,.48-.91.54c-.57.35-1.11.63-1.52.92-.8.59-1.27.92-1.18.85.17.2,2.19-1.26.81.22a23.24,23.24,0,0,1,3-2.33c.62-.35,1.25-.69,1.88-1a12.78,12.78,0,0,1,1.87-.66,1.65,1.65,0,0,1,.33,0l-.23.11c.27-.07.52-.17.76-.24l.71-.19c.77-.1,1.25-.23,2-.3a5.41,5.41,0,0,0,1.68,0,7.26,7.26,0,0,1,1.26,0l1.11,0c-.09-.29,1.55-.16,0-.47.2,0-.24,0-1.07,0h-.53l.09,0a8.44,8.44,0,0,0-1.41.07c-.52.06-1.1.08-1.7.17a9.89,9.89,0,0,1,1.54-.31,5.33,5.33,0,0,1,1.86,0c.65-.15,1.38-.3,1.8-.37.86.28,2.11.64,3.24.94s2.14.51,2.39.64a13.79,13.79,0,0,0,3.47-.28,8,8,0,0,0,3.36-1.65,11.5,11.5,0,0,0,3.17-4.71,3.35,3.35,0,0,1,1.11-1.33,15.84,15.84,0,0,0-.83,1.57c.51-1,1.43-2.37,2.21-3.59a11.49,11.49,0,0,0,1.6-2.48c2-2-.85,1.36,1.77-1.48l-.28.45a99.64,99.64,0,0,1,7.69-6.45,26.69,26.69,0,0,1,9.69-4.53,4,4,0,0,1-1,.18,56.21,56.21,0,0,1,14.48-2.59,39.58,39.58,0,0,1,14.41,2.23,26.65,26.65,0,0,0,2.6.81,18.32,18.32,0,0,1,1.9.44l.43.5,1.38.38,1.35.45A14.06,14.06,0,0,1,237.55,8a26.89,26.89,0,0,1,2.3,1.55c1.52,1.1,3.12,2.29,5.29,3.63l-.4-.56c1.47,1.09,4.59,3.55,4.2,3.53a2.9,2.9,0,0,1,1,.81l-.07.15c1.18.93,2.27,2,3.4,3,1.13,1.33.92,1.34.85,1.48s0,.18.19.51.66.86,1.44,1.85L258,26.35c.7.75,1.22,1.23,1.05.92-.45-.62-1.08-1.63-1-1.77l1.1,1.35c.56,0,1.77.81-.56-2.88L256.5,21.8c-.15-.3-.32-.58-.47-.88.58.62,1.1,1.29,1.65,1.94a8.1,8.1,0,0,0-1.12-1.48c-.39-.38-.77-.69-1.16-1a3.79,3.79,0,0,0-.67-1.11c-.79-.62-1.6-1.21-2.4-1.82-.13-.38,1.2.69-.15-.79-1.17-.8.7,1.2-1.09-.26-.93-1.12-.47-1-1.89-2-.1-.24.22-.07.77.32-.63-.43-1.41-1.07-2.12-1.63a8.68,8.68,0,0,0-1.79-1.15A10.33,10.33,0,0,0,245,11l-1.37-1c-.87-.62-1.59-1.11-1.41-1.25-.48-.15-2.44-1.14-3.69-1.75,1.24.38.1-.25-1.25-1s-3-1.46-2.56-1.57a15.29,15.29,0,0,1-1.87-.53c-.74-.26-1.58-.58-2.48-.86a34,34,0,0,0-5.44-1.45,2.57,2.57,0,0,1,.85.11c-1.82-.47-2.33-.72-3.51-1-.31.36-3.22-.06-4.81.12-2.27-.57,1.43-.34.75-.76,0,.16-1,.16-1.9.15s-1.76.1-1.37.24A11.25,11.25,0,0,1,212.49,0c-.29.52-1.65.13-3.09.57-2.56.08-.72-.43-3.48.15C204.57.82,207,.17,207,.21ZM151.44,27.3h0l1.32-.46Zm-5.09,2.43,1-.58a8.18,8.18,0,0,1,1.15-.61c.22,0,.07.18-.44.42C148.28,28.74,147.11,29.37,146.35,29.74ZM157.73,28a2.86,2.86,0,0,1-1.21,0L158,27.9l.1,0A1,1,0,0,1,157.73,28Z"/><path class="cls-2" d="M159.21,27.64h.34l-.5-.09-.3.07Z"/><path class="cls-2" d="M334.65,54.62l.08.08a1.51,1.51,0,0,1-.15-.19A1.13,1.13,0,0,1,334.65,54.62Z"/><polygon class="cls-2" points="97.4 80.71 97.47 80.7 97.44 80.18 97.4 80.71"/><path class="cls-2" d="M306.58,46.41a1.56,1.56,0,0,0-.41,0A2.07,2.07,0,0,0,306.58,46.41Z"/><path class="cls-2" d="M300.43,47.3l.33-.51.26-.52A8.72,8.72,0,0,1,300.43,47.3Z"/><path class="cls-2" d="M302.3,37.92a.48.48,0,0,0-.14-.19v0Z"/><path class="cls-2" d="M328.25,140.37l-.37.15C327,140.9,327.62,140.66,328.25,140.37Z"/><path class="cls-2" d="M337.44,102.63a9.09,9.09,0,0,1,1.43.7C338.16,102.81,337.52,102.52,337.44,102.63Z"/><polygon class="cls-2" points="275.45 147.27 275.45 147.26 275.41 147.27 275.45 147.27"/><path class="cls-2" d="M340.65,104.77a10.43,10.43,0,0,0-.89-.83c-.31-.22-.61-.42-.89-.6l.92.69C340.07,104.28,340.36,104.54,340.65,104.77Z"/><path class="cls-2" d="M268.82,19.89l-.46.2s0,0,0,.07Z"/><path class="cls-2" d="M268.33,20.15l-.49.26A2.34,2.34,0,0,0,268.33,20.15Z"/><path class="cls-2" d="M266.85,21c.33-.2.65-.43,1-.6A3.81,3.81,0,0,0,266.85,21Z"/><path class="cls-2" d="M282.19,17.58l.16-.09C282.26,17.5,282.21,17.53,282.19,17.58Z"/><path class="cls-2" d="M286.3,18.22a16.21,16.21,0,0,0-3.82-.8l-.14.07C283,17.35,285.37,18.11,286.3,18.22Z"/><path class="cls-2" d="M298.55,29.3l-.37-.75-.44-.7c-.3-.46-.56-1-.9-1.39a2,2,0,0,1,.27.66c0,.1-.11-.06-.6-.62,1.08,1.76,1,1.59.95,1.36s0-.22.13-.07A5.8,5.8,0,0,1,298.55,29.3Z"/><path class="cls-2" d="M301,39.14c-.09-1.76-.13,0-.22-.07C300.82,40.17,300.84,40.45,301,39.14Z"/><path class="cls-2" d="M343.77,75.31l-.27-.17C343.62,76.5,343.61,75.15,343.77,75.31Z"/><polygon class="cls-2" points="342.38 89.7 343.06 88.46 343.08 87.76 342.38 89.7"/><path class="cls-2" d="M336.49,96l.34-.48a18.58,18.58,0,0,1-1.37,1.79A11.74,11.74,0,0,0,336.49,96Z"/><path class="cls-2" d="M262.26,152.28l.5.13C263.6,152,263.63,151.58,262.26,152.28Z"/><path class="cls-2" d="M211.09,145.29a11.61,11.61,0,0,0-2.23-2.07A30,30,0,0,0,211.09,145.29Z"/><path class="cls-2" d="M106.42,91.36a6.21,6.21,0,0,0,.93.24,5.59,5.59,0,0,1-.85-.27,4.77,4.77,0,0,1-.83-.37A4.78,4.78,0,0,0,106.42,91.36Z"/></g></g></svg>