<svg xmlns="http://www.w3.org/2000/svg" viewBox="0 0 109.94 53.98"><defs><style>.cls-1{fill:#b53c24;}</style></defs><title>commet</title><g id="Layer_2" data-name="Layer 2"><g id="Слой_1" data-name="Слой 1"><path class="cls-1" d="M11.88,38.41a4,4,0,0,0-2.57.43c-1.53.66-.82,3.27.87,2.85a3.18,3.18,0,0,0,2.15-1.36A1.51,1.51,0,0,0,11.24,38a25.13,25.13,0,0,0-6,.39l.87,2.85a67.44,67.44,0,0,0,10.68-4.36c1.68-.88,4.73-2,5.22-4.23.28-1.28-1.42-2.9-1.16-3.72,0,0,3.07-.91,3-.89a23,23,0,0,0,4-2.14c1.43-.9-.1-3.4-1.56-2.53L25.18,24a1.52,1.52,0,0,0-.25,2.59l1.87,1.33a1.52,1.52,0,0,0,1.82-.06A15,15,0,0,0,31,25.2a1.51,1.51,0,0,0-.35-2.09l-1-.59-.62,2.7a51.55,51.55,0,0,1,9.52.43c1.82.24,2.06-2.19.65-2.9a10.92,10.92,0,0,0-3.07-1.26l-.65,2.9A78.22,78.22,0,0,1,52.21,26c3.1.61,15,2.56,14.54,7.08-.38,3.73-7,1.71-10,1.94-4.83.38-10.72.49-15.1,2.68-1.47.73-.86,3.22.87,2.85l2.92-.62L44.61,37c-5.07,2.08-10.16,4.13-15.22,6.23-3.42,1.42-6.71,2.7-7.77,6.52a1.51,1.51,0,0,0,2.63,1.38c5.08-5.6,13.36-5.11,17.08-12.36a1.51,1.51,0,0,0-1.28-2c-6.57-.34-11,1.94-16.49,5.16-3,1.78-6.55,2.22-9.81,3.51a69.87,69.87,0,0,0-10.4,5.59c-1.61,1-.5,3.67,1.23,2.74C9.15,51.34,14.43,51,19,48.54a70.25,70.25,0,0,1,17.33-7.09c1.54-.37,1.7-3-.11-3-4.06.1-8.12.18-12.16.57C19,39.54,13,42.18,8.63,38.53A1.51,1.51,0,0,0,6.4,40.37c.65,1.21,1.25,1.3,2.15,2.2.72.72,2.08,1.41,1.52,3-.28.8-3.24,2.84-3.89,3.41a1.5,1.5,0,0,0,1.89,2.33c3.57-2.55,7.24-5.2,11.45-6.6,2.66-.89,7.15.09,8.49-3,.6-1.37.38-3.22.66-4.68.34-1.78,1.2-3.37,1.57-5.12.49-2.37-.07-4.32-2.19-5.55a1.53,1.53,0,0,0-2.28.71c-1.7,3.57.13,7-3.19,10.31l2.43.91c-.57-4,2.1-7.33,0-11.2a1.52,1.52,0,0,0-2.78.1c-1.74,4.08-1.36,8.84-3.82,12.6l2.72,1A21.25,21.25,0,0,1,22,35.27a1.52,1.52,0,0,0-2-1.88c-1.94.87-1.84,4-3.35,4.57l2.1,1.12-.39-2.25a1.51,1.51,0,0,0-2.43-.91c-1,1-2,1.95-3,2.88l2.36,1.68c.13-.54,8.82-2,10.06-2.45,4-1.54,6.27-4.53,8.38-8.19,1-1.66-1.48-3.41-2.44-1.74-3.37,5.85-7.8,8.34-14.44,8.85-2.06.16-3.8.1-4.37,2.51-.31,1.3,1.14,2.77,2.36,1.68,1-.94,2-1.89,3-2.88l-2.43-.91.39,2.25a1.52,1.52,0,0,0,2.1,1.12c2.23-.82,1.65-3.81,3.35-4.57l-2-1.88a25.46,25.46,0,0,0-1.06,6.3,1.51,1.51,0,0,0,2.72,1c2.68-4.09,2.32-8.91,4.2-13.31l-2.78.1c1.66,3.1-.73,7.05-.25,10.47a1.51,1.51,0,0,0,2.43.91,11.81,11.81,0,0,0,3.1-4.48c.79-2.24,0-5,1-7.12l-2.28.71c1.87,1.09-.39,7.51-.86,9.21-1,3.52-2.16,2.54-5.56,3.45C14.8,42.86,10.4,46,6.17,49l1.89,2.33c1.84-1.61,6.08-4.15,6.17-7.09.11-3.74-3.78-2.64-5.11-5.09L6.9,41c3.43,2.88,6.77,2.76,11,2a115.07,115.07,0,0,1,18.05-1.5l-.11-3a65,65,0,0,0-16.77,6.57c-5,2.8-10.69,3.29-15.69,6L4.6,53.79a79.35,79.35,0,0,1,17.07-7.63c2.75-.92,4.64-2.65,7.15-4a20.06,20.06,0,0,1,11-2.34l-1.28-2C35.3,44,26.42,44.33,21.81,49.42l2.63,1.38c1.13-4.07,7.91-5.52,11.26-6.89l10.15-4.15A1.51,1.51,0,0,0,45,36.91l-2.92.62.87,2.85c3.46-1.73,8.13-1.77,11.94-2.21a38.24,38.24,0,0,1,6.9-.33c1.4.1,3.12.78,4.48.48,3.15-.7,3.91-4.24,3.39-7s-.41-2.77-3-3.82a76.19,76.19,0,0,0-10.2-3.74A78.61,78.61,0,0,0,35.84,21.4c-1.58,0-2.39,2.34-.65,2.9a10.92,10.92,0,0,1,3.07,1.26l.65-2.9a55.55,55.55,0,0,0-10.29-.4A1.51,1.51,0,0,0,28,25l1,.59-.35-2.09-1.88,2.06,1.82-.06-1.87-1.33-.25,2.59,1.14-.68L26,23.52C23,25.38,18.14,25.09,17.57,29c-.07.49.65,1.05.63,1.47-.1,2.47-2.26,3.43-4.12,4.34a67.81,67.81,0,0,1-9.21,3.62c-1.64.52-.78,3.15.87,2.85A22.14,22.14,0,0,1,11,40.95L9.88,38.58l-.21.14.87,2.85,1.07-.17a1.5,1.5,0,0,0,.27-3Z"/><path class="cls-1" d="M33,24.38c-2.8,3.91-6.94,3.75-11.17,3.13l.48,2.86c4-2.25,8.66-1.8,12.37-4.63l-2.36-1.68c-.4,1.58-.54,12.61-2,12.25l.9,1.92c1.35-4.12,15.59-6.54,10.85-13.51-3.57-5.25-6.15,4.16-6.12,6.57L37.2,30l-1.73-.35L36,31.35q1.13-2.73,2.28-5.44L36,26.62c2.22,1.79,2.1,3,1.57,5.51-.18.86-.15,2.75-1.12,3.18l2,.75c-.17-.5,2-1.17,2.13-1.23L39,32.29c-1.26,1.1-7.78,2.27-5.22,5.57,2.17,2.8,8-1.1,9.8-2.54l-2.43-.91.18,1.28a1.52,1.52,0,0,0,2.11,1.5,4.39,4.39,0,0,0,2-1.35c1-1,.41-3-1.2-2.64a6.24,6.24,0,0,0-3.87,2.4,1.51,1.51,0,0,0,.71,2.28,3.37,3.37,0,0,0,3-.07,8.44,8.44,0,0,0,1.26-.95,2.86,2.86,0,0,1,1.6-1.19Q48,34.62,48.75,36c2.68.57,4.28.58,5.66-2.2l-2.57.43c2.42,2.35,4.57,1.3,7.3,1,3.2-.4,5.5,1,8.69-1.37A1.53,1.53,0,0,0,68,31.68c-3.74-5.47-10.68-3.12-16.22-3.11-1.69,0-3.41-.28-5.09-.24-4.35.09.17.29,1.5.39,4,.31,8,.83,12,1.47,1.54.25,2.12-1.87,1-2.72-2.14-1.63-4.58-1.15-7.2-1.33a75.82,75.82,0,0,1-12-1.86l-.65,2.9L53.44,28l-.81-2.66c-3.63,3.3-8.79,1.72-11.71,6.21A1.51,1.51,0,0,0,42,34,4.07,4.07,0,0,0,46.13,32a1.51,1.51,0,0,0-.71-2.28c-3-.79-7.27,2.17-3.61,4.66,2.84,1.93,7.22-1,4.92-4.08a1.51,1.51,0,0,0-2.11-.22c-2.67,2.7-1.18,7,3.09,6.63,3.75-.31,4.53-4.25,1.95-6.46L49,33c1.74-.46,3.78.46,5.57.43,3.28-.06,6.14-1.58,9.35-.08,1.75.81,2.77-2,1-2.82-2.83-1.32-5-.75-7.95-.43s-5.8-.77-8.51-.06a1.52,1.52,0,0,0-.62,2.7l-1.4-.29-2.11-.22v.35l-.71-2.28L42.27,31l1.09,2.36c2.28-3.51,8.13-2.87,11.16-5.62A1.52,1.52,0,0,0,53.71,25l-12.09-.85c-1.62-.11-2.36,2.5-.65,2.9a85.76,85.76,0,0,0,8.63,1.62c2.51.32,7.85-.37,9.91,1.2l1-2.72c-4.56-.73-9.14-1.29-13.75-1.59-2.68-.18-4.91-.75-6.72,1.42a1.51,1.51,0,0,0-.15,1.49c1.12,3,5.59,2.77,8.25,2.94,4.9.31,14.5-2.35,17.56,2.12l.22-2.11-4.75.42a1.46,1.46,0,0,0-1.46.25c.2-.2-6.39-.62-5.56.18a1.53,1.53,0,0,0-2.57.43c-.26.53-4.19-1-5.2-.72s-3.3,3.38-4.24,3l.71,2.28,1.92-1.19-1.2-2.64-1.36.94L44.33,36a6.85,6.85,0,0,0-.21-2A1.52,1.52,0,0,0,41.7,33c-.57.46-6.11,3.08-4.46,4,.69.4,3.36-2.13,3.67-2.41,1.24-1.09,0-3.31-1.56-2.53l-1.8.21a1.46,1.46,0,0,0-1.36.62,4.29,4.29,0,0,0-.48,4.37,1.52,1.52,0,0,0,2,.75c2.59-1.15,3.27-4.56,3.7-7.18.49-3-1.46-4.93-3.64-6.69a1.52,1.52,0,0,0-2.28.71q-1.16,2.72-2.28,5.44a1.51,1.51,0,0,0,.54,1.74,5,5,0,0,0,4,.86,1.51,1.51,0,0,0,1.25-1.34,10.14,10.14,0,0,1,.38-3.68l-1,1.79c-1.38,1.41-4.13,1.79-5.85,2.75a7.8,7.8,0,0,0-4,4.79,1.51,1.51,0,0,0,.9,1.92c7.16,1.8,4.93-10.43,5.83-14a1.51,1.51,0,0,0-2.36-1.68c-3.38,2.57-8,2.13-11.7,4.22a1.51,1.51,0,0,0,.48,2.86c5.58.81,10.39.49,13.88-4.38A1.5,1.5,0,0,0,33,24.38Z"/><path d="M71.91,29.79c-7.44-6.33-19.19-8-28.59-8.87-9.75-.94-19.78.85-26.9,8a.76.76,0,0,0,.33,1.25c2.78.85-.1,1.87-1.29,2.39l-4.38,1.94L2.33,38.4c-.64.28-.37,1.19.18,1.37a24.82,24.82,0,0,1,6.35,2.68c2.12,1.51,1.87,1.19,0,2.94C6.23,47.86,3.07,49.94.24,52.16c-.55.43-.05,1.25.53,1.28A40.26,40.26,0,0,0,26,46.21L25.1,45,19,52.52a.75.75,0,0,0,.91,1.18c7.69-3.38,15.14-7.27,22.8-10.7a33.6,33.6,0,0,1,10-2.65c5.41-.74,11.53-4.22,16.88-1.71.87.41,1.63-.89.76-1.3-4-1.88-7.9-.85-12,.25s-8.59,1-12.61,2.51c-9.11,3.35-17.64,8.4-26.52,12.31l.91,1.18,6.07-7.49c.49-.61-.15-1.7-.91-1.18a38.87,38.87,0,0,1-24.48,7l.53,1.28,11.49-9A.76.76,0,0,0,12.64,43a41,41,0,0,0-9.73-4.7l.18,1.37,17.51-7.76a.75.75,0,0,0,.15-1.18,8.85,8.85,0,0,0-3.6-2L17.48,30c6.86-6.91,16.48-8.48,25.84-7.58,8.86.85,20.57,2.51,27.53,8.44.73.62,1.8-.43,1.06-1.06Z"/><path class="cls-1" d="M98.82,37.67c-1-2.11-2.18-4.43-2.31-6.8a2.18,2.18,0,0,1,.25-2.31,2.53,2.53,0,0,1,.36-.72,2.59,2.59,0,0,1,.51-1.22,4.34,4.34,0,0,1,2.1-1.45c3.26-2.13,6.48-4.36,8.6-7.58a3,3,0,0,0-.24-.36c-2-.21-4-.66-5.91-.73a28.49,28.49,0,0,1-9.27-1.36,9.7,9.7,0,0,1-5.59-4.77c-.78-1.46-1.19-3-2.05-4.47s-2.17-2.87-3-4.49a2.32,2.32,0,0,0-1.6,1.44L80,4.4a24.17,24.17,0,0,1-1.08,7.18,3.13,3.13,0,0,1-.56,1c-.14.66-.28,1.31-.44,2a2.53,2.53,0,0,1-2.35,1.92c.57,0-.39.31-1.28.55l-.1.12a3.18,3.18,0,0,0-.47,0l-.12,0-.36.08c-2.16.37-4.33.74-6.5,1.09a47,47,0,0,1-8.87.65,2.7,2.7,0,0,0-.43,1.72l.09.08C61,25,68.93,27.63,70.11,33.27,71,37.59,70,43,68.42,47.7a3.53,3.53,0,0,0,.64.53c1.89-2.33,4.55-3.67,7-5.39,3.16-2.22,6-4.4,10-4.69a2.17,2.17,0,0,1,2.32,1.46c3.28.58,5.49,3.5,8.5,4.77,1.51.64,3,1.27,4.35,2a3,3,0,0,0,1.11-.94C101.2,42.85,100.06,40.24,98.82,37.67Z"/><path d="M69,47.63a58.63,58.63,0,0,0,2.09-9c.25-1.75,1.24-5.94.4-7.63S65.3,26.55,64,25.5a95.28,95.28,0,0,1-8-7.41l-.53,1.28a74.4,74.4,0,0,0,22.13-2.29.74.74,0,0,0,.52-.52c.43-1.92,2-13.56,3.63-13.87S86,10.82,87.21,12.4c4.55,6,15.35,5.24,22,6l-.53-1.28c-3.37,3.39-7,5.45-10.91,8-1.52,1-2.64,1.46-2.88,3.48s1.66,5.06,2.38,6.72l5.47,12.57,1-1L92,40.64c-2.09-1.11-4.9-3.45-7.44-3.46s-5.44,2.89-7.43,4.21L66,48.75l1.1.85a23,23,0,0,1,2-5.22c.45-.85-.85-1.61-1.3-.76a24.16,24.16,0,0,0-2.13,5.58.76.76,0,0,0,1.1.85l7.92-5.26c2.84-1.89,6.3-5.18,9.71-5.39s6.46,2.35,9.33,3.88L103,48.19a.76.76,0,0,0,1-1l-3.52-8.08c-.65-1.5-1.31-3-2-4.49-1.06-2.46-2.38-3.85-1-6.43s4.51-3.58,6.86-5.3a45.74,45.74,0,0,0,5.33-4.67.76.76,0,0,0-.53-1.28c-6.91-.81-17.86,0-21.68-6.93-2-3.61-2.43-7.54-6.16-9.88a.76.76,0,0,0-1.1.45c-1,4.35-1.35,13.93-5.7,15.75-5.44,2.28-13.23,1.84-19,1.57A.76.76,0,0,0,55,19.15,94.53,94.53,0,0,0,66.42,29.26c2.65,2,3.85,3.23,3.51,6.73a56.1,56.1,0,0,1-2.35,11.24c-.29.92,1.16,1.32,1.45.4Z"/></g></g></svg>