<svg xmlns="http://www.w3.org/2000/svg" viewBox="0 0 69.31 69.65"><defs><style>.cls-1{fill:#4d4d4d;}.cls-2{opacity:0.43;}.cls-3{fill:#0e0eaa;}</style></defs><title>Asset 17</title><g id="Layer_2" data-name="Layer 2"><g id="Слой_1" data-name="Слой 1"><path class="cls-1" d="M3.42,64C1.76,49.57,1.54,34.9,1.69,20.38c0-2.53.07-5.06.17-7.58.06-1.4-.25-3.85.38-5.14C3.77,4.5,10,3.09,13.13,2.44a49.32,49.32,0,0,1,10.68-1c6.35.07,12.7.53,19,.82C49.93,2.61,65-.2,65.69,9.65c.89,13.44.87,27,1.3,40.46l.26,8c.05,1.57.59,3.95.18,5.47-1.13,4.16-8.2,3.21-11.61,3.06-1.88-.08-5.79.31-7.32-1-1.27-1.12-1.26-6.77-1.44-8.37s-1.44-5.77-.82-7.22c1.14-2.64,5.55-1.51,7.67-2.1,1.35-.38,2.4-.79,2.33-2.3a10.57,10.57,0,0,0-2.38-3.37c-2.27-1.58-6,1.39-7.86-1.19-.91-1.29-.75-5-1-6.56a4.08,4.08,0,0,1,.08-2.6c1.06-2.76,4-1.78,6-2.19,3.25-.65,7.34-3,3.53-5.89-2.43-1.84-5.3-1.38-8.16-1.3-2.67.07-5.47.16-7.14,2.69-1.36,2.08-.36,5-.09,7.28.3,2.42,1.58,6.37,1.06,8.65-.57,2.52-1.87,1.86-4.12,1.91s-3.62-.06-4,2.38c-.21,1.33,0,3.55,1.29,4.37,2.16,1.4,5.07-1.68,6.48.63.39.63.53,5.45.56,5.74.52,4.23,2.25,9.06-3.77,11.37-4.86,1.86-12.11.47-17.14.21-3.21-.17-15.24.79-16.27-4-.2-.94-1.65-.54-1.45.4.78,3.61,5.31,4.07,8.34,4.39,6.52.69,13.12,1,19.67,1,4.19,0,10.43.18,12.32-4.48,1.33-3.26,0-7.86-.47-11.12-.23-1.72.52-5-1.38-6-.66-.32-1.42,0-2.1,0-1.9,0-1.39.86-3.28-.5-1.69-1.22-2-1.86-.19-2.85,2.42-1.32,5.5,1.65,7-1.29.58-1.11-.14-3-.28-4.16-.35-2.88-.72-5.76-1.06-8.65-.54-4.53.8-6,6-6.55,2-.22,10.14-.45,6.87,3.53-1.76,2.14-4.2-.3-6.13.24-1.15.32-1.33.89-2.11,1.66-1.62,1.59-1.85,2.28-1.74,4.33.18,3.33,0,9.72,4.09,10.09,1.91.17,4.74-1.85,5.87.39s-.07,2-2.61,2.41-5.1-.42-6,2.32c-.63,1.89.52,5.47.73,7.36.29,2.54.12,5.68.92,8.12.45,1.4.91,2.58,2.3,3.27,1.79.89,6.91.46,8.93.49A26.66,26.66,0,0,0,64,67.86c2-.46,4.33-1.43,4.94-3.58,1-3.4-.26-8.68-.38-12.19l-.47-14.65-.42-13.13C67.48,18.87,68,12.85,67,7.48,65.6-.16,54,.71,48.26.82,42.28.94,36.31.44,30.34.18,22.51-.15,14.39-.38,7,2.72,1.42,5.07.63,6.64.39,12A327.94,327.94,0,0,0,1.92,64c.11.95,1.61,1,1.5,0Z"/><g class="cls-2"><path class="cls-3" d="M33.12,10.21c-6-4.91-13.21-8-21.1-7.49-9.9.63-8.86,9.17-8.92,16.88C3,26.16,13.74,28,14.88,21.19A22.08,22.08,0,0,0,13,7.27c-2.62-5.55-11.2-2.61-11.18,3l.09,25.79c0,7.46-.62,15.25,3.4,21.88,3.45,5.7,13,2,11-4.62l-1.37-4.55C13,42.41,3.06,43.48,3.1,50.39l0,7.9c0,7.91,11.14,7.48,12,0a16.28,16.28,0,0,0-.81-7.23c-1.64-4.83-8.2-6-11-1.43-6.22,10.32,4.12,19.68,14.12,20A56.68,56.68,0,0,0,35,67.48a10.66,10.66,0,0,0,5.51-3.85c1.55-2.17.92-4,1.55-6.3l-4.19,4.19.68-.25c6.09-2.21,5.54-11.86-1.6-11.79-1.47,0-4.18.4-5.35-.08l3.59,2.76c-.55-.86-.89-4.75-.67-5.82.45-2.25.41-1.57,2.4-3.08,3.07-2.33,3.86-5.49,3.19-9.14L30.09,40l1.39,1.63c4.68,5.48,12.21-1.5,9.42-7.27-3.34-6.93-.57-12.51,7.36-11.65,1.5.16,7.29,1.46,7.11,3.66-.13,1.57-3.85,1.91-4.88,2-4.26.22-6.35,3.64-5.79,7.6L45.16,39c.71,4.95,7,5.12,10,2.65.79-.64,1.66.36,2,.89l5.18-9-2.66.29c-4.27.47-7.8,4.81-5.18,9a14.07,14.07,0,0,0,1.63,2.78l.26,1q1.47-1.17.05-.65a14.24,14.24,0,0,0-2.65.9,3.91,3.91,0,0,0-1.35.73q-1.57.8.7.47l3.59,2.76L56.23,50,46.8,57.23q-1.08-3.11-1-.58.07,1.09.24,2.18a10.65,10.65,0,0,0,2.23,4.71,11.15,11.15,0,0,0,7.71,4.05,13,13,0,0,0,8.94-2.77c3.05-2.32,3.78-5.33,4.23-9C70,48.27,67.76,41,66,33.7c-1.83-7.79-1.82-14.65,1.24-22.13C68.42,8.79,66,4.66,63.1,4.19A212.62,212.62,0,0,0,14.2,1.9C9.65,2.22,5.47,8.65,10,12.14c4.81,3.75,8.06,2.06,13.53,1.43,4.84-.56,9.94,1.65,14.7,2.31a26.32,26.32,0,0,0,6.93.16c2.51-.31,4.67-1.48,7.11-1.9a6.77,6.77,0,0,1,3.21.13,2.92,2.92,0,0,1,1.27.56Q59,16.45,56,11.76c-.69.37-1.44,4.29-1.66,5.14l8.81-3.59C56.84,8.79,51.36,5.69,43.4,5.4S29.68,6.78,23.71,11.87c-2.87,2.45-6.56,2.66-8.46,6.41C13.53,21.7,13.85,26,13.72,29.74c-.33,9.15,0,18.3,2.56,27.15,1.73,6,9.6,5.38,11.57,0a33.08,33.08,0,0,0,1.43-17.71c-.6-3.18-.88-4.9.33-8a18,18,0,0,0,1.58-7.75c-.33-7.69-12.33-7.73-12,0,.09,2.15-1,3.94-1.7,5.92a16,16,0,0,0-.87,7.71c.8,6.16,1.88,10.53-.35,16.61H27.85A66.26,66.26,0,0,1,25.6,34.37q0-4.63.32-9.25c.08-1.47-1.3-.2.71-.92a13.19,13.19,0,0,0,3.91-2.32c2-1.58,3.19-3.32,5.7-4a23,23,0,0,1,7.16-.44c5.64.23,9.29,3.11,13.74,6.28,3.17,2.26,7.91-.09,8.81-3.59,1.12-4.34,3.58-8.75.27-12.84-3.55-4.39-10.43-5.91-15.76-5-2.62.46-5,1.79-7.63,1.95-2.87.17-5.7-.7-8.47-1.3A47.22,47.22,0,0,0,25,1.53,23.46,23.46,0,0,0,20.37,2c-1.22.23-4,.09-1.93,1.7L14.2,13.9a199.15,199.15,0,0,1,45.71,1.87L55.71,8.38c-4.23,10.34-3.23,20.52-.59,31.11.64,2.57,1.34,5.14,1.79,7.76s-.05,5.22.23,7.77c.08.75-.47.77.3,1.11s.55-.58.51-1.68a7.38,7.38,0,0,0-2.65-5.7c-4.94-3.87-13.38,1-9.42,7.27a7.72,7.72,0,0,0,8.22,3.86c2-.33,3.12-1.49,4.87-2.27,1.51-.67,3.07-.81,4.53-1.73,7.11-4.47,5-13.24,1.36-19.14l-5.18,9,2.66-.29c4.4-.48,7.63-4.76,5.18-9-4.44-7.74-14.19-8.72-20.82-3.32l10,2.65-.44-3.07-5.79,7.6c7.25-.37,15.17-3.87,16.62-11.74,1.55-8.47-6-14.93-13.42-17-7-1.95-15.43-1-20.95,4-7.37,6.65-6.13,16.67-2.21,24.81L40,33.12l-1.39-1.63c-4.25-5-11,.51-10,5.84q1.69-4.78-1.2-2.36a9,9,0,0,0-2.11,1.89,11.32,11.32,0,0,0-2.12,3.8c-1.15,3.54-.43,7.35,0,10.93.42,3.41.65,6.74,3.86,8.79,2.84,1.81,6.82,1.15,10,1.12L35.37,49.7c-2.62,1-4.47,2.44-5.1,5.27l-.21,1.6q-.32,2.08.71.3,1.45-1.24-.08-.64-1.22.21-2.44.35c-1.18.16-16.17,1.85-14.52-.9l-11-1.43a7.67,7.67,0,0,1,.39,4h12l0-7.9L3.31,52l1.37,4.55,11-4.62c-3.2-5.28-1.76-13.7-1.78-19.64l-.08-22-11.18,3A7.8,7.8,0,0,1,3.31,18l11.79,1.6c0-2.68-.39-5.89.2-8.53l-2.76,3.59c1-.7,4.8.44,5.74.71a17.77,17.77,0,0,1,6.36,3.33c5.93,4.86,14.46-3.58,8.49-8.49Z"/></g></g></g></svg>