<svg xmlns="http://www.w3.org/2000/svg" viewBox="0 0 262.56 182.29"><defs><style>.cls-1{fill:none;stroke:#000;stroke-miterlimit:10;stroke-width:4px;}</style></defs><title>ico</title><g id="Layer_2" data-name="Layer 2"><g id="Layer_1-2" data-name="Layer 1"><path d="M262.53,0a132.71,132.71,0,0,1-2,25.68,130.89,130.89,0,0,1-7,24.88,132.92,132.92,0,0,1-28,43.53,133.78,133.78,0,0,1-42.88,29.55,134.34,134.34,0,0,1-51.22,10.92,137,137,0,0,1-51.87-9.35,125.17,125.17,0,0,1-44-29.35A133.47,133.47,0,0,1,19.23,75,126.77,126.77,0,0,1,7.57,51.32,119.88,119.88,0,0,1,.39,0h1A144.23,144.23,0,0,0,14.07,48.62a134.85,134.85,0,0,0,12.5,21.46A129.2,129.2,0,0,0,42.67,88.79a138.85,138.85,0,0,0,40.71,27.28,124.33,124.33,0,0,0,23.46,7.65,127.72,127.72,0,0,0,24.62,2.85,127.08,127.08,0,0,0,48.73-8.93A128,128,0,0,0,222,90.56a128.88,128.88,0,0,0,28.66-41.18A131.37,131.37,0,0,0,261.53,0Z"/><line class="cls-1" x1="131.46" y1="132.05" x2="131.46" y2="182.29"/><path d="M141,48a41.42,41.42,0,0,1-19.79,73.53A41.52,41.52,0,0,1,74,84.23,41.45,41.45,0,0,1,141,48Zm0,0A38.39,38.39,0,0,0,79.19,83.63a38.43,38.43,0,0,0,76.31-9A38.53,38.53,0,0,0,141,48Z"/></g></g></svg>