<svg xmlns="http://www.w3.org/2000/svg" viewBox="0 0 69.44 74.56"><defs><style>.cls-1{fill:#4d4d4d;}.cls-2{opacity:0.39;}.cls-3{fill:#662d91;}</style></defs><title>Instagramm</title><g id="Layer_2" data-name="Layer 2"><g id="Слой_1" data-name="Слой 1"><path class="cls-1" d="M46.19,1.82a85.91,85.91,0,0,0-24.36-.22C16.51,2.23,9.63,2.76,5,5.77,3.36,6.84,3.28,7.3,3,9.28c-.78,6-1.16,12-1.4,18-.44,10.9-.55,21.95.08,32.84.47,8.23,7.79,9.73,14.85,11.62A81.8,81.8,0,0,0,48.09,73.9c7.69-1,15.37-2.42,18.88-10.07s2.39-17.12,1.88-25.25c-.37-6-1.48-12-1.66-18-.09-3.11.84-6.49-.56-9.43C63.26,4.05,53.09,1.43,46,1.79c-1,0-1,1.55,0,1.5,6.84-.35,18,2.4,19.76,10.27.56,2.57-.16,5.35,0,8,.28,4.42,1,8.83,1.34,13.25.58,7.62,1.52,15.81.06,23.38-.67,3.48-2,7-4.58,9.47-3.8,3.64-10.36,4.29-15.37,4.89a80.55,80.55,0,0,1-25.86-1.14,78.76,78.76,0,0,1-11.28-3.22C6.41,66.8,4,64.94,3.23,60.8A37.93,37.93,0,0,1,3,54.86c-.22-8.25-.28-16.52,0-24.77.12-4,.32-8,.62-11.92.21-2.73-.23-9,1.85-11,3.7-3.44,13.13-3.8,17.7-4.28a83.57,83.57,0,0,1,22.59.32c.94.16,1.35-1.29.4-1.45Z"/><path class="cls-1" d="M43.26,23.66c-8.86-2.26-20.76-5-26,4.94-5.1,9.58-.57,21.85,9.07,26.39,9,4.23,20.45.8,25-8.3,4.25-8.61.14-19.23-8.11-23.63-1.7-.91-3.22,1.68-1.51,2.59,7,3.75,10.66,12.83,6.73,20.14C44.18,53.58,34,55.94,26.5,51.71S15.41,36.6,20.47,29c4.85-7.3,15.07-4.21,22-2.44,1.87.48,2.67-2.41.8-2.89Z"/><path class="cls-1" d="M50.71,13.41c-3.13-.46-3.63,4.6-.79,5.36,1.85.5,3.68-.85,4.43-2.48.37-.79.59-1.58-.07-2.27a2.41,2.41,0,0,0-1.79-.69,2.66,2.66,0,0,0-2.77,2.94c.15,1,1.59.55,1.45-.4s1.76-1.42,2.19-.56l-.08-.58A3.42,3.42,0,0,1,52,16.92c-.56.41-1.52.72-2.09.17s-.55-2.38.44-2.23,1.35-1.31.4-1.45Z"/><path class="cls-1" d="M2.49,32.66h14a1.13,1.13,0,0,0,0-2.25h-14a1.13,1.13,0,0,0,0,2.25Z"/><path class="cls-1" d="M49.53,33.35a32.35,32.35,0,0,1,15.62-1c1.42.25,2-1.91.6-2.17a34.83,34.83,0,0,0-16.82,1c-1.38.43-.79,2.6.6,2.17Z"/><g class="cls-2"><path class="cls-3" d="M69.26,13.92C65.92-3.89,40,.46,27.25.48c-7,0-17.22-1.9-23,3.09-7,6-3,14.55-4.08,22.21-.36,2.53,1.1,6.08,4.34,5.7a12.34,12.34,0,0,1,6.83.76c2.2,1,4.86.69,6.16-1.61A19.18,19.18,0,0,0,17.37,11C15.5,7.82,11.57,8.42,9.6,11c-1.71,2.25-1.8,4.36-1.35,7.07.33,2,2.51,3.17,4.34,3.3a81.28,81.28,0,0,0,16-.4c3.86-.48,6.83-6.27,2.27-8.39C24.9,9.85,19.47,14.16,20.45,20.5c.37,2.38,3.41,3.76,5.54,3.14,6.26-1.82,12.82,2.15,18.78,3.77A79.11,79.11,0,0,0,63.05,30l-2.27-8.39a4.93,4.93,0,0,1-4.24,1l-1.2,8.84,9.05-.07a4.57,4.57,0,0,0,4.5-4.5l0-10c0-3.15-2.86-4.83-5.7-4.34L49.33,15l5.54,5.54c.94-4.51,0-9.9-4.92-11.67a7.63,7.63,0,0,0-10,5.19l6.61-2.69a5.4,5.4,0,0,1-2.63-3.63c-1-3.52-5-4.06-7.52-2a18.07,18.07,0,0,0-4.3,5.11h7.77C36,5.77,25.88,1.22,21.53,8.42a4.54,4.54,0,0,0,0,4.54A5.1,5.1,0,0,0,25,15.61a4.5,4.5,0,0,0,4.38-1.16l.28-.32c3.8-4.34-2.54-10.73-6.36-6.36L23,8.08l4.38-1.16-.51-.12,2.69,2.07-.25-.45V13c-.52.85,2.39,2,2.77,2.48,2,2.61,5.92,3.18,7.77,0a11.06,11.06,0,0,1,2.89-3.29l-7.52-2a14.92,14.92,0,0,0,6.76,9,4.54,4.54,0,0,0,6.61-2.69l-2.4,1.69c-.74,3.55,2.08,6.14,5.54,5.54l13.85-2.41L59.88,17l0,10,4.5-4.5-9.05.07c-4.94,0-6.29,7.75-1.2,8.84a13.94,13.94,0,0,0,11.18-1.93A4.54,4.54,0,0,0,63.05,21,71,71,0,0,1,42,17.11C35.86,15,30,13.09,23.59,15l5.54,3.14-2.85,2.26L28.55,12a81.28,81.28,0,0,1-16,.4l4.34,3.3.44-.13H9.6a10,10,0,0,1,.12,10.54l6.16-1.61a20.89,20.89,0,0,0-11.37-2l4.34,5.7A35.89,35.89,0,0,0,9,19.71c-.21-2.41-1-5.7.2-8,1.43-2.85,4.85-2.2,7.56-2.21l10.47,0c6.32,0,12.63-.06,19,0,5.47,0,13.12.2,14.37,6.85,1.07,5.69,9.74,3.28,8.68-2.39Z"/></g><path class="cls-1" d="M42.52,30c-4.92-4.18-13.63-4.18-18.58.38-6.35,5.84-1,15,5,18.47,3,1.76,6.07,2.48,9.34,1.22,2.22-.85,5.86-2.58,7.15-4.76,1.14-1.92,1.44-5.45,1.49-7.68a8.94,8.94,0,0,0-5.07-8.19c-.86-.44-1.62.86-.76,1.3,4.74,2.41,5.29,8.77,3.21,13.3-1.64,3.57-8.3,5.89-11.69,4.81-6.58-2.09-14.55-12-7-17.79,4.48-3.4,11.6-3.58,15.82,0,.73.62,1.8-.43,1.06-1.06Z"/></g></g></svg>