<svg xmlns="http://www.w3.org/2000/svg" viewBox="0 0 269.41 110.18"><defs><style>.cls-1{opacity:0.19;}.cls-2{opacity:0.94;}.cls-3{opacity:0.33;}.cls-4{fill:#662d91;}.cls-5{opacity:0.92;}.cls-6{opacity:0.41;}.cls-7{opacity:0.25;}</style></defs><title>Laven</title><g id="Слой_2" data-name="Слой 2"><g id="Слой_1-2" data-name="Слой 1"><g id="Слой_2-2" data-name="Слой 2"><g id="Слой_1-2-2" data-name="Слой 1-2"><g id="lavender"><g class="cls-1"><path d="M253.32,109.13l-2.87-4.1c-.55-.78-1.88-.06-1.32.72l2.87,4.1C252.55,110.63,253.88,109.91,253.32,109.13Z"/></g><g class="cls-1"><path d="M210.06,85.09Q166.33,68.3,121.19,55.64,99.1,49.45,76.75,44.32c-7.45-1.72-14.9-3.37-22.4-4.9-3.09-.63-7.06-1.5-8.51,2-.37.9,1.07,1.34,1.44.45,1.7-4.17,18.1,1.39,21.58,2.17q10.26,2.29,20.47,4.79,20.42,5,40.61,10.87,40.34,11.7,79.67,26.78c.9.35,1.35-1.09.45-1.44Z"/></g><g class="cls-2"><path d="M226.66,74.78a549,549,0,0,0-104-28.46Q97.11,42,71.27,40.14q-13.12-1-26.27-1.29-6.58-.17-13.15-.17c-1.38,0-5.34-.6-5.63.64.08-.34,6.92-.58,7.6-.63.47,0,.51-.79,0-.75l-9.55.73c-.47,0-.52.75,0,.75A549.09,549.09,0,0,1,226.43,75.49C226.89,75.67,227.1,74.94,226.66,74.78Z"/></g><g class="cls-2"><path d="M230,41.61c-68.35,7-136.22-12.73-204.61-5.92-.47,0-.51.79,0,.75,68.42-6.74,136.37,12.93,204.79,5.9.48,0,.3-.78-.18-.73Z"/></g><g class="cls-2"><path d="M235.4,55.38q6.19,3,1.45,1.73L233,56.38l-7.78-1.46-13.63-2.45c-9.12-1.68-18.25-3.29-27.41-4.66a574.57,574.57,0,0,0-58.9-6.39c-38.86-2-77.56,2.38-116,7.68-.47.06-.3.79.18.73,38.39-5.28,77-9.62,115.82-7.65s77.16,9.2,115.29,16.39A.38.38,0,0,0,241,58a5.24,5.24,0,0,0-5.53-3.39C234.95,54.61,234.92,55.4,235.4,55.38Z"/></g><g class="cls-2"><path d="M172.61,47.12a81,81,0,0,0,18.21,0c.34,0,.35-.52.11-.69-4.27-3-10.67-5.55-14.29-.2a.38.38,0,0,0,.13.52l.07,0a39.45,39.45,0,0,0,11.64.86.38.38,0,0,0,.37-.27,12.1,12.1,0,0,0,.13-4,.38.38,0,0,0-.35-.29l-3.89-.23a.38.38,0,0,0,0,.75l2.6.15q1.47,3.76-1.39,3.22a11.91,11.91,0,0,1-3.87-.13,34.36,34.36,0,0,1-3.72-.55,2.6,2.6,0,0,1,2.52-2.33,8.72,8.72,0,0,1,5.87.78c1.3.58,4.57,1.47,1.25,1.85-1.62.19-3.26.22-4.88.26a80,80,0,0,1-10.46-.52.38.38,0,0,0,0,.75Z"/></g><g class="cls-2"><path d="M189.13,48.21a11.85,11.85,0,0,1,9.58-1.85l-.15-.64L194.15,49c-.31.22,0,.74.34.64l6.12-1.8a.38.38,0,0,0,.28-.45,5.7,5.7,0,0,0-6.27-4.11c-.48.05-.3.78.18.73,1.25-.14,5.62.87,4.9,3-.35,1-4.31,1.65-5.36,2l.34.64,4.41-3.25a.38.38,0,0,0-.15-.64,12.58,12.58,0,0,0-10.16,1.89c-.4.27,0,.93.36.66Z"/></g><g class="cls-2"><path d="M196.36,49.57a7.9,7.9,0,0,1,5-3.43q5.81-1.73,3.45,4.12c-.34.28.06.78.43.6,1.61-.8,7-3.33,8.85-2.2s.86,1.49-.57,3.42c-.27.37.26.7.57.47a5.92,5.92,0,0,1,5.13-1.63q3.24-.89,2.07,3c-.23.33.18.67.49.53A14.54,14.54,0,0,1,227.58,53c1.9.06,3.74-.09.87,1.5a.38.38,0,0,0,.17.71c2.84.27,5.38-1,8.14-.5,1,.18,2.05.81,3.1,1a12.16,12.16,0,0,0,3.11.15q1.8-.19-3.1.82c-.29-.12-.63.27-.44.54,1.44,2,2.37,2.61-.22,3.34s-6-1.1-8-2.67c-.27-.21-.63.11-.56.4q-4.14,1.86-6.54-1a2.52,2.52,0,0,0-.74-.43c-1.24-.62-.45-.39-2.29-.63a.41.41,0,0,0-.39.37c0-.62-.28,3.08.24,2.25-1.79,2.94-3.41-1.05-4.35-1.55-1.73-.92-1.77-1.84-4-1.37a.38.38,0,0,0,0,.72c4.51,1.94-4.2.36-3.14.68a17.92,17.92,0,0,1-5.05-2.41l-2.11-1.78q-1.11,3.29-3.62,1.67c-2-.07-5.15-2-6.67-2.75-.42-.2-.82.38-.4.64l1.28.75q-1.81,2.75-3.67.64a20.24,20.24,0,0,1-2.57-1.93,6.54,6.54,0,0,0-3.88-1.43c-.35,0-.56.52-.21.69,3.94,2-1.43.54-1.77.42A24.81,24.81,0,0,1,176,49.47c-1.3-.82-3-2.78-4.16-3.29l-5.47-.76a12,12,0,0,1-3.52-3c-.33-.36-.88.15-.55.51,1.17,1.29,6.79,6.52,9,4.09a1.19,1.19,0,0,0-.64-2,.38.38,0,0,0-.38.62,26.86,26.86,0,0,0,14.81,8.14c.3,0,.62-.23.44-.54,0,.07-1.16-2.17-1.45-1.83,0,0,3,2.15,3.24,2.34,1.24.94,2,1.84,3.61,2.12,1.84.31,3.11-.08,3.82-1.8a.38.38,0,0,0-.16-.43c-2.94-1.74-.28.25.46.72,2,1.21,4.79,1.66,6.93,2.23a.39.39,0,0,0,.47-.24c.83-1.84.41-3.09-1.2-4.21-.35-.25-.76.27-.47.57A17.91,17.91,0,0,0,215,58.75a.38.38,0,0,0,.34-.55c0,.07-1.39-2.11-1.55-1.75.13-.27,4,3.47,4.93,4,1.47.72,2.62.68,3.57-.61a.38.38,0,0,0,0-.45q2.37-1.38,3.62.69a14,14,0,0,0,1.3,1,5.93,5.93,0,0,0,1.59.36c1.83,0,1.69-1.68,2.83-2,.43-.13,2.23,1.07,3.19,1.37a12.84,12.84,0,0,0,7.49.09.38.38,0,0,0,.27-.47l0-.08c0,.07-1.8-2.41-1.76-2.49s1.22.09,1.36,0c1.28-.92,1.91-.7,2.79-2.3a.38.38,0,0,0-.4-.56,13.12,13.12,0,0,1-8.67-1.66h-.24c-1.08,0-8.7,3-3.22,0,.25-.14.27-.63-.07-.69a16.93,16.93,0,0,0-7.8.14c-2.65.79-1.4.71-1.63-1.63a.4.4,0,0,0-.27-.37,8.86,8.86,0,0,0-5.92-.29c-3.1,1-1.55.95.4-1.7a.38.38,0,0,0-.3-.57,21.91,21.91,0,0,0-5.22-.06c-1.08.13-4.67,1.85-5.11,1.69.41.1,1.18-2.54.39-3.58-2.66-3.45-9.31.69-11,3-.29.39.34.78.64.4Z"/></g><g class="cls-2"><path d="M191.3,45.58c1.07,5.81,3.19,11.64,7.57,15.79,2.74,2.59,6.33,4.21,9.67,5.91A135.23,135.23,0,0,0,222,73.14a44.77,44.77,0,0,0,6.27,1.93c.67.13,5.48.61,4.83,1.64a.38.38,0,0,0,.3.57c1.08,0,4.78-.24,5-.06-.12-.1.77,2.21.76,2.19.21.52,1.09.49,1.28.89,1.25,2.73-1.57,1.29-2.48,1.19-2.11-.23,2.82-.24-.64.54-3.09.7-6.22-1.35-8.12-3.58a.38.38,0,0,0-.65.25c.14,2.17.91,2.79-.84,2.37s-2.64-1.91-4.72-2.16c-1.29-.16-2.33.41-3.72-.12-2.52-1.08-5-3.77-7.21-5.41-.25-.19-.54.05-.57.3-.73,5.5-8.4-2.62-11-2.92q-1.83-1.62-.46,2.19a25,25,0,0,1-4.18-1.72,27.62,27.62,0,0,1-6.12-4.47c-.25-.24-.75,0-.64.34l-3.32.86-1.69-1a46.31,46.31,0,0,1-4.21-2.49c-.8-.44-2.28-1.63-3.28-1-.75.5-.75,1-.45,1.8a.4.4,0,0,0,.35.29l.58.08a.38.38,0,0,0,.21-.69c-1.73-.83-8.68-5.71-10.79-4.36a1.27,1.27,0,0,0-.22,2.2.37.37,0,0,0,.55-.51,22.91,22.91,0,0,0-10.4-6.59.38.38,0,0,0-.22.71,26.81,26.81,0,0,1,7.86,4.26c2.32,1.63,5.1,1.42,7.72,2.53,1.13.48,2.2,1.2,3.36,1.61,4,1.4,4.67.54,7.63,2.25,1.14.67,2.6,1.88,3.88,2.13a3.87,3.87,0,0,0,1.77.2c-.08,0,2-1.59,1.49-1.49.36-.07-.09.29.88.75,3.67,1.75,6.29,4.13,10.38,5.27a.38.38,0,0,0,.47-.44,6.73,6.73,0,0,0-3.28-4.26.38.38,0,0,0-.4.64,51.9,51.9,0,0,0,13.34,6.94.38.38,0,0,0,.48-.34c.37-2.84,1.86-1,3.42.11l5.06,3.79a.37.37,0,0,0,.38,0c3.19-1.9,6.12.67,8.22,2.73.21.21.67.1.65-.25-.28-4.29.25-2.13,3-.9a10.27,10.27,0,0,0,7.58.25.38.38,0,0,0,0-.72L236,80.26c-.4-.11-.7.47-.31.68A19.74,19.74,0,0,0,243,83.18a.38.38,0,0,0,.37-.27c.46-1.57-3.4-6-3.81-5.68a.38.38,0,0,0-.17-.71c-.19,0-5.05-.3-5.21-.05a.37.37,0,0,0,0-.38c-1.54-2.15-4.84-1.55-7.2-2.18a86.75,86.75,0,0,1-12.77-4.84A80.24,80.24,0,0,1,202,62.83c-5.87-4-8.65-10.65-9.9-17.43-.08-.47-.82-.3-.73.18Z"/></g><g class="cls-2"><path d="M196.57,41.18c5.23-1.83,11.37-5.09,17-5.26,2.73-.08,6.79-1.83,7.33,1.44a.38.38,0,0,0,.47.27l.08,0c3.06-1.79,5.33-1.46,8.75-1.53,3.62-.07,7.23-.65,10.87-.64A118.52,118.52,0,0,1,261,37.56c.06,0,2.79.6,2.71.24s-1.53,3.46-.87.63c0-.09-.58,1.49-.6,1.5-.16.16.07.55,0,.63-1.18,1.3-3.64.56-5.15.83a4.13,4.13,0,0,0-4,1.94l-1.92-.13a38.7,38.7,0,0,1-5.75-.41.38.38,0,0,0,0,.75L244,44.86l-7.32-.24-9.15-.3a.38.38,0,0,0-.21.69c-.3-.24-6,1.26-7.14,1.24-1.55-.05-3.09-.1-4.62-.28a50.92,50.92,0,0,1-10.71-2.51.38.38,0,0,0-.22.71A50.39,50.39,0,0,0,220.18,47c2.42.08,6.72.73,8.06-1.78a.39.39,0,0,0-.11-.51c1.95,1.55,8.85.69,11.27.77,1.4,0,5.84,1.19,7-.5.21-.31.16-1,.35-1.16,2.08-2.23-3.14.45-.08-.54,1.23-.4,9,2.76,9.75-.47a1.36,1.36,0,0,0-2.18-1.48.38.38,0,0,0,.25.65,29,29,0,0,0,8.51-.44.38.38,0,0,0,.27-.47l0-.08,1.44-2.55a.37.37,0,0,0,0-.72,96.32,96.32,0,0,0-25.5-3c-3.57.07-7.09.35-10.65.36-2.7,0-7,2.21-7.46-.93a.38.38,0,0,0-.47-.27l-.08,0c-3.25,1.57-5,.76-8.33,1a30.12,30.12,0,0,0-3.59,1.24L196.4,40.44c-.45.16-.28.89.18.73Z"/></g><g class="cls-2"><path d="M199.1,37.64a4.15,4.15,0,0,0,6.28-4.19.37.37,0,0,0-.35-.29,39.29,39.29,0,0,0-21,7.72.38.38,0,0,0,.15.64,5,5,0,0,0,5-1,.38.38,0,0,0,0-.53,10,10,0,0,0-16,3.11c-.19.44.52.66.71.22a8.91,8.91,0,0,1,7.18-5.24c2.5-.39,5.38,1.39,6.7,1.16,2.48-.42,5.44-2.82,7.92-3.61,1-.33,2-.6,3.1-.84q1.17-.27,2.37-.44,2.89-.71-1.62,2.7c-.42-.24-.81.39-.4.64Z"/></g><g class="cls-3"><path class="cls-4" d="M231.77,40.12l8.68,2.62a1.51,1.51,0,0,0,1.25-2.7A13,13,0,0,0,232,37.45c-1.7.17-1.36,3,.3,3l29.94.67c1.41,0,2.22-2,.85-2.77A40.51,40.51,0,0,0,237.92,34c-1.49.21-1.46,2.51-.1,2.89l12.8,3.55-.83-2.23L247.68,40c-1.11.33-1.69,2.12-.45,2.73l5.36,2.66,1.25-2.7a109.3,109.3,0,0,0-27.75-3.51,1.51,1.51,0,0,0-.5,2.94,31.08,31.08,0,0,0,16.21,2.42c1.71-.17,1.35-3-.3-3L223.57,41l.3,3A69.92,69.92,0,0,1,240,41.9a1.51,1.51,0,0,0,.5-2.94,40.35,40.35,0,0,0-16.07-1.82c-1.87.16-2.1,2.93-.1,3l13,.37a1.5,1.5,0,0,0,.1-3L222.74,37l-.1,3,16.76.55a1.5,1.5,0,1,0,.1-3L224.18,37c-1.64-.05-2.2,2.59-.5,2.94a23.74,23.74,0,0,0,14.81-1.58c1.4-.61.75-2.78-.67-2.82l-22.3-.74a1.51,1.51,0,0,0-.85,2.77l3.46,2.32-.22-2.37a10.72,10.72,0,0,1-3,2.11,1.52,1.52,0,0,0,.27,2.75l7.89,3.44.5-2.94a11.78,11.78,0,0,1-6.75-2.13l-1.58,2.59A15.87,15.87,0,0,0,225,46.1c1.91-.07,2.1-2.93.1-3L220,42.93a1.5,1.5,0,1,0-.1,3l16.77.47c2.47.1,6.84,1.45,8.5-.86a1.52,1.52,0,0,0-.17-1.83c-2.54-3-9.48-1.2-12.91-1.13L212,43c-1.92,0-2,3-.1,3l9.29-.13-.91-2.6a5.92,5.92,0,0,1-7.65.29l-.85,2.77,10.08-.83A1.52,1.52,0,0,0,223,43a5,5,0,0,0-4.76-2.1c-1.19.08-2.16,1.54-1.14,2.52a2.68,2.68,0,0,0,4.56-1.85c.16-4.93-6.94-2-9.08-2.85l-.5,2.94,7.45.25.1-3-11.45-.38c-1.63-.05-2.21,2.64-.5,2.94a15.59,15.59,0,0,0,10.72-1.72,1.51,1.51,0,0,0-.67-2.82,35.16,35.16,0,0,0-12.76.58c-1.36.31-1.6,2.6-.1,2.89a15.08,15.08,0,0,0,11.5-2,1.51,1.51,0,0,0-1.07-2.78l-12,2.69a1.51,1.51,0,0,0-.1,2.89,23.88,23.88,0,0,1,5.65,2.3l.81-2.74-7.36-.34-.1,3a10,10,0,0,1,6.24,2.21l.86-2.87a32.45,32.45,0,0,1-12.77-3.54l-.09,2.59a17.87,17.87,0,0,1,9.19-3.27l.1-3-8.82.71c-1.54.13-2.29,2.53-.5,2.94a6.06,6.06,0,0,0,6.27-1.64c1.3-1.27-.22-3-1.74-2.42a41.1,41.1,0,0,1-16.76,2.77l-.1,3,7,.17a1.5,1.5,0,1,0,.1-3l-8.73-.4a1.51,1.51,0,0,0-.85,2.77,19,19,0,0,0,10.85,2.77,1.5,1.5,0,0,0,.1-3,54.52,54.52,0,0,0-21.23,1.3,1.51,1.51,0,0,0-.1,2.89,82.25,82.25,0,0,0,20.62,3.08l-.3-3a25.25,25.25,0,0,1-13.18,1c-1.86-.35-2.79,2.45-.9,2.86q8.09,1.75,15.95,4.27l.9-2.86-16.15-3.18c-1.51-.3-2.91,1.9-1.25,2.7a41,41,0,0,0,23.65,3.56,1.51,1.51,0,0,0,.74-2.49,7.13,7.13,0,0,0-5.49-2.18,1.5,1.5,0,0,0-.1,3l7,.31a1.51,1.51,0,0,0,.5-2.94L195.62,46a1.51,1.51,0,0,0-1.54,2.46,9.17,9.17,0,0,0,12.31,1.3,1.53,1.53,0,0,0-.27-2.75,7.61,7.61,0,0,0-7.25.52,1.51,1.51,0,0,0-.09,2.59,7.43,7.43,0,0,0,9.43-1.21,1.51,1.51,0,0,0-1.38-2.56l-4,.52c-1.36.18-1.43,2.07-.45,2.73a11.68,11.68,0,0,0,9.6,1.8l-1.79-1.91-.94,1.23c-1.51.53-1.51,3,.3,3l7.53.18a1.5,1.5,0,1,0,.1-3,5.78,5.78,0,0,0-4.8,1.56,1.51,1.51,0,0,0,.58,2.53,24.24,24.24,0,0,0,9.9.82L221,53.86c-1.69,4.32,4.42,6.24,5.5,1.71l-1.88.94a33.65,33.65,0,0,0,14.27,2,1.5,1.5,0,0,0,.1-3,22.78,22.78,0,0,0-10.14.76,1.52,1.52,0,0,0-.45,2.73,14.82,14.82,0,0,0,10.9,3.23c1.54-.14,2.28-2.47.5-2.94l-10.6-2.7c-2.2-.57-5-1.9-7.33-1.62s-3.81,2.88-1.78,4.56l1.54-2.46a14.26,14.26,0,0,1-7.4-3.49l-2.19,2a23.2,23.2,0,0,0,8.33,4.62c1.88.58,2.64-2.13.9-2.86a74.48,74.48,0,0,0-19.95-5.22c-1.24-.15-1.77,1.27-1.37,2.22a4.94,4.94,0,0,0,6.07,3c1.37-.29,1.59-2.6.1-2.89-13-2.51-25.66-6.74-38.35-10.45a1.51,1.51,0,0,0-1.25,2.7l4.66,3.52,1.25-2.7a61,61,0,0,1-11.56-6.87c-1.55-1.16-3.14,1.39-1.59,2.54a64.7,64.7,0,0,0,12.26,7.23c1.65.74,2.5-1.75,1.25-2.7l-4.63-3.56-1.25,2.7c12.68,3.71,25.35,7.94,38.35,10.45l.1-2.89-2.73-1.54-1.37,2.22a71.5,71.5,0,0,1,19.15,5.11l.9-2.86a19.32,19.32,0,0,1-7-3.8c-1.45-1.23-3.65.76-2.19,2a17,17,0,0,0,8.7,4.29c1.26.22,2.84-1.36,1.54-2.46,1.79,1.51,5.52,1.83,7.8,2.43l8.93,2.3.5-2.94a12.62,12.62,0,0,1-9.44-2.77l-.45,2.73a21.27,21.27,0,0,1,9.34-.69l.1-3a31.38,31.38,0,0,1-13.49-1.85,1.51,1.51,0,0,0-1.88.94l.24.07c.47-1.19-.76-2-1.79-1.91a20.54,20.54,0,0,1-8.25-.7l.58,2.53,2.66-.75.1-3-7.53-.18.3,3a4,4,0,0,0,3.11-3.25,1.52,1.52,0,0,0-1.79-1.91,8.53,8.53,0,0,1-7.3-1.42l-.45,2.73,4-.52-1.38-2.56q-2.44,2.73-5.78.86l-.09,2.59a4.35,4.35,0,0,1,4.93-.3l-.27-2.75c-2.93,2.09-6.16,2-8.69-.72l-1.54,2.46,7.54,2.52.5-2.94-7-.31-.1,3,3.29,1.26.74-2.49a37.38,37.38,0,0,1-21.32-3.2l-1.25,2.7,16.11,3.22c1.86.37,2.77-2.26.9-2.86q-7.92-2.52-15.95-4.27l-.9,2.86a28.19,28.19,0,0,0,14.78-.93c1.53-.52,1.5-3-.3-3a79.09,79.09,0,0,1-19.82-3l-.1,2.89A52.34,52.34,0,0,1,192.42,43l.1-2.89a16.32,16.32,0,0,1-9.36-2.31l-.85,2.77L191,41l.1-3-7-.17a1.5,1.5,0,0,0-.1,3,44.71,44.71,0,0,0,18.3-3.15l-1.73-2.41-3.34,1-.5,2.94,8.82-.71c1.9-.16,2-3.13.1-3A20.77,20.77,0,0,0,195,39.18c-.83.57-1.19,2-.09,2.59a36.54,36.54,0,0,0,14.28,3.93c1.59.11,2-1.94.85-2.77a12.65,12.65,0,0,0-7.74-2.64,1.5,1.5,0,1,0-.1,3l7.35.42a1.51,1.51,0,0,0,.85-2.77A28.36,28.36,0,0,0,204,38.32l-.1,2.89,12-2.73-1.07-2.78a12,12,0,0,1-9.18,1.79l-.1,2.9a32.76,32.76,0,0,1,12-.46l-.67-2.82a12,12,0,0,1-8.36,1.48l-.5,2.94,11.45.38a1.5,1.5,0,1,0,.1-3l-7.45-.25c-1.79-.06-2,2.3-.5,2.94s7.28-.52,7.6-.2l-1.14,2.52,2.68,1.18,1.14-2.52-10.1.82a1.51,1.51,0,0,0-.85,2.77,8.79,8.79,0,0,0,11.3-.63,1.51,1.51,0,0,0-1-2.64l-9.31.13-.1,3,15.34-.32,7.7-.14c1.41,0,7-.92,7.95.26L242.66,44c.18-.24-5-.48-4.89-.47l-5.92-.2L220,43l-.1,3,5.08.17.1-3a13.28,13.28,0,0,1-8.25-2.27c-1.63-1.05-3.18,1.45-1.59,2.54A13.37,13.37,0,0,0,223.52,46a1.51,1.51,0,0,0,.5-2.94l-7.89-3.44.27,2.75A19.55,19.55,0,0,0,220,39.84a1.52,1.52,0,0,0-.22-2.37l-3.46-2.32-.85,2.77,22.3.74-.67-2.82a20.17,20.17,0,0,1-12.49,1.34l-.5,2.94,15.32.57.1-3-16.81-.56a1.5,1.5,0,1,0-.1,3l14.7.49.1-3-13-.37-.1,3A38.18,38.18,0,0,1,239.63,42l.5-2.94a73.31,73.31,0,0,0-16.95,2.12,1.51,1.51,0,0,0,.3,3l17.93.49-.3-3a28.16,28.16,0,0,1-14.63-2.39l-.5,2.94a106,106,0,0,1,27,3.37c1.56.4,2.84-1.91,1.25-2.7l-5.36-2.67-.45,2.73a5.65,5.65,0,0,0,4-3.14,1.52,1.52,0,0,0-.83-2.23L238.71,34l-.1,2.89a37,37,0,0,1,22.88,3.95l.85-2.77-30-.61.3,3a9.75,9.75,0,0,1,7.43,2.18l1.28-2.73-8.68-2.63a1.5,1.5,0,0,0-.9,2.86Z"/></g><g class="cls-3"><path class="cls-4" d="M162.51,57.28A37.37,37.37,0,0,0,178.2,66.8a1.51,1.51,0,0,0,1.33-2.68,15.55,15.55,0,0,0-10.12-2.73l.3,3a24.48,24.48,0,0,1,12.07,1.8c1.79.73,2.67-2.14.9-2.86A27.51,27.51,0,0,0,169,61.38c-1.67.17-1.38,3.07.3,3a12.92,12.92,0,0,1,8.57,2.28L179.14,64a34.06,34.06,0,0,1-14.44-8.72c-1.36-1.38-3.55.67-2.19,2Z"/></g><g class="cls-3"><path class="cls-4" d="M187.28,64.34l-6.66-2.75-.5,2.94a5.83,5.83,0,0,1,5.38,2.25L187,64.31l-17-7.41-.9,2.86,25.37,8.76.5-2.94a9.74,9.74,0,0,1-6.45-1.87l-1.25,2.7c3.68.81,7.35,1.61,11,2.44,3.21.72,7.17,1.24,8.54,4.68l1-2.17L205.32,71l-1.54,2.46,11.45,4c2.39.84,5.54,2.72,8.15,2.5s3.76-3.14,1.44-4.7L223.57,78a7.4,7.4,0,0,1,3.93,2l.85-2.77-2.45-1.53L224.53,78a21.86,21.86,0,0,1,11.45,4l1.25-2.7L209.68,68.73l-.9,2.86L238,80.24l.5-2.94c-11.92.44-22.39-5.07-32.54-10.69l-.85,2.77,5.47.38a1.51,1.51,0,0,0,.5-2.94,77.62,77.62,0,0,0-8.82-2.46l.5-2.94-22.13-2.6,1,2.59,1.85-.61c1.86.39,2.79-2.4.9-2.86L172.1,55c-1.55-.38-2.85,1.91-1.25,2.7,2.78,1.37,5.3,1.13,7.51-1.15a1.51,1.51,0,0,0-.58-2.53,24.73,24.73,0,0,0-15.29,1.11c-1.79.7-.35,3.34,1.42,2.64a21.14,21.14,0,0,1,13-.88l-.58-2.53-3.87.8-1.25,2.7,12.25,3,.9-2.86a4.5,4.5,0,0,0-4.8,1.28,1.52,1.52,0,0,0,1,2.59l22.13,2.6c1.66.2,2.16-2.6.5-2.94-2-.39-4,.87-3.46,3.18.89,3.42,8,4.22,10.5,5l.5-2.92-5.47-.38a1.51,1.51,0,0,0-.85,2.77C215,75,226,80.77,238.4,80.29c1.62-.06,2.2-2.43.5-2.94l-29.22-8.62a1.5,1.5,0,0,0-.9,2.86l27.55,10.49c1.62.59,2.6-1.78,1.24-2.72a24.73,24.73,0,0,0-13-4.43,1.52,1.52,0,0,0-1.37,2.26,4.51,4.51,0,0,0,5,3.1,1.52,1.52,0,0,0,.85-2.77,12,12,0,0,0-4.61-2.36,1.51,1.51,0,0,0-1.25,2.7c-5.17-3.51-12.51-5.08-18.53-7.28A1.51,1.51,0,0,0,203.15,73a4.8,4.8,0,0,0,5.42,1.18,1.54,1.54,0,0,0,1-2.17c-1.09-2.76-3.35-4.11-6.07-5.06-4.88-1.66-10.22-2.34-15.24-3.51a1.51,1.51,0,0,0-1.25,2.7,11.17,11.17,0,0,0,7.93,2.33,1.51,1.51,0,0,0,.5-2.94L170,56.91c-1.86-.64-2.62,2.11-.9,2.86l17,7.41c1.42.62,2.51-1.44,1.54-2.46a9.5,9.5,0,0,0-7.48-3.25,1.51,1.51,0,0,0-.5,2.94l6.69,2.8c1.79.74,2.66-2.13.9-2.86Z"/></g><g class="cls-3"><path class="cls-4" d="M255.78,43.12l4.49,0a1.51,1.51,0,0,0,.85-2.77,9.77,9.77,0,0,0-5.93-2.27c-2-.15-2,2.78-.1,3a14.12,14.12,0,0,0,9.31-1.92,1.51,1.51,0,0,0-.67-2.82l-8.46-.21a1.5,1.5,0,1,0-.1,3l4.48.15a1.5,1.5,0,0,0,.1-3l-26.44-.88a1.5,1.5,0,1,0-.1,3l6.7.22a1.5,1.5,0,0,0,.1-3l-6.7-.22a1.5,1.5,0,1,0-.1,3l26.44.88.1-3-4.52-.15-.1,3,8.46.22-.67-2.83a11.61,11.61,0,0,1-7.74,1.57l-.1,3a6.1,6.1,0,0,1,4.45,1.81l.82-2.76-4.52,0c-1.92,0-2,3-.1,3Z"/></g><g class="cls-3"><path class="cls-4" d="M236,35.31l-11.35,1c-2.27.2-5.29-.09-7.44.75s-3.2,3-1.47,5a1.5,1.5,0,0,0,1.45.44c1.24-.32,1.5-.67,2.06-1.83a1.51,1.51,0,0,0-.34-1.47c-2.28-3-6.45-3.22-8.44.24-1,1.67,1.57,3.27,2.54,1.59l3.36-.27a17.69,17.69,0,0,1,5.38-1.17c1.56-.2,3.16-.27,4.73-.39l9.45-.8c1.9-.16,2-3.16.1-3Z"/></g><g class="cls-3"><path class="cls-4" d="M212,36.66l-1,0a1.5,1.5,0,0,0-.1,3l1,0a1.5,1.5,0,0,0,.1-3Z"/></g><g class="cls-3"><path class="cls-4" d="M211.2,36.85l-4.06,1.87c-1.76.8-.32,3.44,1.42,2.64l4.06-1.87C214.38,38.68,213,36,211.2,36.85Z"/></g><g class="cls-3"><path class="cls-4" d="M211.47,36.48l-5.91,2.22a1.55,1.55,0,0,0-1.06,1.82,1.51,1.51,0,0,0,1.79,1.1l5.89-2.21a1.55,1.55,0,0,0,1.06-1.82,1.51,1.51,0,0,0-1.82-1.06Z"/></g><g class="cls-3"><path class="cls-4" d="M208.26,38.67a7,7,0,0,0-7.7,2.36,1.51,1.51,0,0,0,.47,2.07,1.54,1.54,0,0,0,2.07-.47,3.94,3.94,0,0,1,4.27-1.09C209.21,42.14,210.09,39.27,208.26,38.67Z"/></g><g class="cls-3"><path class="cls-4" d="M200.35,39.78l0,1a1.5,1.5,0,1,0,3,.1l0-1a1.5,1.5,0,0,0-3-.1Z"/></g><g class="cls-3"><path class="cls-4" d="M203.12,38.56a10.37,10.37,0,0,1-7.29,1.59c-1.91-.26-2,2.74-.1,3a12.94,12.94,0,0,0,8.81-1.94c1.62-1,.2-3.69-1.42-2.64Z"/></g><g class="cls-3"><path class="cls-4" d="M198.61,36.6a4.37,4.37,0,0,0-6.31,2.54c-.52,1.86,2.34,2.76,2.86.9a1.34,1.34,0,0,1,1.66-.92l.19.07c1.67,1,3.27-1.57,1.59-2.54Z"/></g><g class="cls-3"><path class="cls-4" d="M197.35,39.68l.07-2a1.5,1.5,0,1,0-3-.1l-.07,2a1.5,1.5,0,1,0,3,.1Z"/></g><g class="cls-3"><path class="cls-4" d="M197,34.61l-4.13,3.87a1.5,1.5,0,0,0,2,2.19L199,36.79a1.5,1.5,0,0,0-2-2.19Z"/></g><g class="cls-3"><path class="cls-4" d="M217.89,41.06l6.41-2.32a1.52,1.52,0,0,0,.45-2.73,6.31,6.31,0,0,0-8.29.83c-1.27,1.44.77,3.64,2,2.19a3.37,3.37,0,0,1,4.69-.48l.45-2.73-6.41,2.32c-1.79.65-1.12,3.57.7,2.91Z"/></g><g class="cls-3"><path class="cls-4" d="M226,37.13l-2-.07a1.5,1.5,0,1,0-.1,3l2,.07a1.5,1.5,0,0,0,.1-3Z"/></g><g class="cls-3"><path class="cls-4" d="M234.08,33.42a3.35,3.35,0,0,0-3.6,3.08q0,.14,0,.28a1.5,1.5,0,1,0,3,.1V36.6h0c-.08.14,0,.07,0,0s0,0,.06-.08-.17.08,0,0l.13-.08c-.16.09.21,0,0,0h.21a1.51,1.51,0,0,0,1.64-1.36s0-.08,0-.12A1.54,1.54,0,0,0,234.08,33.42Z"/></g><g class="cls-3"><path class="cls-4" d="M234.09,33.39l-4-.13a1.5,1.5,0,1,0-.1,3l4,.13a1.5,1.5,0,0,0,.1-3Z"/></g><g class="cls-3"><path class="cls-4" d="M238.53,35l-.07,2a1.5,1.5,0,0,0,3,.1l.07-2a1.5,1.5,0,1,0-3-.1Z"/></g><g class="cls-3"><path class="cls-4" d="M246,35.79l-2-.07a1.5,1.5,0,0,0-.1,3l2,.07a1.5,1.5,0,0,0,.1-3Z"/></g><g class="cls-3"><path class="cls-4" d="M254.35,36.27a9.82,9.82,0,0,0-9.57,1.8c-1.49,1.23.57,3.42,2,2.19a6.73,6.73,0,0,1,6.64-1.1c1.83.63,2.72-2.23.9-2.86Z"/></g><g class="cls-3"><path class="cls-4" d="M258.38,44.41l2.45-2.58a1.51,1.51,0,0,0,.07-2.12,5.61,5.61,0,0,0-5.11-1.36c-1.62.33-1.41,3.09.3,3a19.23,19.23,0,0,0,8.09-2.44,1.51,1.51,0,0,0-1.07-2.78l-13.5,2.5c-1.89.35-1.2,3.27.7,2.91L263.86,39l-1.06-2.78a15.67,15.67,0,0,1-6.6,2.08l.3,3,2.21.49.07-2.13-2.49,2.62c-1.33,1.4.72,3.6,2,2.19Z"/></g><g class="cls-3"><path class="cls-4" d="M242.33,41.17a1.5,1.5,0,1,0,1.55-1.45A1.5,1.5,0,0,0,242.33,41.17Z"/></g><g class="cls-3"><path class="cls-4" d="M232.49,46.32a59.21,59.21,0,0,1,16.8-4L248,40a3.39,3.39,0,0,1-4,1.72l-.1,3,6.16.2-1.45-1.55c-.15,1.38,3.22.11,3.47-1.15a2.2,2.2,0,0,0-1.21-2.33,1.52,1.52,0,0,0-2.07.47l-.14.26c-.88,1.71,1.65,3.32,2.54,1.59l.14-.26-2.07.47c-1.59-.91,0-1.27-1.22-.75a2,2,0,0,0-.26,3.42,2.32,2.32,0,0,0,3.82-1.62,1.52,1.52,0,0,0-1.45-1.55l-6.16-.2c-2-.07-2,2.76-.1,3a6.49,6.49,0,0,0,6.61-3.12,1.51,1.51,0,0,0-1.22-2.3,64.19,64.19,0,0,0-18.3,4.4c-1.78.71-.35,3.35,1.42,2.64Z"/></g><g class="cls-3"><path class="cls-4" d="M165.66,58.27a6.28,6.28,0,0,1,6.9,3.23l1.76-2.14a17.35,17.35,0,0,1-5.71-3.45l-1.89,2.27,5.62,3-.22-2.37-1.91-.48-1.91,1.79q8.65,3.92,17.59,7l.5-2.94a4.36,4.36,0,0,1-4.38-2l-1.16,2.54c1.64.05,4.27-.16,5.84.29,2,.57,2.8,2.09,4.16,3.43a38.23,38.23,0,0,0,6.83,5.37c1.22.77,2.94-.67,2.12-2l-1.67-2.66-1.76,2.14L199.12,73c1.12,1.22,3.41-.31,2.42-1.74l1.9.26a1.51,1.51,0,0,0,1.94-2.3l-2.09-2.37-1.14,2.52a3.91,3.91,0,0,1,3.64,3,1.56,1.56,0,0,0,1.41,1.15h1.57c1.92,0,2-3,.1-3h-1.57l1.39,1.12a7.54,7.54,0,0,0-6.46-5.32c-1.36-.23-1.92,1.65-1.14,2.52l2.09,2.37,1.9-2.3c-1.79-.86-4-1.9-5.76-.25a3,3,0,0,0-.37,4L201.32,71a7.61,7.61,0,0,0-4.05-2.48c-1.18-.32-2.5,1-1.76,2.14l1.73,2.68,2.07-2A35.35,35.35,0,0,1,193,66.44c-1-1-2.08-3.07-3.26-3.81-2.3-1.36-6.17-.76-8.83-.85a1.52,1.52,0,0,0-1.14,2.52,7.7,7.7,0,0,0,6.47,2.91,1.51,1.51,0,0,0,.5-2.94q-9-3.12-17.59-7c-1.1-.5-2.12.78-1.91,1.79a4,4,0,0,0,6.87,2,1.52,1.52,0,0,0-.22-2.37l-5.62-3c-1.4-.75-3.26,1.09-1.9,2.3a22.57,22.57,0,0,0,7,4.23A1.51,1.51,0,0,0,175.18,60,9.45,9.45,0,0,0,165,55.3c-1.9.31-1.2,3.22.7,2.91Z"/></g><g class="cls-3"><path class="cls-4" d="M171.25,51.71c2.13.91,4.82,1.6,6.59,3.14.7.61,1,1.79,1.84,2.47a6.7,6.7,0,0,0,5.88,1.29l-1.78-1.9-2,.93-.1,3A9.27,9.27,0,0,1,188,62.76l.85-2.72-3.42-.2-.1,3a35.71,35.71,0,0,1,5.85.19c2,.47,1.59.94,3.24,1.61a8.27,8.27,0,0,0,5.87.5l-1.68-.78A6.26,6.26,0,0,0,207.07,67l.11-.06-2-2.12L203.64,67a1.51,1.51,0,0,0,1.22,2.3l7.74.44c1.65.05,2.19-2.59.5-2.94-2.53-.52-4.42.12-5.59,2.55-.49,1,.25,2.75,1.62,2.25l5.94-2.09L213.22,68l-.81,1c-1.41.61-.75,2.78.67,2.82l5.3.18.1-3-.55,0a1.58,1.58,0,0,0-1.48,1c-.71,1.6.67,4.68,2.62,3.16a1.51,1.51,0,0,0,1,2.59,14.68,14.68,0,0,1,10,4l1.08-2.53-2.54.12c-1.91.09-2,3.09-.1,3l2.54-.12c1.17-.05,2.19-1.58,1.14-2.52a18,18,0,0,0-12.09-4.91l1,2.59c3-2.31-1.72-4.61-1.72-4.47l-1.49,1.05.55,0a1.5,1.5,0,0,0,.1-3l-5.3-.18.67,2.82a3.56,3.56,0,0,0,2.39-3.5,1.51,1.51,0,0,0-1.85-1.51l-6,2.09L210,70.95l2.15-1.28.5-2.94-7.74-.44,1.25,2.32,1.56-2.2c.91-1.29-.71-2.73-2-2.12L201.26,63a1.54,1.54,0,0,0-1.66-.74c-3,.78-3.76-1.35-6.15-2.07s-5.63-.25-8-.34a1.5,1.5,0,0,0-.1,3l3.39.23c1.63.05,1.91-1.94.85-2.77a10.61,10.61,0,0,0-7.86-2.6,1.5,1.5,0,0,0-.1,3c2.52.4,4.1-.77,5-3.06.44-1.13-.74-2.11-1.79-1.91-1.82.34-3.79-2.81-5.28-3.67a72.14,72.14,0,0,0-7.44-3.19c-1.78-.76-2.65,2.11-.9,2.86Z"/></g><g class="cls-5"><path d="M126.24,39.27a2.24,2.24,0,0,0-1.54-2.36c-.2-.1-.51,0-.56.2a30.26,30.26,0,0,0-1,7.53c0,.56-.44,2.33.69,2.19-.8.1,1.88-7.65,1.79-7.44A.38.38,0,0,0,125,39a22,22,0,0,0-2.91,6.23.38.38,0,0,0,.71.22l2.95-7.11c.17-.4-.45-.65-.68-.31-.67,1-2.18,5.36-3.26,6,.68-.4.33-5,.36-6.3a.38.38,0,0,0-.63-.29c-1.84,2.05-1.44,3.89-.94.08a.38.38,0,0,0-.69-.21,31.16,31.16,0,0,0-2.9,6.86.38.38,0,0,0,.71.22l2.64-6.26a.38.38,0,0,0-.16-.43c-4.56-3.05-7.47,2.06-8.74,5.8-.13.39.34.59.62.38a10.13,10.13,0,0,0,4.27-8,.38.38,0,0,0-.55-.34,16.32,16.32,0,0,0-6.56,6,.38.38,0,0,0,.49.53c3.92-1.66,2.3-6.51-1.81-5.67a.38.38,0,0,0-.29.35c0,.8-.56,3.47.17,3.49s.38-3.15.39-3.56a.38.38,0,0,0-.38-.38h-.08c-1.66.43-2.69,1.52-4.13,2.16s-.1.49-.2.39c-.27-.23,1.06-4.25,1.15-4.56a.38.38,0,0,0-.54-.44,10.58,10.58,0,0,0-6.12,7.73.38.38,0,0,0,.71.22l1.3-3.74a.38.38,0,0,0-.68-.31c-.12.23-2.5,4.92-2.59,4.92-1.5-.43,1.16-4.79-.68-3.23-.41.35-1.25,2-.77,2.1,0,0,1.05-4.6,1.09-4.79s-.25-.65-.54-.44a4.62,4.62,0,0,0-1.54,6.28.38.38,0,0,0,.52.15l.07-.05a5,5,0,0,0,.55-6.35.38.38,0,0,0-.51-.15A6.47,6.47,0,0,0,91.22,42c0,.5.67.48.75,0a9.25,9.25,0,0,1,2.33-5.36.38.38,0,0,0-.13-.52l-.07,0a3.65,3.65,0,0,0-4.64,4.56.38.38,0,0,0,.74-.08V36.88a.38.38,0,0,0-.75,0l-.13,9.07a.38.38,0,0,0,.69.21c3.41-4.89,1.81-.57,5.88-.17,4.42.44,2.25-4.3,6.44.46a.38.38,0,0,0,.45.07,6.78,6.78,0,0,0,2.62-2.45c-.28.48,1.06-1.77.59-1.35a3.09,3.09,0,0,0,.2-.71q.2-1.29,1.12,2.18a.38.38,0,0,0,.27.37l11.78,4.39a.38.38,0,0,0,.48-.34c.22-2.7,2.07-4.29,2.43-6.8.42-2.91-1.54-6-2.18-8.76a.38.38,0,0,0-.35-.29,13.08,13.08,0,0,0-3.39.54c-1.53.32-1.45,0-2.87-.3-3.83-.73-7.7,2.49-11.3,1-.44-.18-.67.53-.22.71,3.61,1.51,10-3.13,12.67.27a.38.38,0,0,0,.53,0c4.92-3.84,4.68.87,5.32,3q.31.81.59,1.63,1.68,2.84-1.56,5.24c-.67,2.69-.52,2.7-3.27,2.09-2.5-.55-6.58-1.81-8.08-4-.82-1.18-.6-1.82-2.06-2.76a.38.38,0,0,0-.57.3c-.3,9.14-4.52,3.21-5.8,1.75a.38.38,0,0,0-.64.15L92.75,42a.38.38,0,0,0-.69-.11c-1.31,1.89-1.8,3.94-1.92.41l.05-3.63q-2.84.12,2.56-1.26c-.33-.41-1.11,3.24-1.27,3q4.88-4.93,3.34-.76l-.73,3.2c-.09.39.47.71.68.31l2.9-5.42a.38.38,0,0,0-.64-.4,7.37,7.37,0,0,0-1.32,7.17.38.38,0,0,0,.69.11c.85-1.61,1.67-3.3,2.59-4.92-.26.44-1,.73.47-.59.83-.75,2.67-4.82,3.94-3.58.31.3-1,4.2-1.15,4.56a.38.38,0,0,0,.68.31q1.52-3.83,4.45-2l0,3.55a.38.38,0,0,0,.75,0l.17-3.5q2.35,4.34,4.26,0c6-5.49.14,4.18.1,3.67q8.44-6.36,5.67-1.26-1.43,1.32-.18,1.93c-.11-.2,2-7.57,1.21-1.58a.38.38,0,0,0,.74.12c.82-2.68,1.32-2.33,1.26.2l-.13,4a.38.38,0,0,0,.74.12,24.43,24.43,0,0,1,1.92-4.55q1.86-1.67.46-1.23l-1.47,3.55q1.64,1.66,1.87-2.63c-1.72-.11-1.6,6-1.46,7.59,0,.47.77.52.75,0-.07-1.56-.1-3.11,0-4.68q0-.94.15-1.87a2.88,2.88,0,0,1,1.38-2.62c0,.48.77.51.75,0Z"/></g><g class="cls-5"><path d="M166.83,28.17l-35.62,8.3c-6,1.38-11.91,2.91-18,3.41a169.9,169.9,0,0,1-17.61-.08L20.8,37.64a.38.38,0,0,0,0,.75L97.53,40.6a120.61,120.61,0,0,0,31.91-2.95L167,28.89a.38.38,0,0,0-.18-.73Z"/></g><g class="cls-5"><path d="M148.23,32.68a35.23,35.23,0,0,1,13.65,1c2,.54,4.42,2,6.53,1.32a2.9,2.9,0,0,0,1.86-4.24.37.37,0,0,0-.31-.2q-.95-1.62.63-1.26,1.3-.09,2.61-.05a47.47,47.47,0,0,1,5.22.42.38.38,0,0,0,.38-.46c.1.33-.7-2.62-1-2,.11-.19.14.61.43.45.62-.34,4.09.38,5,.3A39,39,0,0,0,188,26.7c1.81-.39,6.63.48,6.45-2.67,0,.1-.76-2.11-.95-1.66-.53,1.61,4.11-.4,4.67-.79s.79-.72,1.21-1a11.77,11.77,0,0,1,4.08-2.23,12.63,12.63,0,0,0,6.12-3.67.38.38,0,0,0-.25-.65l-4.42-.46a.38.38,0,0,0,0,.75c2.68.28,5.88.67,8.18-1.12a5.7,5.7,0,0,0,1.63-1.95c-.2.43,1-2.85.48-2.38.46-.38,4,.08,5-.39a6.42,6.42,0,0,0,3.3-3.68.38.38,0,0,0-.26-.47h-.08c-.51,0-2.6.14-3-.18,0,0-.41,1.19.56-.06.83-.9,1.85-1.41,2.51-2.49a.38.38,0,0,0-.11-.51c-7.71-3.67-15.34,3-20.29,8.48-.22.24,0,.78.34.64a5.82,5.82,0,0,0,4.09-6.69.38.38,0,0,0-.45-.28A17.58,17.58,0,0,0,197,10.49c-.25.37.26.73.57.47a3.49,3.49,0,0,0,1.38-4,.38.38,0,0,0-.47-.27l-.08,0A101.21,101.21,0,0,0,186.89,14c-.34.25.07.83.43.6L191,12.09c.28-.18.24-.73-.17-.71A12.2,12.2,0,0,0,181.09,17a.38.38,0,0,0,.49.53,6.52,6.52,0,0,0,3.4-4.48.38.38,0,0,0-.44-.47,70.52,70.52,0,0,0-15,5.56c-.44.22-.08.86.36.66l4.36-1.93c.39-.17.14-.82-.27-.7a45.06,45.06,0,0,0-9.73,4.11c-1.22.71-3.41,2.73-.65.88,1.15-.76,2.09-2.56,2.74-3.67a.38.38,0,0,0-.4-.56,6.8,6.8,0,0,0-5.13,9.84.38.38,0,0,0,.65,0l3.07-6.12a.38.38,0,1,0-.58-.49l-6.12,5.26c-.77.66-1.69,1.29-1.88,2.06s2.57-2,2.47-1.92a.38.38,0,0,0-.25-.65,5.66,5.66,0,0,0-6.09,4.8.38.38,0,0,0,.44.47,4.74,4.74,0,0,0,3.84-3.5.38.38,0,0,0-.26-.47h-.08a8.75,8.75,0,0,0-8,4.61.38.38,0,0,0,.13.52l.07,0a29,29,0,0,0,11.64,1.32c.47,0,.52-.74,0-.75l-4,0a.38.38,0,0,0,0,.75L168.2,33a.38.38,0,0,0,.34-.55,4.45,4.45,0,0,0-4.14-2.7c-.41,0-.54.66-.12.74a44.48,44.48,0,0,0,9.9.63.37.37,0,0,0,.38-.46L173.63,28a1.36,1.36,0,0,1,.87.48c1.2.11,2.15,1.44,3.62,1.43a4.48,4.48,0,0,0,2.73-.83c1.37-1,1.07-2,2.64-2.41s3.91.47,5.65.11a14.1,14.1,0,0,0,5.65-2.55c1.89-1.44,2.4-3.17,3.9-4.87,1.75-1.94,7.65-2.54,7.49-6a.39.39,0,0,0-.27-.37c-.57-.17-.59-.15-1.08.22a.36.36,0,0,0-.11.36l.1.28c.16.45.89.28.73-.18.43,1.19-4.62,3.25-5.37,3.65,2-1.08-1.39.13-1.61.36-.81.77-1.08,2.43-1.73,3.37A12.8,12.8,0,0,1,182,25.34a.38.38,0,0,0-.48.34c.49,7.27-7.22,1.76-8.49.72a.38.38,0,0,0-.56.4c.43,1.27,1.47,2.65.09,3.62-1.17.81-3.76-.83-4.92-.16q-.27,2.37-2.07,1.93l-2.65-.09c-.71,0-4.73-.53-5.29-.18-1.37,1,1.6,1.51.61.13-.24-.33-6.42-.44-6.56-.52l-1.63-.4q-.72-2.5,1.77-3a13.61,13.61,0,0,1,5-2l-2.31,2.22a.38.38,0,0,0,.51.55l5.44-4.68,2.72-2.34q.16-1-.76,1.42-.72,3-1.6.07A6.48,6.48,0,0,1,164,18.2c2.75-.75-2.76,3.91-3.27,4.32-.34.25.08.84.43.6a45.34,45.34,0,0,1,7-4,27,27,0,0,1,3-1.15q2,.07,1.3-1.06c-1.32.14-2,1.08-.17.77,2.88-.48,6.81-4.21,9.85-3.68q1.49-.87,1.27,1.27l2.19-1.66a9.47,9.47,0,0,1,3.18-1.21q1.66-.49-.58.65c2.71.09,5.17-3.15,7.57-4.06,1.52-.57,2.81-.56,4.15-1,.59-.17,3.5-3.45,4.3-3Q203,10.7,205,8.36a22.88,22.88,0,0,1,1.74-1.61,49.56,49.56,0,0,1,4.46-3.13c-.14.08,5.48-3.38,2.85-2l2.45-.86Q221-.82,218.7,4a.38.38,0,0,0,.08.74l3,.18q-2.17,5-7,2.52c-.28-.14-.66.07-.56.4q-2.22,6.65-7.47,5.76-.94,1.37,1.22.84c.43,2.54-5.28,3.14-7.26,3a.37.37,0,0,0-.33.18,8.54,8.54,0,0,1-7.62,4.5c-.5,0-.48.67,0,.75-.06,0-4,2.54-5,2.93a16.77,16.77,0,0,1-11,.51.38.38,0,0,0-.31.68c2.88,2-4.46,1.39-4.92,1.41a49,49,0,0,0-5.31.49.38.38,0,0,0-.19.62s2.54,2.15,2.5,1.63c.09,1.08-3.24,2.5-3.94,2.51-1.12,0-3.08-1-4.13-1.24a35.71,35.71,0,0,0-12.35-.52c-.48.05-.3.78.18.73Z"/></g><g class="cls-5"><path d="M194.48,15,153.07,29.84c-.45.17-.28.89.18.73l41.4-14.87c.45-.17.28-.89-.18-.73Z"/></g><g class="cls-6"><path d="M215.76,6.2c-1.06-1,1.4-2.81,2.11-3.24A1.51,1.51,0,0,0,216.79.18a20.53,20.53,0,0,0-10.71,4.65,1.52,1.52,0,0,0,1,2.58,19.64,19.64,0,0,0,12.7-4c1.25-1,0-2.9-1.38-2.56a19.67,19.67,0,0,0-8.14,4.21,1.52,1.52,0,0,0,1,2.63l6.87.12a1.51,1.51,0,0,0,.5-2.94,4.13,4.13,0,0,0-5.16,2.74l0,.15a1.5,1.5,0,0,0,2.86.9,1.07,1.07,0,0,1,1.49-.87l.5-2.94-6.92-.16,1,2.59a16.31,16.31,0,0,1,6.77-3.49l-1.38-2.59a16.36,16.36,0,0,1-10.55,3.14l1,2.59a17.76,17.76,0,0,1,9.35-3.91L216.43.32c-2.5,1.58-5.69,5.15-2.86,7.91,1.38,1.35,3.57-.69,2.19-2Z"/></g><g class="cls-6"><path d="M208.83,10.54l-5.49-.18,1,2.59a19,19,0,0,1,8.33-3.41l-1.79-1.87c-.2.62-3.36.79-4,1.42a2.41,2.41,0,0,0-.56,3.24c1.51,2,4.81.54,3.82-1.93a1.51,1.51,0,0,0-2-.61,16.51,16.51,0,0,1-8.27,2.58c-1.91.08-2,3.07-.1,3a19.52,19.52,0,0,0,9.76-2.95l-2-.61.11.27,0-1.46c-.53,1.07,4.15.14,4.39,0a3.13,3.13,0,0,0,1.78-2,1.52,1.52,0,0,0-1.79-1.91,22.06,22.06,0,0,0-9.63,4.1c-1.09.79-.22,2.56,1,2.59l5.49.18a1.5,1.5,0,1,0,.1-3Z"/></g><g class="cls-6"><path class="cls-4" d="M206.18,8.77l-3.8,1.94c-1.27.65-.86,2.9.67,2.82l5.41-.29a1.5,1.5,0,1,0,.1-3c-2.67-.16-4.27,1-5.22,3.45-.49,1.27,1,2.33,2.14,1.76l18.32-9.33a1.51,1.51,0,0,0-.67-2.82l-7.85-.59-.1,3,3.51.21c2,.12,2-2.71.1-3a10.7,10.7,0,0,0-8.62,2.29,1.51,1.51,0,0,0,1,2.56,11.56,11.56,0,0,0,6.58-2.55c1.4-1.05-.28-3.16-1.74-2.42l-11.67,6a1.51,1.51,0,0,0,.67,2.82,7.3,7.3,0,0,0,5.47-2.09c1.22-1.09,0-2.76-1.38-2.56a25.47,25.47,0,0,0-13.45,5.79c-1.23,1,0,2.8,1.38,2.56l11.75-2.12-1.07-2.78c-2.37,1-5.88.43-6.27,3.79a2.67,2.67,0,0,0,2.61,3.35l-.3-3a20.06,20.06,0,0,0-8.07,4.18c-1.42,1.18.28,3,1.74,2.42l8.67-3.41-1.42-2.64-3.05,1.51.75-1.67-12.47,7.31a1.51,1.51,0,0,0,.67,2.82h4.24a1.5,1.5,0,1,0,.1-3,24.88,24.88,0,0,0-11.77,1.75l1.42,2.64,3.94-2.17a1.51,1.51,0,0,0-1.07-2.78A55.36,55.36,0,0,0,174,25.64a1.51,1.51,0,0,0,.69,2.91l2.68,0a1.5,1.5,0,0,0,.1-3c-2.36-.21-4.83-.38-7,.61a12.09,12.09,0,0,1-2.62,1.13c-1.72.3-4.36-.27-6.16-.33a1.5,1.5,0,0,0-.1,3l4.69.46-.67-2.82c-2.84,2-6,1.63-9.17,1.13l-.1,3,5.31.24-.3-3-4.26-.92L157,30.67,163.85,26a1.5,1.5,0,0,0-1.42-2.64,6.28,6.28,0,0,0-3.81,4.36,1.5,1.5,0,0,0,2.86.9,11.82,11.82,0,0,1,5.22-6.56,1.56,1.56,0,0,0,.61-2l-.16-.4a1.52,1.52,0,0,0-1.67-.75c-1.18.2-1.48.58-1.95,1.65a1.52,1.52,0,0,0,.63,1.71c3.65,2.83,11.17-.68,13.87-3.59a1.5,1.5,0,0,0-2-2.19l-6.58,4.78c-1.5,1.07.23,3.13,1.69,2.42l13.11-6.81c1.47-.76.56-3.38-1.07-2.78a16.07,16.07,0,0,0-8,6.07c-.89,1.26.71,2.79,2,2.12a77.62,77.62,0,0,0,12.19-8.07c1.36-1.1-.26-3.18-1.74-2.42l-8.83,4.57c-1.76.94-.32,3.31,1.42,2.64L197,12.54c1.66-.64.52-3.06-1.07-2.78a5.83,5.83,0,0,0-3.73,2,1.51,1.51,0,0,0,1.38,2.56A19.86,19.86,0,0,0,204.09,8.2c.9-1,.17-3.09-1.38-2.56a36.89,36.89,0,0,0-8.94,4.43,1.51,1.51,0,0,0,1.07,2.78,10.55,10.55,0,0,0,6.77-4.34A1.51,1.51,0,0,0,200,6.25a8.61,8.61,0,0,0-6,4.93c-.48,1,.24,2.77,1.62,2.25l25.94-9.63a1.5,1.5,0,0,0-.7-2.91c-10.72,1.38-19.82,7-28.7,12.78a1.52,1.52,0,0,0,.27,2.75l3.45,1,.1-2.89a80.4,80.4,0,0,0-26.15,10.73c-1.34.85-.64,3.39,1.07,2.78l30-10.81-1.07-2.78A131.94,131.94,0,0,1,160,25.76c-1.52.18-1.43,2.5-.1,2.89,6.06,1.78,10.27-5.17,15.94-3.73l.5-2.94a85.58,85.58,0,0,0-26.62,7,1.51,1.51,0,0,0,.67,2.82,96,96,0,0,1,17.56,1l-1.22-2.3q-2.33,2.45-4.78.42l-1.14,2.52L181,31.6c1.56-.14,2.26-2.43.5-2.94l-4.55-1.28-.1,2.89a16.81,16.81,0,0,0,6.7-4,1.51,1.51,0,0,0-1.34-2.53l-6,1.8c-1.56.48-1.47,3,.3,3l3.53,0a1.5,1.5,0,0,0,.1-3l-5.59-.26L176,26.9a3.78,3.78,0,0,1,2.78-4.35c1.43-.62.72-2.74-.67-2.82l-11.57-.63a1.5,1.5,0,0,0-.1,3l11.57.63-.67-2.82A6.86,6.86,0,0,0,173,26.76a1.53,1.53,0,0,0,1.45,1.55l5.59.26.1-3-3.53.05.3,3,6-1.8-1.38-2.56a13.51,13.51,0,0,1-5.36,3.21,1.51,1.51,0,0,0-.1,2.89l4.56,1.21.5-2.94-20.2,1.83c-1.1.1-2.26,1.58-1.14,2.52a6.3,6.3,0,0,0,9.5-.88c.81-1-.25-2.15-1.22-2.3a96,96,0,0,0-17.57-1l.67,2.82A80.88,80.88,0,0,1,176.21,25c1.53-.15,2.29-2.48.5-2.94-6-1.53-10.41,5.35-15.94,3.73l-.1,2.89a134.46,134.46,0,0,0,40.62-11.56c1.51-.7.55-3.35-1.07-2.78L170.14,25.12l1.07,2.78a77.94,77.94,0,0,1,25.46-10.43,1.51,1.51,0,0,0,.1-2.89l-3.45-1,.27,2.75c8.66-5.64,17.48-11.15,28-12.5L220.85.9,194.9,10.53l1.62,2.25a5.45,5.45,0,0,1,4.17-3.63L199.08,6.9a6.55,6.55,0,0,1-4.93,3l1.1,2.79a33.88,33.88,0,0,1,8.14-4.15L202,6a17.11,17.11,0,0,1-9.19,5.44L194.24,14l2.41-1.33L195.58,9.9l-16.78,6.45L180.22,19,189,14.41,187.3,12a73.16,73.16,0,0,1-11.57,7.62l2,2.12a12.33,12.33,0,0,1,6.16-4.8l-1.09-2.68L169.67,21l1.73,2.4L178,18.66l-2-2.19c-1.61,1.8-7.61,5.25-10.17,3.26l.63,1.71-.22.37-1.67-.75.16.4.61-2a15.28,15.28,0,0,0-6.66,8.31l2.86.9L163.89,26l-1.42-2.64L155.61,28a1.52,1.52,0,0,0-.09,2.59,9.37,9.37,0,0,0,6.56,1.31c1.72-.2,1.34-2.89-.3-3l-5.31-.24c-2-.07-2,2.71-.1,3,3.84.62,7.43.86,10.71-1.49a1.51,1.51,0,0,0-.67-2.82L161.73,27l-.1,3c2.58.09,5.6.66,8.12.17,2.69-.52,4.64-1.85,7.67-1.6l.1-3h-2.71l.67,2.82a51.92,51.92,0,0,1,12.71-3.84l-1.07-2.78-4,2.07c-1.73.94-.32,3.34,1.42,2.64a21.75,21.75,0,0,1,10.25-1.39l.1-3h-4.21l.67,2.82,12.44-7.39a1.52,1.52,0,0,0,.75-1.67c-.75-2-3.9-3-4.62-.22-1.06,4.11,4.36,3.37,6.22,2.06A1.5,1.5,0,0,0,204.75,15l-8.7,3.42,1.74,2.42a16.41,16.41,0,0,1,6.72-3.45,1.51,1.51,0,0,0-.32-2.91,15,15,0,0,0,4.94-1.46c1.64-.69.52-3.06-1.07-2.78l-11.69,2.07,1.38,2.56a22.72,22.72,0,0,1,12.09-5.07L208.43,7.3l-3.28,1.25.67,2.82L217.5,5.45,215.74,3l-4.43,1.71,1,2.59a7.67,7.67,0,0,1,6.47-1.48l.1-3-3.51-.21a1.5,1.5,0,0,0-.1,3l7.85.59-.67-2.82-18.32,9.33,2.06,1.83,2.26-1.35.1-3-5.41.29.67,2.82,3.8-1.94A1.51,1.51,0,0,0,206.18,8.77Z"/></g><g class="cls-6"><path class="cls-4" d="M180.38,25.53l7.74-2.13-1.07-2.78L184.17,22c-1.48.7-.67,2.63.67,2.82,2.87.42,4.63-.52,7.18-1.66,3.75-1.69,7.52-3.31,11.28-5,1.48-.65.68-2.67-.67-2.82a10.7,10.7,0,0,0-6.46,1.18c-1.62.8-.53,3,1.07,2.78a30.24,30.24,0,0,0,7.66-2.19c1.37-.58.78-2.86-.67-2.82a9,9,0,0,0-6,2.17,1.51,1.51,0,0,0,.58,2.53,4.39,4.39,0,0,0,4.71-1.21,1.51,1.51,0,0,0-1.39-2.55l-9.09,2.7c-1.84.55-1.12,3.47.7,2.91l9.09-2.7-1.38-2.56-1.78.54.58,2.53,3.81-1.36-.67-2.82a27,27,0,0,1-6.93,1.9l1.07,2.78a6.66,6.66,0,0,1,4.93-.84l-.67-2.82L193.77,19c-2.75,1.21-5.83,3.16-8.87,2.71l.67,2.82,2.93-1.31a1.51,1.51,0,0,0-1.07-2.78l-7.75,2.13c-1.86.51-1.16,3.43.7,2.91Z"/></g><g class="cls-6"><path class="cls-4" d="M172.26,27.34l-4-.13a1.5,1.5,0,1,0-.1,3l4,.13a1.5,1.5,0,0,0,.1-3Z"/></g><g class="cls-6"><path class="cls-4" d="M172.06,26.06l-12.34,2.59c-1.89.39-1.19,3.31.7,2.91L172.76,29C174.66,28.58,174,25.66,172.06,26.06Z"/></g><g class="cls-6"><path class="cls-4" d="M166.26,27.07a11.7,11.7,0,0,0-7.08,2.38c-1.56,1.14.51,3.32,2,2.19a8.28,8.28,0,0,1,4.91-1.57c1.93,0,2-3,.1-3Z"/></g><g class="cls-6"><path class="cls-4" d="M196.71,14.15l-10-.33a1.5,1.5,0,0,0-.1,3l10,.33a1.5,1.5,0,1,0,.1-3Z"/></g><g class="cls-6"><path class="cls-4" d="M198.83,10a10.36,10.36,0,0,0-6.44,2.69,1.51,1.51,0,0,0,1.77,2.42l7.14-4.21c1.18-.69.91-3-.67-2.82a10.84,10.84,0,0,0-7.57,3.64c-1.26,1.44.78,3.65,2,2.19a7.87,7.87,0,0,1,5.42-2.82l-.67-2.82-7.2,4.2,1.74,2.42a7,7,0,0,1,4.29-1.86c1.91-.13,2-3.13.1-3Z"/></g><g class="cls-6"><path d="M189.22,23.94l-3.93-2.13c-1.69-.94-3.29,1.6-1.59,2.54l3.93,2.13C189.31,27.42,190.92,24.88,189.22,23.94Z"/></g><g class="cls-6"><path d="M190.58,17.94l-1,0a1.5,1.5,0,1,0-.1,3l1,0a1.5,1.5,0,0,0,.1-3Z"/></g><g class="cls-6"><path d="M195.93,14.33a12.89,12.89,0,0,0-6.19,5.74c-.57,1,.29,2.71,1.62,2.25l4.37-1.48-1.07-2.78-2.78,1.55a1.51,1.51,0,0,0,1,2.79A34.37,34.37,0,0,0,211.83,9.46a1.52,1.52,0,0,0-1.62-2.25c-2.6.62-3.57,2.88-2.51,5.3.79,1.76,3.43.33,2.64-1.42l.56-1-1.62-2.25a31,31,0,0,1-17.06,11.64l1.07,2.78,2.78-1.56c1.43-.79.6-3.34-1.07-2.78l-4.37,1.48,1.62,2.25a10.19,10.19,0,0,1,5.1-4.7c1.76-.79.32-3.43-1.42-2.64Z"/></g><g class="cls-6"><path d="M186.45,21.81l-1,0a1.5,1.5,0,0,0-.1,3l1,0a1.5,1.5,0,1,0,.1-3Z"/></g><g class="cls-6"><path d="M229.63,45.38a15.55,15.55,0,0,1,8.84-.81l.5-2.89-4.15-.22a1.5,1.5,0,0,0-.1,3l4.15.22c1.65.05,2.19-2.58.5-2.94a18.34,18.34,0,0,0-10.43.76c-1.77.68-1.12,3.6.7,2.91Z"/></g><g class="cls-6"><path d="M239.2,42.26l-.93-2a1.5,1.5,0,0,0-2.64,1.42l.93,2a1.5,1.5,0,1,0,2.69-1.33Z"/></g><g class="cls-6"><path d="M240.53,41.88l-11.72-6.53c-1.68-.94-3.28,1.6-1.59,2.54l11.73,6.51c1.68.94,3.28-1.6,1.59-2.54Z"/></g><g class="cls-6"><path d="M228.08,33.22a38.47,38.47,0,0,0-6.56-.12c-1.37.1-3,.15-3.89,1.36-1.7,2.27,1.74,5,3.44,2.63,1.13-1.58-1.42-3.17-2.57-1.61l-.17.22.92-.66q.39,1.42,1.43,1.15.52-.07,1-.1,1-.07,2.07-.08a39.5,39.5,0,0,1,4.15.2c1.92.18,2-2.81.1-3Z"/></g><g class="cls-6"><path d="M244,37.72l-10-.33a1.5,1.5,0,0,0-.1,3l10,.33a1.5,1.5,0,1,0,.1-3Z"/></g><g class="cls-6"><path d="M229,35.67a5.24,5.24,0,0,1-4.59,1.45c-1.88-.36-2.78,2.5-.9,2.86A8.38,8.38,0,0,0,231,37.86C232.39,36.53,230.35,34.34,229,35.67Z"/></g><g class="cls-6"><path d="M242.34,38.8a6.22,6.22,0,0,1,1.36-.42,2,2,0,0,1,.39,0c.45,0,0,.08.06,0s-.07-.05,0,0h0l-.06-.12h0c0,.25-.09.24,0,.07a.78.78,0,0,1,.46-.42c-1.86.52-1.16,3.43.7,2.91a2.67,2.67,0,0,0,1.4-4c-1.06-1.85-3.37-1.58-5.07-.95a1.55,1.55,0,0,0-1.06,1.82,1.51,1.51,0,0,0,1.82,1.06Z"/></g><g class="cls-6"><path d="M247.88,39.85l-13-.43a1.5,1.5,0,1,0-.1,3l13,.43a1.5,1.5,0,1,0,.1-3Z"/></g><g class="cls-6"><path d="M225.9,39.12l-4-.13a1.5,1.5,0,0,0-.1,3l4,.13a1.5,1.5,0,1,0,.1-3Z"/></g><g class="cls-6"><path d="M228.28,39.33a175.68,175.68,0,0,0-25.31-3,1.5,1.5,0,0,0-.1,3,170.13,170.13,0,0,1,24.51,2.81c1.88.36,2.78-2.5.9-2.86Z"/></g><g class="cls-7"><path d="M163.23,58.06l6.13.2-1-2.59c-.11.13,5,.71,5.58.75l4.32.27c1.93.12,2-2.87.1-3A78.19,78.19,0,0,0,170,53.2c-1.36.06-3,.53-3.5,1.95-.85,2.25,2.2,4.69,3.91,2.71a1.52,1.52,0,0,0-1-2.59l-6.13-.2a1.5,1.5,0,0,0-.1,3Z"/></g><g class="cls-7"><path d="M183.32,55.73l-1,0a1.5,1.5,0,0,0-.1,3l1,0a1.5,1.5,0,0,0,.1-3Z"/></g><g class="cls-7"><path d="M181.79,56.45l-.17.35,1.71-.63a2.36,2.36,0,0,0,1.28,2.63,18.3,18.3,0,0,0,2.06,1.32,27.35,27.35,0,0,0,2.55,1.25,29.17,29.17,0,0,0,7.47,2L196,60.54a3.24,3.24,0,0,0-2.21,3.32,1.51,1.51,0,0,0,1.85,1.51c4.32-1.62,8,.67,11.85,2.39,2.18,1,7.15,3.57,9.33,1.6l1.83-.17-.54-.27-1.25,2.7,21.2,7.32-.83-2.23c-1,1.47-2.8,2.91-1.58,4.79a2.5,2.5,0,0,0,3.06.81c1.8-.64,1.12-3.56-.7-2.91q1.37.78,1.76-1.08a1.52,1.52,0,0,0-.83-2.23l-21.18-7.34c-1.57-.54-2.79,1.91-1.25,2.7l.54.27a1.57,1.57,0,0,0,1.83-.17A2.44,2.44,0,0,0,220,69.18a1.5,1.5,0,0,0-.7-1.32c-1.68-.89-2.75-.68-4.61-.9-3.09-.37-5.86-2-8.65-3.19-3.68-1.61-7.12-2.76-11-1.31L196.85,64l.65-.78c1.53-.64.62-2.63-.67-2.82a26.65,26.65,0,0,1-10.59-4.08c-1.81-1.13-2.29-1.49-4.38-1.26a1.46,1.46,0,0,0-1,1,2.28,2.28,0,0,0,1.69,3.06,1.51,1.51,0,0,0,1.71-.63l.17-.35c.84-1.72-1.7-3.34-2.54-1.59Z"/></g><g class="cls-7"><path d="M173,49.77c1.87,1.06,5.86,4.3,8.17,2.46a2.39,2.39,0,0,0-.47-4c-1.16-.56-3.1.61-2.12,2a7.81,7.81,0,0,0,3.69,3.12c2.08.76,3.55,0,5.41,1.53a1.5,1.5,0,0,0,1.83-.17,4.5,4.5,0,0,0,1.63-2.8l-2.23.83,2.94,2a1.51,1.51,0,0,0,1.83-.17h.17a1.45,1.45,0,0,0,1.51,0,6.19,6.19,0,0,1,8.47.74,1.5,1.5,0,0,0,2.19-2,9.16,9.16,0,0,0-8.91-2.92c-1,.24-2.12.65-2.88.85-1.3.34-1.66-.05-2.63,1.08l1.83-.17-2.94-2a1.51,1.51,0,0,0-2.23.83l-.82,1.5,1.83-.17c-.93-.73-8.65-4.36-8.06-3.53l-2.13,2a5.35,5.35,0,0,0-2.5-2.39l-2-1.07c-1.69-.93-3.3,1.61-1.59,2.54Z"/></g><g class="cls-7"><path d="M126.36,45.07q-17.76-7.59-36.09-13.71c-1.83-.61-2.73,2.25-.9,2.86q18.32,6.12,36.09,13.71C127.24,48.7,128.12,45.82,126.36,45.07Z"/></g><g class="cls-7"><path d="M141.77,40.53q-16.4-2.6-32.55-6.37c-1.88-.43-2.77,2.43-.9,2.86q16.56,3.83,33.34,6.51c1.9.3,2-2.7.1-3Z"/></g><g class="cls-7"><path d="M153.67,44.73a325.44,325.44,0,0,1-49.9-3.87c-1.9-.29-2,2.71-.1,3a325.44,325.44,0,0,0,49.9,3.87C155.5,47.73,155.6,44.73,153.67,44.73Z"/></g><g class="cls-7"><path d="M119.67,43.74A309.23,309.23,0,0,1,82.23,38.5c-1.88-.38-2.78,2.48-.9,2.86a315.85,315.85,0,0,0,38.24,5.38C121.5,46.89,121.6,43.9,119.67,43.74Z"/></g><g class="cls-7"><path d="M16.11,29.18l3,.1a1.5,1.5,0,1,0,.1-3l-3-.1a1.5,1.5,0,0,0-.1,3Z"/></g><g class="cls-7"><path d="M58,33.47a384.1,384.1,0,0,0-42.5,2.83c-1.91.24-1.19,3.15.7,2.91a376.84,376.84,0,0,1,41.7-2.74c1.92,0,2-3,.1-3Z"/></g><g class="cls-7"><path d="M61.85,37.7l-46-1.52a1.5,1.5,0,1,0-.1,3l46,1.52a1.5,1.5,0,1,0,.1-3Z"/></g><g class="cls-7"><path d="M65.78,39.83l-6.57-.41c-2-.13-2,2.78-.1,3a265.65,265.65,0,0,1,38.6,7.4l.5-2.94A433,433,0,0,1,48.88,43l-.1,3a160.42,160.42,0,0,1,30.45,3.25l.5-2.94L54.8,45.39c-1.95-.06-2,2.81-.1,3a142,142,0,0,0,34-.71c1.76-.25,1.29-2.81-.3-3a142.24,142.24,0,0,0-33.74.88c-1.76.25-1.29,2.8.3,3A55,55,0,0,0,81,44.8a1.51,1.51,0,0,0-.27-2.75L59.34,37.74l-.5,2.94,29.73,3,.1-2.95L61,39.7l-.1,3,25.72.85a1.5,1.5,0,1,0,.1-3,67.18,67.18,0,0,1-21.3-4.31l-.9,2.86a98.58,98.58,0,0,0,24.17,2.47,1.51,1.51,0,0,0,.5-2.94A38.19,38.19,0,0,0,68.58,36.7a1.51,1.51,0,0,0-.1,2.89,83,83,0,0,0,23.88,1.87,1.5,1.5,0,0,0,.1-3L51.15,34.93l-.1,3,17.4,1.38.1-3L1.78,41c-1.89.13-2.1,2.93-.1,3l47.59,2.43-.3-3L20.28,46.5c-1.72.18-1.34,2.89.3,3a175.34,175.34,0,0,0,37.31-2.31c1.64-.28,1.39-3.08-.3-3a209.52,209.52,0,0,0-35.93,5.67,1.51,1.51,0,0,0,.3,3,69.06,69.06,0,0,0,22.13-1.06c1.61-.34,1.41-3.11-.3-3Q22.41,50.71,1.13,53.4c-1.93.25-1.18,3.11.7,2.91l14.36-1.53-.7-2.91-7.7,1.65c-1.88.41-1.19,3.32.7,2.91l7.7-1.65c1.94-.42,1.15-3.11-.7-2.91L1.13,53.4l.7,2.91q20.89-2.65,41.85-4.51l-.3-3a66.42,66.42,0,0,1-21.32,1l.3,3a204.87,204.87,0,0,1,35.12-5.59l-.3-3a171.47,171.47,0,0,1-36.5,2.22l.3,3,28.69-3.05c1.73-.18,1.33-2.88-.3-3L1.75,41l-.1,3,66.77-4.68a1.5,1.5,0,1,0,.1-3L51.12,34.9c-1.93-.15-2,2.83-.1,3l41.32,3.53.1-3a80.23,80.23,0,0,1-23.08-1.76l-.1,2.89A35.25,35.25,0,0,1,88.2,41.44l.5-2.94a95.26,95.26,0,0,1-23.38-2.33,1.5,1.5,0,0,0-.9,2.86,69.76,69.76,0,0,0,22.09,4.44l.1-3L60.9,39.63a1.5,1.5,0,1,0-.1,3l27.71,1c1.95.06,2-2.81.1-3l-29.73-3c-1.66-.16-2.17,2.6-.5,2.94l21.44,4.27-.27-2.75a51.79,51.79,0,0,1-24.48,3.43l.3,3a138.87,138.87,0,0,1,33-.8l-.3-3a138.72,138.72,0,0,1-33.23.64l-.1,3,24.92.93c1.64.05,2.2-2.58.5-2.94A164.8,164.8,0,0,0,48.88,43a1.5,1.5,0,1,0-.1,3,433,433,0,0,0,49.33,3.88,1.51,1.51,0,0,0,.5-2.94A271.16,271.16,0,0,0,59.21,39.4l-.1,3,6.57.41c1.93.12,2-2.87.1-3Z"/></g><g class="cls-7"><path d="M96.67,43.85l-23-.76a1.5,1.5,0,1,0-.1,3l23,.76a1.5,1.5,0,1,0,.1-3Z"/></g><g class="cls-7"><path d="M98.84,48.33a32,32,0,0,1-6.62-2.86L91,48.18a41.81,41.81,0,0,0,16.71,3.05,1.5,1.5,0,0,0,.1-3L104.89,48a1.51,1.51,0,0,0-.85,2.77A28,28,0,0,0,124.91,55a1.51,1.51,0,0,0,.1-2.89l-23.82-6-.5,2.94,9.59.32c2,.07,2-2.72.1-3a14.54,14.54,0,0,1-5.78-2.19l-1.25,2.7a34.28,34.28,0,0,1,7.51,4c1.59,1.1,3.18-1.45,1.59-2.54a37.21,37.21,0,0,0-8.22-4.27c-1.61-.61-2.67,1.81-1.25,2.7a18.08,18.08,0,0,0,7.29,2.64l.1-3-9.6-.32c-1.65-.05-2.17,2.51-.5,2.94l23.82,6,.1-2.93a24.86,24.86,0,0,1-18.59-3.87L104.74,51l2.93.28.1-3A39.89,39.89,0,0,1,91.86,45.3c-1.58-.63-2.71,1.91-1.25,2.7a35.31,35.31,0,0,0,7.31,3.19,1.5,1.5,0,0,0,.9-2.86Z"/></g><g class="cls-7"><path d="M67.29,44a251.65,251.65,0,0,0-29.15-7.27c-1.88-.35-2.78,2.51-.9,2.86a251.65,251.65,0,0,1,29.15,7.27,1.5,1.5,0,0,0,.9-2.86Z"/></g><g class="cls-7"><path d="M32.67,42.73l18.78.62a1.5,1.5,0,0,0,.1-3L32,39.71a1.51,1.51,0,0,0-.5,2.94A46.56,46.56,0,0,0,50.8,45.28c1.89-.14,2.1-2.93.1-3L35,41.76l-.1,3q28.76.87,57.34,4.16l.1-3L62.62,44.74a1.5,1.5,0,0,0-.1,3l29.69,1.17c2,.07,2-2.79.1-3Q63.73,42.63,35,41.76a1.5,1.5,0,0,0-.1,3l15.93.53.1-3a44.61,44.61,0,0,1-18.55-2.54l-.5,2.94,19.59.65.1-3-18.78-.62a1.5,1.5,0,0,0-.1,3Z"/></g><g class="cls-7"><path d="M66.72,41.86l22.68.75a1.5,1.5,0,1,0,.1-3,128.1,128.1,0,0,1-42-9.17l-.5,2.94a351.15,351.15,0,0,1,38.33,8.37l.5-2.94A415,415,0,0,1,34.7,27.92l-.9,2.86,46.42,9,.5-2.94a61.6,61.6,0,0,1-24.06-2.72,1.52,1.52,0,0,0-1.76,2.14A7,7,0,0,0,63,39.65a1.51,1.51,0,0,0-.3-3L14.91,35.11a1.5,1.5,0,0,0-.1,3h0l47.75,1.58-.3-3-4.73-1.87L55.77,37a63.68,63.68,0,0,0,24.87,2.82c1.52-.13,2.32-2.57.5-2.94l-46.44-9c-1.85-.36-2.79,2.33-.9,2.86a421.38,421.38,0,0,0,51.86,11.1c1.68.26,2.08-2.48.5-2.94A358.27,358.27,0,0,0,47,30.44c-1.77-.28-2,2.35-.5,2.94a130.62,130.62,0,0,0,42.85,9.29l.1-3-22.68-.75a1.5,1.5,0,1,0-.1,3Z"/></g><g class="cls-7"><path d="M136.91,50.24c11.5-1.57,20.81,11.08,32.48,5.37a1.52,1.52,0,0,0-.27-2.75,303,303,0,0,1-42-13.23l-.1,2.89c4.4-1.27,8.2,4.08,11.74,5.74s7.47,1.91,11,3.42c4.06,1.72,7.47,4.83,10.91,7.52l11.78,9.25-.22-2.37,1.73.37-.75,1.67c1.8-1.21,8.52,1.48,10.45,2.17,3.79,1.33,7.33,3.19,11,4.85,5.61,2.54,11,4.31,17.22,3.26,1.9-.33,1.2-3.24-.7-2.91-8.54,1.45-15.83-3.63-23.35-6.78-3.45-1.48-12.39-5.67-16-3.21a1.56,1.56,0,0,0-.75,1.67,2.13,2.13,0,0,0,1.54,1.7,1.45,1.45,0,0,0,1.47-.29l.23-.25a1.53,1.53,0,0,0-.22-2.37L160.87,55.49c-3.66-2.86-7.23-5.75-11.7-7.25-4.95-1.66-9.3-2.47-13.57-5.72-2.93-2.21-5.55-4-9.24-2.93a1.51,1.51,0,0,0-.1,2.89,303,303,0,0,0,42,13.23L168,53c-6.16,3-12.39-.41-18-3-4.52-2-8.76-3.35-13.72-2.68-1.91.26-1.2,3.17.7,2.91Z"/></g><g class="cls-7"><path d="M204.43,75.56c3.82,5.37,10.25,4.44,15.92,6.24,7.09,2.24,13.2,7.81,21,5.48a1.5,1.5,0,0,0-.7-2.91,12.73,12.73,0,0,1-6.68-.64l.58,2.53,3.89.29c1.09,1.57,3.74.12,2.64-1.42-2.11-3.07-5.78-3.66-8.58-1.05a1.52,1.52,0,0,0,.58,2.53,15.79,15.79,0,0,0,8.27.69l-.7-2.91c-6.52,1.95-12.13-2.65-17.95-4.89-4.7-1.81-12.52-.9-15.65-5.34-1.1-1.56-3.76-.12-2.64,1.42Z"/></g><g class="cls-7"><path d="M222.25,48.49l18.27,3.32.5-2.94a5.62,5.62,0,0,1-5.36-1.73l-1.14,2.52c6.59.12,13.18.32,19.76.35,2.52,0,5.8.19,6.42-2.85a1.52,1.52,0,0,0-1.79-1.91,10.3,10.3,0,0,1-7.58-1.63l-.85,2.77a78.77,78.77,0,0,0,16.73-1.34c1.89-.36,1.2-3.27-.7-2.91a75,75,0,0,1-16,1.24,1.51,1.51,0,0,0-.85,2.77,13.72,13.72,0,0,0,9.89,2l-1.73-1.87c-.42,2-20.84.43-23.22.39a1.52,1.52,0,0,0-1.14,2.52,8.79,8.79,0,0,0,7.45,2.68c1.5-.14,2.33-2.59.5-2.94l-18.25-3.35c-1.88-.34-2.78,2.52-.9,2.86Z"/></g><g class="cls-7"><path d="M172,54.94l15.32,3.19.51-2.93-3-.37a1.51,1.51,0,0,0-1.14,2.52,8.89,8.89,0,0,0,4.92,2.45,24.12,24.12,0,0,0,4.14.14c1.11,0,7.34-.68,7.34-.69l.22,2.37c4.06-4,7.44-3.28,12.55-1.49,3.54,1.24,7.07,2.51,10.61,3.76,2.44.86,4.84,2.05,7.35,2.08,1.63.05,3.4-.77,5.18-.72,1.26,0,2.51.21,3.76.22,2.92,0,6.51-.48,7.66-3.56.75-2-.09-5.18-1.07-7-1.5-2.72-2.79-2.17-5.92-2.4-1.93-.13-2,2.86-.1,3,2.4.17,3.17.18,3.8,2.75.68,2.72-.13,3.89-3.14,4.17a54.13,54.13,0,0,1-5.6-.25c-1.6-.05-3.08.41-4.63.5-2.45.13-5-1.17-7.36-2-5-1.78-10.25-4.24-15.51-5.17-4.73-.83-6.49.79-9.7,3.87a1.52,1.52,0,0,0,.22,2.37,2.09,2.09,0,0,0,3-2.83c-2.46-4.58-11.9-.39-15.59-3.72l-1,2.58,3,.37c1.66.21,2.16-2.59.5-2.94l-15.3-3.18c-1.88-.39-2.78,2.47-.9,2.86Z"/></g><g class="cls-7"><path d="M238,67.61l7.63,0-.3-3-.62.07,1.67.75c.28.52,7.67-3.82,8.57-4.31a1.51,1.51,0,0,0,.09-2.59L249.39,55l-.85,2.77,5.68,0c1,0,2-1.22,1.37-2.22a16,16,0,0,0-9.45-6.76l-.5,2.94,10.09.39a1.5,1.5,0,1,0,.1-3l-3.42-1.63L251.28,50a9.78,9.78,0,0,1,6.2,2l.84-2.74-4.64.18c-1.37.05-2.26,2-.85,2.77a69.54,69.54,0,0,1,14,9.9l1.53-2.46a61.53,61.53,0,0,1-11.2-4.37c-1.71-.87-3.33,1.67-1.59,2.54a65.64,65.64,0,0,0,11.91,4.7c1.35.38,2.7-1.39,1.54-2.45a72.7,72.7,0,0,0-14.53-10.42l-.85,2.77,4.63-.16a1.51,1.51,0,0,0,.85-2.77,11.29,11.29,0,0,0-7.69-2.51,1.52,1.52,0,0,0-1.14,2.52,6.94,6.94,0,0,0,5.5,2.58l.1-3-10.09-.39a1.51,1.51,0,0,0-.5,2.94A12.79,12.79,0,0,1,252.95,57l1.37-2.22-5.68,0a1.51,1.51,0,0,0-.85,2.77l5.6,3.47.09-2.6c-2.35,1.28-12,4.18-9.78,8.38a1.56,1.56,0,0,0,1.67.75l.62-.07c1.69-.2,1.37-3-.3-3l-7.63,0c-1.92,0-2,3-.1,3Z"/></g><g class="cls-7"><path d="M247.29,61.8l9.9,7.79L258.78,67a29.49,29.49,0,0,0-12.37-4.41,1.51,1.51,0,0,0-1.14,2.52l2.66,2.25c1.46,1.23,3.67-.81,2.19-2l-2.66-2.25-1.14,2.52a26,26,0,0,1,10.87,4c1.67,1.06,3-1.37,1.59-2.54l-9.9-7.8C247.36,58.07,245.78,60.61,247.29,61.8Z"/></g><g class="cls-7"><path d="M247.07,67.25a17.82,17.82,0,0,0-6.47-4.07c-1.54-.57-2.36,1.37-1.54,2.46a42.34,42.34,0,0,0,7.74,7.93l1.25-2.7A68,68,0,0,1,235,66a1.5,1.5,0,0,0-1.58,2.51,30.08,30.08,0,0,1,5.79,6.3L241,72.67,221.7,63.8c-1.34-.61-2.66,1.52-1.54,2.46l5.38,4.49,1.54-2.44a258.83,258.83,0,0,1-28-10.66l-.9,2.86a11.94,11.94,0,0,1,5,3.47l1.54-2.46a56.91,56.91,0,0,1-19.3-8.91c-1.57-1.12-3.17,1.43-1.59,2.54a59,59,0,0,0,20,9.25,1.51,1.51,0,0,0,1.54-2.46,15,15,0,0,0-6.34-4.28c-1.85-.69-2.61,2.09-.9,2.86a258.83,258.83,0,0,0,28,10.66c1.33.42,2.74-1.46,1.54-2.46l-5.36-4.5-1.54,2.46,19.31,8.89c1.15.53,2.49-1.12,1.76-2.14A35.68,35.68,0,0,0,235,66l-1.6,2.5a72,72,0,0,0,13.76,5.19A1.51,1.51,0,0,0,248.42,71a39.36,39.36,0,0,1-7.18-7.44L239.7,66a13.21,13.21,0,0,1,5.19,3.25c1.39,1.34,3.59-.7,2.19-2Z"/></g><g class="cls-7"><path d="M158.88,48.19l-12.77-4.69c-1.82-.67-2.7,2.2-.9,2.86L158,51c1.82.67,2.7-2.2.9-2.86Z"/></g><g class="cls-7"><path d="M212.27,57.68l-3.76-.24a1.51,1.51,0,0,0-.5,2.94q14,4.34,28.1,7.93c4.55,1.15,9.23,2,13.74,3.32,2.57.74,4.91,2.76,7.69,2.52,1.87-.17,2.1-2.93.1-3l-5.8-.19a1.5,1.5,0,0,0-.1,3l5.8.19.1-3c.68-.06-4.94-1.94-5.06-2-1.83-.45-3.67-.83-5.51-1.26q-6.42-1.51-12.81-3.18Q221.5,61.4,208.9,57.46l-.5,2.94,3.76.24c1.93.12,2-2.87.1-3Z"/></g><g class="cls-7"><path d="M259.14,67.46c1.73-2.5,3.62-5.57,2.62-8.73A5.2,5.2,0,0,0,255.88,55c-1.9.31-1.2,3.23.7,2.91,2.07-.34,2.61,2.4,2.26,3.83a13.23,13.23,0,0,1-2.26,4.16c-1.1,1.59,1.45,3.18,2.54,1.59Z"/></g><g class="cls-7"><path d="M146.56,47.49a3.53,3.53,0,0,1-2.65-1.64l-1.54,2.46a30.13,30.13,0,0,1,13.77,9.13c1.26,1.46,3.45-.59,2.19-2a33.09,33.09,0,0,0-15.06-9.94,1.51,1.51,0,0,0-1.54,2.46,6.89,6.89,0,0,0,4.74,2.59c1.9.28,2-2.72.1-3Z"/></g><g class="cls-7"><path d="M161.05,62.54a10.31,10.31,0,0,0-6.91-2.84,1.5,1.5,0,1,0-.1,3,7.12,7.12,0,0,1,4.79,1.89c1.41,1.31,3.61-.73,2.19-2Z"/></g><g class="cls-7"><path d="M169,68.65a69,69,0,0,1-11.46-12.2L156.38,59A9.71,9.71,0,0,1,162.93,61l1.25-2.7c-3.95-1.67-8.36-4.4-12.52-5.31-1.91-.41-.85-.26-3.12.15-3.47.63-6.3.57-9.56-1-1.7-.83-3.32,1.6-1.59,2.54l16.84,9.18a1.5,1.5,0,0,0,1.59-2.54,64.13,64.13,0,0,0-20-11c-1.58-.53-2.77,1.91-1.25,2.7l8.61,4.54,1.25-2.7-20.27-7.91c-1.62-.63-2.63,1.79-1.25,2.7a40.49,40.49,0,0,0,8.72,4.29l.9-2.86a69,69,0,0,1-15.21-4.63c-1.55-.67-2.75,1.91-1.25,2.7l15.34,8,1.25-2.7a84.71,84.71,0,0,0-40.07-6.38c-1.91.16-2,3.15-.1,3a82.85,82.85,0,0,1,39.27,6.22c1.56.65,2.75-1.91,1.25-2.7l-15.35-7.9-1.25,2.7A69,69,0,0,0,131.59,54a1.5,1.5,0,0,0,.9-2.86,37.17,37.17,0,0,1-8-4l-1.24,2.69,20.27,7.91c1.57.61,2.75-1.91,1.25-2.7l-8.61-4.54-1.27,2.72A61.85,61.85,0,0,1,154.22,63.9l1.59-2.54L139,52.17l-1.59,2.54a18.28,18.28,0,0,0,10.32,1.73c5.53-.5,10.5,2.6,15.59,4.75,1.68.72,2.48-1.74,1.25-2.7A11.05,11.05,0,0,0,156.48,56a1.52,1.52,0,0,0-1.14,2.52,69,69,0,0,0,11.46,12.2c1.46,1.22,3.67-.81,2.19-2Z"/></g></g></g></g></g></g></svg>