<svg xmlns="http://www.w3.org/2000/svg" viewBox="0 0 109 269.63"><defs><style>.cls-1{opacity:0.19;}.cls-2{opacity:0.94;}.cls-3{opacity:0.33;}.cls-4{fill:#662d91;}.cls-5{opacity:0.92;}.cls-6{opacity:0.41;}.cls-7{opacity:0.25;}</style></defs><title>lavender</title><g id="Слой_2" data-name="Слой 2"><g id="Слой_1-2" data-name="Слой 1"><g id="lavender"><g class="cls-1"><path d="M107.93,14.76l-4,3c-.76.58,0,1.88.76,1.3l4-3c.76-.58,0-1.88-.76-1.3Z" transform="translate(0 -0.27)"/></g><g class="cls-1"><path d="M85.33,58.8Q70,103.06,58.84,148.59,53.39,170.87,49,193.38c-1.47,7.5-2.88,15-4.16,22.55-.53,3.11-1.27,7.11,2.32,8.44.91.34,1.3-1.11.4-1.45-4.22-1.56.79-18.14,1.45-21.64q1.95-10.33,4.11-20.62,4.33-20.57,9.52-40.95Q73,99,86.77,59.2c.32-.91-1.13-1.31-1.45-.4Z" transform="translate(0 -0.27)"/></g><g class="cls-2"><path d="M74.48,42.55a549,549,0,0,0-25,104.92Q46,173.11,45,199q-.53,13.14-.42,26.3.05,6.58.27,13.15c0,1.38-.42,5.36.83,5.61-.34-.07-.81-6.9-.88-7.58-.06-.47-.81-.48-.75,0L45.1,246c.05.47.77.49.75,0A549.09,549.09,0,0,1,75.2,42.75c.16-.46-.57-.65-.72-.2Z" transform="translate(0 -0.27)"/></g><g class="cls-2"><path d="M41.22,40.31C50.49,108.39,33,176.88,42.07,245c.06.47.81.48.75,0-9-68.16,8.41-136.72-.88-204.87-.06-.48-.79-.27-.72.2Z" transform="translate(0 -0.27)"/></g><g class="cls-2"><path d="M54.8,34.45q2.78-6.29,1.68-1.51l-.6,3.91q-.6,3.91-1.2,7.82-1,6.85-2,13.7C51.3,67.54,50,76.72,48.93,85.92A574.57,574.57,0,0,0,44.49,145C43.81,183.9,49.44,222.44,56,260.7c.08.47.8.27.72-.2C50.17,222.31,44.56,183.83,45.24,145S51.88,67.58,57.81,29.23a.38.38,0,0,0-.55-.42,5.24,5.24,0,0,0-3.21,5.64c0,.48.79.48.75,0Z" transform="translate(0 -0.27)"/></g><g class="cls-2"><path d="M48.62,97.48A81,81,0,0,0,48,79.28c-.05-.34-.53-.33-.69-.09-2.84,4.37-5.19,10.85.27,14.29a.38.38,0,0,0,.55-.22A39.45,39.45,0,0,0,48.6,81.6a.38.38,0,0,0-.28-.36,12.1,12.1,0,0,0-4,0,.38.38,0,0,0-.28.36l-.1,3.9a.38.38,0,0,0,.75,0l.06-2.6q3.71-1.59,3.26,1.28a11.91,11.91,0,0,1,0,3.87,34.36,34.36,0,0,1-.43,3.74,2.6,2.6,0,0,1-2.41-2.44,8.72,8.72,0,0,1,.59-5.89c.54-1.32,1.32-4.62,1.81-1.31.24,1.61.33,3.25.42,4.87a80,80,0,0,1-.17,10.47c0,.48.71.48.75,0Z" transform="translate(0 -0.27)"/></g><g class="cls-2"><path d="M49.17,80.93A11.85,11.85,0,0,1,47,71.42l-.63.17,3.39,4.3c.23.3.74,0,.63-.36l-2-6.06a.38.38,0,0,0-.46-.26,5.7,5.7,0,0,0-3.9,6.4c.07.48.79.27.72-.2-.18-1.24.68-5.65,2.79-5,1,.32,1.79,4.25,2.13,5.29l.63-.36-3.39-4.3a.38.38,0,0,0-.63.17,12.58,12.58,0,0,0,2.23,10.09c.28.39.93,0,.65-.38Z" transform="translate(0 -0.27)"/></g><g class="cls-2"><path d="M50.29,73.66a7.9,7.9,0,0,1-3.59-4.92q-1.92-5.75,4-3.58c.29.33.78-.09.59-.45-.85-1.58-3.56-6.88-2.49-8.77s1.46-.91,3.44.46c.38.26.69-.28.45-.59a5.92,5.92,0,0,1-1.8-5.07q-1-3.21,2.89-2.17c.34.22.66-.2.51-.51a14.54,14.54,0,0,1-1.64-5.71c0-1.9-.21-3.74,1.47-.92a.38.38,0,0,0,.7-.19c.18-2.85-1.17-5.34-.77-8.12.15-1,.74-2.08.9-3.13A12.16,12.16,0,0,0,55,26.88q-.25-1.79.92,3.07c-.11.29.29.62.55.42,2-1.51,2.53-2.46,3.35.11s-.9,6-2.4,8.06c-.2.28.13.63.42.55q2,4.08-.77,6.57a2.52,2.52,0,0,0-.41.75c-.58,1.26-.37.46-.55,2.31,0,.21.19.36.38.38-.62,0,3.09.18,2.24-.31,3,1.69-.94,3.44-1.41,4.4-.86,1.76-1.78,1.83-1.24,4a.38.38,0,0,0,.72,0c1.79-4.57.5,4.19.78,3.12a17.92,17.92,0,0,1-2.24,5.13l-1.71,2.17q3.32,1,1.79,3.56c0,2-1.83,5.21-2.53,6.76-.19.43.41.81.65.38l.71-1.3q2.81,1.72.76,3.65a20.24,20.24,0,0,1-1.84,2.63,6.54,6.54,0,0,0-1.3,3.93c0,.35.54.54.7.19,1.86-4,.59,1.41.48,1.76a24.81,24.81,0,0,1-2.19,4.84c-.78,1.33-2.68,3.09-3.15,4.27l-.58,5.49a12,12,0,0,1-2.88,3.62c-.35.34.18.87.53.53,1.25-1.21,6.29-7,3.79-9.1a1.19,1.19,0,0,0-2,.71.38.38,0,0,0,.63.36,26.86,26.86,0,0,0,7.65-15.07c0-.3-.25-.61-.55-.42.07,0-2.13,1.23-1.78,1.51,0,0,2.05-3.07,2.23-3.32.9-1.27,1.77-2.06,2-3.68.25-1.85-.18-3.11-1.93-3.76a.38.38,0,0,0-.42.17c-1.64,3,.26.27.7-.48,1.14-2,1.5-4.84,2-7a.39.39,0,0,0-.26-.46c-1.87-.77-3.1-.31-4.17,1.34-.24.36.29.75.59.45a17.91,17.91,0,0,0,5.59-14.41.38.38,0,0,0-.56-.32c.07,0-2.06,1.46-1.7,1.61-.27-.12,3.34-4.07,3.79-5.06.67-1.49.59-2.64-.73-3.55a.38.38,0,0,0-.45.06q-1.46-2.32.57-3.64a14,14,0,0,0,.92-1.33A5.93,5.93,0,0,0,61,40.93c-.08-1.83-1.73-1.63-2.1-2.76-.14-.43,1-2.26,1.26-3.23A12.84,12.84,0,0,0,60,27.45a.38.38,0,0,0-.55-.22c.07-.05-2.35,1.88-2.43,1.84s.05-1.22-.06-1.36C56,26.46,56.2,25.82,54.57,25a.38.38,0,0,0-.55.42,8.82,8.82,0,0,1,.07,4.48,8.83,8.83,0,0,1-1.44,4.24c0,.08,0,.15,0,.24,0,1.08,3.3,8.6.11,3.22-.15-.25-.64-.25-.69.09a16.93,16.93,0,0,0,.4,7.79c.88,2.62.76,1.38-1.58,1.68a.4.4,0,0,0-.36.28,8.86,8.86,0,0,0-.09,5.93c1.07,3.07,1,1.52-1.71-.34a.38.38,0,0,0-.56.32,21.91,21.91,0,0,0,.11,5.22c.17,1.07,2,4.61,1.86,5.05.09-.41-2.58-1.1-3.59-.27-3.36,2.77,1,9.28,3.4,10.93.4.28.77-.37.38-.65Z" transform="translate(0 -0.27)"/></g><g class="cls-2"><path d="M46.47,78.85C52.24,77.59,58,75.28,62,70.76c2.5-2.82,4-6.47,5.59-9.86A135.23,135.23,0,0,0,73,47.28a44.77,44.77,0,0,0,1.72-6.33c.11-.67.43-5.5,1.48-4.88a.38.38,0,0,0,.56-.32c0-1.08-.4-4.77-.23-5-.1.12,2.18-.84,2.16-.83.51-.23.45-1.11.85-1.31,2.69-1.34,1.34,1.53,1.27,2.44-.16,2.12-.33-2.81.56.62.8,3.07-1.14,6.26-3.31,8.23a.38.38,0,0,0,.27.64c2.16-.21,2.76-1,2.4.76s-1.82,2.7-2,4.79c-.12,1.29.49,2.32,0,3.72-1,2.55-3.6,5.15-5.17,7.39-.18.26.07.54.32.56,5.52.55-2.34,8.48-2.56,11.07q-1.56,1.88,2.2.39a25,25,0,0,1-1.58,4.23,27.62,27.62,0,0,1-4.27,6.26c-.23.26,0,.75.36.63L69,83.63l-.94,1.72a46.31,46.31,0,0,1-2.35,4.29c-.41.81-1.55,2.33-.86,3.31.52.73,1,.72,1.81.39a.4.4,0,0,0,.28-.36l.06-.58a.38.38,0,0,0-.7-.19c-.77,1.76-5.42,8.86-4,10.93a1.27,1.27,0,0,0,2.21.15c.32-.36-.18-.87-.53-.53a22.91,22.91,0,0,0-6.24,10.61.38.38,0,0,0,.72.2,26.81,26.81,0,0,1,4-8c1.55-2.37,1.25-5.14,2.27-7.8.44-1.15,1.13-2.24,1.5-3.41,1.27-4,.39-4.69,2-7.7.63-1.16,1.79-2.66,2-3.95a3.87,3.87,0,0,0,.14-1.78c0,.08-1.66-1.95-1.54-1.44-.08-.36.29.08.72-.9,1.63-3.73,3.92-6.42,4.92-10.55a.38.38,0,0,0-.46-.46A6.73,6.73,0,0,0,69.86,71a.38.38,0,0,0,.65.38A51.9,51.9,0,0,0,77,57.82a.38.38,0,0,0-.36-.47c-2.85-.28-1.08-1.83,0-3.42l3.62-5.18a.37.37,0,0,0,0-.38c-2-3.13.47-6.14,2.46-8.31.2-.22.08-.67-.27-.64-4.28.42-2.14-.18-1-2.95a10.27,10.27,0,0,0,0-7.58.38.38,0,0,0-.72,0L79.65,33c-.1.4.49.68.69.29a19.74,19.74,0,0,0,2-7.31.38.38,0,0,0-.28-.36c-1.58-.41-5.84,3.6-5.55,4a.38.38,0,0,0-.7.19c0,.19-.13,5.06.12,5.21a.37.37,0,0,0-.38,0c-2.1,1.61-1.39,4.89-1.94,7.27a86.75,86.75,0,0,1-4.41,12.92,80.24,80.24,0,0,1-5.85,12.4c-3.77,6-10.36,9-17.09,10.47-.47.1-.27.83.2.72Z" transform="translate(0 -0.27)"/></g><g class="cls-2"><path d="M41.89,73.73c-2-5.17-5.46-11.2-5.82-16.78-.17-2.73-2.05-6.73,1.2-7.37a.38.38,0,0,0,.22-.55c-1.89-3-1.64-5.28-1.82-8.69-.19-3.62-.89-7.2-1-10.84a118.52,118.52,0,0,1,1.48-20c0-.06.51-2.81.15-2.72s3.51,1.41.66.85c-.09,0,1.51.53,1.52.55.17.15.55-.09.63,0,1.34,1.14.68,3.62,1,5.12a4.13,4.13,0,0,0,2.07,3.9l-.07,1.92a38.7,38.7,0,0,1-.22,5.76c0,.49.71.47.75,0L44,26.18v7.32l0,9.16a.38.38,0,0,0,.7.19c-.23.31,1.46,6,1.48,7.09,0,1.55,0,3.09-.13,4.63A50.92,50.92,0,0,1,43.9,65.36a.38.38,0,0,0,.72.2,50.39,50.39,0,0,0,2.3-15.62c0-2.42.51-6.74-2.05-8a.39.39,0,0,0-.51.13c1.48-2,.4-8.87.4-11.29,0-1.4,1-5.88-.73-7-.32-.2-1-.13-1.17-.31-2.3-2,.55,3.12-.54.1-.44-1.22,2.46-9.09-.79-9.73a1.36,1.36,0,0,0-1.41,2.23.38.38,0,0,0,.64-.27,29,29,0,0,0-.72-8.49.38.38,0,0,0-.55-.22L36.89,5.74c-.06-.37-.65-.35-.72,0A96.32,96.32,0,0,0,34,31.33c.19,3.57.58,7.07.71,10.63.1,2.7,2.44,6.88-.68,7.49a.38.38,0,0,0-.22.55c1.68,3.2.93,5,1.27,8.29a30.12,30.12,0,0,0,1.36,3.55l4.72,12.09c.17.44.9.25.72-.2Z" transform="translate(0 -0.27)"/></g><g class="cls-2"><path d="M38.27,71.32a4.15,4.15,0,0,0-4.4-6.14.37.37,0,0,0-.28.36A39.29,39.29,0,0,0,42,86.32a.38.38,0,0,0,.63-.17,5,5,0,0,0-1.19-5,.38.38,0,0,0-.53,0,10,10,0,0,0,3.64,15.91c.45.18.64-.54.2-.72a8.91,8.91,0,0,1-5.47-7c-.47-2.49,1.21-5.42.94-6.73-.5-2.46-3-5.34-3.87-7.8-.36-1-.67-2-.94-3.07q-.31-1.16-.52-2.35-.81-2.86,2.75,1.53c-.23.43.42.8.65.38Z" transform="translate(0 -0.27)"/></g><g class="cls-3"><path class="cls-4" d="M39.67,38.59,42,29.83a1.51,1.51,0,0,0-2.74-1.16A13,13,0,0,0,37,38.49c.23,1.69,3,1.26,2.95-.4L39.63,8.14c0-1.41-2.12-2.15-2.8-.76a40.51,40.51,0,0,0-3.49,25.26c.26,1.48,2.56,1.38,2.89,0l3.12-12.91-2.2.9L39,22.69c.37,1.1,2.17,1.62,2.74.36l2.48-5.45-2.74-1.16a109.3,109.3,0,0,0-2.59,27.85,1.51,1.51,0,0,0,2.95.4,31.08,31.08,0,0,0,1.88-16.28c-.23-1.7-3-1.25-2.95.4l.1,17.94,2.95-.4a69.92,69.92,0,0,1-2.64-16.07,1.51,1.51,0,0,0-2.95-.4A40.35,40.35,0,0,0,36.94,46c.22,1.86,3,2,3,0l-.06-13a1.5,1.5,0,0,0-3,0V47.71h3V30.94a1.5,1.5,0,0,0-3,0l-.06,15.33c0,1.64,2.66,2.11,2.95.4A23.74,23.74,0,0,0,37.7,31.92c-.66-1.38-2.8-.66-2.8.76l0,22.31a1.51,1.51,0,0,0,2.8.76l2.2-3.53-2.36.3a10.72,10.72,0,0,1,2.21,2.93,1.52,1.52,0,0,0,2.74-.36l3.18-8-2.95-.4a11.78,11.78,0,0,1-1.91,6.82L43.45,55a15.87,15.87,0,0,0,2.42-9.83c-.13-1.91-3-2-3,0l0,5.08a1.5,1.5,0,0,0,3,0l-.09-16.78C45.8,31,47,26.59,44.64,25a1.52,1.52,0,0,0-1.82.23c-2.91,2.64-.89,9.51-.7,12.94l1.1,20.11c.1,1.92,3.09,1.94,3,0L45.78,49,43.21,50a5.92,5.92,0,0,1,.54,7.64l2.8.76L45.39,48.35a1.52,1.52,0,0,0-2.56-1.06,5,5,0,0,0-1.94,4.83c.12,1.19,1.61,2.11,2.56,1.06a2.68,2.68,0,0,0-2-4.5c-4.93,0-1.72,7-2.55,9.17l2.95.4,0-7.45h-3l0,11.46c0,1.63,2.71,2.12,2.95.4A15.59,15.59,0,0,0,39.73,52a1.51,1.51,0,0,0-2.8.76,35.16,35.16,0,0,0,1,12.73c.35,1.35,2.65,1.51,2.89,0a15.08,15.08,0,0,0-2.4-11.43,1.51,1.51,0,0,0-2.74,1.16l3.09,11.92a1.51,1.51,0,0,0,2.89,0,23.88,23.88,0,0,1,2.11-5.72L41,60.7l-.1,7.37h3a10,10,0,0,1,2-6.31L43,61a32.45,32.45,0,0,1-3.12,12.88h2.59A17.87,17.87,0,0,1,38.9,64.8h-3l1,8.79c.18,1.53,2.6,2.21,2.95.4A6.06,6.06,0,0,0,38,67.78c-1.31-1.26-3,.32-2.36,1.82a41.1,41.1,0,0,1,3.32,16.66h3l-.06-7a1.5,1.5,0,0,0-3,0L38.79,88a1.51,1.51,0,0,0,2.8.76A19,19,0,0,0,44,77.82a1.5,1.5,0,0,0-3,0A54.52,54.52,0,0,0,43,99a1.51,1.51,0,0,0,2.89,0,82.25,82.25,0,0,0,2.4-20.71l-2.95.4a25.25,25.25,0,0,1,1.44,13.14c-.29,1.87,2.54,2.71,2.89.8q1.48-8.14,3.74-16.08l-2.89-.8L47.88,92c-.25,1.52,2,2.85,2.74,1.16A41,41,0,0,0,53.4,69.4a1.51,1.51,0,0,0-2.51-.66,7.13,7.13,0,0,0-2,5.56,1.5,1.5,0,0,0,3,0l.08-7a1.51,1.51,0,0,0-2.95-.4l-2.27,7.62a1.51,1.51,0,0,0,2.51,1.46,9.17,9.17,0,0,0,.89-12.35,1.53,1.53,0,0,0-2.74.36,7.61,7.61,0,0,0,.76,7.23,1.51,1.51,0,0,0,2.59,0,7.43,7.43,0,0,0-1.52-9.38,1.51,1.51,0,0,0-2.51,1.46l.65,4c.22,1.35,2.12,1.36,2.74.36a11.68,11.68,0,0,0,1.48-9.65l-1.85,1.85,1.26.9c.58,1.49,3,1.41,2.95-.4l-.07-7.53a1.5,1.5,0,0,0-3,0,5.78,5.78,0,0,0,1.72,4.75,1.51,1.51,0,0,0,2.51-.66A24.24,24.24,0,0,0,55.61,47l-1.85,1.85c4.37,1.55,6.09-4.62,1.53-5.55l1,1.85a33.65,33.65,0,0,0,1.5-14.33,1.5,1.5,0,0,0-3,0,22.78,22.78,0,0,0,1.1,10.11,1.52,1.52,0,0,0,2.74.36,14.82,14.82,0,0,0,2.87-11c-.19-1.53-2.54-2.2-2.95-.4L56.2,40.57c-.5,2.22-1.73,5.11-1.38,7.38s3,3.71,4.62,1.63l-2.51-1.46a14.26,14.26,0,0,1-3.24,7.51l2.12,2.12a23.2,23.2,0,0,0,4.34-8.48c.52-1.9-2.22-2.57-2.89-.8A74.48,74.48,0,0,0,52.7,68.58c-.11,1.24,1.33,1.73,2.26,1.3a4.94,4.94,0,0,0,2.82-6.17c-.34-1.36-2.65-1.5-2.89,0C52.81,76.78,49,89.58,45.71,102.38a1.51,1.51,0,0,0,2.74,1.16l3.36-4.77-2.74-1.16a61,61,0,0,1-6.48,11.78c-1.11,1.59,1.49,3.09,2.59,1.51A64.7,64.7,0,0,0,52,98.41c.69-1.67-1.83-2.44-2.74-1.16L45.86,102l2.74,1.16c3.29-12.8,7.1-25.6,9.18-38.67H54.89l-1.45,2.78,2.26,1.3a71.5,71.5,0,0,1,4.47-19.31l-2.89-.8a19.32,19.32,0,0,1-3.57,7.15c-1.18,1.49.88,3.62,2.12,2.12a17,17,0,0,0,4-8.84c.18-1.27-1.45-2.79-2.51-1.46,1.45-1.84,1.65-5.58,2.17-7.88l2-9-2.95-.4a12.62,12.62,0,0,1-2.46,9.53l2.74.36a21.27,21.27,0,0,1-1-9.31h-3a31.38,31.38,0,0,1-1.4,13.54,1.51,1.51,0,0,0,1,1.85l.06-.24c-1.2-.43-2,.83-1.85,1.85A20.54,20.54,0,0,1,52.2,56l2.51-.66-.84-2.63h-3l.07,7.53,2.95-.4a4,4,0,0,0-3.35-3,1.52,1.52,0,0,0-1.85,1.85,8.53,8.53,0,0,1-1.18,7.34l2.74.36-.65-4-2.51,1.46q2.81,2.35,1.05,5.75h2.59a4.35,4.35,0,0,1-.46-4.92l-2.74.36c2.19,2.86,2.16,6.09-.43,8.71l2.51,1.46,2.27-7.62-2.95-.4-.08,7h3L53,70.86l-2.51-.66A37.38,37.38,0,0,1,48,91.61l2.74,1.16,2.69-16.21c.31-1.87-2.35-2.69-2.89-.8q-2.26,8-3.74,16.08l2.89.8A28.19,28.19,0,0,0,48.27,77.9c-.57-1.51-3-1.4-2.95.4A79.09,79.09,0,0,1,43,98.21h2.89a52.34,52.34,0,0,1-2-20.39H41a16.32,16.32,0,0,1-2,9.43l2.8.76.09-8.73h-3l.06,7a1.5,1.5,0,0,0,3,0A44.71,44.71,0,0,0,38.2,68.09L35.85,69.9,37,73.2l2.95.4-1-8.79c-.22-1.89-3.2-1.93-3,0a20.77,20.77,0,0,0,4,10.59c.6.81,2.06,1.12,2.59,0A36.54,36.54,0,0,0,46,61c.06-1.59-2-1.9-2.8-.76a12.65,12.65,0,0,0-2.38,7.82,1.5,1.5,0,0,0,3,0L44,60.7a1.51,1.51,0,0,0-2.8-.76,28.36,28.36,0,0,0-2.41,6.43h2.89L38.55,54.45l-2.74,1.16a12,12,0,0,1,2.09,9.12H40.8a32.76,32.76,0,0,1-.86-11.93l-2.8.76a12,12,0,0,1,1.76,8.31l2.95.4,0-11.46a1.5,1.5,0,0,0-3,0l0,7.45c0,1.79,2.36,1.9,2.95.4s-.76-7.26-.45-7.59l2.56,1.06L45,49.41l-2.56-1.06,1.15,10.07a1.51,1.51,0,0,0,2.8.76,8.79,8.79,0,0,0-1-11.27A1.51,1.51,0,0,0,42.78,49l.44,9.3h3l-.83-15.32L45,35.29c-.08-1.41-1.15-6.93,0-7.95l-1.82.23c-.25-.17-.31,5-.31,4.9l0,5.92.07,11.84h3l0-5.08h-3a13.28,13.28,0,0,1-2,8.32c-1,1.66,1.55,3.13,2.59,1.51a13.37,13.37,0,0,0,2.32-8.34,1.51,1.51,0,0,0-2.95-.4l-3.18,8,2.74-.36a19.55,19.55,0,0,0-2.68-3.54,1.52,1.52,0,0,0-2.36.3l-2.2,3.53,2.8.76,0-22.31-2.8.76a20.17,20.17,0,0,1,1.75,12.44l2.95.4.06-15.33h-3V47.71a1.5,1.5,0,0,0,3,0V33h-3l.06,13h3a38.18,38.18,0,0,1,1.23-15.33l-2.95-.4A73.31,73.31,0,0,0,41,47.14a1.51,1.51,0,0,0,2.95-.4l-.1-17.94-2.95.4A28.16,28.16,0,0,1,39,43.9l2.95.4a106,106,0,0,1,2.48-27.05c.35-1.57-2-2.78-2.74-1.16L39.2,21.54l2.74.36A5.65,5.65,0,0,0,38.67,18a1.52,1.52,0,0,0-2.2.9L33.34,31.85h2.89a37,37,0,0,1,3.19-23l-2.8-.76L37,38.09l2.95-.4a9.75,9.75,0,0,1,1.93-7.5L39.11,29l-2.34,8.76a1.5,1.5,0,0,0,2.89.8Z" transform="translate(0 -0.27)"/></g><g class="cls-3"><path class="cls-4" d="M59.11,107.24a37.37,37.37,0,0,0,9-16A1.51,1.51,0,0,0,65.39,90,15.55,15.55,0,0,0,63,100.2l2.95-.4a24.48,24.48,0,0,1,1.4-12.12c.67-1.81-2.23-2.6-2.89-.8A27.51,27.51,0,0,0,63,100.6c.23,1.66,3.11,1.28,2.95-.4a12.92,12.92,0,0,1,2-8.64L65.24,90.4A34.06,34.06,0,0,1,57,105.12c-1.33,1.4.79,3.53,2.12,2.12Z" transform="translate(0 -0.27)"/></g><g class="cls-3"><path class="cls-4" d="M65.35,82.25,62.82,89l2.95.4a5.83,5.83,0,0,1,2.07-5.45l-2.51-1.46L58.49,99.74l2.89.8L69.3,74.89l-2.95-.4A9.74,9.74,0,0,1,64.69,81l2.74,1.16c.69-3.7,1.37-7.4,2.07-11.09.61-3.23,1-7.21,4.39-8.69l-2.2-.9L71.42,64l2.51,1.46,3.64-11.58c.76-2.42,2.54-5.63,2.23-8.23S76.54,42,75.06,44.37l2.74,1.16a7.4,7.4,0,0,1,1.91-4l-2.8-.76-1.45,2.5,2.26,1.3A21.86,21.86,0,0,1,81.29,33l-2.74-1.16L69,59.72l2.89.8L79.56,31l-2.95-.4c.83,11.9-4.33,22.55-9.61,32.88l2.8.76.2-5.48a1.51,1.51,0,0,0-2.95-.4,77.62,77.62,0,0,0-2.17,8.9l-2.95-.4-1.87,22.2L62.62,88l-.67-1.83c.33-1.87-2.49-2.71-2.89-.8L56.47,97.73c-.33,1.56,2,2.79,2.74,1.16,1.28-2.82.95-5.33-1.4-7.47a1.51,1.51,0,0,0-2.51.66,24.73,24.73,0,0,0,1.62,15.24c.76,1.77,3.35.24,2.59-1.51A21.14,21.14,0,0,1,58.2,92.88l-2.51.66.93,3.84,2.74,1.16,2.58-12.34-2.89-.8a4.5,4.5,0,0,0,1.44,4.75,1.52,1.52,0,0,0,2.56-1.06l1.87-22.2c.14-1.67-2.67-2.07-2.95-.4-.32,2,1,4,3.29,3.35,3.39-1,3.95-8.15,4.67-10.66L67,58.78l-.2,5.48a1.51,1.51,0,0,0,2.8.76c5.51-10.78,10.89-22,10-34.39-.11-1.62-2.5-2.12-2.95-.4L69,59.72a1.5,1.5,0,0,0,2.89.8l9.57-27.88C82,31,79.59,30.1,78.7,31.49a24.73,24.73,0,0,0-4,13.1A1.52,1.52,0,0,0,77,45.88a4.51,4.51,0,0,0,2.93-5.09,1.52,1.52,0,0,0-2.8-.76,12,12,0,0,0-2.21,4.69,1.51,1.51,0,0,0,2.74,1.16C74.32,51.16,73,58.55,71,64.64a1.51,1.51,0,0,0,2.51,1.46,4.8,4.8,0,0,0,1-5.46,1.54,1.54,0,0,0-2.2-.9c-2.72,1.18-4,3.48-4.86,6.23-1.5,4.93-2,10.29-3,15.35a1.51,1.51,0,0,0,2.74,1.16,11.17,11.17,0,0,0,2.07-8,1.51,1.51,0,0,0-2.95-.4L58.49,99.74c-.58,1.88,2.2,2.55,2.89.8l6.84-17.28c.57-1.44-1.52-2.46-2.51-1.46a9.5,9.5,0,0,0-3,7.58,1.51,1.51,0,0,0,2.95.4L68.24,83c.68-1.81-2.22-2.59-2.89-.8Z" transform="translate(0 -0.27)"/></g><g class="cls-3"><path class="cls-4" d="M41.87,14.49,41.7,10a1.51,1.51,0,0,0-2.8-.76,9.77,9.77,0,0,0-2.07,6c-.08,2,2.84,1.9,3,0A14.12,14.12,0,0,0,37.6,6a1.51,1.51,0,0,0-2.8.76l.07,8.46a1.5,1.5,0,0,0,3,0V10.74a1.5,1.5,0,0,0-3,0V37.19a1.5,1.5,0,0,0,3,0v-6.7a1.5,1.5,0,0,0-3,0v6.7a1.5,1.5,0,0,0,3,0V10.74h-3v4.52h3L37.81,6.8,35,7.56a11.61,11.61,0,0,1,1.83,7.68h3a6.1,6.1,0,0,1,1.66-4.51L38.7,10l.17,4.52c.07,1.92,3.07,1.93,3,0Z" transform="translate(0 -0.27)"/></g><g class="cls-3"><path class="cls-4" d="M34.72,34.55l1.33,11.31c.27,2.26.09,5.29,1,7.41s3.15,3.1,5,1.31a1.5,1.5,0,0,0,.39-1.46c-.36-1.23-.72-1.48-1.9-2a1.51,1.51,0,0,0-1.46.39c-2.94,2.38-3,6.55.52,8.43,1.7.91,3.22-1.68,1.51-2.59L40.73,54a17.69,17.69,0,0,1-1.35-5.34c-.25-1.55-.37-3.15-.55-4.71l-1.11-9.42c-.22-1.89-3.23-1.92-3,0Z" transform="translate(0 -0.27)"/></g><g class="cls-3"><path class="cls-4" d="M36.87,58.49v1a1.5,1.5,0,0,0,3,0v-1a1.5,1.5,0,0,0-3,0Z" transform="translate(0 -0.27)"/></g><g class="cls-3"><path class="cls-4" d="M37.08,59.25l2,4c.86,1.73,3.45.21,2.59-1.51l-2-4c-.86-1.73-3.45-.21-2.59,1.51Z" transform="translate(0 -0.27)"/></g><g class="cls-3"><path class="cls-4" d="M36.7,59l2.41,5.83a1.55,1.55,0,0,0,1.85,1A1.51,1.51,0,0,0,42,64L39.6,58.19a1.55,1.55,0,0,0-1.85-1,1.51,1.51,0,0,0-1,1.85Z" transform="translate(0 -0.27)"/></g><g class="cls-3"><path class="cls-4" d="M39,62.13a7,7,0,0,0,2.61,7.62,1.51,1.51,0,0,0,2.05-.54,1.54,1.54,0,0,0-.54-2.05,3.94,3.94,0,0,1-1.23-4.23c.55-1.86-2.35-2.65-2.89-.8Z" transform="translate(0 -0.27)"/></g><g class="cls-3"><path class="cls-4" d="M40.37,70h1a1.5,1.5,0,0,0,0-3h-1a1.5,1.5,0,0,0,0,3Z" transform="translate(0 -0.27)"/></g><g class="cls-3"><path class="cls-4" d="M39.06,67.27a10.37,10.37,0,0,1,1.83,7.23c-.2,1.92,2.8,1.9,3,0a12.94,12.94,0,0,0-2.23-8.74c-1.09-1.58-3.69-.08-2.59,1.51Z" transform="translate(0 -0.27)"/></g><g class="cls-3"><path class="cls-4" d="M37.25,71.84A4.37,4.37,0,0,0,40,78.06c1.88.46,2.68-2.43.8-2.89a1.34,1.34,0,0,1-.91-1.82c.9-1.7-1.68-3.22-2.59-1.51Z" transform="translate(0 -0.27)"/></g><g class="cls-3"><path class="cls-4" d="M40.37,73h-2a1.5,1.5,0,0,0,0,3h2a1.5,1.5,0,1,0,0-3Z" transform="translate(0 -0.27)"/></g><g class="cls-3"><path class="cls-4" d="M35.31,73.55l4,4a1.5,1.5,0,0,0,2.12-2.12l-4-4a1.5,1.5,0,0,0-2.12,2.12Z" transform="translate(0 -0.27)"/></g><g class="cls-3"><path class="cls-4" d="M41.07,52.43,38.54,46.1a1.52,1.52,0,0,0-2.74-.36A6.31,6.31,0,0,0,36.9,54c1.48,1.22,3.61-.89,2.12-2.12a3.37,3.37,0,0,1-.63-4.67l-2.74-.36,2.53,6.33c.71,1.77,3.61,1,2.89-.8Z" transform="translate(0 -0.27)"/></g><g class="cls-3"><path class="cls-4" d="M36.87,44.49v2a1.5,1.5,0,0,0,3,0v-2a1.5,1.5,0,0,0-3,0Z" transform="translate(0 -0.27)"/></g><g class="cls-3"><path class="cls-4" d="M32.9,36.5A3.35,3.35,0,0,0,36.37,40a1.5,1.5,0,0,0,0-3H36.1c.17,0,.1,0,0,0,.14.08.07,0,0,0s0,.05-.08-.06.09.17,0,0l-.08-.13c.1.16,0-.21,0,0s0-.2,0-.21A1.51,1.51,0,0,0,34.4,35a1.54,1.54,0,0,0-1.5,1.5Z" transform="translate(0 -0.27)"/></g><g class="cls-3"><path class="cls-4" d="M32.87,36.49v4a1.5,1.5,0,0,0,3,0v-4a1.5,1.5,0,0,0-3,0Z" transform="translate(0 -0.27)"/></g><g class="cls-3"><path class="cls-4" d="M34.37,32h2a1.5,1.5,0,1,0,0-3h-2a1.5,1.5,0,0,0,0,3Z" transform="translate(0 -0.27)"/></g><g class="cls-3"><path class="cls-4" d="M34.87,24.49v2a1.5,1.5,0,0,0,3,0v-2a1.5,1.5,0,0,0-3,0Z" transform="translate(0 -0.27)"/></g><g class="cls-3"><path class="cls-4" d="M35.08,16.15a9.82,9.82,0,0,0,2.12,9.51c1.28,1.45,3.4-.68,2.12-2.12A6.73,6.73,0,0,1,38,16.94c.57-1.85-2.32-2.64-2.89-.8Z" transform="translate(0 -0.27)"/></g><g class="cls-3"><path class="cls-4" d="M43.08,11.85,40.42,9.49a1.51,1.51,0,0,0-2.12,0,5.61,5.61,0,0,0-1.19,5.15c.38,1.61,3.14,1.31,2.95-.4a19.23,19.23,0,0,0-2.71-8,1.51,1.51,0,0,0-2.74,1.16l2.95,13.41c.41,1.88,3.31,1.09,2.89-.8L37.5,6.55,34.76,7.7a15.67,15.67,0,0,1,2.3,6.53l2.95-.4.42-2.23H38.3L41,14c1.44,1.28,3.57-.84,2.12-2.12Z" transform="translate(0 -0.27)"/></g><g class="cls-3"><path class="cls-4" d="M40.37,28a1.5,1.5,0,0,0,0-3,1.5,1.5,0,0,0,0,3Z" transform="translate(0 -0.27)"/></g><g class="cls-3"><path class="cls-4" d="M45.84,37.66A59.21,59.21,0,0,1,41.28,21L39,22.33a3.39,3.39,0,0,1,1.85,3.91h3V20.08l-1.5,1.5c1.38.1,0-3.22-1.26-3.43a2.2,2.2,0,0,0-2.29,1.29,1.52,1.52,0,0,0,.54,2.05l.26.13c1.74.82,3.26-1.76,1.51-2.59l-.26-.13.54,2.05c-.86,1.62-1.27,0-.71,1.24a2,2,0,0,0,3.43.15,2.32,2.32,0,0,0-1.75-3.76,1.52,1.52,0,0,0-1.5,1.5v6.16c0,2,2.82,1.89,3,0a6.49,6.49,0,0,0-3.34-6.5c-.89-.54-2.4.14-2.26,1.3a64.19,64.19,0,0,0,5,18.14c.77,1.76,3.36.24,2.59-1.51Z" transform="translate(0 -0.27)"/></g><g class="cls-3"><path class="cls-4" d="M60,104.06a6.28,6.28,0,0,1,3-7l-2.2-1.69a17.35,17.35,0,0,1-3.26,5.82L59.87,103l2.8-5.72-2.36.3-.42,1.92,1.85,1.85q3.63-8.77,6.44-17.81l-2.95-.4a4.36,4.36,0,0,1-1.81,4.44L66,88.66c0-1.64-.3-4.26.1-5.85.5-2,2-2.87,3.29-4.27a38.23,38.23,0,0,0,5.14-7c.73-1.24-.77-2.92-2.05-2.05l-2.6,1.76,2.2,1.69,1.57-2.81c1.18-1.16-.42-3.4-1.82-2.36l.2-1.91A1.51,1.51,0,0,0,69.67,64l-2.3,2.17,2.56,1.06a3.91,3.91,0,0,1,2.9-3.74,1.56,1.56,0,0,0,1.1-1.45l-.06-1.57c-.07-1.92-3.07-1.93-3,0l.06,1.57L72,60.61a7.54,7.54,0,0,0-5.1,6.63c-.18,1.37,1.71,1.86,2.56,1.06l2.3-2.17-2.36-1.82c-.8,1.82-1.76,4.11-.06,5.77a3,3,0,0,0,4,.24L71.52,68a7.61,7.61,0,0,0-2.34,4.13c-.28,1.19,1.06,2.47,2.2,1.69L74,72,71.93,70a35.35,35.35,0,0,1-4.67,6.43c-1,1.07-3,2.18-3.7,3.38C62.28,82.15,63,86,63,88.66a1.52,1.52,0,0,0,2.56,1.06,7.7,7.7,0,0,0,2.69-6.56,1.51,1.51,0,0,0-2.95-.4q-2.82,9.06-6.44,17.81c-.46,1.12.85,2.09,1.85,1.85a4,4,0,0,0,1.75-6.93,1.52,1.52,0,0,0-2.36.3l-2.8,5.72c-.7,1.42,1.2,3.22,2.36,1.82a22.57,22.57,0,0,0,4-7.15,1.51,1.51,0,0,0-2.2-1.69,9.45,9.45,0,0,0-4.41,10.36c.37,1.89,3.26,1.09,2.89-.8Z" transform="translate(0 -0.27)"/></g><g class="cls-3"><path class="cls-4" d="M53.26,98.69c.84-2.16,1.44-4.87,2.92-6.69.59-.72,1.76-1.08,2.41-1.92a6.7,6.7,0,0,0,1.09-5.92L57.84,86l1,2h3a9.27,9.27,0,0,1,1.91-6.42L61,80.82l-.09,3.42h3c0-1.82-.32-4,0-5.85.4-2,.89-1.62,1.5-3.29a8.27,8.27,0,0,0,.31-5.88L65,70.92a6.26,6.26,0,0,0,2.27-8.65l-2.05,2.05,2.25,1.49a1.51,1.51,0,0,0,2.26-1.3l.18-7.75c0-1.65-2.66-2.1-2.95-.4-.44,2.55.27,4.41,2.73,5.5,1,.46,2.74-.34,2.2-1.69L69.6,54.3l-1.45,1.9,1,.78c.66,1.39,2.8.66,2.8-.76l0-5.3h-3l0,.55A1.58,1.58,0,0,0,70,52.92c1.62.66,4.66-.82,3.07-2.72a1.51,1.51,0,0,0,2.56-1.06A14.68,14.68,0,0,1,79.32,39L76.76,38l.2,2.53c.15,1.91,3.16,1.93,3,0L79.76,38c-.09-1.17-1.65-2.14-2.56-1.06a18,18,0,0,0-4.51,12.25l2.56-1.06C72.84,45.2,70.7,50,70.84,50l1.1,1.45,0-.55c-.1-1.92-3-1.94-3,0l0,5.3,2.8-.76a3.56,3.56,0,0,0-3.58-2.27,1.51,1.51,0,0,0-1.45,1.9L69,61l2.2-1.69-1.35-2.11-2.95-.4-.18,7.75L69,63.22l-2.25-1.49c-1.32-.87-2.71.8-2.05,2.05l-1.19,4.54A1.54,1.54,0,0,0,62.83,70c.88,3-1.22,3.8-1.87,6.22s-.06,5.64-.08,8a1.5,1.5,0,0,0,3,0L64,80.82c0-1.63-2-1.84-2.8-.76A10.61,10.61,0,0,0,58.86,88a1.5,1.5,0,0,0,3,0c.32-2.53-.91-4.07-3.22-4.88-1.14-.4-2.08.81-1.85,1.85.4,1.81-2.68,3.88-3.49,5.4a72.14,72.14,0,0,0-2.94,7.54c-.7,1.8,2.2,2.58,2.89.8Z" transform="translate(0 -0.27)"/></g><g class="cls-5"><path d="M42.31,144.09A2.24,2.24,0,0,0,40,145.71c-.09.2,0,.51.22.55a30.26,30.26,0,0,0,7.56.72c.56-.05,2.34.36,2.17-.76.13.8-7.71-1.63-7.5-1.54a.38.38,0,0,0-.38.65,22,22,0,0,0,6.32,2.7.38.38,0,0,0,.2-.72l-7.2-2.71c-.41-.16-.63.47-.29.69,1,.64,5.43,2,6.07,3.06-.42-.67-5-.16-6.31-.15a.38.38,0,0,0-.27.64c2.11,1.77,3.94,1.31.11.94a.38.38,0,0,0-.19.7,31.16,31.16,0,0,0,6.95,2.67.38.38,0,0,0,.2-.72L41.32,150a.38.38,0,0,0-.42.17c-2.9,4.66,2.31,7.4,6.09,8.54.39.12.58-.36.36-.63a10.13,10.13,0,0,0-8.1-4,.38.38,0,0,0-.32.56A16.32,16.32,0,0,0,45.16,161c.35.2.66-.19.51-.51-1.79-3.86-6.58-2.08-5.61,2a.38.38,0,0,0,.36.28c.8,0,3.49.44,3.48-.29s-3.16-.28-3.57-.27a.38.38,0,0,0-.36.47c.48,1.65,1.61,2.64,2.3,4.06s.49.08.4.19c-.22.28-4.28-.92-4.6-1a.38.38,0,0,0-.42.55,10.58,10.58,0,0,0,7.93,5.86.38.38,0,0,0,.2-.72L42,170.44c-.4-.13-.67.5-.29.69.23.11,5,2.34,5,2.43-.38,1.51-4.83-1-3.21.79.36.4,2,1.18,2.12.7,0,.05-4.63-.9-4.82-.93s-.64.27-.42.55A4.62,4.62,0,0,0,46.71,176a.38.38,0,0,0,.08-.59,5,5,0,0,0-6.36-.34.38.38,0,0,0-.13.51A6.47,6.47,0,0,0,46.16,179c.5,0,.46-.69,0-.75a9.25,9.25,0,0,1-5.43-2.15.38.38,0,0,0-.55.22,3.65,3.65,0,0,0,4.71,4.49.38.38,0,0,0-.1-.74l-3.67.11a.38.38,0,0,0,0,.75l9.07-.17a.38.38,0,0,0,.19-.7c-5-3.25-.63-1.79-.36-5.87.29-4.43-4.37-2.11.25-6.45a.38.38,0,0,0,.06-.45,6.78,6.78,0,0,0-2.54-2.54c.49.26-1.8-1-1.37-.54a3.09,3.09,0,0,0-.72-.18q-1.3-.16,2.14-1.19a.38.38,0,0,0,.36-.28l4-11.92a.38.38,0,0,0-.36-.47c-2.71-.13-4.36-1.93-6.88-2.2-2.92-.32-5.93,1.74-8.68,2.47a.38.38,0,0,0-.28.36,13.08,13.08,0,0,0,.65,3.37c.37,1.52,0,1.45-.2,2.88-.6,3.85,2.74,7.61,1.35,11.26-.17.45.55.65.72.2,1.39-3.66-3.46-9.93-.15-12.67a.38.38,0,0,0,0-.53c-4-4.79.71-4.71,2.85-5.42q.8-.34,1.61-.64,2.78-1.77,5.29,1.39c2.71.58,2.72.43,2.2,3.2-.47,2.52-1.59,6.64-3.69,8.21-1.15.86-1.8.66-2.69,2.15a.38.38,0,0,0,.32.56c9.15,0,3.36,4.41,1.94,5.74a.38.38,0,0,0,.17.63l-.2,6.34a.38.38,0,0,0-.09.69c1.93,1.25,4,1.67.47,1.91l-3.63.07q.21,2.83-1.34-2.52c-.4.34,3.27,1,3,1.17q-5.09-4.71-.87-3.31l3.22.62c.39.08.69-.49.29-.69l-5.51-2.72a.38.38,0,0,0-.38.65,7.37,7.37,0,0,0,7.21,1.08.38.38,0,0,0,.09-.69c-1.64-.8-3.35-1.56-5-2.43.45.25.76,1-.61-.45-.78-.8-4.91-2.51-3.71-3.82.29-.32,4.23.9,4.6,1a.38.38,0,0,0,.29-.69q-3.88-1.39-2.19-4.38l3.55-.07a.38.38,0,0,0,0-.75l-3.5-.05q4.26-2.49-.1-4.26c-5.69-5.82,4.17-.28,3.66-.22q-6.64-8.22-1.45-5.63,1.37,1.39,1.94.12c-.2.12-7.63-1.74-1.62-1.16.43,0,.5-.63.1-.74-2.71-.73-2.37-1.24.16-1.27l4,0a.38.38,0,0,0,.1-.74,24.43,24.43,0,0,1-4.61-1.77Q42.51,144.62,43,146l3.6,1.35q1.6-1.69-2.69-1.78c-.05,1.72,6,1.4,7.63,1.21.47-.05.49-.79,0-.75-1.56.12-3.11.2-4.68.17q-.94,0-1.87-.09a2.88,2.88,0,0,1-2.66-1.29c.48,0,.48-.79,0-.75Z" transform="translate(0 -0.27)"/></g><g class="cls-5"><path d="M29.88,103.89l9.47,35.33c1.58,5.91,3.3,11.81,4,17.91a169.9,169.9,0,0,1,.5,17.6l.32,74.79a.38.38,0,0,0,.75,0l-.33-76.78a120.61,120.61,0,0,0-4-31.8q-5-18.62-10-37.24a.38.38,0,0,0-.72.2Z" transform="translate(0 -0.27)"/></g><g class="cls-5"><path d="M35,122.33a35.23,35.23,0,0,1,.5-13.67c.47-2,1.85-4.48,1.1-6.57a2.9,2.9,0,0,0-4.3-1.72.37.37,0,0,0-.19.32q-1.59,1-1.28-.59-.13-1.3-.14-2.61a47.47,47.47,0,0,1,.25-5.23.38.38,0,0,0-.47-.36c.33-.11-2.6.79-2,1.1-.19-.1.61-.16.44-.44-.36-.61.24-4.1.13-5a39,39,0,0,0-1.33-4.81c-.45-1.8.26-6.64-2.88-6.36.1,0-2.08.83-1.63,1,1.63.48-.54-4.09-.94-4.64s-.75-.77-1.08-1.17a11.77,11.77,0,0,1-2.36-4,12.63,12.63,0,0,0-3.87-6,.38.38,0,0,0-.64.27L14,66.28c0,.48.72.48.75,0,.19-2.69.48-5.9-1.39-8.14a5.7,5.7,0,0,0-2-1.56c.44.19-2.88-.95-2.39-.4-.4-.45-.05-4-.56-5A6.42,6.42,0,0,0,4.62,48a.38.38,0,0,0-.47.36c0,.51.23,2.59-.08,3,0,0,1.2.37-.08-.56C3.06,50,2.52,49,1.42,48.37a.38.38,0,0,0-.51.13c-3.41,7.83,3.5,15.23,9.15,20,.25.21.78,0,.63-.36a5.82,5.82,0,0,0-6.82-3.87.38.38,0,0,0-.26.46,17.58,17.58,0,0,0,7.6,9.63c.38.24.72-.28.45-.59a3.49,3.49,0,0,0-4-1.25.38.38,0,0,0-.22.55A101.21,101.21,0,0,0,15,84.31c.26.33.83-.1.59-.45L13,80.23c-.19-.27-.74-.22-.7.19A12.2,12.2,0,0,0,18.27,90a.38.38,0,0,0,.51-.51,6.52,6.52,0,0,0-4.59-3.25.38.38,0,0,0-.46.46,70.52,70.52,0,0,0,6.05,14.79c.23.43.86.05.65-.38l-2.07-4.29c-.18-.38-.82-.11-.69.29a45.06,45.06,0,0,0,4.43,9.59c.75,1.2,2.84,3.32.9.62-.8-1.12-2.63-2-3.76-2.62a.38.38,0,0,0-.55.42,6.8,6.8,0,0,0,10,4.8.38.38,0,0,0,0-.65l-6.22-2.87A.38.38,0,0,0,22,107l5.46,5.94c.69.75,1.35,1.65,2.12,1.81s-2.1-2.5-2-2.41a.38.38,0,0,0-.64.27,5.66,5.66,0,0,0,5,5.93.38.38,0,0,0,.46-.46,4.74,4.74,0,0,0-3.63-3.72.38.38,0,0,0-.47.36,8.75,8.75,0,0,0,4.87,7.89.38.38,0,0,0,.55-.22,29,29,0,0,0,.93-11.68c-.06-.47-.76-.5-.75,0l.09,4a.38.38,0,0,0,.75,0l-.07-12.35a.38.38,0,0,0-.56-.32,4.45,4.45,0,0,0-2.56,4.23c0,.41.68.52.74.1a44.48,44.48,0,0,0,.3-9.92c0-.22-.23-.45-.47-.36l-2.64,1a1.36,1.36,0,0,1,.45-.89C30,95,31.3,94,31.24,92.53a4.48,4.48,0,0,0-.92-2.7c-1.08-1.33-2-1-2.5-2.56s.34-3.92-.08-5.65A14.1,14.1,0,0,0,25,76.06c-1.5-1.84-3.25-2.29-5-3.74-2-1.68-2.79-7.56-6.25-7.29a.39.39,0,0,0-.36.28c-.15.58-.13.59.26,1.07a.36.36,0,0,0,.36.1l.28-.11c.44-.17.25-.9-.2-.72,1.18-.47,3.4,4.51,3.83,5.25-1.15-2,.18,1.38.41,1.6.8.78,2.46,1,3.43,1.62a12.8,12.8,0,0,1,4.79,14.73.38.38,0,0,0,.36.47c7.25-.73,2,7.16,1,8.46a.38.38,0,0,0,.42.55c1.26-.47,2.6-1.56,3.62-.21.85,1.14-.7,3.79,0,4.92q2.38.19,2,2v2.65c0,.71-.37,4.74,0,5.29,1,1.34,1.46-1.65.11-.61-.32.25-.23,6.43-.3,6.57l-.35,1.64q-2.47.8-3.07-1.67A13.61,13.61,0,0,1,28.18,114l2.3,2.24a.38.38,0,0,0,.53-.53l-4.86-5.28-2.43-2.64q-1-.13,1.44.71,3,.62.12,1.6A6.48,6.48,0,0,1,20,107c-.84-2.72,4,2.63,4.43,3.13.26.33.84-.11.59-.45a45.34,45.34,0,0,1-4.27-6.83A27,27,0,0,1,19.5,99.9q0-2-1.1-1.26c.18,1.31,1.15,2,.78.14-.57-2.86-4.43-6.67-4-9.72q-.92-1.46,1.23-1.31l-1.73-2.13a9.47,9.47,0,0,1-1.31-3.14q-.54-1.64.67.56c0-2.71-3.32-5.06-4.31-7.43-.62-1.5-.65-2.79-1.17-4.11C8.37,70.92,5,68.12,5.43,67.3q5.79,1,3.38-.89a22.88,22.88,0,0,1-1.67-1.69,49.56,49.56,0,0,1-3.28-4.35C3.94,60.51.3,55,1.77,57.59L.83,55.17Q-.89,50.75,4,52.84a.38.38,0,0,0,.74-.1l.08-3q5.07,2,2.75,6.9c-.13.28.09.66.42.55q6.72,2,6,7.28,1.4.89.8-1.25c2.52-.51,3.31,5.17,3.27,7.16a.37.37,0,0,0,.19.32A8.54,8.54,0,0,1,23,78.17c0,.5.69.46.75,0,0,.06,2.67,3.91,3.09,4.87a16.77,16.77,0,0,1,.87,11,.38.38,0,0,0,.69.29c1.89-2.94,1.54,4.41,1.57,4.87a49,49,0,0,0,.67,5.29.38.38,0,0,0,.63.17c0,.05,2.06-2.61,1.55-2.55,1.08-.13,2.61,3.16,2.64,3.85.05,1.12-.89,3.11-1.1,4.17a35.71,35.71,0,0,0-.11,12.36c.07.48.79.27.72-.2Z" transform="translate(0 -0.27)"/></g><g class="cls-5"><path d="M15.76,76.69,32,117.58c.18.44.9.25.72-.2L16.49,76.49c-.18-.44-.9-.25-.72.2Z" transform="translate(0 -0.27)"/></g><g class="cls-6"><path d="M6.3,55.71c-1,1.09-2.85-1.31-3.31-2A1.51,1.51,0,0,0,.25,54.88a20.53,20.53,0,0,0,5,10.55A1.52,1.52,0,0,0,7.8,64.36,19.64,19.64,0,0,0,3.43,51.8c-1-1.22-2.9.11-2.51,1.46a19.67,19.67,0,0,0,4.48,8A1.52,1.52,0,0,0,8,60.17L7.89,53.3a1.51,1.51,0,0,0-2.95-.4A4.13,4.13,0,0,0,8,58a1.5,1.5,0,0,0,.8-2.89,1.07,1.07,0,0,1-.92-1.46l-2.95-.4L5,60.17l2.56-1.06a16.31,16.31,0,0,1-3.71-6.65L1.31,53.92A16.36,16.36,0,0,1,4.8,64.36L7.36,63.3a17.76,17.76,0,0,1-4.22-9.22L.4,55.23c1.66,2.45,5.34,5.52,8,2.6,1.3-1.42-.81-3.55-2.12-2.12Z" transform="translate(0 -0.27)"/></g><g class="cls-6"><path d="M10.87,62.49l0,5.49,2.56-1.06a19,19,0,0,1-3.68-8.21L7.94,60.56c.63.18.9,3.33,1.55,4a2.41,2.41,0,0,0,3.26.45c1.91-1.57.38-4.83-2.06-3.75a1.51,1.51,0,0,0-.54,2.05A16.51,16.51,0,0,1,13,71.49c.14,1.91,3.14,1.93,3,0a19.52,19.52,0,0,0-3.27-9.66l-.54,2.05.27-.12H11c1.09.49,0-4.15-.13-4.39a3.13,3.13,0,0,0-2.1-1.71,1.52,1.52,0,0,0-1.85,1.85A22.06,22.06,0,0,0,11.34,69c.83,1.06,2.57.14,2.56-1.06l0-5.49a1.5,1.5,0,0,0-3,0Z" transform="translate(0 -0.27)"/></g><g class="cls-6"><path class="cls-4" d="M9.18,65.2l2.06,3.73c.69,1.25,2.93.76,2.8-.76l-.47-5.4a1.5,1.5,0,0,0-3,0c-.07,2.67,1.15,4.23,3.62,5.1,1.29.45,2.29-1.12,1.69-2.2l-9.93-18a1.51,1.51,0,0,0-2.8.76l-.33,7.87h3l.09-3.51c.05-2-2.77-1.86-3,0a10.7,10.7,0,0,0,2.57,8.54A1.51,1.51,0,0,0,8,60.2a11.56,11.56,0,0,0-2.77-6.49c-1.1-1.36-3.15.38-2.36,1.82L9.23,67a1.51,1.51,0,0,0,2.8-.76,7.3,7.3,0,0,0-2.27-5.4C8.63,59.66,7,60.93,7.25,62.3a25.47,25.47,0,0,0,6.23,13.25c1,1.2,2.8-.1,2.51-1.46L13.48,62.42l-2.74,1.16c1.07,2.34.62,5.86,4,6.14A2.67,2.67,0,0,0,18,67l-2.95.4a20.06,20.06,0,0,0,4.44,7.93c1.23,1.38,3-.38,2.36-1.82l-3.69-8.55-2.59,1.51,1.61,3-1.69-.69L23.21,81a1.51,1.51,0,0,0,2.8-.76L25.86,76a1.5,1.5,0,0,0-3,0A24.88,24.88,0,0,0,25,87.71l2.59-1.51-2.3-3.87a1.51,1.51,0,0,0-2.74,1.16,55.36,55.36,0,0,0,4.56,13.3A1.51,1.51,0,0,0,30,96l-.06-2.68a1.5,1.5,0,0,0-3,0c-.13,2.37-.22,4.84.84,7A12.09,12.09,0,0,1,29,102.9c.36,1.71-.13,4.37-.13,6.17s2.88,1.91,3,0l.3-4.7-2.8.76c2.12,2.77,1.83,5.91,1.43,9.13h3l.06-5.31-2.95.4-.78,4.29H32.7l-4.88-6.7a1.5,1.5,0,0,0-2.59,1.51,6.28,6.28,0,0,0,4.48,3.66,1.5,1.5,0,0,0,.8-2.89,11.82,11.82,0,0,1-6.73-5,1.56,1.56,0,0,0-2.05-.54l-.39.17a1.52,1.52,0,0,0-.69,1.69c.24,1.17.63,1.46,1.71,1.89a1.52,1.52,0,0,0,1.69-.69C26.76,103,23,95.6,20,93a1.5,1.5,0,0,0-2.12,2.12l5,6.42C24,103,26,101.21,25.24,99.77L18,86.89c-.81-1.44-3.4-.45-2.74,1.16a16.07,16.07,0,0,0,6.33,7.75c1.29.85,2.77-.8,2.05-2.05a77.62,77.62,0,0,0-8.47-11.92c-1.14-1.32-3.17.37-2.36,1.82l4.86,8.67c1,1.73,3.32.21,2.59-1.51l-7-16.56c-.69-1.64-3.08-.42-2.74,1.16a5.83,5.83,0,0,0,2.17,3.66,1.51,1.51,0,0,0,2.51-1.46,19.86,19.86,0,0,0-6.52-10.3c-1-.87-3.09-.07-2.51,1.46a36.89,36.89,0,0,0,4.72,8.79,1.51,1.51,0,0,0,2.74-1.16,10.55,10.55,0,0,0-4.56-6.62,1.51,1.51,0,0,0-2.2,1.69A8.61,8.61,0,0,0,12,77.3c1,.45,2.76-.33,2.2-1.69L3.72,50a1.5,1.5,0,0,0-2.89.8C2.56,61.47,8.49,70.38,14.55,79.06a1.52,1.52,0,0,0,2.74-.36l.9-3.48H15.3A80.4,80.4,0,0,0,26.89,101c.89,1.31,3.41.53,2.74-1.16L17.83,70.18l-2.74,1.16a131.94,131.94,0,0,1,12.6,39.5c.23,1.51,2.55,1.35,2.89,0,1.58-6.12-5.51-10.09-4.26-15.81l-2.95-.4A85.58,85.58,0,0,0,31.23,121a1.51,1.51,0,0,0,2.8-.76,96,96,0,0,1,.43-17.58l-2.26,1.3q2.53,2.25.58,4.76l2.56,1.06-2.5-20.13c-.19-1.55-2.5-2.18-2.95-.4l-1.13,4.59h2.89a16.81,16.81,0,0,0-4.17-6.57A1.51,1.51,0,0,0,25,88.69l2,5.93c.53,1.54,3,1.37,2.95-.4l-.08-3.53a1.5,1.5,0,0,0-3,0l-.07,5.6,1.5-1.5a3.78,3.78,0,0,1-4.44-2.63c-.67-1.41-2.76-.63-2.8.76l-.25,11.58c0,1.93,3,1.93,3,0l.25-11.58-2.8.76a6.86,6.86,0,0,0,7,4.11,1.53,1.53,0,0,0,1.5-1.5l.07-5.6h-3L27,94.22l2.95-.4-2-5.93-2.51,1.46a13.51,13.51,0,0,1,3.39,5.25,1.51,1.51,0,0,0,2.89,0L32.78,90l-2.95-.4,2.5,20.13c.14,1.1,1.65,2.21,2.56,1.06a6.3,6.3,0,0,0-1.19-9.47c-1-.78-2.14.32-2.26,1.3A96,96,0,0,0,31,120.21l2.8-.76a80.88,80.88,0,0,1-7.44-24.83c-.2-1.52-2.55-2.21-2.95-.4-1.33,6,5.69,10.23,4.26,15.81h2.89a134.46,134.46,0,0,0-12.9-40.22c-.75-1.49-3.37-.44-2.74,1.16l11.8,29.71,2.74-1.16A77.94,77.94,0,0,1,18.19,74.42a1.51,1.51,0,0,0-2.89,0l-.9,3.48,2.74-.36C11.22,69.07,5.42,60.44,3.72,50l-2.89.8L11.32,76.41l2.2-1.69a5.45,5.45,0,0,1-3.77-4.05l-2.2,1.69a6.55,6.55,0,0,1,3.18,4.83L13.48,76A33.88,33.88,0,0,1,9.06,68L6.56,69.42a17.11,17.11,0,0,1,5.74,9l2.51-1.46L13.4,74.6l-2.74,1.16,7,16.56,2.59-1.51-4.86-8.67-2.36,1.82a73.16,73.16,0,0,1,8,11.31l2.05-2.05a12.33,12.33,0,0,1-5-6L15.44,88.4l7.22,12.88L25,99.47,20,93l-2.12,2.12c1.85,1.55,5.5,7.43,3.59,10.06l1.69-.69.38.21-.69,1.69.39-.17-2.05-.54a15.28,15.28,0,0,0,8.53,6.38l.8-2.89-2.69-2.28-2.59,1.51,4.88,6.7a1.52,1.52,0,0,0,2.59,0,9.37,9.37,0,0,0,1.09-6.6c-.26-1.71-2.93-1.24-2.95.4l-.06,5.31c0,2,2.77,1.86,3,0,.49-3.86.61-7.45-1.84-10.65a1.51,1.51,0,0,0-2.8.76l-.3,4.7h3c0-2.58.47-5.62-.1-8.12-.61-2.67-2-4.58-1.85-7.61h-3L27,96l2.8-.76a51.92,51.92,0,0,1-4.26-12.58l-2.74,1.16L25,87.71c1,1.7,3.35.21,2.59-1.51A21.75,21.75,0,0,1,25.86,76h-3L23,80.21l2.8-.76L18,67.26a1.52,1.52,0,0,0-1.69-.69c-2,.82-2.86,4-.07,4.62,4.14.92,3.22-4.47,1.85-6.28a1.5,1.5,0,0,0-2.59,1.51L19.21,75l2.36-1.82a16.41,16.41,0,0,1-3.67-6.6A1.51,1.51,0,0,0,15,67c0-1.3-1-3.61-1.62-4.89-.74-1.62-3.08-.42-2.74,1.16L13.1,74.88l2.51-1.46A22.72,22.72,0,0,1,10.14,61.5L7.64,63,9,66.24l2.8-.76L5.49,54,3.14,55.83,5,60.2l2.56-1.06a7.67,7.67,0,0,1-1.69-6.42h-3l-.09,3.51c0,1.94,2.92,1.92,3,0l.33-7.87-2.8.76,9.93,18L15,65l-1.42-2.21h-3l.47,5.4,2.8-.76-2.06-3.73C10.83,62,8.24,63.5,9.18,65.2Z" transform="translate(0 -0.27)"/></g><g class="cls-6"><path class="cls-4" d="M26.79,90.43,24.4,82.76l-2.74,1.16,1.46,2.84c.75,1.46,2.65.58,2.8-.76.32-2.88-.67-4.61-1.9-7.12-1.81-3.69-3.56-7.41-5.34-11.11-.7-1.46-2.69-.59-2.8.76a10.7,10.7,0,0,0,1.39,6.42c.85,1.59,3,.43,2.74-1.16a30.24,30.24,0,0,0-2.44-7.58c-.63-1.35-2.88-.69-2.8.76a9,9,0,0,0,2.37,5.89,1.51,1.51,0,0,0,2.51-.66,4.39,4.39,0,0,0-1.37-4.67A1.51,1.51,0,0,0,15.78,69l3,9c.61,1.82,3.51,1,2.89-.8l-3-9-2.51,1.46.6,1.76,2.51-.66L17.78,67l-2.8.76a27,27,0,0,1,2.13,6.86l2.74-1.16a6.66,6.66,0,0,1-1-4.9l-2.8.76,3.81,7.94c1.3,2.71,3.35,5.72,3,8.78l2.8-.76L24.25,82.4a1.51,1.51,0,0,0-2.74,1.16l2.39,7.68c.57,1.84,3.47,1.05,2.89-.8Z" transform="translate(0 -0.27)"/></g><g class="cls-6"><path class="cls-4" d="M28.87,98.49v4a1.5,1.5,0,0,0,3,0v-4a1.5,1.5,0,0,0-3,0Z" transform="translate(0 -0.27)"/></g><g class="cls-6"><path class="cls-4" d="M27.59,98.73l3,12.25c.45,1.88,3.35,1.08,2.89-.8l-3-12.25c-.45-1.88-3.35-1.08-2.89.8Z" transform="translate(0 -0.27)"/></g><g class="cls-6"><path class="cls-4" d="M28.8,104.49a11.7,11.7,0,0,0,2.61,7c1.19,1.52,3.3-.62,2.12-2.12a8.28,8.28,0,0,1-1.73-4.86c-.07-1.93-3.07-1.93-3,0Z" transform="translate(0 -0.27)"/></g><g class="cls-6"><path class="cls-4" d="M14.87,74.49v10a1.5,1.5,0,0,0,3,0v-10a1.5,1.5,0,0,0-3,0Z" transform="translate(0 -0.27)"/></g><g class="cls-6"><path class="cls-4" d="M10.69,72.5a10.36,10.36,0,0,0,2.9,6.35A1.51,1.51,0,0,0,15.95,77L11.51,70c-.73-1.16-3-.81-2.8.76a10.84,10.84,0,0,0,3.89,7.45c1.48,1.21,3.62-.9,2.12-2.12a7.87,7.87,0,0,1-3-5.32l-2.8.76,4.44,7.06,2.36-1.82a7,7,0,0,1-2-4.23c-.19-1.9-3.2-1.92-3,0Z" transform="translate(0 -0.27)"/></g><g class="cls-6"><path d="M24.91,81.65l-2,4c-.88,1.72,1.71,3.24,2.59,1.51l2-4c.88-1.72-1.71-3.24-2.59-1.51Z" transform="translate(0 -0.27)"/></g><g class="cls-6"><path d="M18.87,80.49v1a1.5,1.5,0,0,0,3,0v-1a1.5,1.5,0,0,0-3,0Z" transform="translate(0 -0.27)"/></g><g class="cls-6"><path d="M15.08,75.26a12.89,12.89,0,0,0,5.94,6c1.06.54,2.7-.38,2.2-1.69l-1.62-4.32-2.74,1.16,1.64,2.73A1.51,1.51,0,0,0,23.25,78,34.37,34.37,0,0,0,9.69,59.53a1.52,1.52,0,0,0-2.2,1.69c.71,2.58,3,3.47,5.38,2.33,1.73-.85.22-3.44-1.51-2.59l-1-.53-2.2,1.69A31,31,0,0,1,20.36,78.79l2.74-1.16L21.45,74.9c-.84-1.4-3.36-.49-2.74,1.16l1.62,4.32,2.2-1.69a10.19,10.19,0,0,1-4.87-4.94c-.85-1.73-3.44-.21-2.59,1.51Z" transform="translate(0 -0.27)"/></g><g class="cls-6"><path d="M22.87,84.49v1a1.5,1.5,0,0,0,3,0v-1a1.5,1.5,0,0,0-3,0Z" transform="translate(0 -0.27)"/></g><g class="cls-6"><path d="M45,40.55a15.55,15.55,0,0,1-1.1-8.81L41,31.34l-.08,4.15c0,1.93,3,1.93,3,0L44,31.34c0-1.65-2.65-2.1-2.95-.4a18.34,18.34,0,0,0,1.1,10.4c.74,1.75,3.64,1,2.89-.8Z" transform="translate(0 -0.27)"/></g><g class="cls-6"><path d="M41.56,31.09l-2,1a1.5,1.5,0,0,0,1.51,2.59l2-1a1.5,1.5,0,1,0-1.51-2.59Z" transform="translate(0 -0.27)"/></g><g class="cls-6"><path d="M41.14,29.77,35,41.7c-.88,1.71,1.71,3.23,2.59,1.51l6.12-11.94c.88-1.71-1.71-3.23-2.59-1.51Z" transform="translate(0 -0.27)"/></g><g class="cls-6"><path d="M32.9,42.5A38.47,38.47,0,0,0,33,49.06c.15,1.37.25,3,1.49,3.84C36.81,54.52,39.39,51,37,49.38,35.38,48.3,33.88,50.9,35.48,52l.23.16-.69-.9q1.41-.44,1.1-1.47-.09-.52-.13-1c-.07-.69-.12-1.38-.15-2.07a39.5,39.5,0,0,1,.06-4.15c.12-1.93-2.88-1.92-3,0Z" transform="translate(0 -0.27)"/></g><g class="cls-6"><path d="M36.87,26.49v10a1.5,1.5,0,0,0,3,0v-10a1.5,1.5,0,0,0-3,0Z" transform="translate(0 -0.27)"/></g><g class="cls-6"><path d="M35.32,41.55a5.24,5.24,0,0,1,1.6,4.54c-.3,1.89,2.59,2.7,2.89.8a8.38,8.38,0,0,0-2.37-7.46c-1.38-1.35-3.5.77-2.12,2.12Z" transform="translate(0 -0.27)"/></g><g class="cls-6"><path d="M38,28.07a6.22,6.22,0,0,1-.46-1.35,2,2,0,0,1,0-.39c0-.45.08,0,0-.06s-.05.07,0,0q-.21.16,0,0l-.12.06q.26-.06,0,0c.25,0,.24.08.07,0a.78.78,0,0,1-.44-.45c.58,1.84,3.47,1.05,2.89-.8a2.67,2.67,0,0,0-4-1.27c-1.81,1.12-1.47,3.42-.78,5.1a1.55,1.55,0,0,0,1.85,1,1.51,1.51,0,0,0,1-1.85Z" transform="translate(0 -0.27)"/></g><g class="cls-6"><path d="M38.87,22.49v13a1.5,1.5,0,0,0,3,0v-13a1.5,1.5,0,0,0-3,0Z" transform="translate(0 -0.27)"/></g><g class="cls-6"><path d="M38.87,44.49v4a1.5,1.5,0,0,0,3,0v-4a1.5,1.5,0,0,0-3,0Z" transform="translate(0 -0.27)"/></g><g class="cls-6"><path d="M39,42.1a175.68,175.68,0,0,0-2.14,25.39,1.5,1.5,0,0,0,3,0,170.13,170.13,0,0,1,2-24.59c.3-1.89-2.59-2.7-2.89-.8Z" transform="translate(0 -0.27)"/></g><g class="cls-7"><path d="M59.87,106.49l0-6.13-2.56,1.06c.13.11.54-5,.56-5.6L58,91.49c.06-1.93-2.94-1.93-3,0a78.19,78.19,0,0,0-.21,8.39c.11,1.36.63,2.94,2.06,3.43,2.28.77,4.61-2.35,2.58-4a1.52,1.52,0,0,0-2.56,1.06l0,6.13a1.5,1.5,0,0,0,3,0Z" transform="translate(0 -0.27)"/></g><g class="cls-7"><path d="M56.87,86.49v1a1.5,1.5,0,0,0,3,0v-1a1.5,1.5,0,0,0-3,0Z" transform="translate(0 -0.27)"/></g><g class="cls-7"><path d="M57.65,88l.36.16-.69-1.69a2.36,2.36,0,0,0,2.59-1.37A18.3,18.3,0,0,0,61.16,83a27.35,27.35,0,0,0,1.16-2.59,29.17,29.17,0,0,0,1.74-7.53l-2.8.76a3.24,3.24,0,0,0,3.39,2.1,1.51,1.51,0,0,0,1.45-1.9c-1.76-4.26.41-8,2-11.92.88-2.21,3.33-7.26,1.29-9.38l-.23-1.82-.25.55,2.74,1.16L78.26,31l-2.2.9c1.5,1,3,2.7,4.84,1.42a2.5,2.5,0,0,0,.71-3.09c-.7-1.78-3.6-1-2.89.8q.73-1.39-1.14-1.72a1.52,1.52,0,0,0-2.2.9L68.74,51.62c-.49,1.59,2,2.73,2.74,1.16l.25-.55a1.57,1.57,0,0,0-.23-1.82,2.44,2.44,0,0,0-2.4-1,1.5,1.5,0,0,0-1.3.74c-.83,1.71-.59,2.77-.75,4.64-.27,3.1-1.77,5.92-2.9,8.75-1.49,3.73-2.52,7.21-.94,11.06l1.45-1.9-.8-.62c-.69-1.51-2.65-.53-2.8.76a26.65,26.65,0,0,1-3.73,10.72c-1.07,1.85-1.41,2.34-1.11,4.42a1.46,1.46,0,0,0,1,1,2.28,2.28,0,0,0,3-1.79,1.51,1.51,0,0,0-.69-1.69l-.36-.16c-1.75-.78-3.28,1.81-1.51,2.59Z" transform="translate(0 -0.27)"/></g><g class="cls-7"><path d="M51.26,97c1-1.9,4.1-6,2.19-8.25a2.39,2.39,0,0,0-4,.6c-.52,1.18.71,3.08,2.05,2.05a7.81,7.81,0,0,0,3-3.79c.69-2.1-.07-3.55,1.35-5.46a1.5,1.5,0,0,0-.23-1.82,4.5,4.5,0,0,0-2.85-1.54l.9,2.2,1.9-3a1.51,1.51,0,0,0-.23-1.82l0-.17a1.45,1.45,0,0,0,0-1.51A6.19,6.19,0,0,1,55.8,66a1.5,1.5,0,0,0-2.12-2.12,9.16,9.16,0,0,0-2.62,9c.27,1,.72,2.1.94,2.85.38,1.29,0,1.66,1.17,2.59l-.23-1.82-1.9,3a1.51,1.51,0,0,0,.9,2.2l1.53.77-.23-1.82c-.7.95-4.07,8.79-3.26,8.17L52,90.88a5.35,5.35,0,0,0-2.31,2.58l-1,2c-.87,1.72,1.72,3.24,2.59,1.51Z" transform="translate(0 -0.27)"/></g><g class="cls-7"><path d="M48.11,143.77q-7,18-12.51,36.52c-.55,1.85,2.34,2.65,2.89.8Q44,162.58,51,144.57c.7-1.8-2.2-2.58-2.89-.8Z" transform="translate(0 -0.27)"/></g><g class="cls-7"><path d="M43.06,128.52Q41,145,37.77,161.26c-.37,1.89,2.52,2.69,2.89.8q3.28-16.68,5.4-33.54c.24-1.91-2.76-1.89-3,0Z" transform="translate(0 -0.27)"/></g><g class="cls-7"><path d="M46.86,116.49a325.44,325.44,0,0,1-2.22,50c-.23,1.91,2.77,1.9,3,0a325.44,325.44,0,0,0,2.22-50c-.06-1.93-3.06-1.93-3,0Z" transform="translate(0 -0.27)"/></g><g class="cls-7"><path d="M47,150.5a309.23,309.23,0,0,1-4,37.6c-.32,1.89,2.57,2.7,2.89.8A315.85,315.85,0,0,0,50,150.5c.09-1.93-2.91-1.93-3,0Z" transform="translate(0 -0.27)"/></g><g class="cls-7"><path d="M35.87,254.49v-3a1.5,1.5,0,0,0-3,0v3a1.5,1.5,0,0,0,3,0Z" transform="translate(0 -0.27)"/></g><g class="cls-7"><path d="M38.77,212.5A384.1,384.1,0,0,0,43,254.88c.3,1.9,3.19,1.09,2.89-.8a376.84,376.84,0,0,1-4.12-41.59c-.08-1.92-3.08-1.93-3,0Z" transform="translate(0 -0.27)"/></g><g class="cls-7"><path d="M42.87,208.49v46a1.5,1.5,0,0,0,3,0v-46a1.5,1.5,0,0,0-3,0Z" transform="translate(0 -0.27)"/></g><g class="cls-7"><path d="M44.87,204.49l-.19,6.58c-.06,2,2.84,1.9,3,0a265.65,265.65,0,0,1,6.12-38.82l-2.95-.4a433,433,0,0,1-2.25,49.43h3a160.42,160.42,0,0,1,2.24-30.54l-2.95-.4-.1,24.94c0,1.95,2.87,1.91,3,0a142,142,0,0,0-1.84-34c-.31-1.75-2.85-1.2-2.95.4a142.24,142.24,0,0,0,2,33.69c.31,1.75,2.84,1.2,2.95-.4a55,55,0,0,0-4.61-25.87,1.51,1.51,0,0,0-2.74.36L43,211l2.95.4,2-29.81H45l-.1,27.73h3l0-25.73a1.5,1.5,0,0,0-3,0,67.18,67.18,0,0,1-3.6,21.43l2.89.8a98.58,98.58,0,0,0,1.67-24.24,1.51,1.51,0,0,0-2.95-.4,38.19,38.19,0,0,0-1.26,20.62,1.51,1.51,0,0,0,2.89,0,83,83,0,0,0,1.08-23.93,1.5,1.5,0,0,0-3,0l-2.16,41.41h3l.8-17.44h-3l6.89,66.58c.19,1.88,3,2,3,0L52,220.78l-2.95.4,4,28.57c.24,1.71,2.93,1.24,2.95-.4a175.34,175.34,0,0,0-3.54-37.21c-.33-1.63-3.12-1.29-2.95.4a209.52,209.52,0,0,0,6.86,35.72,1.51,1.51,0,0,0,2.95-.4,69.06,69.06,0,0,0-1.79-22.08c-.39-1.6-3.16-1.31-2.95.4q2.6,21.3,6,42.48c.31,1.92,3.15,1.08,2.89-.8l-2-14.3-2.89.8,1.9,7.64c.47,1.87,3.36,1.08,2.89-.8l-1.9-7.64c-.48-1.93-3.15-1.05-2.89.8l2,14.3,2.89-.8q-3.34-20.79-5.89-41.68l-2.95.4a66.42,66.42,0,0,1,1.69,21.28l2.95-.4a204.87,204.87,0,0,1-6.75-34.92l-2.95.4A171.47,171.47,0,0,1,53,249.35l2.95-.4-4-28.57c-.24-1.72-2.92-1.23-2.95.4l-.88,47.67h3l-6.89-66.58a1.5,1.5,0,0,0-3,0l-.8,17.44c-.09,1.93,2.9,1.92,3,0l2.16-41.41h-3a80.23,80.23,0,0,1-1,23.13h2.89a35.25,35.25,0,0,1,1.26-19l-2.95-.4a95.26,95.26,0,0,1-1.56,23.44,1.5,1.5,0,0,0,2.89.8,69.76,69.76,0,0,0,3.71-22.22h-3l0,25.73a1.5,1.5,0,0,0,3,0l.1-27.73c0-1.95-2.87-1.91-3,0l-2,29.81c-.11,1.66,2.67,2.08,2.95.4l3.56-21.57-2.74.36A51.79,51.79,0,0,1,50.94,215l2.95-.4A138.87,138.87,0,0,1,52,181.69l-2.95.4a138.72,138.72,0,0,1,1.74,33.19h3l.1-24.94c0-1.64-2.65-2.11-2.95-.4a164.8,164.8,0,0,0-2.35,31.34,1.5,1.5,0,0,0,3,0,433,433,0,0,0,2.25-49.43c0-1.65-2.55-2.08-2.95-.4a271.16,271.16,0,0,0-6.23,39.62h3l.19-6.58c.06-1.93-2.94-1.93-3,0Z" transform="translate(0 -0.27)"/></g><g class="cls-7"><path d="M47.87,173.49v23a1.5,1.5,0,0,0,3,0v-23a1.5,1.5,0,0,0-3,0Z" transform="translate(0 -0.27)"/></g><g class="cls-7"><path d="M52.27,171.17a32,32,0,0,1-2.64,6.71L52.38,179a41.81,41.81,0,0,0,2.5-16.8,1.5,1.5,0,0,0-3,0l-.18,2.94c-.09,1.54,2.06,2,2.8.76a28,28,0,0,0,3.55-21,1.51,1.51,0,0,0-2.89,0l-5.17,24,2.95.4V159.7c0-2-2.78-1.87-3,0a14.54,14.54,0,0,1-2,5.85l2.74,1.16a34.28,34.28,0,0,1,3.73-7.64c1.05-1.63-1.55-3.13-2.59-1.51a37.21,37.21,0,0,0-4,8.36c-.56,1.63,1.9,2.61,2.74,1.16a18.08,18.08,0,0,0,2.4-7.37h-3v9.61c0,1.65,2.58,2.09,2.95.4l5.17-24H55.15a24.86,24.86,0,0,1-3.25,18.71l2.8.76.18-2.94h-3a39.89,39.89,0,0,1-2.4,16c-.58,1.6,2,2.65,2.74,1.16A35.31,35.31,0,0,0,55.17,172a1.5,1.5,0,0,0-2.89-.8Z" transform="translate(0 -0.27)"/></g><g class="cls-7"><path d="M49,202.85a251.65,251.65,0,0,0-6.3,29.37c-.29,1.89,2.6,2.7,2.89.8a251.65,251.65,0,0,1,6.3-29.37,1.5,1.5,0,0,0-2.89-.8Z" transform="translate(0 -0.27)"/></g><g class="cls-7"><path d="M48.87,237.49V218.7a1.5,1.5,0,0,0-3,0l0,19.6a1.51,1.51,0,0,0,2.95.4,46.56,46.56,0,0,0,2-19.41c-.2-1.88-3-2-3,0l0,15.94h3q-.08-28.77,2.26-57.45h-3l-.19,29.71a1.5,1.5,0,0,0,3,0l.19-29.71c0-2-2.85-1.9-3,0q-2.34,28.67-2.26,57.45a1.5,1.5,0,0,0,3,0l0-15.94h-3a44.61,44.61,0,0,1-1.92,18.62l2.95.4,0-19.6h-3v18.79a1.5,1.5,0,0,0,3,0Z" transform="translate(0 -0.27)"/></g><g class="cls-7"><path d="M46.87,203.49l0-22.69a1.5,1.5,0,0,0-3,0,128.1,128.1,0,0,1-7.77,42.33l2.95.4a351.15,351.15,0,0,1,7.1-38.59l-2.95-.4A415,415,0,0,1,34,235.95l2.89.8,7.48-46.69-2.95-.4A61.6,61.6,0,0,1,39.5,213.8a1.52,1.52,0,0,0,2.2,1.69,7,7,0,0,0,3.09-8.18,1.51,1.51,0,0,0-2.95.4l0,47.78a1.5,1.5,0,0,0,3,0l0-47.78-2.95.4-1.71,4.79,2.2,1.69a63.68,63.68,0,0,0,2-24.95c-.18-1.51-2.65-2.23-2.95-.4L34,235.95c-.3,1.86,2.42,2.71,2.89.8a421.38,421.38,0,0,0,9.38-52.2c.2-1.69-2.55-2-2.95-.4a358.27,358.27,0,0,0-7.21,39.38c-.22,1.78,2.41,1.88,2.95.4a130.62,130.62,0,0,0,7.87-43.13h-3l0,22.69a1.5,1.5,0,0,0,3,0Z" transform="translate(0 -0.27)"/></g><g class="cls-7"><path d="M52.92,133.06c-1.95-11.44,10.39-21.17,4.29-32.64a1.52,1.52,0,0,0-2.74.36,303,303,0,0,1-11.83,42.37h2.89c-1.42-4.36,3.81-8.33,5.35-11.92s1.66-7.53,3.05-11.14c1.58-4.11,4.58-7.63,7.15-11.15l8.86-12.08-2.36.3.31-1.74,1.69.69c-1.27-1.76,1.2-8.56,1.82-10.52,1.2-3.83,2.95-7.43,4.48-11.13,2.35-5.69,3.94-11.17,2.69-17.32-.39-1.89-3.28-1.09-2.89.8,1.73,8.49-3.1,15.94-6,23.56C68.32,85,64.42,94.07,67,97.64a1.56,1.56,0,0,0,1.69.69,2.13,2.13,0,0,0,1.65-1.6A1.45,1.45,0,0,0,70,95.27l-.26-.22a1.53,1.53,0,0,0-2.36.3l-10,13.59c-2.74,3.75-5.51,7.42-6.86,11.93-1.5,5-2.16,9.38-5.27,13.75-2.11,3-3.81,5.68-2.62,9.33a1.51,1.51,0,0,0,2.89,0,303,303,0,0,0,11.83-42.37l-2.74.36c3.22,6.06,0,12.4-2.37,18.13-1.88,4.58-3.06,8.87-2.22,13.8.32,1.9,3.21,1.09,2.89-.8Z" transform="translate(0 -0.27)"/></g><g class="cls-7"><path d="M76,64.74c5.24-4,4.1-10.39,5.71-16.12,2-7.16,7.37-13.45,4.78-21.2a1.5,1.5,0,0,0-2.89.8,12.73,12.73,0,0,1-.42,6.7l2.51-.66.16-3.9c1.53-1.14,0-3.74-1.51-2.59-3,2.21-3.47,5.9-.77,8.61a1.52,1.52,0,0,0,2.51-.66,15.79,15.79,0,0,0,.42-8.29l-2.89.8c2.16,6.45-2.25,12.21-4.29,18.1-1.65,4.76-.49,12.54-4.82,15.82-1.52,1.15,0,3.76,1.51,2.59Z" transform="translate(0 -0.27)"/></g><g class="cls-7"><path d="M48.35,47.82l2.71-18.37-2.95-.4a5.62,5.62,0,0,1-1.55,5.41l2.56,1.06c-.1-6.59-.12-13.18-.3-19.76-.07-2.52,0-5.8-3.06-6.32a1.52,1.52,0,0,0-1.85,1.85,10.3,10.3,0,0,1-1.38,7.63l2.8.76A78.77,78.77,0,0,0,43.44,3c-.42-1.88-3.31-1.09-2.89.8a75,75,0,0,1,1.77,15.93,1.51,1.51,0,0,0,2.8.76,13.72,13.72,0,0,0,1.69-9.95L45,12.33c2,.35,1.12,20.81,1.16,23.19a1.52,1.52,0,0,0,2.56,1.06,8.79,8.79,0,0,0,2.43-7.53c-.19-1.49-2.67-2.24-2.95-.4L45.46,47c-.28,1.89,2.61,2.7,2.89.8Z" transform="translate(0 -0.27)"/></g><g class="cls-7"><path d="M56.46,97.83l2.68-15.42L56.19,82l-.27,3a1.51,1.51,0,0,0,2.56,1.06,8.89,8.89,0,0,0,2.29-5,24.12,24.12,0,0,0,0-4.14c0-1.11-.92-7.31-.93-7.31l2.36-.3c-4.09-3.93-3.52-7.33-1.9-12.49,1.12-3.58,2.27-7.15,3.41-10.73.78-2.47,1.89-4.91,1.84-7.41,0-1.63-.88-3.37-.89-5.15,0-1.26.13-2.52.1-3.77-.08-2.92-.7-6.49-3.81-7.54-2-.68-5.17.26-6.92,1.3-2.67,1.59-2.08,2.86-2.2,6-.07,1.93,2.93,1.93,3,0,.09-2.4.08-3.17,2.62-3.89,2.7-.77,3.89,0,4.27,3a54.13,54.13,0,0,1-.06,5.61c0,1.6.51,3.06.65,4.61.21,2.44-1,5.08-1.77,7.42-1.61,5.08-3.9,10.38-4.65,15.67-.67,4.75,1,6.46,4.19,9.57a1.52,1.52,0,0,0,2.36-.3,2.09,2.09,0,0,0-2.93-2.86c-4.5,2.61,0,11.91-3.2,15.7L58.92,85l.27-3c.15-1.67-2.66-2.07-2.95-.4L53.57,97c-.33,1.89,2.56,2.7,2.89.8Z" transform="translate(0 -0.27)"/></g><g class="cls-7"><path d="M66.94,31.49l-.3-7.62-2.95.4.09.62.69-1.69c.51-.3-4.07-7.54-4.59-8.42a1.51,1.51,0,0,0-2.59,0L54,20.48l2.8.76-.22-5.68c0-1-1.29-2-2.26-1.3a16,16,0,0,0-6.44,9.67l2.95.4.06-10.1a1.5,1.5,0,0,0-3,0L46.37,17.7l2.56,1.06a9.78,9.78,0,0,1,1.84-6.26L48,11.75l.33,4.63c.1,1.37,2.08,2.19,2.8.76A69.54,69.54,0,0,1,60.56,2.86L58.05,1.41a61.53,61.53,0,0,1-4,11.34c-.81,1.74,1.78,3.27,2.59,1.51A65.64,65.64,0,0,0,60.94,2.2C61.28.84,59.46-.45,58.44.74a72.7,72.7,0,0,0-9.93,14.87l2.8.76L51,11.75a1.51,1.51,0,0,0-2.8-.76,11.29,11.29,0,0,0-2.25,7.77,1.52,1.52,0,0,0,2.56,1.06,6.94,6.94,0,0,0,2.4-5.58h-3l-.06,10.1a1.51,1.51,0,0,0,2.95.4,12.79,12.79,0,0,1,5.06-7.88l-2.26-1.3.22,5.68a1.51,1.51,0,0,0,2.8.76l3.28-5.71H57.3c1.36,2.31,4.58,11.89,8.7,9.5a1.56,1.56,0,0,0,.69-1.69l-.09-.62c-.26-1.68-3-1.27-2.95.4l.3,7.62c.08,1.92,3.08,1.93,3,0Z" transform="translate(0 -0.27)"/></g><g class="cls-7"><path d="M60.82,22.36l7.46-10.15-2.59-1.51a29.49,29.49,0,0,0-4,12.51,1.51,1.51,0,0,0,2.56,1.06l2.16-2.73c1.18-1.5-.93-3.64-2.12-2.12l-2.16,2.73,2.56,1.06a26,26,0,0,1,3.6-11c1-1.7-1.47-3-2.59-1.51L58.23,20.85c-1.14,1.56,1.46,3.06,2.59,1.51Z" transform="translate(0 -0.27)"/></g><g class="cls-7"><path d="M66.28,22.4A17.82,17.82,0,0,0,62.43,29c-.52,1.56,1.45,2.31,2.51,1.46a42.34,42.34,0,0,0,7.67-8l-2.74-1.16a68,68,0,0,1-4.43,13.2A1.5,1.5,0,0,0,68,36a30.08,30.08,0,0,1,6.1-6l-2.2-1.69L63.67,47.87c-.57,1.36,1.61,2.61,2.51,1.46l4.31-5.53L68,42.34a258.83,258.83,0,0,1-9.73,28.35l2.89.8a11.94,11.94,0,0,1,3.3-5.15l-2.51-1.46a56.91,56.91,0,0,1-8.27,19.58c-1.07,1.61,1.53,3.12,2.59,1.51a59,59,0,0,0,8.58-20.29,1.51,1.51,0,0,0-2.51-1.46,15,15,0,0,0-4.07,6.48c-.63,1.87,2.18,2.54,2.89.8a258.83,258.83,0,0,0,9.73-28.35c.38-1.34-1.55-2.69-2.51-1.46L64.06,47.2l2.51,1.46,8.25-19.59c.49-1.17-1.2-2.45-2.2-1.69a35.68,35.68,0,0,0-7.17,7.1L68,36a72,72,0,0,0,4.73-13.92A1.51,1.51,0,0,0,70,20.92a39.36,39.36,0,0,1-7.2,7.42l2.51,1.46a13.21,13.21,0,0,1,3.08-5.29c1.29-1.43-.82-3.56-2.12-2.12Z" transform="translate(0 -0.27)"/></g><g class="cls-7"><path d="M50.15,111.17l-4.26,12.92c-.61,1.84,2.29,2.63,2.89.8L53,112c.61-1.84-2.29-2.63-2.89-.8Z" transform="translate(0 -0.27)"/></g><g class="cls-7"><path d="M57.87,57.49l-.12,3.77a1.51,1.51,0,0,0,2.95.4q3.88-14.09,7-28.35c1-4.59,1.72-9.29,2.86-13.84.65-2.59,2.6-5,2.26-7.77-.23-1.86-3-2-3,0v5.8a1.5,1.5,0,0,0,3,0v-5.8h-3c-.08-.68-1.78,5-1.8,5.12-.39,1.84-.71,3.7-1.08,5.55q-1.3,6.47-2.75,12.91-2.91,12.87-6.43,25.59l2.95.4.12-3.77c.06-1.93-2.94-1.93-3,0Z" transform="translate(0 -0.27)"/></g><g class="cls-7"><path d="M66.09,10.33C63.53,8.68,60.4,6.9,57.28,8A5.2,5.2,0,0,0,53.7,14c.37,1.89,3.27,1.09,2.89-.8-.41-2.06,2.31-2.69,3.75-2.39a13.23,13.23,0,0,1,4.23,2.12c1.63,1.05,3.13-1.55,1.51-2.59Z" transform="translate(0 -0.27)"/></g><g class="cls-7"><path d="M49.86,123.5a3.53,3.53,0,0,1-1.55,2.7l2.51,1.46a30.13,30.13,0,0,1,8.67-14.06c1.42-1.31-.7-3.43-2.12-2.12a33.09,33.09,0,0,0-9.44,15.38,1.51,1.51,0,0,0,2.51,1.46,6.89,6.89,0,0,0,2.43-4.82c.22-1.91-2.78-1.9-3,0Z" transform="translate(0 -0.27)"/></g><g class="cls-7"><path d="M64.42,108.52a10.31,10.31,0,0,0-2.61,7,1.5,1.5,0,0,0,3,0,7.12,7.12,0,0,1,1.73-4.85c1.26-1.45-.85-3.58-2.12-2.12Z" transform="translate(0 -0.27)"/></g><g class="cls-7"><path d="M70.26,100.39a69,69,0,0,1-11.81,11.86L61,113.31a9.71,9.71,0,0,1,1.86-6.61l-2.74-1.16c-1.54,4-4.12,8.5-4.89,12.69-.35,1.92-.23.86.25,3.11.74,3.45.78,6.28-.69,9.59-.77,1.73,1.71,3.27,2.59,1.51L66,115.31a1.5,1.5,0,0,0-2.59-1.51,64.13,64.13,0,0,0-10.38,20.38c-.48,1.6,2,2.71,2.74,1.16l4.25-8.76-2.74-1.16-7.23,20.52c-.58,1.64,1.88,2.57,2.74,1.16a40.49,40.49,0,0,0,4-8.86l-2.89-.8a69,69,0,0,1-4.12,15.35c-.62,1.57,2,2.69,2.74,1.16L60,138.35l-2.74-1.16a84.71,84.71,0,0,0-5.05,40.26c.22,1.9,3.22,1.92,3,0A82.85,82.85,0,0,1,60.13,138c.6-1.58-2-2.69-2.74-1.16L50,152.44l2.74,1.16a69,69,0,0,0,4.12-15.35,1.5,1.5,0,0,0-2.89-.8,37.17,37.17,0,0,1-3.7,8.14L53,146.74l7.23-20.52c.56-1.59-2-2.69-2.74-1.16l-4.25,8.76L56,135A61.85,61.85,0,0,1,66,115.31l-2.59-1.51-8.63,17.13,2.59,1.51a18.28,18.28,0,0,0,1.39-10.37c-.68-5.51,2.25-10.58,4.23-15.74.66-1.7-1.82-2.42-2.74-1.16A11.05,11.05,0,0,0,58,113.31a1.52,1.52,0,0,0,2.56,1.06,69,69,0,0,0,11.81-11.86c1.17-1.5-.93-3.64-2.12-2.12Z" transform="translate(0 -0.27)"/></g></g></g></g></svg>