<svg xmlns="http://www.w3.org/2000/svg" viewBox="0 0 372.89 277.72"><defs><style>.cls-1{fill:none;stroke:#000;stroke-miterlimit:10;stroke-width:0.25px;}</style></defs><title>Logo</title><g id="Слой_2" data-name="Слой 2"><g id="Слой_1-2" data-name="Слой 1"><g id="logo"><path d="M.07,3.55c12.47,16.5,25,33,38.2,48.92,12,14.45,23.66,29,37.14,42.14a.38.38,0,0,0,.53,0A907.15,907.15,0,0,0,147.72.55c.27-.4-.38-.78-.65-.38q-17.34,25.95-36.34,50.72-9.92,12.94-20.3,25.54Q86,81.79,81.49,87.08c-1.25,1.46-2.83,4-4.42,5.12-2.53,1.7-3.92-.84-5.74-2.66C57.14,75.38,44.66,59.32,32.08,43.72,21.36,30.41,11,16.8.72,3.17c-.29-.38-.94,0-.65.38Z"/><path d="M75,93.36c0,14.77-.38,29.52-.72,44.29-.18,7.8-.1,15.6-.3,23.4-.17,6.47-.76,12.85,0,19.31.06.47.81.48.75,0-.78-6.46-.19-12.84,0-19.31.21-7.79.12-15.6.3-23.4.34-14.77.72-29.52.72-44.29a.38.38,0,0,0-.75,0Z"/><path d="M364,65.36c0,35.67-2.59,71.3-2.25,107a.38.38,0,0,0,.75,0c-.33-35.68,2.21-71.3,2.25-107a.38.38,0,0,0-.75,0Z"/><path d="M372.85,31.65c-2.25-5-7.24-11.27-13.44-8.38-5.19,2.41-5,9-.86,12.38,3.83,3.13,10.15,3,12.47-1.87a8.9,8.9,0,0,0-4.37-11.89c-.44-.19-.64.54-.2.72,4.13,1.72,5.88,7.18,3.77,11.11C367.94,38,362.37,37.77,359,35c-4.26-3.49-3.58-10.41,2.32-11.62,5.31-1.08,9,4.52,10.86,8.62.2.44.84.06.65-.38Z"/><path d="M256.6,67.36c1.44,35-.33,70.08-2.58,105a.38.38,0,0,0,.74.1l.16-.73a.38.38,0,0,0-.55-.42c-.39.2-.3.66-.35,1.05s.69.47.75,0c2-16.92,2-34.4,2.58-51.42.57-17.85.73-35.73,0-53.58,0-.48-.77-.48-.75,0Z"/><path d="M257.4,66.91q-.14.87.51.46l1.25-.31a22.93,22.93,0,0,0,2.87-.63,32,32,0,0,1,7-.7q7.62,0,15.24,0c12.57,0,26.39-.79,37.52,6.14,8.6,5.36,11,13.93,11.25,23.61.19,9,0,18,0,26.94q0,24,0,47.91a.38.38,0,0,0,.75,0q0-21,0-42V102.89c0-7,.47-14.44-2.28-21C323.36,62.28,295.85,65,278.66,65c-4.91,0-10.05-.5-14.89.31-1,.17-6.74.75-7,1.87a.38.38,0,0,0,.36.47h.24c.48,0,.48-.72,0-.75Z"/><path d="M183.4,65c-10.76-.88-21.92-.73-31.75,4.31-9.53,4.88-18.8,14.69-23,24.53-8.26,19.13-11.1,46.88,3,64,7.8,9.49,20.14,15.06,31.66,18.57s25.57,4.37,36.85-.6c10.12-4.46,17.7-13.56,23.56-22.67,6.77-10.51,11-23.83,10.42-36.4-.54-12.79-6.31-25.1-15.15-34.27C209.83,73,196.77,65.21,183.4,65a.38.38,0,0,0,0,.75c23.66.4,45.44,22.5,49.31,45.07,3.82,22.33-8.88,49.25-27.8,61.54-10.47,6.8-24,7.17-35.88,4.73-11.44-2.34-23.88-7.55-32.66-15.39-16.66-14.86-15.5-39.57-9.85-59.26,3.6-12.55,11.79-24.32,23.14-31.17,10.22-6.16,22.19-6.48,33.75-5.53.48,0,.48-.71,0-.75Z"/><path d="M181.13,65.09c-7.59,7.79-12.88,17.62-17.1,27.57-4,9.34-7.3,19.29-8.61,29.39-1.37,10.57-.32,22,1.62,32.41,1.55,8.38,4.29,14.59,8,22.09.22.43.86.05.65-.38-3.45-6.9-6.14-12.79-7.68-20.45-2.21-11-3.37-23.3-1.76-34.45,2.82-19.43,11.56-41.45,25.38-55.64.34-.35-.19-.88-.53-.53Z"/><path d="M345.61,188.75H371.4a.38.38,0,0,0,0-.75H345.61a.38.38,0,0,0,0,.75Z"/><path d="M358,189.36c-.06,14,.21,27.93-.37,41.92C357,246.64,356.07,262,356,277.36a.38.38,0,0,0,.75,0c0-15.37,1-30.72,1.61-46.08.57-14,.31-27.93.37-41.92a.38.38,0,0,0-.75,0Z"/><path class="cls-1" d="M319.4,270.64"/><path d="M341.4,188c-5.6,0-11.18.29-16.77.69-1.82.13-3.7-.36-4.59,1.3-1,2,0,7.68,0,9.94q0,6.36.07,12.72c.13,21.24.28,42.48.27,63.72a.38.38,0,0,0,.75,0c0-18.93-.1-37.85-.22-56.78q-.07-11.13-.12-22.26a25.7,25.7,0,0,1,0-4.92c.65-3.11,2.88-2.91,5.64-3.1,5-.34,10-.56,15-.57a.38.38,0,0,0,0-.75Z"/><path d="M320.4,223.73c7.13.68,14.32-.57,21.45.11.48,0,.48-.7,0-.75-7.13-.68-14.32.57-21.45-.11-.48,0-.48.7,0,.75Z"/><path d="M287.5,190.77a84.62,84.62,0,0,1,11.75-1c1.75,0,4-.23,5.63.26,4.19,1.24,4.29,4.54,4.52,8,.56,8.51-.06,17.27-.12,25.8-.12,17.2-.26,34.41-.25,51.61a.38.38,0,0,0,.75,0c0-21.84.23-43.67.33-65.51,0-4.79.88-10.47-.08-15.17a7.09,7.09,0,0,0-2.7-4.36c-2.45-1.77-5.91-1.37-8.75-1.33a86.65,86.65,0,0,0-11.27,1c-.48.07-.27.79.2.72Z"/><path d="M309.4,224c-5.84,0-11.65.6-17.48.75-2.86.07-5,.35-6.23,3.19-1.49,3.4-.33,8.86-.39,12.5-.09,5.28-.33,10.56-.42,15.85-.09,5.49-1,14.13,2.66,18.86,1.53,2,2.78,1.6,5.23,1.67,5.68.18,11.18.29,16.73-1.09a.38.38,0,0,0-.2-.72,49.78,49.78,0,0,1-13.9,1.16c-4.19-.13-7.18,0-8.6-4.3-1.76-5.32-1.27-11.62-1.14-17.14.16-7.11.21-14.23.41-21.34.12-4.18-.46-6.7,4.92-7.89,1.69-.37,3.8-.06,5.56-.15,4.29-.22,8.56-.59,12.86-.61a.38.38,0,0,0,0-.75Z"/><path d="M255.27,190.36c1.54,28.33,2.66,56.63,1.75,85,0,.48.73.48.75,0,.91-28.37-.21-56.67-1.75-85,0-.48-.78-.48-.75,0Z"/><path d="M255.65,190.73c4.88-.62,10.66-1.58,15.51-.28,5.57,1.49,5.42,7.15,5.88,12.07.4,4.35,1.24,12.89-2.88,15.87a8.8,8.8,0,0,1-3.12,1c-1.35.31-2.71.57-4.08.77.42-.06-7,.1-4.13,1s5.61.14,8.58,2a11.69,11.69,0,0,1,5.21,7.1c1.14,4.27.42,9.47.42,13.84,0,10.77.37,21.59,0,32.35,0,.48.73.48.75,0,.47-13.57.07-27.28,0-40.86-.06-10.73-7.23-16.34-17.87-14.8-.42.06-.32.75.1.74,4.21-.09,12,.22,15.21-3,3.76-3.76,3-11.81,2.52-16.53-.36-3.56-.14-9-3.52-11.12-5-3.11-13.16-1.46-18.55-.78-.47.06-.48.81,0,.75Z"/><path d="M246.43,198.41c-.12-1.7-.2-5-1.33-6.27-1.49-1.69-5.5-2.54-7.54-2.88-5.15-.86-10.59.41-13.73,4.84-4.58,6.45-2.73,17.58-2.58,25.24l.7,34.41.27,13.43c0,1.68-.38,4,.54,5.57,2.56,4.3,11.13,5.43,15.49,4.81,5.71-.81,9.85-4.49,10.18-10.37,0-.48-.72-.48-.75,0-.4,7.29-7.14,10.34-13.72,9.71-3.76-.36-9.85-2.08-10.9-6.11-.51-2-.09-4.64-.14-6.65l-.23-11.31c-.3-14.72-.69-29.44-.9-44.15-.09-6.39.07-14,6.38-17.48,3.61-2,8.3-1.78,12.11-.51,4,1.32,5.13,3.8,5.4,7.72,0,.48.78.48.75,0Z"/><path d="M42.66,261.63c9.44-7.84,18.15-16.37,26.8-25.05C75.86,230.16,84.06,226,92,221.77a85.38,85.38,0,0,1,31.57-9.48c16-1.77,30.17,2.52,44.4,9.69a76.33,76.33,0,0,1,21.13,15.08c1.16,1.16,6.73,6.09,6.31,7.26-.7,2-6.16,4.65-7.81,5.85a60.3,60.3,0,0,1-5.57,4c-7.83,4.41-17.92,7-26.64,8.69-12.77,2.47-26.52,1.12-39.17-1.5a130.8,130.8,0,0,1-74.54-45.22c-.31-.37-.83.16-.53.53A131.32,131.32,0,0,0,111.5,261c23.23,5.66,48.87,5.38,70.48-6.06a62.05,62.05,0,0,0,7.17-5c1.7-1.24,6.52-3.59,7.28-5.7a.38.38,0,0,0-.1-.36C179.84,224.64,154,209.52,128,211.16c-10.64.67-22.09,2.7-31.71,7.51-8.23,4.11-17.8,8.47-24.65,14.73-10,9.13-19.06,19-29.5,27.7-.37.31.16.84.53.53Z"/></g></g></g></svg>