<svg xmlns="http://www.w3.org/2000/svg" viewBox="0 0 387.36 148.33"><defs><style>.cls-1{fill:#fcee82;}.cls-2{fill:#f9ee67;}.cls-3{fill:#1a1a1a;}.cls-4{fill:#4d4d4d;}.cls-5{fill:#fff;}</style></defs><title>malistar</title><g id="Layer_2" data-name="Layer 2"><g id="Layer_2-2" data-name="Layer 2"><path class="cls-1" d="M156.83,41.46a19.7,19.7,0,0,0,.6,6.76c1.58,6.42,12.4,5.26,11.79-1.6-.35-3.89,1.16-7.38,2.06-11.11.94-3.94,1.55-7.94,2.16-11.94.92-6,4-14.09-2.33-18.06-3.5-2.2-7.55.09-8.81,3.59-2.53,7-7,13.45-11.25,19.58-3.73,5.45-8.83,9.84-11,16.18-2.3,6.59,7.49,10.24,11,4.62q4.22-6.81,8.57-13.53c2.61-4,5-9,8.78-12l-9.42-1.21c2.42,3.66,5.51,8.25,10.65,6.09,4.37-1.84,5-7.69,6-11.74l-10,2.65c1.17,1.16,1.86,5.94,2.57,7.63a52.12,52.12,0,0,0,4.49,8.33c3.55,5.38,13.32,2.13,11-4.62l-3.23-9.29c-2.52-7.24-13.43-4.39-11.57,3.19a83.89,83.89,0,0,0,6.37,17.4c2.44,4.9,5.07,10.62,10.39,12.72,5.08,2,9.19-4.62,6.78-8.81-3.94-6.83-7.76-13.75-12.31-20.21-2.71-3.85-9.85-4-11,1.43l-4,19.65,11.57,3.19c1.18-7-1.41-13.48-.82-20.42h-12a120.55,120.55,0,0,1-2.2,17.7l11.79,1.6.11-18.73c0-7.09-9.53-7.73-11.79-1.6A286.06,286.06,0,0,0,152,60.61l11.79,1.6a104.9,104.9,0,0,1,.61-21.88c.89-6.71-10.32-8.13-11.79-1.6l-.44,2c-1.68,7.5,9.58,10.69,11.57,3.19l.69-2.62c1.53-5.78-5.75-10.08-10-5.84a32.17,32.17,0,0,0-4.9,6.07c-1,1.6-1.5,4.59-2.79,5.85-2.42,2.36-8.77,3.35-12.31,3.66-5.38.47-10.61.21-16,.22-4.6,0-11.16.52-14.25,4.41-1.23,1.55-2.41,3.78-1.54,5.84l.23.56,5.79-7.6c-5.45-.66-10.83-1-16.07,1-7.21,2.7-4.46,13.07,3.19,11.57q17.21-3.38,34.42-6.77c9.22-1.83,18.42-4,25.22-10.94,4.94-5-1.28-12.35-7.27-9.42a27.56,27.56,0,0,0-6.15,4.23l10,5.84c1.43-5.79-4.34-11.17-10-8.2-4.93,2.58-5.75,10.43-9.3,14.53-4.46,5.16-10.15,4.39-16.39,3.92-3.08-.23-5.84-.32-8.74-1.43a29.44,29.44,0,0,0-10-2.23c-5-.19-8.25,6.87-4.24,10.24a41.67,41.67,0,0,0,13.33,7.65l1.6-11.79-1.56-.17c-5.19-.55-7.89,6.93-4.24,10.24l2.68,2.43c5.71,5.19,13.81-2.84,8.49-8.49-2.33-2.47-4.66-3.23-8-3.66-2.94-.39-6.39,3.08-6,6,.92,6.86,8.49,10.49,13.08,15.18A89.17,89.17,0,0,1,126,101.75c3.89,6.66,14.27.63,10.36-6.06a104.61,104.61,0,0,0-11.83-16.41c-4.44-5-9.85-8.81-14.52-13.53L111.8,70l-.13-1-6,6-.52.15,8.49-8.49-2.68-2.43L106.7,74.48l1.56.17c7.1.76,7.58-9.67,1.6-11.79a25.52,25.52,0,0,1-8-4.57L97.59,68.54c2.68.1,4.74,1.09,7.2,2A30.16,30.16,0,0,0,113,72c5.61.43,11.56,1.33,17.1-.16a23.51,23.51,0,0,0,11.51-7.55,37.43,37.43,0,0,0,4.44-6.49c1-1.78,1.67-5.32,3.19-6.59l-5.84,1.54-1.3-.8-1.54-5.84-.17.68c-1.48,6,5.58,9.75,10,5.84a15.67,15.67,0,0,1,3.73-2.35l-7.27-9.42c-6,6.17-15.62,7-23.69,8.59l-30.66,6L95.72,67c4.27-1.6,8.44-1.12,12.88-.58,3.58.44,7.2-4.24,5.79-7.6l-.23-.56-1.54,5.84c2.06-2.59,12.24-.61,15.24-.69,5.06-.14,11-.22,15.8-1.85,3.59-1.21,8.65-2.6,11.36-5.35,3.49-3.54,4.21-8.72,7.84-12.32l-10-5.84-.69,2.62,11.57,3.19.44-2-11.79-1.6a104.9,104.9,0,0,0-.61,21.88c.49,6.41,10.11,8.55,11.79,1.6a286.06,286.06,0,0,1,9.62-31.7l-11.79-1.6-.11,18.73c0,6.6,10.42,8.37,11.79,1.6a142.73,142.73,0,0,0,2.63-20.89c.4-7.78-11.35-7.6-12,0-.49,5.76,2.19,11.58,1.25,17.23-1.26,7.49,10,10.84,11.57,3.19l4-19.65-11,1.43c4.55,6.46,8.36,13.38,12.31,20.21l6.78-8.81c2.25.89-1.17-3.39-1.62-4.2-1-1.73-1.87-3.5-2.69-5.31a70.88,70.88,0,0,1-4.06-12.23L168.68,25l3.23,9.29,11-4.62a40.82,40.82,0,0,1-5.09-10.26c-1-3.09-1.47-5.77-3.86-8.12-3.1-3.05-9-1.84-10,2.65-.34,1.46-.68,2.92-1.08,4.36q-.23.87-.5,1.73-.75,2.2.64-.88l5.84-1.54q2.56,1.47.43-.88c-2.3-3.47-6.33-3.72-9.42-1.21-4.1,3.32-6.78,8.49-9.63,12.85q-4.9,7.49-9.6,15.1l11,4.62c.95-2.72,3.34-4.76,5.11-6.94a113.87,113.87,0,0,0,6.76-9.42c4.06-6.2,7.9-12.39,10.43-19.4L165,15.87l.69.43L163,12.72c.57,1.89-.83,5.76-1.12,7.66-.47,3.08-.93,6.16-1.55,9.2-1.16,5.65-3.62,11.17-3.09,17L169,45a6.68,6.68,0,0,1-.17-3.57c.71-7.69-11.3-7.64-12,0Z"/><path class="cls-1" d="M107.24,77.71l.1.38,11.79-1.6a12.39,12.39,0,0,0-2.08-4.24c-3.79-5-13.2-2.46-11,4.62a21.19,21.19,0,0,0,9,11.41,59.62,59.62,0,0,0,5.84,3.23c1.09.56,2.2,1.11,3.24,1.77,1.81,1.14,1.83,2.42,3.16,0l9.42-1.21A11.53,11.53,0,0,0,129.5,88c-5.41-.77-9,3.77-6.78,8.81l-.32-1,10.24-4.24-.49-.58.94,7.27.35-.67-11-4.62a45.3,45.3,0,0,0-1.15,8.61c0,1.56,1.15,5.8.33,6.89l11,4.62a10.76,10.76,0,0,0,0-7.4c-2.26-6.78-10.94-4.94-11.79,1.6l-3,22.84c-1,7.64,11,7.56,12,0l3-22.84-11.79,1.6,0,1c-2.47,7,7.21,9.59,11,4.62,1.75-2.31,1.84-4.86,1.63-7.64a35.62,35.62,0,0,1,.4-10.73c1.39-6.36-7.66-10.92-11-4.62l-.35.67a6.25,6.25,0,0,0,.94,7.27l.49.58c3.3,3.91,10.58.79,10.24-4.24a14.25,14.25,0,0,0-1.32-5.1l-6.78,8.81a1.54,1.54,0,0,1,1.93,1c2.5,2.92,7.67,2,9.42-1.21,3.37-6.15-.54-11.59-5.64-15.2-4.33-3.06-12.61-4.89-14.37-10.44l-11,4.62.87,1.38c2.14,6.58,11.27,5.14,11.79-1.6a7.19,7.19,0,0,0-.53-3.57c-1.25-3-4-5.09-7.38-4.19-2.83.75-5.43,4.39-4.19,7.38Z"/><path class="cls-1" d="M166.49,19.94c-6.48,4.23-26.81,15.42-14.2,24.12,2.86,2,6.42.3,8.21-2.15l6.76-9.27-11-4.62c-2,5.78-8.74,17.6-2.74,22.72,5.8,4.94,14.56-2.21,19.06-6h-8.49A76.55,76.55,0,0,1,178.68,60c4.53,6.37,13.45,1,10.36-6.06-.68-1.55-7.16-8.65-6.63-9.79l-11-1.43c1.55,8.2,12.14,19.61,21.23,16.15,3.15-1.2,5-4,4.19-7.38a11.36,11.36,0,0,0-3-5.43l-5.84,10,31.16,6c5.85,1.13,10-5.44,5.84-10a8.93,8.93,0,0,0-7.08-3c-7,.12-7.83,9.53-1.6,11.79,2,.74,3.38.13,5.4.24,1.51.09,3.13.75,4.64,1a35,35,0,0,0,12.25-.55l-5.84-10c-5.66,4.57-10.9,9.71-16.27,14.6-5.19,4.73,1.42,12.53,7.27,9.42l1.7-.9-6.06-10.36c-2.76,1.81-3.68,4.6-6,6.64-1.29,1.14-3.25,1.51-4.6,2.8a76.09,76.09,0,0,0-5.36,6.3c-3,3.57-6.75,7.11-9,11.26-2.38,4.45-1.62,9.31-.29,14,2.13,7.41,13.71,4.26,11.57-3.19-1.31-4.57,0-6.24,2.94-9.72,2.36-2.8,4.7-5.62,7.09-8.4,1.7-2,3.89-2.46,5.79-4.23,1.43-1.33,2.29-4,3.86-5.05,6.43-4.24.8-14-6.06-10.36l-1.7.9L225,74.61c5.38-4.89,10.62-10,16.27-14.6,5.05-4.09-.56-11.11-5.84-10a22.77,22.77,0,0,1-9.45-.14,28.18,28.18,0,0,0-3.1-.6c-.69-.06-2.68.31-3.36.07L218,61.1l-1.4-.53,5.84-10-31.16-6c-5.84-1.13-10,5.45-5.84,10l-.09.13,4.19-7.38c-2.33.89-6.15-6.08-6.47-7.77-.93-4.89-8.83-6-11-1.43a13.14,13.14,0,0,0-.19,11.79c1.75,3.77,5.16,6.32,6.82,10.12L189,53.94a87.27,87.27,0,0,0-16.43-17.65,6.23,6.23,0,0,0-8.49,0c-2.18,1.81-5,3.89-7.82,4.47l4.62.6-.71-.52L163,44.42c.28,1.76.19.38.65-.73.6-1.44,1-3,1.52-4.46l2.73-8c2.34-6.89-7.23-9.75-11-4.62l-6.76,9.27,8.21-2.15-.69-.48,2.76,3.59c.71,1.83-.74,2.62,1.64.82q1.82-1.38,3.69-2.7c2.23-1.6,4.51-3.13,6.81-4.63,6.44-4.21.43-14.6-6.06-10.36Z"/><path class="cls-1" d="M206.15,98.45l1.15-2.07-11.18-3c-.13,4.58-1.19,9.44,2,13.16,1.55,1.82,5.29,2.42,7.27.94l.39-.29c2.48-1.86,4.1-5.25,2.15-8.21l-.2-.31a6,6,0,0,0-11,4.62c2.94,13.37,5.31,27.05,9.41,40.12l10-5.84a65.41,65.41,0,0,0-19.71-12c-5.56-2.19-10.24,6.24-5.84,10a32.73,32.73,0,0,0,6.24,4.35c5.73,3,12.71-4.8,7.27-9.42-5.12-4.36-11-6.4-17-9.23-2.9-1.37-5.33-3.37-8.13-4.87-3.45-1.84-7.31-2.15-11.15-2.25-5.17-.14-8,6.68-4.24,10.24,2.82,2.7,5.52,2.09,8.73,3.53s5.75,4,9,5.43c7.54,3.34,15.72,4.39,23.89,4.75,4.32.19,7.78-5.33,5.18-9-2.36-3.35-3-7.21-4-11.12-1.16-4.72-2.59-9.35-2.39-14.25h-12l2.43,23,9-5.18a97.19,97.19,0,0,0-27-10.39c-6.58-1.45-10.54,7.3-4.62,11a85.38,85.38,0,0,0,24.3,10.28l-1.43-11-.66.49,4.62-.6-.87-.25,3.59,2.76c-1.54-2.34-1.72-7.72-2.1-10.52-.51-3.81-.54-7.3,1.64-10.58l-11-4.62c-.5,2.38-1.86,11.66-4.77,12.65,1.13-.38-2.45-1.83-3.15-2.07a9.59,9.59,0,0,0-6.41-.18c-6,1.9-5.31,9.41,0,11.57l14.21,5.78c6.56,2.67,10-7.44,4.62-11l-1.94-1.27c-6.49-4.23-12.51,6.16-6.06,10.36l1.94,1.27,4.62-11-14.21-5.78V120c-.25.08,5.55,2.54,6.81,2.55a11.43,11.43,0,0,0,8-3.38c4.62-4.53,6.58-11.82,7.86-17.94a6,6,0,0,0-11-4.62c-4.6,6.93-3.81,15.06-2.33,22.84.63,3.32.81,7.53,2.78,10.38a6.91,6.91,0,0,0,9.74,1.91c3.87-2.89,4-9.6-1.43-11A74.55,74.55,0,0,1,178,111.71l-4.62,11a85.94,85.94,0,0,1,24.12,9.18c3.62,2,9.53-.47,9-5.18l-2.43-23c-.8-7.55-11.68-7.87-12,0-.24,6,1.42,11.7,2.82,17.44,1.2,4.88,2.28,9.81,5.22,14l5.18-9c-6.54-.29-13.28-1-19.31-3.78-2.76-1.27-4.93-3.26-7.51-4.77-1.32-.77-6-1.32-6.31-1.65l-4.24,10.24c5.74.16,9.49,3.83,14.59,6.1,4.47,2,9.38,3.52,13.16,6.73l7.27-9.42a19,19,0,0,1-3.81-2.47l-5.84,10A48.9,48.9,0,0,1,207.71,146c4.24,3.75,11.93.22,10-5.84-4.1-13.07-6.47-26.75-9.41-40.12l-11,4.62.2.31,2.15-8.21-.39.29,7.27.94-.37-.43,1.76,4.24a65.93,65.93,0,0,1,.15-8.48c.16-5.94-8.31-8.19-11.18-3l-1.15,2.07c-3.75,6.76,6.61,12.82,10.36,6.06Z"/><path class="cls-1" d="M114.05,141.44l.75-3.28,8.49,8.49c5.54-5.49,4.46-14.71,7.37-21.62,1.77-4.19-3.38-8.76-7.38-7.38-3.76,1.3-6.38,4-6,8.24.7,7.58,11.75,7.85,12,0a14.14,14.14,0,0,1,.91-4.55l-11.79-1.6a55.06,55.06,0,0,1-.41,17.54c-1,5.2,6,11,10,5.84,2.38-3,7-3.86,10.47-5.39a94.85,94.85,0,0,0,11.87-6.41l-7.27-9.42-2.4,2.7c-4.26,4.79,1.39,13.57,7.27,9.42a44.31,44.31,0,0,1,21.55-8.28c3.58-.34,7.2-3.6,5.79-7.6l-.11.15c4.13-6.56-6.25-12.58-10.36-6.06a10.13,10.13,0,0,0-1.1,9.1l5.79-7.6a56.32,56.32,0,0,0-27.61,9.92l7.27,9.42,2.4-2.7c4.33-4.87-1.23-13.23-7.27-9.42a87.31,87.31,0,0,1-13.55,7.12c-4.11,1.67-8.37,2.92-11.22,6.56l10,5.84a64.92,64.92,0,0,0,.84-20.73c-.82-6.53-9.47-8.37-11.79-1.6a26.12,26.12,0,0,0-1.34,7.74h12l-.3.94-3.59,2.76,1.06-.37-7.38-7.38a41.72,41.72,0,0,0-2.76,9.26c-.34,2,0,5.56-1.53,7.06-5.51,5.46,2.85,13.76,8.49,8.49,2.52-2.36,3.06-5.11,2.33-8.39-1.67-7.54-13.24-4.35-11.57,3.19Z"/><path class="cls-1" d="M159.93,74.76l4.42-14c2.9-9.22-7.67-15.83-15.42-11.86a24.94,24.94,0,0,1-12.75,3.23,103.12,103.12,0,0,0-16.95.8c-5.79.89-12.08,2.68-13.85,9.12-1.67,6.1,2.31,11.09,5.94,15.49a106.18,106.18,0,0,0,9.63,9.83c1.78,1.67,3.58,3.32,5.31,5a30.76,30.76,0,0,1,2.24,2.23c-.13-.45-.72-.78-.87-.27-1.38,4.7-1.8,10-2.79,14.8-1,5.06-2.6,10-3.6,15h20.25l-.27-1.23v5.58c.82-4.14,1.91-7.84,1.57-12.16-.11-1.36-1.15-6.17-.38-6.91l-17.55-4.63c2.47,6.18,2.51,12.28,2.45,18.86-.09,9.87,11.2,12.83,17.92,7.42s14.58-7.61,22.72-9.74c9.48-2.49,21-3.78,28.41-10.78,7.1-6.72,12.66-15.94,18.62-23.68,2-2.57,4-6.36,6.68-8.33,2.41-1.8,4.79-2.24,6.88-4.69a14.2,14.2,0,0,0,1.65-2.4q.4-.86.75-1.75,1.75-3.68-2,2c6.78-3.21,7-15,0-18.13-8.53-3.86-18.2-3.86-27.34-5.53-5-.91-10-1.77-14.93-3-4.2-1-8.12-2.91-12.45-3.34-8.69-.88-17.1,3.72-24.21,8.24-7.45,4.74-14.36,8.77-23.06,10.77-8.31,1.92-10.8,15.4-2.51,19.19q5.37,2.45,10.81,4.72c3.4,1.43,6.84,3.28,10.58,3.48,9.25.48,14.8-7.85,14.12-16.39-.49-6.12-4.45-9.87-10.5-10.5-7.63-.8-13.59,6-14,13.19-.33,5.48.78,11.29,1.26,16.75l19.57-5.3a66.84,66.84,0,0,0-11.07-13.33c-7.68-7-20.16-.17-17.55,10.22a17.73,17.73,0,0,0,3.55,7c1.38,1.71,3.59,3,4.83,4.76,1.79,2.54.2,6.65-.49,9.44-1.48,5.94,3.07,14.12,10.12,13.29,5.44-.64,10.91-1.5,16.37-1.91,4.23-.32,7.33,2.63,11.1,4.34,5.33,2.42,12.2,5.84,18,3.38,6.35-2.67,8.72-9.88,6.31-16.09-3.78-9.72-18.7-14.15-28.19-15a22.28,22.28,0,0,0-14.82,4.14c-2.2,1.54-7,7.47-9.91,7.56l10.12,7.71-.43,3.86a4.15,4.15,0,0,0,.77-.48c.77-.13,1.94-1.33,2.57-1.79A55.15,55.15,0,0,0,164,107.7a37.45,37.45,0,0,0,8.77-14c1.68-4.64,2.31-9.53,3.23-14.36,1-5.1,3.91-10.44,3.91-15.62a13.18,13.18,0,0,0-10.79-13.09C162.3,49.56,157.51,54,153.63,59A25,25,0,0,0,148,75.18c0,5.18,0,8.44-3,12.83l19.57,5.3c-.1-3.63-.47-7.37-.07-11l-1.43,5.3c-1,1.44,1.48-.84,1.77-1.07l3.43-2.76c2.1-1.7,4.29-3.33,6.3-5.14a27.79,27.79,0,0,0,4.92-5.8,31.74,31.74,0,0,0,2-4.36c.57-1.33.76-.78.13-.29L177,70.91l1-.25h-5.58c1.23.26,5.15,2.5,7.17,3.36A48.35,48.35,0,0,0,189,77.07,53.27,53.27,0,0,0,210,76.91c5.57-1.07,8.75-7.76,7.33-12.92-1.67-6.07-7.27-8.1-12.92-7.33-8.49,1.16-14.2,8.09-18.2,15.07-4.25,7.44-8.37,15-12.55,22.44-6.65,11.9,10.68,21.78,18.13,10.6C197,97,202.21,89.51,209.58,83.59c4.43-3.55,3.7-11.15,0-14.85-4.37-4.37-10.41-3.56-14.85,0-8.67,7-15,16.26-21.1,25.43l18.13,10.6,9.79-17.51c2.07-3.7,3.86-9.73,8.41-10.35l-5.58-20.25a29.07,29.07,0,0,1-18.46-2.74c-4.38-2.18-8.26-4.77-13.42-3.51a14,14,0,0,0-9,7.17c-1.72,3.18-1.22,4-3.75,6.22s-5.57,4.55-8.36,6.8c-3.09,2.49-6.37,4.89-7.48,8.94-1.18,4.3-.42,9.39-.3,13.77.29,10.78,13.8,13.81,19.57,5.3a35,35,0,0,0,5.91-17.49c.24-3.71-1.4-8.66,2.58-11.05l-5.3,1.43,1.38-.06L162.44,70l.94.61-3.77-3.77-.32-.34V60.94c-1.08,5.41-3.13,10.57-4.11,16.08-.81,4.58-1.38,9.74-4.13,13.64s-7,5.86-10.55,8.83c-5.44,4.56-7.33,10.59-6.08,17.47.8,4.37,5.83,7.84,10.12,7.71,9.39-.29,13.88-5.7,21-10.74,2.31-1.64,3.13-1,5.91-.13,1.76.52,3.51,1.09,5.22,1.75a10.57,10.57,0,0,1,2.14.89q3,2-.87-1.68v-5.58l-.23.92,2.7-4.63-.68.55,7.42-3.08c-2-.18-5.47-2.35-7.36-3.37-3.41-1.84-6.56-3.89-10.4-4.77-7.51-1.72-16.16.54-23.7,1.43l10.12,13.29c1.64-6.58,2.82-13.33,1-20a22.72,22.72,0,0,0-5-8.89,23.89,23.89,0,0,0-3-2.81c-.31-.24-1.11-1.38-.92-.62L130.34,87.42a45.35,45.35,0,0,1,7.78,9.08c5.19,8.1,20.53,5.72,19.57-5.3l-.77-8.85c-.15-1.74-.7-5.65-.5-6.34l-2.7,4.63-.18,0-5.3,1.43,1.22.13L139,71.76a9.29,9.29,0,0,1-.06,3.61l1.43-5.3.28-.16,4.63-2.7c1.82-.7,3,.68.63-.71a33,33,0,0,0-3.78-1.55c-2.37-1-4.71-2.06-7.05-3.13L132.53,81a75.91,75.91,0,0,0,23.36-9.85c3.15-2,6.22-4.12,9.48-5.92,1.6-.89,4.72-2.72,6.12-2.75,2.82-.07,6.65,2.15,9.59,2.85,4.29,1,8.67,1.79,13,2.6s9,1.59,13.46,2.21c3.26.45,7.75.18,10.78,1.55V53.56a12.61,12.61,0,0,0-5.2,4.89q-.82,1.68-1.5,3.44.59-1.2-.38.34L215,58.46c-3.78,2.41-7.3,4.09-10.31,7.7s-5.63,7.29-8.43,10.92l-9.44,12.25c-1.85,2.4-3.66,5.63-6.41,7-3.62,1.8-8.55,2.3-12.46,3.32-4.38,1.15-8.78,2.21-13.12,3.51a70.79,70.79,0,0,0-24.44,13.1l17.92,7.42c.08-8.23-.11-16.71-3.2-24.44-2.88-7.22-11.39-10.55-17.55-4.63-4.84,4.65-6.58,11.16-6.17,17.73.13,2.14.9,4.7.65,6.81-.47,3.94-1.76,6.34-.8,10.61,2.21,9.86,18.25,10.17,20.25,0,1.26-6.37,3.12-12.64,4.41-19,1.39-6.85,4.07-15.37,2.4-22.28-3-12.35-18.07-17.41-23.72-28.24l1.43,5.3v-.7l-3.08,7.42.49-.5-4.63,2.7c6.14-2.16,12.77-1.23,19.13-1.33,7.94-.12,14.63-2.52,21.61-6.1L144.1,55.14l-4.42,14c-4.07,12.92,16.2,18.45,20.25,5.58Z"/><path class="cls-1" d="M170.4,64c-2.74,4.15-4.43,9.44-5.74,14.22-1,3.74-.93,8.06-3.28,11.21-4.31,5.78.51,13.49,6.28,15.42,8.74,2.93,17.87,1.84,20.85-8.11,2.3-7.68,6.52-14,10.69-20.85,7-11.58-11.13-22.15-18.13-10.6-2.68,4.42-5.51,8.78-8,13.33a63.35,63.35,0,0,0-3.21,7,31.43,31.43,0,0,0-1.07,3.12c-.17.62-1.28,3.15-.29,1.72l6.28-4.83c2.33-.8,0-.53-1.56-1L179.51,100c5.54-7.43,3.94-17.75,9-25.44,3.13-4.73.94-11.61-3.77-14.37-5.13-3-11.23-1-14.37,3.77Z"/><path class="cls-2" d="M154.6,31.37A32.8,32.8,0,0,0,150.71,38l19.57,5.3c.33-2.83,3.52-6.64,4.45-9.48,1.09-3.32.48-7.49,2.33-10.3,6.47-9.85-8.68-21.84-16.49-12.72-8.3,9.68-11.12,21.66-17.66,32.32a15.86,15.86,0,0,1-1.57,2.37q2-1-.34-.2l-1.81.45-10.88,2.71c-5.79,1.45-12.89,4.45-19,3.49C99,50.28,91.88,61.13,99.13,69.45c3.88,4.46,10.17,6.27,13.82,10.7,2,2.37,3.28,5.51,5,8.06,2.17,3.18,4.56,6.23,7,9.2,6.55,7.91,21.27-.57,17.55-10.22-1-2.69-3.13-8.36-5.84-10-1.79-1.09,1.32,1.3-.26,1.4-.06,0,2.28-1.77,2.37-1.83,9.72-6.84,3.88-21.62-8.09-19.19q-.14.78-1.44.17l5.3,19.57q.38-.12.11,0l-7.42-3.08.54.57-2.7-4.63.13.83V65.36l-.24.83,2.7-4.63c-3,3.73-5.65,6.92-5.94,11.92s1.44,8.84,3.37,13.23c1.28,2.9.15,4.73,0,8-.09,1.82.38,3.72.19,5.52a23.1,23.1,0,0,1-1.89,5.83l20.25,5.58a27.07,27.07,0,0,0,.9-14.27c-2.23-10.77-17.2-9.17-20.25,0a268,268,0,0,0-7.93,29.34c-1.67,7.93,7.49,17.86,15.42,11.86a100.21,100.21,0,0,1,14.5-9.13L133.54,113q-.33,1.34-1.29,1.09c-4.59,2.39-6.3,8.56-4.3,13.11,2.2,5,7.11,7.12,12.39,6.08a24.62,24.62,0,0,0,7.89-3.13c11.56-7,1-25.13-10.6-18.13-1.61,1-1,.65-2.87,1l8.09,19.19a18.22,18.22,0,0,0,5.54-4.38c7.61-9-1.77-22.15-12.72-16.49a100.21,100.21,0,0,0-14.5,9.13l15.42,11.86A268,268,0,0,1,144.53,103H124.28c-.1-.48-.72,2.53-.9,3.11-1.69,5.41,2,11.45,7.33,12.92,6,1.64,10.82-2,12.92-7.33,2.44-6.15,2-11.74,2.68-18.06.39-3.52.88-6.65,0-10.18-.45-1.73-1.83-7.38-3.43-8.15a.5.5,0,0,0-.13-.24q-.85-1.2-1,2.34c-.21-.55,2.56-3.48,3-4.36a12.29,12.29,0,0,0-.41-11c-4.59-7.84-13.47-6.09-20.32-2.87-9.44,4.43-4.79,20.11,5.3,19.57a48.39,48.39,0,0,0,7-.92L128.2,58.61c-6,4.2-11.6,9.18-12.55,16.86a18.1,18.1,0,0,0,2.23,11.15c1.12,2,3.64,4.15,4.41,6.15l17.55-10.22c-4.48-5.41-7.28-12.12-12-17.26-4-4.35-10-6.27-13.82-10.7L103.76,72.15c9.24,1.45,17.55-.36,26.5-2.59,7.5-1.87,17.21-2.74,23.58-7.33,11.94-8.62,12.41-25.93,21.58-36.63L158.93,12.88c-3.18,4.84-2.46,10.19-4.45,15.32-2.06,5.29-4.53,9.22-5.2,15.06-1.17,10.16,15.43,14.6,19.57,5.3A32.8,32.8,0,0,1,172.74,42c3.43-4.52.72-11.74-3.77-14.37-5.39-3.15-10.93-.77-14.37,3.77Z"/><path class="cls-2" d="M151.08,48.23c-1.28-5.9,2.48-3.25-.65-2.32-1.87.56-4.11,2.88-5.73,4l-10.63,7.46c-9.61,6.74-3.93,21.89,8.09,19.19l4.07-.92c1.78-.4,3.58.14.58-.72l-6.28-4.83.41.76V60.29c-.75,1.3-2.56,2.6-3.62,3.68-6.88,7,0,21.42,10.22,17.55l11.31-4.27-8.09-19.19a144.24,144.24,0,0,0-12.23,8.26c-6.95,5.23-6.85,16.49,2.51,19.19a17.23,17.23,0,0,0,9.19.13,24.64,24.64,0,0,0,2.48-.88c1.74-.65,3.73-.58.64-1.11L148.73,66.1c-6.62,5.75-17,13.62-13.71,23.6,2.12,6.43,9.3,9.78,15.42,6.28A11.72,11.72,0,0,1,155,94.59L144.74,77l-10.85,9.78c-5,4.52-3.54,13.29,2.13,16.49a17.28,17.28,0,0,0,12.65,1.75,15.12,15.12,0,0,0,3.95-1.11q2-.37.58-.35-1.51-.47.33.23l-4.63-17.55L128.16,103c-7.21,5.81-1.13,18.18,7.42,17.92a24.64,24.64,0,0,0,9.18-2.08c2-.85,3.2-1.62,4.78-1.48l-9.07-15.8a73.8,73.8,0,0,1-6,6.83c-8.48,8.76,2.2,21.86,12.72,16.49,3.11-1.58,6.31-3.39,9.87-3.62l-7.42-17.92a36.79,36.79,0,0,1-6,6.1c-10.67,8-1.77,24.23,10.6,18.13,2.88-1.42,6-3.18,9.31-3.5l-7.42-17.92-3.44,3.36,14.85,14.85-2.57,1c13.48-.39,13.54-21.39,0-21a17.1,17.1,0,0,0-12.28,5.15c-9.63,9.52,5.17,24.3,14.85,14.85L171,121c6.06-5.92,1.9-18.86-7.42-17.92-7.28.73-13.39,3.16-19.91,6.37l10.6,18.13a58.06,58.06,0,0,0,10.25-9.39c2.74-3.3,4-7.33,2.17-11.47-1.59-3.61-5.4-6.72-9.6-6.45-7.49.48-13.85,3.11-20.47,6.49l12.72,16.49a116.56,116.56,0,0,0,9.3-11.08c5.28-7-2.11-15.16-9.07-15.8a18.49,18.49,0,0,0-8.5,1.37c-1.62.64-4.35,2.15-5.47,2.19L143,117.81l20.72-16.7c6.89-5.55,1.77-14.9-4.63-17.55-3.26-1.35-7-1.07-10.37-.32a35.26,35.26,0,0,0-3.41,1c-2.85.94-.78-.22,1.29,1l2.13,16.49,10.85-9.78c3.43-3.09,3.9-8.86,1.64-12.72-2.53-4.33-7.19-5.54-11.86-4.83a27.62,27.62,0,0,0-9.53,3.51l15.42,6.28-.39-1.18v5.58c-.71,2.06,3-2.32,3.52-2.87,1.68-1.62,3.42-3.18,5.18-4.71,5.65-4.91,3-16.25-4.63-17.55a20,20,0,0,0-9.3.17c-.86.24-1.67.63-2.51.94a15.85,15.85,0,0,1-1.87.68q-1.89.52,1.36.07l2.51,19.19a144.24,144.24,0,0,1,12.23-8.26c9.79-5.91,3.42-23.54-8.09-19.19L142,61.26l10.22,17.55c5.55-5.66,11.91-12.42,5.67-20.35-5.41-6.87-14.16-3.73-21.27-2.13l8.09,19.19c6.22-4.36,12.58-8.58,18.64-13.17,6.47-4.91,9.8-11.52,8-19.71-2.87-13.2-23.11-7.61-20.25,5.58Z"/><path class="cls-3" d="M242.68,27.64,298.21,1.37c.87-.41.11-1.71-.76-1.3L241.92,26.34c-.87.41-.11,1.71.76,1.3Z"/><path class="cls-3" d="M264.35,80.42c-.87.5,6.84,2.72,7.28,2.8,1.89.36,3.79.67,5.7.94a146.11,146.11,0,0,0,14.85,1.25c10,.36,20-.1,30-.57,1,0,1-1.55,0-1.5-10.91.51-21.85,1-32.77.45a127.58,127.58,0,0,1-17.35-2c-1.72-.33-6.69-2.54-8.11-1.38a.75.75,0,0,0-.12.91l.15.22a.77.77,0,0,0,1,.27l.14-.08a.75.75,0,0,0-.76-1.3Z"/><path class="cls-3" d="M257.3,127.63a54.62,54.62,0,0,1,12.46,18.52c.36.88,1.81.5,1.45-.4a56.43,56.43,0,0,0-12.84-19.18c-.69-.68-1.75.38-1.06,1.06Z"/><path class="cls-3" d="M107.81,21.53c-2.61-3.17-6.29-4.31-9.94-5.91A77.28,77.28,0,0,1,81.45,5.77c-.75-.59-1.82.47-1.06,1.06a80,80,0,0,0,12.8,8.25c4.49,2.29,10.28,3.52,13.56,7.51.61.75,1.67-.32,1.06-1.06Z"/><path class="cls-3" d="M70.59,75.4c-11.16,4.5-23.27,6.85-35.13,8.68C23.93,85.87,11.53,82,.5,86.54-.38,86.9,0,88.35.9,88c10.95-4.48,23.48-.65,35-2.45,11.87-1.87,24-4.18,35.13-8.68.88-.36.5-1.81-.4-1.45Z"/><path class="cls-3" d="M79.32,114.51A63,63,0,0,1,61,128.07c-.87.43-.11,1.72.76,1.3a64.09,64.09,0,0,0,18.6-13.8c.66-.7-.4-1.77-1.06-1.06Z"/><path class="cls-4" d="M167.51,5.39,153.22,26.91l-7.15,10.76c-2.94,4.43-5.35,9.14-10.77,10.85-7.26,2.29-15.21,2.89-22.69,4.2a121.17,121.17,0,0,0-22.73,5.86.76.76,0,0,0-.33,1.25c2.29,2.72,5.17,4.85,7.86,7.15A65.67,65.67,0,0,1,105,75.1c3.82,4.56,8.31,8.37,12.41,12.66,3,3.09,6.29,6.38,6.44,10.94.18,5.24-2,11.23-3,16.39-2,10.31-3.68,20.68-4.83,31.12-.11,1,1.39,1,1.5,0,1.35-12.2,3.45-24.28,5.88-36.3C125,101.84,126.76,96,121,89.41c-4.27-4.86-9.36-8.88-13.57-13.78-2.59-3-4.93-6.21-7.91-8.85s-6.28-4.94-8.85-8L90.29,60c8.5-3.26,17.36-5,26.31-6.47,7-1.16,15.82-1.29,22.13-4.8,2.63-1.46,4.23-3.77,5.89-6.19,2.63-3.82,5.13-7.73,7.69-11.59L168.81,6.15c.54-.81-.76-1.56-1.3-.76Z"/><path class="cls-4" d="M117,146.93c6.9-2.9,13.24-7.13,20-10.35,8.18-3.88,16.86-8.66,25.53-11.22,5.43-1.6,11.38,2,16.24,4.18,3.82,1.68,7.6,3.45,11.39,5.2,8.35,3.87,16.71,7.65,25.38,10.75.57.21,1-.41.92-.92-1.86-8.69-3.89-17.35-5.76-26-1-4.75-2-9.51-2.89-14.29s-2.68-9.24.58-13.43c10.3-13.27,23.68-23.75,33.88-37.14.37-.48-.14-1.11-.65-1.13A285.6,285.6,0,0,1,211.06,50q-8-1.17-16-2.78c-3.36-.67-5.23-1-7.1-4.18-1.37-2.29-2.49-4.87-3.62-7.28-4.84-10.26-8.65-21.52-15.73-30.57-.59-.76-1.65.31-1.06,1.06C175.91,17,180.33,31,186.26,43c.62,1.26,1.14,3.38,2.16,4.32s4.67,1,6.24,1.35q8.4,1.68,16.89,2.91A286.51,286.51,0,0,0,241.62,54L241,52.92c-6,7.91-13,14.9-20,21.92-3.16,3.17-6.3,6.36-9.27,9.7-2.21,2.48-6.1,5.89-7,9.21-.71,2.52.79,5.76,1.23,8.26.83,4.76,1.78,9.5,2.78,14.22,2,9.59,4.29,19.14,6.34,28.73l.92-.92c-10-3.56-19.5-8.06-29.09-12.48-3.85-1.78-7.72-3.53-11.63-5.17-3.31-1.39-6.8-3.38-10.48-3s-7.19,2.42-10.56,3.88c-4.37,1.9-8.75,3.79-13.09,5.77-8.34,3.79-16.12,8.92-24.53,12.45-.88.37-.49,1.82.4,1.45Z"/><path class="cls-5" d="M385.91,81.11a1.5,1.5,0,0,0,0-3,1.5,1.5,0,0,0,0,3Z"/></g></g></svg>