<svg xmlns="http://www.w3.org/2000/svg" viewBox="0 0 114.56 245.46"><defs><style>.cls-1{fill:#e5e188;}.cls-2{fill:#4d4d4d;}</style></defs><title>Asset 9</title><g id="Layer_2" data-name="Layer 2"><g id="Layer_13" data-name="Layer 13"><path class="cls-1" d="M113,1.47C76.4,32.81,62.3,87.86,80.93,132.51c-8.3,9.2-17.22,20.69-14.11,32.68.84,3.25,5.05,5.87,4.21,9.13-5.55,21.5,23.86,57.05,42,69.48C55.66,247.8-1,187.08,1.69,122.75S33.86,15.3,113,1.47"/><path class="cls-2" d="M112,.41C82.76,25.75,67.45,65.65,72,104a112.79,112.79,0,0,0,2.16,12.41Q75,120,76,123.4c.6,2,3,6.14,2.89,8.17s-3.19,4.61-4.44,6.19a68.49,68.49,0,0,0-4.13,5.74,34.22,34.22,0,0,0-5.47,13.76c-.48,3.74-.2,7.74,1.77,11,1.68,2.8,2.78,3.88,2.54,7.51a49.52,49.52,0,0,0-.32,5.36c.29,7.45,3.12,14.66,6.49,21.22,8.45,16.46,21.69,32.11,36.89,42.73l.76-2.8C60.56,245.5,16,198.62,5.56,150.13c-4.82-22.34-2.45-47,4.24-68.77,5.73-18.64,16.09-35.45,31-48.13C61.18,15.92,87.5,7.53,113.41,2.92c1.9-.34,1.09-3.23-.8-2.89-24.37,4.33-48.87,12-68.87,27A103.12,103.12,0,0,0,9.2,73.82c-7.9,21.19-11.12,46-8,68.45,3.68,26.85,17,52.18,36.07,71.28,19.94,19.93,47.13,33.5,75.8,31.76a1.51,1.51,0,0,0,.76-2.8c-16.27-11.36-31.13-29.15-38.56-47.59a42.4,42.4,0,0,1-3.3-13.25c-.2-3.4,1.42-7.23.24-10.45-1.27-3.47-4-5.14-4.37-9.14a22.49,22.49,0,0,1,1.61-10.23C72.06,144.91,77.09,139,82,133.57a1.49,1.49,0,0,0,.39-1.46C64.14,87.51,77.86,34,114.07,2.53c1.46-1.27-.67-3.38-2.12-2.12Z"/></g><g id="I"><path class="cls-2" d="M33,104.35c6.05,10.47,18,11.47,27.41,4.68,1.55-1.12.05-3.73-1.51-2.59-8,5.79-18,5.57-23.31-3.6A1.5,1.5,0,0,0,33,104.35Z"/><path class="cls-2" d="M29.61,107.89c1.64-1.34,3.34-2.6,5.09-3.79,1.59-1.08.09-3.68-1.51-2.59q-2.94,2-5.7,4.26c-1.5,1.22.64,3.33,2.12,2.12Z"/><path class="cls-2" d="M36.19,107.26c-1.28,1.82-3.22,2.82-5.05,4-1.62,1-.12,3.63,1.51,2.59,2.32-1.47,4.52-2.78,6.13-5.07,1.11-1.58-1.49-3.08-2.59-1.51Z"/><path class="cls-2" d="M42.44,111.09l-1,5.92c-.31,1.89,2.58,2.7,2.89.8l1-5.92c.31-1.89-2.58-2.7-2.89-.8Z"/><path class="cls-2" d="M51.14,112.83c1,1.75,1.58,3.87,2.86,5.46a1.51,1.51,0,0,0,2.12,0,1.53,1.53,0,0,0,0-2.12c.15.19-.06-.14-.08-.17s-.17-.33-.26-.49c-.21-.42-.39-.85-.59-1.27a31.37,31.37,0,0,0-1.47-2.92,1.5,1.5,0,0,0-2.59,1.51Z"/><path class="cls-2" d="M58.5,109.54c1.11,1.59,2.65,2.85,3.55,4.55s3.49.19,2.59-1.51-2.44-3-3.55-4.55-3.7-.08-2.59,1.51Z"/></g></g></svg>