<svg xmlns="http://www.w3.org/2000/svg" viewBox="0 0 236.18 101.36"><defs><style>.cls-1{fill:#fcee21;}.cls-2{fill:#fff;}.cls-3{fill:#666;}</style></defs><title>nightmoon</title><g id="Layer_2" data-name="Layer 2"><g id="Layer_2-2" data-name="Layer 2"><path class="cls-1" d="M80.09,17.37C72.45,23.82,67.45,31.94,66.44,42c-.52,5.2-1.77,10.37-.84,15.58,1,5.57,3.91,10.65,3.86,16.39s8.95,5.8,9,0c0-4.35-1.11-8.3-2.43-12.41C74.29,56.17,74.26,52.27,75,46.7c.58-4.48.71-8.69,2.84-12.79a34.16,34.16,0,0,1,8.64-10.17c4.43-3.74-2-10.08-6.36-6.36Z"/><path class="cls-1" d="M103.83,90.9C98.31,86.85,91.69,84.59,86.2,80.5,79.07,75.17,79.49,66.11,80.29,58c.89-9,2.94-18.15,4.71-27.06s9.38-14.41,16.87-18.66L97.32,4.49C90,9.06,86.7,16.73,84.11,24.66,80.74,35,77.33,45.82,77.93,56.81c.86,15.73,8.44,32.5,21.36,41.87,4.7,3.4,9.19-4.4,4.54-7.77-10.17-7.37-16.23-21.82-16.9-34.1-.48-8.72,1.91-17.18,4.48-25.43,2.12-6.79,4-15.12,10.46-19.12,4.92-3,.52-10.64-4.54-7.77C88.91,9.26,80.61,15.58,77.26,25,75.44,30.16,75,36,73.94,41.36c-1.08,5.5-2.11,11-2.66,16.62-.91,9.22-.72,20,6.27,26.93,6.19,6.14,14.81,8.68,21.73,13.77C104,102.11,108.46,94.3,103.83,90.9Z"/><path class="cls-1" d="M7.24,54.39c9.65,0,9.67-15,0-15s-9.67,15,0,15Z"/><path class="cls-2" d="M161.45,75.58"/><path class="cls-1" d="M161.45,83.08c9.65,0,9.67-15,0-15s-9.67,15,0,15Z"/><path class="cls-1" d="M38.75,25.28c5.79,0,5.8-9,0-9s-5.8,9,0,9Z"/><path class="cls-1" d="M14.38,86.94c5.79,0,5.8-9,0-9s-5.8,9,0,9Z"/><path class="cls-1" d="M45.44,94.59c5.79,0,5.8-9,0-9s-5.8,9,0,9Z"/><path class="cls-2" d="M181.52,35.86"/><path class="cls-1" d="M181.52,40.36c5.79,0,5.8-9,0-9s-5.8,9,0,9Z"/><path class="cls-1" d="M124.78,65.91c5.79,0,5.8-9,0-9s-5.8,9,0,9Z"/><path class="cls-3" d="M113.84.06C95.28,7.81,85.23,27.64,85.41,47.15c.17,19.18,8.39,45.75,27.49,54.12l.58-1.37c-13.14-2.71-26.78-8.15-36.91-17.19C66.85,74,64.84,57.82,65.47,45.44c1.26-25,26.19-39.22,48.29-43.93.94-.2.54-1.65-.4-1.45C90.51,4.93,65.26,19.75,64,45.44c-.61,12.22,1.27,28.19,10.34,37.21,10.08,10,25.1,15.88,38.76,18.7.78.16,1.4-1,.58-1.37-18.12-7.93-26-32.77-26.71-51-.72-19.34,8.73-39.68,27.3-47.43.88-.37.49-1.82-.4-1.45Z"/><path class="cls-3" d="M158.62,68.3c-6.41,3.44-5.69,13.58,2.1,14.49,7.13.83,10.3-8.82,4.21-12.46a.75.75,0,0,0-.76,1.3c5,3,1.93,10.79-3.82,9.59-6-1.26-5.88-9-1-11.62.85-.46.09-1.75-.76-1.3Z"/><path class="cls-3" d="M179.4,30.9c-2.54-.07-4.26,2.44-3.94,4.85.41,3.1,4,4.38,6.69,4,2.57-.36,5.75-2.54,5.22-5.51-.42-2.38-3.57-3.75-5.34-1.93-.67.69.39,1.75,1.06,1.06.95-1,2.53-.09,2.8,1a2.87,2.87,0,0,1-1,2.48,5.55,5.55,0,0,1-4.32,1.4c-1.48-.14-3.2-.9-3.59-2.49a2.69,2.69,0,0,1,2.42-3.4.75.75,0,0,0,0-1.5Z"/><path class="cls-3" d="M38.2,17.2c-3.12,2.11-.31,8,3.27,6.46,3.31-1.42,1.66-7.4-1.9-6.94-.94.12-1,1.62,0,1.5,1.85-.24,3.14,2.9,1.52,4-1.84,1.2-3.86-2.51-2.14-3.68.79-.54,0-1.84-.76-1.3Z"/><path class="cls-3" d="M43.62,87.11a3.57,3.57,0,0,1,4.63,2.1A3.1,3.1,0,0,1,46,93c-3.81,1.23-5.37-4.28-2.17-6,.85-.45.1-1.75-.76-1.3a5,5,0,0,0-2.19,6.12,4.39,4.39,0,0,0,5.82,2.48,4.53,4.53,0,0,0,2.91-5.85,5.06,5.06,0,0,0-6.35-2.83c-.88.36-.5,1.81.4,1.45Z"/><path class="cls-3" d="M13.26,78.2A4.06,4.06,0,0,0,9.78,82,3.44,3.44,0,0,0,13,85.33a2.76,2.76,0,0,0,3.11-2.73,2.94,2.94,0,0,0-2.69-3.06c-1,0-1,1.45,0,1.5,1.78.08,1.5,3.37-.68,2.72a1.84,1.84,0,0,1-1.38-2.06,2.67,2.67,0,0,1,2.35-2.05c1-.13.55-1.58-.4-1.45Z"/><path class="cls-3" d="M125.48,56.14a5.65,5.65,0,0,0-5.77,5.26,4.68,4.68,0,0,0,4.9,4.52,3.79,3.79,0,0,0,3.92-4.56c-.59-2.48-3.13-4.24-5.57-3.19-.88.38-.12,1.67.76,1.3,1.59-.68,3.27,1,3.42,2.55.18,1.8-1.63,2.61-3.16,2.36a3,3,0,0,1-2.73-3.24,4.15,4.15,0,0,1,4.24-3.5c1,0,1-1.47,0-1.5Z"/><path class="cls-3" d="M6.51,42a5,5,0,0,0-3.89,5.4,5,5,0,0,0,5.06,4.27,4.86,4.86,0,0,0,4.48-4.31,4.55,4.55,0,0,0-4.86-4.64c-1,.08-1,1.58,0,1.5a3,3,0,0,1,3.32,3.37,3.4,3.4,0,0,1-3.38,2.59c-4-.19-4-5.82-.35-6.73A.75.75,0,0,0,6.51,42Z"/><path class="cls-2" d="M234.73,59.79a1.5,1.5,0,0,0,0-3,1.5,1.5,0,0,0,0,3Z"/></g></g></svg>