<svg xmlns="http://www.w3.org/2000/svg" viewBox="0 0 58.1 55.61"><defs><style>.cls-1{opacity:0.87;}.cls-2{fill:#fcee82;}</style></defs><title>Starr</title><g id="Layer_2" data-name="Layer 2"><g id="Слой_1" data-name="Слой 1"><g class="cls-1"><path class="cls-2" d="M48.14,17.6l-.36.16a2.37,2.37,0,0,0-.3-.17c-.88,0-1.78,0-2.75.11-.71.06-1.46.13-2.23.17-.23.23-.46.46-.68.69a2.61,2.61,0,0,0-.55-.39,2.42,2.42,0,0,0-.08-.28A7.67,7.67,0,0,1,38,17.2c-2.17-1.07-3.05-3.28-4.06-5.32-1.3-2.62-3-5-4.16-7.67a3.06,3.06,0,0,0-4.45,1.18,2.5,2.5,0,0,1-.13,1.73c-.23.52-.43,1-.62,1.54a4.23,4.23,0,0,0,.09.52,2.83,2.83,0,0,0-.31.15h0c-.87,2.45-1.54,4.76-3.08,6.58V16l-.08,0a8.43,8.43,0,0,1-1.79,1.55c0,.06-.07.11-.1.18l-.12,0a10.12,10.12,0,0,1-1.3.68A29.81,29.81,0,0,1,5.22,20.78a2.94,2.94,0,0,0-2,4.77A2.5,2.5,0,0,1,5,26.1l.86.67q1.09.09,2.15.07a3,3,0,0,0,.54,2A22.1,22.1,0,0,1,12,32a2.43,2.43,0,0,0,.64.11,3.39,3.39,0,0,0,.06.82,12.91,12.91,0,0,1,1.61,3.24,2.77,2.77,0,0,0,.58.37l-.33.46c.06.21.12.41.17.63a25.1,25.1,0,0,1,.58,4.19s0,.06,0,.08l0,0a25.69,25.69,0,0,1-.1,3.95A31.54,31.54,0,0,1,14,51.14a3.72,3.72,0,0,0,2.1,2c1.43-.93,2.83-2,4.24-3l.3-.38a3.07,3.07,0,0,0,.73-.93l1.48-1.89.87.38a2,2,0,0,0,.81.13,18.71,18.71,0,0,1,2.26-1,2.12,2.12,0,0,0,.33-.47c.07-.14.12-.26.17-.39a6,6,0,0,0,1.44-1.21,3.51,3.51,0,0,0,2.9.77c.44-.07.85-.15,1.26-.24a2.89,2.89,0,0,0,.6.84,12.73,12.73,0,0,1,2.8.79l.23,0a7.21,7.21,0,0,0,.88.33c.08.13.17.25.26.37a21.53,21.53,0,0,1,3.14,2.14l.51.1.12.17A3.06,3.06,0,0,0,45,50.73a36.87,36.87,0,0,1-1.3-6.16,19.93,19.93,0,0,1,0-4.22c-.14-.26-.29-.51-.44-.75a3,3,0,0,0-.27-1.7c-.37-.75.48.27,0-.3-.12-.43,1.3-2.7,1-3,0-.07.06.06,0,0,2.15-1.74,1.28-3.44,3.43-5.18a10,10,0,0,1,3.63-5.3c1.75-1.45,4.15-2.71,4.42-5.08A24.25,24.25,0,0,0,48.14,17.6Z"/></g><path d="M19.7,19.25c2.1-.65,2.38-2.57,3.17-4.52L28.29,1.41l-2.06.27L32.7,11.5c1.15,1.75,2.94,6.05,4.71,7,1.59.81,5.78,0,7.55.15a58.05,58.05,0,0,1,11.73,2.07l-.27-2.06a32,32,0,0,0-8.18,7.85c-1.81,2.27-4.42,4.71-5.5,7.42-2.35,5.91.93,14.75,3.22,20.15l1.54-1.54A68.16,68.16,0,0,0,38.6,47c-1.71-.87-6.45-3.73-8.45-3.53-2.19.22-4.7,2.49-6.55,3.59L12.76,53.5l1.65,1.27c.89-6.39,3.58-15.17.5-21.3C12.07,27.8,5.19,26,2.1,20.5L.56,22c2.14,1.11,4,.73,6.31.21,4.6-1.06,9.19-2.2,13.78-3.31,1.41-.34.81-2.51-.6-2.17L10.86,19c-2.68.64-6.58,2.46-9.17,1.12A1.13,1.13,0,0,0,.15,21.64C2.6,26,6.82,27.85,10.3,31.18c6.19,5.92,3,15.56,1.94,23a1.14,1.14,0,0,0,1.65,1.27L21.4,51c2.42-1.43,5.92-4.35,8.72-4.58,5.06-.43,12.26,5.18,16.25,8,1,.74,1.92-.64,1.54-1.54-2.67-6.3-5.6-15.24-1-21.15,3.16-4.06,6.19-8.46,10.64-11.19a1.14,1.14,0,0,0-.27-2.06c-5.65-1.55-11-1.33-16.69-2.24-3.39-.55-4.71-4-6.5-6.72l-5.93-9a1.14,1.14,0,0,0-2.06.27l-3.25,8c-.59,1.45-2.3,7.83-3.77,8.28s-.79,2.6.6,2.17Z"/></g></g></svg>