<svg xmlns="http://www.w3.org/2000/svg" viewBox="0 0 141.05 134.59"><defs><style>.cls-1{fill:none;stroke:#000;stroke-miterlimit:10;stroke-width:2px;opacity:0.49;}.cls-2{opacity:0.67;}.cls-3{fill:#fcee21;}.cls-4{opacity:0.19;}.cls-5{fill:#fbb03b;}</style></defs><title>Star</title><g id="Слой_2" data-name="Слой 2"><g id="Слой_1-2" data-name="Слой 1"><path class="cls-1" d="M121,139.83,83.14,121.06a2.76,2.76,0,0,0-2.57.06l-36.9,20.51a2.76,2.76,0,0,1-4.08-2.82L45.75,97a2.76,2.76,0,0,0-.85-2.43L14,65.86a2.76,2.76,0,0,1,1.42-4.75l41.63-7a2.76,2.76,0,0,0,2-1.56l17.8-38.29a2.76,2.76,0,0,1,5-.12L101.4,51.52A2.76,2.76,0,0,0,103.52,53l41.91,5.1a2.76,2.76,0,0,1,1.64,4.68L117.53,92.92a2.76,2.76,0,0,0-.74,2.46l8.1,41.44A2.76,2.76,0,0,1,121,139.83Z" transform="translate(-9.49 -9.98)"/><g class="cls-2"><path class="cls-3" d="M97,108.82a1.5,1.5,0,0,0,0-3,1.5,1.5,0,0,0,0,3Z" transform="translate(-9.49 -9.98)"/></g><g class="cls-4"><path class="cls-3" d="M73.11,48.39c-2.12,15.35-.76,30.6,5,45,1.41,3.5,4.25,5.91,8.23,5.37,3.38-.46,6.88-3.65,6.5-7.37l-7-70.39L71.12,23c5.18,15,11.41,30.24,26,38.36,13.45,7.51,29.47,7.85,44.46,7.32l-2-14.73a59.51,59.51,0,0,0-33.86,28.46c-3.19,6,3.81,15.06,10.26,10.26l20-14.9c7-5.2,2.77-15-5.78-13.71-13.87,2-21.26,15.53-22.63,28.29-1.57,14.61,1.74,30.31,6.78,44l5.24-9.23c-3.46.89-5.27-8-5.87-10.17-1.52-5.47-3.5-10.5-7.51-14.63-4.77-4.92-12.4-.94-12.8,5.3-.66,10.17,2.94,19.55,9.53,27.19l5.3-12.8c-8.07.23-14-7.4-20.79-10.8-7-3.51-15.54-5.35-22.76-1.49-3.7,2-5.25,5-7.89,8-1.73,2-3.94,2.7-6.37,3.58-6.87,2.49-12.61,5.35-15.15,12.66C32.49,141.93,45.6,147.65,49,139.8A145.86,145.86,0,0,0,58,111.74c1.76-8.59,2.79-17.49-.42-25.88-5.7-14.9-20-23.94-34.07-29.92L17.74,69.65C33,72,49.38,74.05,63.4,65.85A32.8,32.8,0,0,0,76.61,52c2.95-6.21,2.74-13.77,6.83-19.36l-14-3.79A105,105,0,0,1,65,50.26c-1.63,5.09-3.56,11.94-7.9,15.48C53,69.07,47.42,66.3,43,65.09c-6.45-1.76-12.31-2-18.43.93-4.35,2.1-4.79,8.63-1.52,11.78L44,98c5.51,5.3,11.37,11.89,19.85,10.19,7.74-1.56,12.73-8.67,16.48-15.07a69.82,69.82,0,0,0,8.58-23.86c1.11-6.71-4.83-11.28-11-8.47-14.35,6.52-24,21-25.46,36.61-.34,3.71-.73,8.66,1.64,11.73,2.83,3.66,8.12,4.33,12.05,2.11,7.19-4.05,10-15.29,12.72-22.52,3.1-8.34,6.45-17.55,7.2-26.47.69-8.17-4.81-16.8-14-15C63.22,49,60.18,57.3,60.18,65.42c0,8.75.25,18,2.91,26.42,2.37,7.51,6.78,15.7,15,17.77C87,111.81,94.35,105.81,99,99a53.78,53.78,0,0,0,9.18-24.12A12.94,12.94,0,0,0,92.38,60.65c-14.51,3.19-22.51,28.68-7.11,35.93,8.25,3.88,17.61-1.07,21.4-8.77,3.66-7.46,3.82-17.85,1.26-25.7-2.84-8.7-12.89-15.87-21-8.36-6.45,5.94-7.8,19.71-5,27.58,3.11,8.62,13,14.58,21.79,10,7.79-4,9.87-13.21,10.57-21.23L103,76.59c-1.83-1.27-1.82-4-2.26-.5-.16,1.29-.35,2.57-.53,3.86l-1.33,9.64-2.52,18.32,11-4.48A27.76,27.76,0,0,1,97.8,92.56c-2.78-5.35-9.94-4.34-13,0-4.54,6.56-5.65,14.29-4,22l12.54-7.3c-9.19-8.34-22.64-12.4-34.73-8.35-11.85,4-20.43,16.6-14.42,28.61,2.35,4.68,8.32,4.37,11.78,1.52A47,47,0,0,0,69.09,112c1.67-3.72,1-8-2.69-10.26-3.19-1.91-8.61-1-10.26,2.69a37.3,37.3,0,0,1-10.7,14l11.78,1.52c-1.95-3.88,6.67-7.17,9.15-7.46a21,21,0,0,1,16.43,5.38,7.56,7.56,0,0,0,12.54-7.3c-.86-3.94.22-7.19,2.46-10.44h-13a43,43,0,0,0,15,16.25c3.66,2.39,10.36.26,11-4.48l3.72-27c1.08-7.81,3.59-16-4-21.26C105.49,60.1,99.74,65,99.29,70.11c-.21,2.41-.53,5.51-2,7.52-.38.52.35,1-.45-.06-1.14-1.53-1.21-3-1.17-4.93a27,27,0,0,1,.76-5.21,22.16,22.16,0,0,1,.66-2.62q-1.13-1.89-4.31.11c-.08.23,1.31,3.67,1.38,4a29.27,29.27,0,0,1,.33,6.3c-.06,1.13-.59,8.45-3.29,7.74,1.24.33,1-2.63,1.58-4,.41-.92,2.76-3,2.85-3.72q-1.1.23-1.45-1Q93,72,93.1,74.94c-1,1.74-1.11,4.48-1.79,6.4a40.67,40.67,0,0,1-2.62,5.8c-.93,1.7-4,8-6.48,8-2.16,0-3.5-4-4.12-5.64-3-7.64-3.12-16.65-2.92-24.76a15,15,0,0,1,.12-2.32q.73-1.48-.42-.46c-4.08-6.32-3.64-1.49-3.85.22-.5,4.11-2,8.3-3.16,12.27-1.38,4.63-3,9.2-4.75,13.68-1,2.41-2.74,9.29-5,10.42l3.79-1-1,.06,3.79,1-.91-.48,3.71,6.48a30.34,30.34,0,0,1,18-30.85l-11-8.47a58.21,58.21,0,0,1-5.07,16.58C68.37,83.9,64,93.5,61.1,93.4c-1.38,0-4.17-3.84-5.06-4.69L49,82,33.65,67.19,32.13,79c2.28-1.1,5.33.16,7.58.78a66.36,66.36,0,0,0,10.51,2.39,21.75,21.75,0,0,0,19.07-7.51c10.39-12,13.63-30.53,15.17-45.76.33-3.25-2.57-6.39-5.51-7.23-3.41-1-6.5.75-8.47,3.45C64.22,33.66,66.57,45.8,57,52.15c-10.33,6.89-23.78,4.78-35.32,3-3.74-.57-7.28.63-8.85,4.34-1.3,3.08-.37,7.9,3.07,9.37,10.2,4.34,22.66,10.38,27.27,21.23,2.64,6.23,1.34,13.07-.06,19.43A127.85,127.85,0,0,1,36,132.23L49.71,138c.68-2,9.21-3.84,10.88-4.63A21,21,0,0,0,67.72,128c1.46-1.73,2.53-4.61,4.78-5.36,5.13-1.7,11.91,4.33,15.59,6.92,6.06,4.26,12.5,7.67,20.11,7.45,6.79-.2,9.51-7.92,5.3-12.8-4.07-4.72-5.54-10.46-5.14-16.59L95.57,113c4.76,4.91,4.33,13.57,8,19.39,4.34,7,11.75,11.41,20,9.27,3.68-1,6.63-5.45,5.24-9.23a100,100,0,0,1-6.55-32.83c-.15-8.71,1.74-19.5,11.92-21l-5.78-13.71-20,14.9L118.64,90a44.12,44.12,0,0,1,24.9-21.57c7.67-2.6,6.86-15-2-14.73-11.7.41-24.86.89-35.59-4.58-11.79-6-16.29-18.29-20.37-30.09C83,11.6,70,12.12,70.85,21.05l7,70.39,14.73-2c-4.72-11.77-6.79-24.44-5-37.07.56-4-1-8-5.24-9.23-3.5-1-8.67,1.23-9.23,5.24Z" transform="translate(-9.49 -9.98)"/></g><g class="cls-4"><path class="cls-3" d="M67,27.31,55.86,50.47l13,7.57L78.5,36.71l-14-3.79a17.09,17.09,0,0,1-4.22,9.73L72.84,50Q78.76,35.54,85.3,21.4h-13L75.07,26l-1-3.79.4,7c.56,9.81,14,9.47,15,0a15.29,15.29,0,0,0-1.09-7.69C86.08,16.15,78,13.51,74.65,19.8A222.51,222.51,0,0,1,52,54.57H62.58C57.67,49,49.93,51.63,43.73,52.87L19.91,57.63c-6,1.2-6.65,8.58-3.31,12.54L40.84,98.87c5.44,6.44,16.73-2.13,11.78-9.09a131.29,131.29,0,0,0-29.6-30C16.94,55.31,8.75,64,12.76,70A111,111,0,0,0,32.53,92.64c6,5.22,16.89-1.61,11.78-9.09L37.42,73.48,27.16,83.74A44.67,44.67,0,0,1,41.4,102.13c1.76,4.26,6.5,7.33,11,4.48l.51-.32c3.11-2,4-5,3.45-8.47-.39-2.61-2.07-4.31-4.2-5.65a7.47,7.47,0,0,0-7.57,0c-7.1,4.26-7.82,15.91-8.23,23.37-.22,4,3.61,7.5,7.5,7.5,4.5,0,7-3.47,7.5-7.5l2.3-17.29h-15a81.1,81.1,0,0,1-3.9,29l14.73,2a31.72,31.72,0,0,1,3.17-15l-14-3.79q-1.49,11.43-3.18,22.83c-.95,6.47,4.78,11.61,11,8.47l38.11-19.17L75.56,110.8A78.94,78.94,0,0,1,52.08,124l5.78,13.71,18.8-14-9.09-11.78a102.43,102.43,0,0,1-22.76,14.45l9.09,11.78a410,410,0,0,1,27.45-30.7c6.88-7-3.35-16.81-10.61-10.61L47.27,116.94l12.54,7.3A181.22,181.22,0,0,1,72.68,96.71l-13-7.57a62,62,0,0,1-11.19,16.27l12.54,7.3,4.49-19.79L51.86,94.71l.28.43V87.57l-.32.56,4.48-3.45-.61.15L63,86.75q1.33,2.91.77.64l-.49-2.85-1-5.69-2-11.39-14.46,4a18,18,0,0,0,7.52,10.37c4.62,3.33,11.49-1.13,11.29-6.48-.21-5.59-3.15-9.3-8.37-11.09L54.27,79A48.71,48.71,0,0,0,79.89,68.65L69.29,58l-15,13.32C48,77,56.21,87.61,63.42,83.15Q74.91,76,85.78,68l-11-8.47-4,11.19C69,75.78,74.81,82,80,79.93L95,74l-9.23-5.24,1.61,6.75c1.44,6,8.38,6.56,12.54,3.31s8.34-6.69,12.37-10.19L99.74,65.3A4.26,4.26,0,0,1,99.44,69c-3.88,7.43,5.53,15.21,11.78,9.09a14.43,14.43,0,0,1,6.47-3.79l-8.47-11-3.79,5.82c-3.89,6,2.51,12.05,8.47,11a49.1,49.1,0,0,0,13.81-4.73c4.74-2.39,4.3-8.27,1.52-11.78a10.24,10.24,0,0,0-9.09-3.75l2,14.73,15.58-4.39-7.3-12.54L97.63,88.71l11.78,9.09a35.46,35.46,0,0,1,12-12.16l-9.09-11.78-16.78,20c-6.16,7.35,4.4,18,10.61,10.61l16.78-20c5.17-6.17-1.38-16.55-9.09-11.78A51.65,51.65,0,0,0,96.46,90.23c-4.46,7.42,5.66,14.89,11.78,9.09L141,68.27c5.48-5.19-.19-14.54-7.3-12.54l-15.58,4.39c-7.82,2.2-6.66,15.79,2,14.73l-1.52-.64,1.52-11.78a35.88,35.88,0,0,1-10.23,3.22l8.47,11,3.79-5.82c3.6-5.53-2.36-12.79-8.47-11a30.38,30.38,0,0,0-13.09,7.64l11.78,9.09a20.27,20.27,0,0,0,1.81-15.25c-1.53-5.76-8.39-6.91-12.54-3.31s-8.16,6.9-12.37,10.19l12.54,3.31-1.61-6.75c-.86-3.63-5.54-6.7-9.23-5.24L76,65.46l9.23,9.23,4-11.19c2.08-5.87-5.79-12.33-11-8.47q-10.88,8-22.37,15.16L64.93,82l15-13.32c3-2.72,2.72-7.83,0-10.61-3.13-3.2-7.42-2.47-10.61,0a30.07,30.07,0,0,1-15,6c-8.29.87-10.34,11.88-2,14.73l-1.66-.91-1-3.79,0,1.32,11.29-6.48a1.79,1.79,0,0,1-.63-1.41c-2.57-9.47-16.09-5.37-14.46,4,1.23,7.07,1.61,15.12,3.92,21.91,2.37,6.95,11.6,8.35,15.34,1.77a7.49,7.49,0,0,0,0-7.57l-.28-.43C61.49,82,52.6,82.33,51.1,88.93l-4.49,19.79c-1.6,7,7.13,12.93,12.54,7.3A74.83,74.83,0,0,0,72.68,96.71c4.14-8.59-8.1-16.06-13-7.57a204.66,204.66,0,0,0-14.38,31.11c-2.8,7.65,7.39,11.7,12.54,7.3l23.46-20.06L70.74,96.87a410,410,0,0,0-27.45,30.7c-5.36,6.64,1.15,15.52,9.09,11.78a116.69,116.69,0,0,0,25.8-16.79c6.41-5.44-2.23-16.88-9.09-11.78l-18.8,14c-3,2.26-4.63,5.67-3.07,9.37,1.36,3.22,5.31,5.6,8.85,4.34a99.9,99.9,0,0,0,30.1-17.06c6.91-5.66-1.89-15.4-9.09-11.78L39,128.8l11,8.47q2-13.4,3.71-26.82c1-7.41-10.82-10.17-14-3.79a48.07,48.07,0,0,0-5.22,22.55c.16,8.58,12.14,10,14.73,2a93.61,93.61,0,0,0,4.43-33c-.44-9.93-13.76-9.33-15,0l-2.3,17.29h15a43.83,43.83,0,0,1,.77-6.49q.35-1.68.81-3.33,1.38-3-.78-.6H44.6l.64.4L41.79,101l.11.77,3.45-8.47-.51.32,11,4.48A63.6,63.6,0,0,0,34.73,70.79c-6-4.52-14.35,4.29-10.26,10.26l6.89,10.08L43.14,82A96.45,96.45,0,0,1,25.71,62.46L15.45,72.73A109.07,109.07,0,0,1,39.67,97.36l11.78-9.09L27.21,59.56,23.9,72.1l16.2-3.24,7.62-1.52,3.81-.76,1.91-.38q2.66-.28-1.46-1c2.48,2.8,8.18,3,10.61,0a242.43,242.43,0,0,0,25-37.8L73.89,25.58a5.5,5.5,0,0,1,.55,3.7h15a61,61,0,0,0-.53-8c-.53-2.74-2.21-5-3.61-7.44-2.64-4.5-10.53-5.26-13,0Q65,29.75,58.38,46c-2.86,7,7.81,12.72,12.54,7.3a34.31,34.31,0,0,0,8.61-20.34c.65-7.24-10.94-10.47-14-3.79L55.86,50.47c-1.69,3.72-1,8,2.69,10.26,3.26,2,8.51.95,10.26-2.69L80,34.88c4.17-8.66-8.76-16.27-13-7.57Z" transform="translate(-9.49 -9.98)"/></g><g class="cls-4"><path class="cls-3" d="M95.47,47.32l-.07-9.74-14,3.79L86,48c5.42,7.83,18,.84,13-7.57A164.07,164.07,0,0,1,87.18,16.71c-2.08-5.28-10.72-8.29-13.71-1.79A362.23,362.23,0,0,1,51.69,55.36c-5.17,8.29,7.52,15.41,13,7.57l5.45-7.87c5.1-7.37-5.7-14.38-11.78-9.09l-5.62,4.89c-2.43,2.11-2.5,2.06-5.39,2.8a145.47,145.47,0,0,0-15,4.69c-7.43,2.75-7,15.18,2,14.73l5.41-.27c9.58-.47,9.71-15.14,0-15l-19.87.28c-5.88.08-10.7,8.59-5.3,12.8a178.1,178.1,0,0,1,25,23.73c4.85,5.6,14.94-.33,12.54-7.3l-1.44-4.18c-3.13-9.05-17.54-5.22-14.46,4l2.65,7.94c3.12,9.33,15.93,5.42,14.46-4L50.88,75.66c-1.3-8.33-15.24-6.4-14.73,2L36.53,84c.54,8.89,11.53,9.62,14.73,2l.3-.71-3.45,4.48.6-.3-3.79,1,.77.05-3.79-1q-1.3-5.34-1.46-2.17-.17,1.16-.28,2.33A10.84,10.84,0,0,0,41,94.1c2.13,5.14,10.76,8.41,13.71,1.79A75.9,75.9,0,0,1,65,78.7L52.51,71.4,46.43,90c-2.63,8.06,9.7,13.27,13.71,5.78l4.43-8.29-14-3.79A15.32,15.32,0,0,1,47.48,91c-4.88,7,6.06,15.34,11.78,9.09l3.82-4.18-12.8-5.3.23,8.6,14-3.79L64.2,95v7.57l.29-.56L60,105.43l.6-.18-7.3-1.93q-1.48-3.47-.32.24l.74,2.87,1.72,6.7c1.15,4.46,7,7.19,11,4.48a16.52,16.52,0,0,0,7.47-10.34l-9.23,5.24-1.88-1.42A7.62,7.62,0,0,0,72,116.32l4.74-1.2-7.3-12.54a109.71,109.71,0,0,1-13.41,9.63l11.29,6.48,0-6.74-14.73,2c.52,3.64-5,7.53-7.26,9.46a50.35,50.35,0,0,0-9.62,10.06l13.71,5.78c2.66-13.14,4.7-26.38,6.19-39.7h-15l0,21.09c0,4.43,4.88,9.08,9.49,7.23a54.22,54.22,0,0,0,15.45-9.27l-12.54-7.3-6.31,15.14c-1.8,4.32,2.77,9.88,7.23,9.49A18.31,18.31,0,0,0,65.52,131L54.92,120.42a63.27,63.27,0,0,1-11.28,10l9.09,11.78a386.67,386.67,0,0,0,33.21-29.75L75.32,101.81,73,104.51c-4.46,5.13-1.26,12.19,5.3,12.8l.81.08-5.3-2.2-.14-.23-1-3.79,0,.83,1-3.79-.43.69,13,7.57L90,110.34l-14-3.79c.73,11.45,8.32,21.33,19.69,24,8.28,1.94,13.07-9.12,5.78-13.71l-8.68-5.47c-4.44-2.8-12,.76-11.29,6.48.49,4.25,1.77,7.33,5.73,9.42l7.57-13c-1.64-.85-1.65-1.08-2-2.95-1.62-9.5-16.08-5.47-14.46,4a16.69,16.69,0,0,0,8.86,11.91c8.54,4.46,16.13-8.44,7.57-13l.82,1,1,3.79-.15-1.28-11.29,6.48,8.68,5.47,5.78-13.71c-4.65-1.09-8.36-4.55-8.67-9.52-.47-7.33-9.92-10.32-14-3.79l-3.82,6.15c-5.11,8.23,7.84,15.74,13,7.57,4.12-6.59-.93-13.53-7.91-14.18l5.3,12.8,2.34-2.7c6.27-7.22-3.72-17.53-10.61-10.61a386.67,386.67,0,0,1-33.21,29.75c-6.62,5.28,2.07,16.56,9.09,11.78A79.56,79.56,0,0,0,65.52,131c6.49-7.17-3.44-17.11-10.61-10.61a.94.94,0,0,1-.94.53l7.23,9.49,6.31-15.14C70.69,107.69,60,103.74,55,108a32.37,32.37,0,0,1-8.83,5.41l9.49,7.23,0-21.09c0-9.88-14-9.37-15,0-1.34,12-3.26,23.89-5.65,35.71A7.54,7.54,0,0,0,48.75,141c3.45-5,9.25-8,13.1-12.69,4.52-5.51,6.29-11.32,5.29-18.38-1.21-8.54-14.67-6.21-14.73,2l0,6.74c0,5.6,6.43,9.46,11.29,6.48a135.43,135.43,0,0,0,16.44-12c6-5.06-.49-14.26-7.3-12.54l-4.74,1.2,9.23,5.24c-1.18-4.74-4.18-7.33-8.59-9.05-3.67-1.43-8.39,1.6-9.23,5.24a1.26,1.26,0,0,1-.57,1.37l11,4.48C68.64,104.2,68.1,96.72,64.29,93a8.2,8.2,0,0,0-13,1.95c-1.18,2.29-1.54,5.31,0,7.57l.29.42c4,5.82,14.19,4.1,14-3.79l-.23-8.6c-.17-6.2-8.26-10.27-12.8-5.3l-3.82,4.18,11.78,9.09A30.49,30.49,0,0,0,65.6,83.71c.8-7.52-10.63-10-14-3.79l-4.43,8.29L60.89,94,67,75.39c2.24-6.85-7.76-13.16-12.54-7.3A89.5,89.5,0,0,0,41.75,88.32l13.71,1.79c-.8-1.93.35-4.65-.27-6.89a10.82,10.82,0,0,0-4.88-6.29C44.66,73.56,39.13,76.48,36.8,82l14.73,2-.38-6.36-14.73,2,2.41,15.44,14.46-4-2.65-7.94-14.46,4,1.44,4.18L50.16,84a178.1,178.1,0,0,0-25-23.73l-5.3,12.8,19.87-.28v-15l-5.41.27,2,14.73C42.13,70.67,48,69.06,54,67.48s10.41-7,14.94-10.89L57.13,47.5l-5.45,7.87,13,7.57A362.23,362.23,0,0,0,86.43,22.49L72.72,20.69A187.94,187.94,0,0,0,86,48l13-7.57-4.57-6.6c-4.05-5.85-14-4.09-14,3.79l.07,9.74c.07,9.65,15.07,9.67,15,0Z" transform="translate(-9.49 -9.98)"/></g><g class="cls-4"><path class="cls-3" d="M124,68.53A117.84,117.84,0,0,0,89.12,101.1c-4.9,6.86,6.45,15.75,11.78,9.09a368.89,368.89,0,0,1,39.78-42.43L130.07,57.15,111.88,77.65c-6.38,7.19,4.11,17.8,10.61,10.61a113,113,0,0,1,11-10.61c3.42-2.89,2.73-9.92-1.52-11.78a73.87,73.87,0,0,0-23.74-6.14c-4-.36-7.5,3.7-7.5,7.5,0,4.45,3.46,7,7.5,7.5a25.93,25.93,0,0,0,10-.84c7.46-2,6.78-12.15,0-14.46l-15.69-5.36-2,14.73,10.49,0c9.65,0,9.66-14.92,0-15l-6.55-.05c-6.92-.06-10.91,10.95-3.79,14,6.9,2.93,13.94,4.13,21.37,2.47,3.29-.73,4.82-1.36,8.13-.33a18.37,18.37,0,0,0,10.55.63c8.21-2.11,6.47-14.76-2-14.73l-24.61.07c-6.64,0-12,.3-15-6.4L87.26,58.55a35.05,35.05,0,0,1,4.45,6.33c4.12,7.31,16.28,2.43,13.71-5.78a25.18,25.18,0,0,0-5.18-9.22L89.63,60.49l4.74,4.65c6.42,6.29,15.15-1.62,11.78-9.09L98.73,39.62C95.27,32,82,37.44,85,45.4A50.15,50.15,0,0,0,96.3,63.19c6.24,6.29,15.41-1.65,11.78-9.09l-.19-.39C106,49.91,101,49.32,97.63,51,86.33,56.67,99.83,71,93,79.1c-5.16,6.12,1.45,16.69,9.09,11.78a21,21,0,0,0,7-7.19l-13-7.57-3.08,6.23c-4.26,8.63,8.67,16.23,13,7.57l3.08-6.23c4.24-8.58-8-16-13-7.57a3.23,3.23,0,0,1-1.65,1.81l9.09,11.78A26.7,26.7,0,0,0,110.28,75c.61-5.84-1.56-12.1-2.73-17.8v4L105.2,64,94.94,61.28l.19.39,11.78-9.09a32.3,32.3,0,0,1-7.43-11.18L85.77,47.19,93.2,63.61,105,54.52l-4.74-4.65c-7-6.86-16.78,3.33-10.61,10.61A7,7,0,0,1,91,63.09l13.71-5.78a53.13,53.13,0,0,0-6.8-9.37c-6.09-6.8-15.06,1.85-11.78,9.09C89.78,65.19,97.62,70,106.37,70.71c10.63.91,21.64.11,32.31.08l-2-14.73c-1.08.28-3.79-1.13-5.28-1.5a18.81,18.81,0,0,0-8.46-.17c-5.22,1-9.48,2.65-14.75.41l-3.79,14,6.55.05v-15l-10.49,0c-8.72,0-9.83,12.05-2,14.73l15.69,5.36V59.43a14.63,14.63,0,0,1-6,.31v15a51.76,51.76,0,0,1,16.17,4.09L122.84,67a113,113,0,0,0-11,10.61l10.61,10.61,18.19-20.51c6.4-7.22-3.43-17.14-10.61-10.61A368.89,368.89,0,0,0,90.29,99.58l11.78,9.09a99.63,99.63,0,0,1,29.51-27.18c8.24-5,.71-18-7.57-13Z" transform="translate(-9.49 -9.98)"/></g><g class="cls-4"><path class="cls-3" d="M84,78.45A25.2,25.2,0,0,0,76.83,84l11.78,9.09a9.11,9.11,0,0,1,4.84-5.33L83.19,77.48A28.65,28.65,0,0,1,77,84.56l11.78,9.09A141.45,141.45,0,0,1,100,77.85L88.18,68.76a56.77,56.77,0,0,1-7.58,8.73l11.78,9.09,8.18-14.64c4.76-8.52-7.57-15.49-13-7.57A33.47,33.47,0,0,1,76.71,74.43l11,8.47a49.28,49.28,0,0,1,6.64-11.43L82.59,62.37A5.49,5.49,0,0,1,81,64.74c-6.71,7,3.55,17.19,10.61,10.61a18.19,18.19,0,0,0,5.55-9.69c1.41-6.57-7.52-13.68-12.54-7.3a47.35,47.35,0,0,0-7.79,14c-3.2,9.13,11.28,13.05,14.46,4A25.7,25.7,0,0,1,95.18,69l-12.54-7.3c-.4,1.84-.31,1.79-1.69,3.07L91.56,75.35a23.74,23.74,0,0,0,4-5.4c3.76-7.11-6.3-16.11-11.78-9.09a74.92,74.92,0,0,0-10.5,18.05c-2.59,6.29,5.84,11.53,11,8.47a50.57,50.57,0,0,0,16.27-15.44l-13-7.57L79.42,79C75.26,86.46,85,94,91.2,88.09a76.09,76.09,0,0,0,9.93-11.76c4.8-6.92-6.35-15.68-11.78-9.09A169.54,169.54,0,0,0,75.8,86.07c-4.7,7.63,5.55,14.35,11.78,9.09A41.42,41.42,0,0,0,96.15,85c4.15-6.75-3.87-13.45-10.26-10.26A21.43,21.43,0,0,0,75.66,85.49c-1.48,3.49-1.28,7.19,1.93,9.68,2.82,2.17,7.33,2.2,9.85-.59a13.26,13.26,0,0,1,4.16-3.19c8.59-4.41,1-17.36-7.57-13Z" transform="translate(-9.49 -9.98)"/></g><g class="cls-4"><path class="cls-3" d="M96,66.26a26.36,26.36,0,0,0-9.49,7.22L99,80.78a44.39,44.39,0,0,1,3.67-6.87l-13-7.57-3.15,6.57c-1.75,3.65-1,8.1,2.69,10.26,3.37,2,8.39.92,10.26-2.69a13.73,13.73,0,0,0,1.79-7.65c-.29-3.33-2.13-6.3-5.51-7.23A7.68,7.68,0,0,0,87.34,69a15.3,15.3,0,0,1-2.95,3.58l11.29,6.48-.39-7.48c-.27-5.19-6.35-10-11.29-6.48-4.38,3.12-6.51,7.79-5.16,13.14a7.5,7.5,0,1,0,14.46-4,3.89,3.89,0,0,1-1.73,3.8L80.29,71.62l.39,7.48c.26,5.05,6.42,10.17,11.29,6.48a31.51,31.51,0,0,0,8.33-9l-14-3.79c.13,1.55,0,.52.26.08l13,7.57,3.15-6.57c1.75-3.65,1-8.1-2.69-10.26a7.62,7.62,0,0,0-10.26,2.69,65.41,65.41,0,0,0-5.18,10.46c-2.78,6.88,7.89,12.91,12.54,7.3a14.85,14.85,0,0,1,6.45-4.88c3.7-1.65,4.57-7,2.69-10.26C104,65.13,99.67,64.6,96,66.26Z" transform="translate(-9.49 -9.98)"/></g><g class="cls-4"><path class="cls-3" d="M26,57.82H22.2c-9.65,0-9.67,15,0,15l6.81,0c6.55,0,9.83-8.2,5.3-12.8l-.4-.4a7.55,7.55,0,0,0-7.3-1.93,8.55,8.55,0,0,0-3.77,14.62c4.48,4.21,13.27,2.52,18.88,2.49,9.69-.06,9.61-14.55,0-15l-.2.11-5.3,12.8,9.54.09v-15l-3.32.08,2,14.73a13.78,13.78,0,0,0,6.83-4C57.92,61.62,47.33,51,40.66,58l-.21.16c-8.11,2.14-6.55,14.93,2,14.73l3.32-.08c9.64-.22,9.68-14.91,0-15l-9.54-.09c-6-.06-10.53,8.59-5.3,12.8a16.94,16.94,0,0,0,10.81,4.28v-15c-3.41,0-8.38.94-11.58,0l3.31,1.93L32.77,61l2.2,5.3,0-.69-2.2,5.3.5-.53L30,72.35l.62-.17-7.3-1.93.4.4L29,57.85l-6.81,0v15H26c9.65,0,9.67-15,0-15Z" transform="translate(-9.49 -9.98)"/></g><g class="cls-4"><path class="cls-3" d="M81.47,29.32l-.06-.72c-.64-8-12.58-10.68-14.73-2a124.78,124.78,0,0,1-3.81,12.53c-2.92,8.05,9.63,13.12,13.71,5.78l5.75-10.35-14-3.79.17,3.85c.4,8.8,11.71,9.74,14.73,2a74,74,0,0,0,4.09-15L73.64,23.46a5.36,5.36,0,0,1,.89,3.68l11-4.48-.12-.1,1.93,3.31-.31-1v4l.16-1-14.73-2L72.41,37c0,8.36,12.69,10.32,14.73,2l.13-.55-3.45,4.48.52-.3-3.79,1h.66l-3.79-1,.55.34-3.45-4.48.36,1.23v-4l-.2,1.35,14.73,2,0-3.48h-15A17.61,17.61,0,0,0,77.58,45c2.4,3.25,6.5,4.89,10.26,2.69,3.21-1.88,5.11-7,2.69-10.26a4.7,4.7,0,0,1-1.12-1.89c-.83-9.46-15.07-9.81-15,0l0,3.48c.06,8.13,13.43,10.61,14.73,2,.75-5-.33-10.6-5.95-12.15A8.59,8.59,0,0,0,72.68,35l14.73,2,.06-11.18c0-8.17-13.45-10.56-14.73-2-.72,4.79.51,9.59,5.23,11.8,3.95,1.85,10.12.69,11-4.48a21.73,21.73,0,0,0-2.4-15.24c-3-5.21-12.63-4.77-13.71,1.79a74,74,0,0,1-4.09,15l14.73,2-.17-3.85C83,23.63,73.13,20.22,69.37,27L63.62,37.35l13.71,5.78a124.78,124.78,0,0,0,3.81-12.53l-14.73-2,.06.72c.76,9.56,15.77,9.64,15,0Z" transform="translate(-9.49 -9.98)"/></g><g class="cls-4"><path class="cls-3" d="M48.44,117.61l.19.7,2.2-5.3,1.78-1.13,7.3,1.93-.62-.51c-4.45-3.71-10.59-2.3-12.54,3.31L42.44,129l14.73,2a44.35,44.35,0,0,1,5.4-17.49l-14-3.79a49.36,49.36,0,0,1-3.77,23.1l14.46,4a42.14,42.14,0,0,1,4-13.51l-11.78,1.52c1.39,1.16,1,.7,1.28,2.49.56,4,5.69,6.23,9.23,5.24,4.32-1.21,5.8-5.18,5.24-9.23a14.47,14.47,0,0,0-5.14-9.1c-3.45-2.9-9.43-3.12-11.78,1.52a53.78,53.78,0,0,0-5.53,17.09c-1.32,9.58,10.74,13,14.46,4a59.44,59.44,0,0,0,4.31-27.09c-.51-7-10.18-10.74-14-3.79A62.53,62.53,0,0,0,42.17,131c-.77,8.86,12.11,9.54,14.73,2l4.31-12.41-12.54,3.31c7.67,6.39,17.78-.86,14.22-10.27-3.38-8.94-17.89-5.07-14.46,4Z" transform="translate(-9.49 -9.98)"/></g><g class="cls-4"><path class="cls-5" d="M80.1,22.32l-.59-5.23c-.11-1-1.51-1.64-2.1-.57l-10,18.12,2.06.87a32.3,32.3,0,0,1,8-12.06l-1.77-1.36Q68.93,35.81,62,49.47c-.55,1.08.88,2.38,1.77,1.36a32,32,0,0,0,6-10.09l-2.17-.6a69.94,69.94,0,0,1-11.9,23c-.88,1.13.7,2.73,1.59,1.59a73,73,0,0,0,12.48-24c.43-1.41-1.67-1.93-2.17-.6a28.52,28.52,0,0,1-5.42,9.1l1.77,1.36q7-13.66,13.82-27.39A1.13,1.13,0,0,0,76,21.85a35,35,0,0,0-8.6,13.05c-.46,1.2,1.45,2,2.06.87l10-18.12-2.1-.57.59,5.23c.16,1.42,2.41,1.44,2.25,0Z" transform="translate(-9.49 -9.98)"/></g><g class="cls-4"><path d="M75.91,12.74l-10,21.53L60.87,45c-1.61,3.47-2.93,7.6-6.43,9.61a1.13,1.13,0,0,0,1.14,1.94C61.39,53.26,63.5,44.71,66.16,39L77.85,13.88c.61-1.3-1.33-2.45-1.94-1.14Z" transform="translate(-9.49 -9.98)"/></g><g class="cls-4"><path d="M19,62.45h2a1.13,1.13,0,0,0,0-2.25H19a1.13,1.13,0,0,0,0,2.25Z" transform="translate(-9.49 -9.98)"/></g><g class="cls-4"><path d="M11.74,65.62c1.67-4.51,10.55-4.52,14.36-5.19l15.69-2.77c7.12-1.26,15.77-1.16,20.37-7.56C63,48.93,61,47.81,60.21,49c-3.56,5-10.56,5-16.08,6L27.46,57.91c-5.54,1-15.52.7-17.89,7.11-.5,1.36,1.67,1.95,2.17.6Z" transform="translate(-9.49 -9.98)"/></g><g class="cls-4"><path d="M12.56,63.65,30.19,81c4.88,4.81,17,13.35,13.37,21.49-.58,1.31,1.36,2.46,1.94,1.14,3-6.77-2-12.68-6.67-17.28C30.65,78.2,22.38,70.15,14.15,62.05c-1-1-2.63.57-1.59,1.59Z" transform="translate(-9.49 -9.98)"/></g><g class="cls-4"><path d="M45.49,102.49l-.6-.3a1.19,1.19,0,0,0-1.36.18c-1.77,1.38-1.74,3.46-2.1,5.57q-1,5.8-2,11.6c-1.29,7.42-2.5,14.85-3.13,22.36A1.13,1.13,0,0,0,37.69,143c15.14-4,32.47-9.8,44.55-20.1,1-.84-.28-2.42-1.36-1.77q-10,6.06-20.25,11.65c-1.27.69-.14,2.64,1.14,1.94Q72,129.11,82,123.06l-1.36-1.77c-11.79,10.06-28.76,15.6-43.56,19.52l1.42,1.08c.56-6.67,1.59-13.26,2.72-19.85.27-1.58,3.7-17.33,3.12-17.61,1.29.64,2.44-1.3,1.14-1.94Z" transform="translate(-9.49 -9.98)"/></g><g class="cls-4"><path d="M82.67,121.76c5.07,6.22,12.95,7.36,20.22,9.53,5.14,1.53,8.62,4,12.84,7.19,2.28,1.72,5.06,3.19,8,2.36,7.57-2.14,2.25-14.49,1.24-19.24L121,103c-.72-3.36-.59-10.17-3.92-12.05a1.16,1.16,0,0,0-1.54.4l-.31.41a1.13,1.13,0,0,0,0,1.14l.26.55a1.12,1.12,0,0,0,1.27.52l.33-.13c1.33-.52.75-2.7-.6-2.17l1,.82-1.54.4c2.12,1.2,2.82,10.41,3.3,12.66l2.49,11.71c1,4.55,2,9.1,2.91,13.66.47,2.38,2,6.33-1.54,7.69-2.92,1.12-5.8-1.81-7.73-3.39-4.22-3.45-8.64-5.27-13.88-6.71-6.33-1.74-12.91-3.06-17.27-8.4-.92-1.12-2.5.48-1.59,1.59Z" transform="translate(-9.49 -9.98)"/></g><g class="cls-4"><path d="M119.23,93.25c5.66-7.52,13-11.82,20.16-17.61A32.58,32.58,0,0,0,150.49,59a1.13,1.13,0,0,0-2.17-.6c-2.73,9.23-8.76,14.49-16.41,19.79a62.48,62.48,0,0,0-14.62,13.88c-.87,1.16,1.08,2.28,1.94,1.14Z" transform="translate(-9.49 -9.98)"/></g><g class="cls-4"><path d="M77.65,13.82c3.06-4.67,6.49,4.6,7,5.68l2.53,5.3,5.91,12.36c1.77,3.7,3.29,7.8,5.5,11.25.59.92,3.92,5.26,5.32,4.13-1.13.91.47,2.49,1.59,1.59l.42-.34a1.08,1.08,0,0,0,.29-1.09,4.5,4.5,0,0,0-1.81-2.13,17.41,17.41,0,0,1-6-7.48Q94,33.82,89.55,24.54l-4.22-8.83c-.93-1.94-1.41-4.37-3.46-5.34-2.4-1.14-4.87.35-6.16,2.31-.8,1.21,1.15,2.34,1.94,1.14Z" transform="translate(-9.49 -9.98)"/></g><g class="cls-4"><path d="M104.74,54.4c1.2-2.25,11.79.35,13.94.65l10.49,1.47c6.58.92,13.09,1.88,19.37,4.14,1.37.49,2-1.68.6-2.17-9-3.22-18.58-4-28-5.34-4.49-.63-9.12-1.66-13.65-1.91-2.09-.11-3.71.09-4.74,2-.68,1.28,1.26,2.41,1.94,1.14Z" transform="translate(-9.49 -9.98)"/></g></g></g></svg>