<svg xmlns="http://www.w3.org/2000/svg" viewBox="0 0 105.56 133.66"><defs><style>.cls-1{opacity:0.53;}.cls-2{fill:#b3b3b3;}.cls-3{fill:#1a1a1a;}</style></defs><title>Asset 17</title><g id="Layer_2" data-name="Layer 2"><g id="Слой_1" data-name="Слой 1"><g class="cls-1"><path class="cls-2" d="M53.28,6.77,11.88,2.49C5.53,1.83-.63,9.8,1.75,15.78L23.09,69.17l19.19-8.09L27.67,30.26,9.54,40.86C15.61,53.6,20.84,66.68,26,79.81l7.8,19.86c2.53,6.44,6,13.26,6.29,20.28a10.79,10.79,0,0,0,7.71,10.12c4.09,1.12,10.06-.62,11.86-4.83L93.11,47.14c5.32-12.41-10-21.6-18.13-10.6C69.44,44,66.77,52.75,66.15,62c-.79,11.67,18.5,14.49,20.62,2.79,1.54-8.44,5.87-15.59,9.28-23.35a81.88,81.88,0,0,0,6.85-27.93C103.27,8,97.79,2.69,92.4,3Q61.8,4.71,31.15,4C25,3.82,18.41,10.91,21,17.26A330.43,330.43,0,0,1,40,81c1.6,8.36,15.69,10.78,19.19,2.51Q69.85,58.33,81,33.35c1.93-4.33,1.91-9.17-1.64-12.72A10.73,10.73,0,0,0,66.58,19a29.74,29.74,0,0,1-16.31,3.93c-8.67-.27-12.12,9-9.07,15.8L46.15,49.8C48.47,55,56,56.2,60.52,53.56c5.33-3.12,6.09-9.17,3.77-14.37L59.34,28.12l-9.07,15.8a50.6,50.6,0,0,0,26.91-6.8L62.82,22.75q-11.1,25-21.76,50.14L60.24,75.4a330.43,330.43,0,0,0-19-63.72L31.15,25q30.64.75,61.25-1L81.9,13.49a59.63,59.63,0,0,1-6.12,22c-3.69,7.66-7.72,15.29-9.25,23.73L87.15,62c.38-5.63,2.64-10.35,6-14.83L75,36.54,41.53,114.65l19.57,5.3c-.34-8.24-3-15.56-6-23.15L46.25,74.22c-5.82-14.81-11.72-29.6-18.58-44-2.44-5.12-9.76-6.46-14.37-3.77C8.06,29.57,7.1,35.72,9.54,40.86L24.15,71.68c5,10.61,23.63,3,19.19-8.09L22,10.2,11.88,23.49l41.4,4.28c5.65.58,10.5-5.24,10.5-10.5,0-6.16-4.83-9.91-10.5-10.5Z"/></g><g class="cls-1"><path class="cls-2" d="M81.19,10.58,48.24,7.11c-11.1-1.17-21.8-1.93-32.87,0C9.32,8.15,7.27,14.87,8,20c1.26,8.45,5.66,16,9.17,23.71q4.88,10.7,9,21.73A369.15,369.15,0,0,1,40.42,114c1.88,8.48,11.82,9.16,17.55,4.63,12.28-9.7,9.7-28.11,15.29-41.33C79.64,62.2,88.71,48.48,88.5,31.5,88.43,26,83.74,20.83,78,21L41,22.14c-8.74.27-14.3,11.5-7.42,17.92l9.3,8.69c1.33,1.24,2.69,2.46,4,3.72a27.44,27.44,0,0,1,2,2.07,1.26,1.26,0,0,0-.79-1.16h21a46.65,46.65,0,0,0-1.11-12c-1.53-7.24-12.67-10.75-17.55-4.63-6.48,8.14-8.93,17.14-6.8,27.41,2.25,10.83,17.14,9.1,20.25,0A21.41,21.41,0,0,0,65,54.82c-.64-5.63-4.37-10.5-10.5-10.5-5.18,0-11.15,4.83-10.5,10.5.23,2.05.33,1.82-.34,3.78H63.88a8.89,8.89,0,0,1,1.4-7L47.73,47a24,24,0,0,1,.36,6.4c-.27,5.67,5,10.5,10.5,10.5,6.06,0,10-4.82,10.5-10.5,1-12-12.93-20.94-20.67-28.17L41,43.14,78,42,67.5,31.5c.17,13.6-8.31,25.57-13.44,37.67A79.63,79.63,0,0,0,48.41,89.1c-.82,5.57-1,11.28-5.29,14.65l17.55,4.63a367.83,367.83,0,0,0-14.25-48.5C43.48,52,40.28,44.23,36.87,36.55c-3.21-7.24-7.41-14.18-8.59-22.11L21,27.35c9.58-1.66,19.65,0,29.23,1l31,3.27c5.65.59,10.5-5.25,10.5-10.5,0-6.17-4.84-9.9-10.5-10.5Z"/></g></g><g id="Layer_2-2" data-name="Layer 2"><path class="cls-3" d="M102.24.25Q58.41,2.41,14.52.26C9.78,0,5.68-.94,2.79,3.38s-3.15,10.08-2.5,15C2,31.06,8.47,43.55,13.07,55.39L28.9,96.1l7.2,18.51c2,5.18,3.47,12.22,7.26,16.52,12.44,14.15,32.73-35.45,36.06-43,11.64-26.33,27.54-54.38,26-84a1.54,1.54,0,0,0-1.1-1.45L101,1.89c-1.88-.43-2.68,2.46-.8,2.89l3.32.77-1.1-1.45C103.69,28.53,92.53,51,82.93,72.8c-4.44,10.08-8.71,20.27-13.63,30.14a151.58,151.58,0,0,1-7.45,13.39c-1.36,2.15-2.79,4.26-4.3,6.31-1.68,2.28-4.25,6.56-7,7.72-6.36,2.71-9.32-10.73-10.86-14.69l-7.2-18.51L18.84,62C14.56,51,10,40,6.09,28.89,4.34,23.87,2.74,18.52,3,13.15c.12-2.52.55-6.37,2.37-8.26,2.94-3,9.34-1.61,13.08-1.44q41.87,1.91,83.78-.2c1.92-.09,1.93-3.1,0-3Z"/></g></g></svg>