<svg xmlns="http://www.w3.org/2000/svg" viewBox="0 0 75.78 79.42"><defs><style>.cls-1{opacity:0.39;}.cls-2{fill:#662d91;}.cls-3{fill:#4d4d4d;}.cls-4{fill:#fff;}</style></defs><title>whatsApp</title><g id="Layer_2" data-name="Layer 2"><g id="Слой_1" data-name="Слой 1"><g class="cls-1"><path class="cls-2" d="M4.11,25.27c-6.74,18.19,2.48,40.83,20,49.1C29,76.67,34.69,76.5,38.7,72.5c3.47-3.47,5-10.34,1.88-14.54C35.13,50.69,30.71,42,30.06,32.82c-.22-3.18,0-2.91,2.69-4.16a45.66,45.66,0,0,1,11.61-3.15,38.76,38.76,0,0,1,5,0c-1.2-.12,2.07.63,1.6.41,1,.45-.43-.77.88.62-.87-.93.2.21.32.7-.42-1.66-.32.37-.57,1.17a6,6,0,0,1-1.26,2.52,13.09,13.09,0,0,1-4,3.16c-4,2.3-8.68,3.37-13.17,4.54C25.23,40.67,22.6,49.45,26,56.23l3.77,7.6c2.88,5.8,11.1,7.42,16.42,4.31,6-3.51,7.07-10.53,4.31-16.42A20.06,20.06,0,0,1,51,34.39L32.15,36.82,30.5,30.94c-1.28,6.35,1.83,13,8.38,14.76,5.92,1.63,13.47-2,14.76-8.38,1.38-6.84-.16-12.16-4.53-17.47-4.79-5.84-15.55-4-18.85,2.43-6.91,13.43-6.91,28-.53,41.55L50.47,51.72l-3.77-7.6L39.52,61.75c15.39-4,31.59-11.19,35.52-28.3,4.19-18.2-10.15-31.87-27.64-32C33.23,1.3,13.88,7,8,21.14,4.58,29.36,6.17,39,8.58,47.33A71,71,0,0,0,19.85,70.07L36.27,53.65c-9.27-4.36-12.29-13.16-9-22,2.25-6.08-2.52-13.15-8.38-14.76C12.16,15,6.37,19.17,4.11,25.27Z"/></g><path class="cls-3" d="M9.65,55.32c-3.89-3-6.13-9.65-7.22-14.14a31.93,31.93,0,0,1,2-20.9C12.2,3.31,33.28-2.58,50.1,4.2,61.84,8.93,70.26,21.35,69,34c-1.15,11.17-7.32,22.21-17.53,27.39a30.83,30.83,0,0,1-11.15,3.12,39.11,39.11,0,0,1-5.36.11c-2.06-.1-4.61-1.06-6.55-.78-7,1-13.64,8.95-17.34,14.49l1.37.58C15,71.23,17.54,60.55,9.5,55.21c-.81-.54-1.56.76-.76,1.3,7.38,4.91,4.6,15.09,2.22,22-.29.84.92,1.25,1.37.58A37.08,37.08,0,0,1,23.61,67.74c5-3.06,9.5-1.38,14.94-1.61A32.21,32.21,0,0,0,57,59.62c8.63-6.69,13.5-17.91,13.65-28.73C70.82,17.75,59.79,5.21,47.47,1.67,31.12-3,12.21,2.13,4,17.74A33.61,33.61,0,0,0,.33,38.23c.81,5.72,3.4,14.38,8.26,18.16C9.34,57,10.41,55.92,9.65,55.32Z"/><path class="cls-4" d="M31.32,16.94l1.84,3.15c-1.55-2.95-4.76-6.39-7.52-4.54A5,5,0,0,0,24.34,17a14.54,14.54,0,0,0-1.83,12.27c1.28,4.06,4.32,7.27,7.27,10.34,2.7,2.8,5.5,5.68,9.11,7.13s8.25,1.09,10.73-1.9c3.25-3.91-.21-11.21-5.28-10.73,2.38,1.81.83,6.46-2.15,6.48A70,70,0,0,1,27.54,23.43a4.83,4.83,0,0,0,6.15-4.29l-2.2,1.78"/><path class="cls-3" d="M30.68,17.32l1.84,3.15a.75.75,0,0,0,1.3-.76c-3.48-5.94-8.85-7.44-11.67-.1-3.73,9.72,3.88,18.07,10.69,24,4.5,3.93,13.47,7.67,17.73,1.12,3.09-4.75-.76-11.36-6.22-11.42a.76.76,0,0,0-.53,1.28q-.81,6.32-3.05,3.7-1-.87-1.9-1.79-1.86-1.83-3.59-3.8a73.45,73.45,0,0,1-7.09-9.66l-.85,1.1a5.69,5.69,0,0,0,7.08-4.82.76.76,0,0,0-1.25-.73L31,20.39c-.75.61.32,1.66,1.06,1.06l2.2-1.78L33,18.94l-5.23,3.77a.76.76,0,0,0-.85,1.1,75.76,75.76,0,0,0,7.9,10.62c1.49,1.65,5.11,6.62,7.5,6.87,4.1.43,4.62-5.56,2.58-7.75l-.53,1.28c7.21.08,7.5,10.26.77,11.76-5.81,1.29-10.52-3.16-14.22-6.94-3.41-3.49-7-7.12-7.95-12.08-.55-2.83-.45-6.36,1.22-8.85,2.72-4,6.51-1.4,8.35,1.75l1.3-.76L32,16.56a.75.75,0,0,0-1.3.76Z"/></g></g></svg>